<svg width="43" height="48" viewBox="0 0 43 48" fill="none" xmlns="http://www.w3.org/2000/svg">
<g clip-path="url(#clip0_2087_195)">
<path d="M20.6305 3.95216L19.6518 2.05426C19.0586 0.863254 17.6168 0.357778 16.4317 0.925153C16.2352 1.01911 16.0535 1.13968 15.8907 1.28365C14.9037 2.1579 14.8317 3.67695 15.7294 4.67661C15.8747 4.83831 16.0407 4.98046 16.2231 5.09881L18.2041 6.18961" fill="#C38155"/>
<path d="M18.5299 5.64648C18.6689 5.72143 18.7731 5.84899 18.8197 6.00138C18.8664 6.15377 18.8517 6.31866 18.7789 6.46013C18.706 6.6016 18.581 6.70819 18.4309 6.7567C18.2809 6.80521 18.118 6.79171 17.9777 6.71913L15.9782 5.66342L15.9406 5.64164C15.712 5.49884 15.5029 5.32625 15.3187 5.1283C14.1762 3.89999 14.2339 1.9906 15.4553 0.86996C15.6568 0.685142 15.8826 0.529547 16.1263 0.407631C17.5923 -0.326086 19.3942 0.270324 20.1585 1.74018L21.1658 3.61328C21.2407 3.75409 21.2575 3.91922 21.2125 4.07254C21.1675 4.22586 21.0644 4.35489 20.9257 4.4314C20.787 4.50791 20.6241 4.52567 20.4725 4.4808C20.3209 4.43592 20.1931 4.33207 20.1169 4.19195L19.1055 2.31159C18.6386 1.41334 17.5398 1.04961 16.6552 1.49238C16.5099 1.56497 16.3759 1.65731 16.2571 1.76659C15.5351 2.42893 15.5007 3.56005 16.188 4.29881C16.2959 4.41475 16.4178 4.51643 16.5509 4.60145L18.5299 5.64648Z" fill="#524F75"/>
<path d="M24.5552 45.347C26.4263 45.3804 30.5557 44.7508 32.2158 45.347C33.3227 45.7446 34.5716 46.3644 35.9624 47.2062L38.3385 44.7441C38.9928 43.3799 40.0758 40.5263 39.8449 39.3C39.5386 37.6743 36.4777 38.7697 34.7388 37.8598C33.4911 37.2071 31.7832 34.8316 31.0228 34.2412" fill="#C38155"/>
<path d="M37.8429 44.3928C38.6964 42.5873 39.4168 40.2569 39.2581 39.4141C39.1909 39.0572 38.7924 38.9417 37.3381 38.9013C37.1186 38.8962 36.8991 38.8886 36.6798 38.8785C35.7275 38.832 35.0539 38.7064 34.4645 38.3981C34.0244 38.1676 33.5499 37.7763 32.9961 37.2202C32.7566 36.978 32.5228 36.7302 32.2948 36.477C32.0982 36.2604 31.4449 35.5235 31.324 35.39C31.0091 35.0422 30.7979 34.8293 30.6596 34.7218C30.5348 34.6239 30.4533 34.4799 30.433 34.3214C30.4127 34.1628 30.4552 34.0025 30.5512 33.8756C30.6473 33.7487 30.789 33.6654 30.9455 33.6441C31.1019 33.6227 31.2604 33.665 31.3861 33.7617C31.5975 33.9258 31.843 34.1734 32.2041 34.5724C32.3308 34.7121 32.9832 35.4483 33.1736 35.6584C33.3892 35.8978 33.6104 36.132 33.8369 36.3608C34.3116 36.8375 34.705 37.1621 35.0125 37.3228C35.4124 37.5321 35.9425 37.6307 36.7371 37.6698C36.9107 37.6783 37.0427 37.6825 37.3705 37.6916C38.3188 37.718 38.7145 37.7503 39.157 37.8785C39.8446 38.0779 40.3024 38.5021 40.4312 39.187C40.6593 40.3982 39.8631 42.9496 38.8752 45.0088L38.8328 45.0971L36.0599 47.9705L35.6559 47.7257C34.2967 46.9031 33.0823 46.3006 32.0159 45.9175C31.3636 45.6832 30.1634 45.6445 28.3006 45.7512C27.9793 45.7697 27.66 45.7905 27.1962 45.8225C25.5027 45.9401 25.1078 45.9621 24.5444 45.9522C24.4658 45.9512 24.3881 45.9344 24.3159 45.9029C24.2437 45.8713 24.1783 45.8257 24.1236 45.7685C24.0688 45.7113 24.0257 45.6437 23.9968 45.5696C23.9679 45.4955 23.9538 45.4163 23.9552 45.3367C23.9566 45.257 23.9735 45.1784 24.0049 45.1054C24.0364 45.0324 24.0818 44.9664 24.1385 44.9112C24.1952 44.856 24.2621 44.8127 24.3354 44.7838C24.4087 44.7548 24.4869 44.7409 24.5655 44.7426C25.0779 44.7519 25.4708 44.7299 27.1148 44.6156C27.4875 44.5892 27.8604 44.5652 28.2333 44.5434C30.2641 44.4271 31.5557 44.4688 32.4155 44.7773C33.4523 45.1499 34.6009 45.7058 35.8623 46.445L37.8429 44.3928Z" fill="#524F75"/>
<path d="M37.1534 46.9869C36.3188 46.974 35.1609 46.6779 34.8669 46.1704C34.1121 44.867 34.5458 42.3249 34.8677 41.3547C35.1868 40.3936 36.1695 39.0298 37.4845 38.1775C38.5235 37.5041 40.2903 37.152 41.419 38.0073C42.5476 38.8624 41.9047 41.3438 41.1787 43.1669C40.2243 45.5639 38.5962 47.0089 37.1534 46.9869Z" fill="#C38155"/>
<path d="M37.1534 46.9866C36.3188 46.9737 35.1609 46.6775 34.8669 46.17C34.1121 44.8667 34.5458 42.3246 34.8677 41.3544C35.1867 40.3932 36.1695 39.0294 37.4844 38.1771C38.5235 37.5037 40.2903 37.1517 41.4189 38.007C42.5476 38.8621 41.9046 41.3435 41.1787 43.1666C40.2242 45.5635 38.5961 47.0086 37.1534 46.9866ZM42.2864 43.6188C42.744 42.4702 43.0667 41.3499 43.1806 40.3646C43.347 38.9252 43.0795 37.7541 42.1343 37.0382C40.6629 35.9232 38.4307 36.1278 36.8409 37.1579C35.4017 38.0905 34.1783 39.6337 33.7356 40.9691C33.1413 42.7613 32.99 45.3202 33.8368 46.7819C34.3794 47.7195 35.7921 48.1758 37.1353 48.1963C39.1991 48.2278 41.189 46.3747 42.2864 43.6188Z" fill="#524F75"/>
<path d="M41.2651 40.0955C40.8809 39.9169 40.435 40.1161 39.9234 40.3838C39.4115 40.6516 38.6075 41.3619 38.3095 41.9739C38.0593 42.4876 37.7004 43.3649 37.7358 44.3188C37.7534 44.7962 37.905 45.2969 38.3537 45.4842C38.7649 45.6558 39.3147 45.3842 39.5769 45.1162C39.8394 44.8486 40.3876 44.2246 40.7185 43.4659C41.0493 42.7074 41.2726 41.6978 41.3413 41.3442C41.4102 40.9897 41.6492 40.2738 41.2651 40.0955Z" fill="#FFDDAD"/>
<path d="M41.6658 37.9957L40.6785 39.2438C40.5795 39.369 40.4355 39.4493 40.278 39.4669C40.1206 39.4846 39.9627 39.4382 39.8391 39.3379C39.7154 39.2377 39.6362 39.0918 39.6188 38.9323C39.6013 38.7729 39.6471 38.6129 39.7461 38.4877L40.7334 37.2392C40.8325 37.114 40.9766 37.0338 41.134 37.0162C41.2914 36.9987 41.4493 37.0451 41.5729 37.1454C41.6341 37.1951 41.6851 37.2564 41.7229 37.326C41.7607 37.3956 41.7846 37.4721 41.7933 37.5511C41.8019 37.63 41.7951 37.7099 41.7732 37.7862C41.7514 37.8625 41.7149 37.9337 41.6658 37.9957ZM40.0081 37.7005L39.3988 38.5627C39.3066 38.6931 39.1669 38.7811 39.0107 38.8073C38.8544 38.8335 38.6942 38.7957 38.5654 38.7023C38.4367 38.6089 38.3498 38.4675 38.3239 38.3092C38.2981 38.1509 38.3354 37.9887 38.4276 37.8582L39.0371 36.9962C39.0824 36.9307 39.14 36.875 39.2067 36.8322C39.2734 36.7894 39.3479 36.7604 39.4257 36.7469C39.5035 36.7335 39.5832 36.7357 39.6601 36.7537C39.7371 36.7716 39.8098 36.8048 39.874 36.8514C39.9382 36.8979 39.9926 36.9569 40.0341 37.0249C40.0757 37.0929 40.1035 37.1686 40.116 37.2476C40.1284 37.3266 40.1253 37.4073 40.1068 37.485C40.0883 37.5627 40.0547 37.636 40.0081 37.7005Z" fill="#524F75"/>
<path d="M29.3861 21.4906C31.1587 26.2425 32.0873 29.7004 32.1721 31.8637C32.2398 33.5912 32.0523 35.8422 31.61 38.6163C30.9555 42.7186 27.4589 45.7337 23.3566 45.7337H15.4766C11.352 45.7337 8.0083 42.3468 8.0083 38.1689C8.0083 36.8086 8.37038 35.4732 9.05671 34.3036C9.61446 33.3533 10.0265 32.5401 10.2932 31.8635C11.0638 29.9085 11.4808 26.4087 11.5443 21.3642C9.14231 20.0169 7.53335 17.4085 7.57197 14.4367C7.63208 9.81587 11.0863 5.96683 15.6217 5.4666C17.1594 5.29703 18.4935 5.21053 19.6243 5.20711C20.9532 5.20307 22.6145 5.35994 24.6084 5.6777C29.0519 6.38621 32.4056 10.1383 32.6618 14.6872L32.6807 15.0223C32.8323 17.7166 31.4919 20.1478 29.3861 21.4906Z" fill="#C38155"/>
<path d="M32.6809 15.0221L32.662 14.687C32.4058 10.1381 29.0521 6.38621 24.6087 5.6775C22.6149 5.35994 20.9536 5.20307 19.6247 5.2071C18.4939 5.21053 17.1598 5.29703 15.6221 5.4666C11.0867 5.96683 7.63251 9.81587 7.57239 14.4367C7.53378 17.4085 9.14253 20.0171 11.5449 21.3644C11.4814 26.4091 11.0644 29.9087 10.2939 31.8637C10.0271 32.5401 9.61509 33.3535 9.05734 34.3038C8.37109 35.4733 8.0089 36.8086 8.00892 38.1691C8.00892 42.3468 11.3524 45.7337 15.477 45.7337H23.357C27.4593 45.7337 30.9559 42.7186 31.6104 38.6163C32.0529 35.8422 32.2402 33.5912 32.1725 31.8637C32.0877 29.7004 31.1591 26.2425 29.3866 21.4906C31.4923 20.1478 32.8328 17.7166 32.6809 15.0221ZM30.8245 21.9334C32.4315 26.3555 33.2804 29.6293 33.3662 31.8157C33.4373 33.6356 33.2438 35.9623 32.7896 38.8095C32.0413 43.4977 28.0457 46.9435 23.357 46.9435H15.477C10.6928 46.9435 6.8144 43.015 6.8144 38.1689C6.8144 36.5908 7.2344 35.0419 8.03042 33.6856C8.55871 32.7855 8.94348 32.026 9.18434 31.4151C9.85256 29.7198 10.2499 26.5714 10.3392 22.0362C9.10362 21.203 8.09375 20.0694 7.40185 18.7392C6.70994 17.4089 6.35803 15.9243 6.37827 14.4208C6.44634 9.18861 10.3574 4.83026 15.493 4.2639C17.0697 4.08989 18.4447 4.00077 19.6211 3.99714C21.0211 3.99311 22.7427 4.15562 24.7944 4.48266C29.7932 5.27969 33.5663 9.50073 33.8545 14.6182L33.8734 14.9533C33.9488 16.2784 33.7115 17.6026 33.1813 18.8164C32.6512 20.0302 31.8433 21.0986 30.8245 21.9334Z" fill="#524F75"/>
<path d="M24.4409 25.2323C25.0853 25.1224 25.8958 25.1847 26.8724 25.4184C27.6171 25.5966 28.3086 25.9534 28.8888 26.4588C29.469 26.9642 29.9208 27.6033 30.2063 28.3224C30.9532 30.2044 31.2936 32.1309 31.2275 34.1022C31.1717 35.7636 30.8473 37.4174 30.2543 39.0632C29.9185 39.9955 29.3078 40.8006 28.505 41.3695C27.7022 41.9384 26.7462 42.2435 25.7664 42.2435H22.7661C20.1045 42.2435 17.9468 40.0579 17.9468 37.3617C17.9468 37.0476 17.9766 36.7343 18.0362 36.426C18.2159 35.4931 18.3463 34.7184 18.4271 34.102C18.481 33.6909 18.4974 33.2137 18.4761 32.6701C18.3323 29.0235 20.8874 25.8372 24.4409 25.2323Z" fill="#FFDDAD"/>
<path d="M10.7288 22.247C12.0073 22.8929 13.2144 23.2761 14.3508 23.3919C14.5084 23.4079 14.6658 23.3599 14.7885 23.2583C14.9111 23.1568 14.9889 23.0101 15.0048 22.8504C15.0206 22.6908 14.9732 22.5313 14.8729 22.4071C14.7727 22.2828 14.6278 22.204 14.4702 22.188C13.4877 22.088 12.4178 21.7482 11.2617 21.1641C11.1915 21.1287 11.1151 21.1076 11.0368 21.1021C10.9586 21.0965 10.88 21.1067 10.8056 21.1319C10.7313 21.1571 10.6625 21.1969 10.6033 21.249C10.5441 21.3012 10.4957 21.3646 10.4607 21.4357C10.4257 21.5068 10.4049 21.5842 10.3994 21.6635C10.3939 21.7427 10.4039 21.8223 10.4288 21.8976C10.4537 21.973 10.493 22.0426 10.5445 22.1026C10.596 22.1625 10.6586 22.2116 10.7288 22.247Z" fill="#524F75"/>
<path d="M15.584 43.3673C14.748 44.8823 13.4852 45.7961 11.3949 46.2574C11.0458 46.3344 10.6966 46.4179 10.3395 46.4457L6.26729 46.66L4.88426 43.8845C2.97433 40.0515 4.54587 35.7416 8.38124 33.8326C9.25868 33.3959 10.0716 33.3616 11.0257 32.6484" fill="#C38155"/>
<path d="M5.41767 43.6121C3.67475 40.1143 5.07251 36.154 8.64494 34.3758C8.85514 34.271 9.06375 34.1895 9.38303 34.0813L9.53212 34.0311C10.4058 33.7389 10.8184 33.5556 11.3805 33.1354C11.5065 33.0396 11.59 32.8973 11.6128 32.7395C11.6357 32.5816 11.596 32.421 11.5025 32.2926C11.409 32.1643 11.2692 32.0785 11.1136 32.054C10.9579 32.0296 10.799 32.0684 10.6715 32.162C10.2378 32.4862 9.91948 32.6277 9.1577 32.8824C9.08664 32.9062 9.04763 32.9193 9.00403 32.9342C8.63837 33.0582 8.38577 33.1568 8.11824 33.2901C3.9588 35.3604 2.30406 40.0486 4.35154 44.1573L5.90993 47.2846L10.3709 47.0499C10.6898 47.0253 10.9203 46.9825 11.4152 46.8724C11.4691 46.8603 11.4932 46.8549 11.5227 46.8486C13.7389 46.3595 15.1678 45.3624 16.1059 43.6625C16.1442 43.5932 16.1686 43.5169 16.1777 43.438C16.1869 43.3591 16.1806 43.2791 16.1593 43.2027C16.1379 43.1262 16.1019 43.0548 16.0533 42.9925C16.0047 42.9301 15.9444 42.8781 15.876 42.8393C15.8075 42.8005 15.7322 42.7758 15.6543 42.7665C15.5764 42.7573 15.4975 42.7636 15.422 42.7852C15.3465 42.8069 15.276 42.8433 15.2144 42.8926C15.1529 42.9418 15.1015 43.0028 15.0632 43.0722C14.2999 44.4553 13.1639 45.2481 11.2683 45.6663L11.1588 45.6907C10.7181 45.7887 10.5242 45.8246 10.2941 45.8427L6.62533 46.0355L5.41767 43.6121Z" fill="#524F75"/>
<path d="M15.248 41.7013C15.248 41.8072 15.2686 41.9121 15.3086 42.01C15.3486 42.1079 15.4072 42.1968 15.4812 42.2717C15.5551 42.3467 15.6429 42.4061 15.7395 42.4466C15.8361 42.4872 15.9397 42.508 16.0443 42.508C16.1488 42.508 16.2524 42.4872 16.349 42.4466C16.4456 42.4061 16.5334 42.3467 16.6074 42.2717C16.6813 42.1968 16.7399 42.1079 16.7799 42.01C16.8199 41.9121 16.8405 41.8072 16.8405 41.7013C16.8405 41.5954 16.8199 41.4905 16.7799 41.3926C16.7399 41.2947 16.6813 41.2058 16.6074 41.1308C16.5334 41.0559 16.4456 40.9965 16.349 40.9559C16.2524 40.9154 16.1488 40.8945 16.0443 40.8945C15.9397 40.8945 15.8361 40.9154 15.7395 40.9559C15.6429 40.9965 15.5551 41.0559 15.4812 41.1308C15.4072 41.2058 15.3486 41.2947 15.3086 41.3926C15.2686 41.4905 15.248 41.5954 15.248 41.7013Z" fill="#524F75"/>
<path d="M6.27206 46.6771C8.56516 46.3094 10.07 43.7459 9.63289 40.952C9.37093 39.2766 8.73157 37.5001 7.55815 36.7446C6.77447 36.24 5.60801 36.4115 4.68977 36.5589C3.57427 36.7382 2.24061 36.859 1.63091 37.8512C0.987964 38.8982 1.10461 40.8499 1.32894 42.2841C1.76587 45.0782 3.97875 47.0447 6.27206 46.6771Z" fill="#C38155"/>
<path d="M6.27216 46.6779C8.56527 46.3101 10.0701 43.7466 9.633 40.9527C9.37104 39.2774 8.73168 37.5009 7.55825 36.7454C6.77458 36.2407 5.60812 36.4123 4.68988 36.5597C3.57438 36.7389 2.24072 36.8597 1.63102 37.8519C0.98807 38.8989 1.10472 40.8507 1.32905 42.2848C1.76598 45.079 3.97886 47.0454 6.27216 46.6779ZM6.45888 47.8727C3.46112 48.3538 0.682523 45.8845 0.149455 42.4744C-0.191325 40.2956 -0.137383 38.441 0.617231 37.2129C1.2339 36.2088 2.16986 35.7705 3.57378 35.5144C3.75891 35.4808 3.90541 35.4572 4.21872 35.4092C4.36542 35.3864 4.42693 35.3769 4.50297 35.3648C5.24047 35.2465 5.67341 35.1965 6.17841 35.1983C6.94835 35.2011 7.62056 35.3517 8.19881 35.7245C9.61329 36.6351 10.4581 38.4981 10.8124 40.7636C11.3459 44.1737 9.45663 47.3918 6.45908 47.8727H6.45888Z" fill="#524F75"/>
<path d="M5.01249 39.2027C6.30674 38.9634 7.54785 39.8324 7.78412 41.1434C7.80164 41.2402 7.81338 41.3379 7.81876 41.4361L7.92704 43.3086C7.95612 43.813 7.79906 44.3103 7.48637 44.704C7.17369 45.0976 6.72771 45.3594 6.23508 45.4386C5.73066 45.5195 5.21421 45.4183 4.77602 45.1526C4.33782 44.8869 4.00576 44.4736 3.83787 43.9851L3.24847 42.2693C2.82966 41.0506 3.46544 39.7189 4.66873 39.2951C4.78079 39.2549 4.89565 39.2245 5.01249 39.2027Z" fill="#FFDDAD"/>
<path d="M2.00594 37.1919L2.22331 38.6094C2.23402 38.689 2.26029 38.7657 2.30059 38.8349C2.3409 38.9042 2.39442 38.9646 2.45804 39.0126C2.52165 39.0607 2.59408 39.0954 2.6711 39.1148C2.74811 39.1341 2.82817 39.1378 2.90658 39.1254C2.985 39.1131 3.0602 39.0851 3.1278 39.043C3.19539 39.0009 3.25403 38.9455 3.30027 38.8802C3.34652 38.8149 3.37945 38.7409 3.39714 38.6625C3.41483 38.5842 3.41692 38.5031 3.4033 38.4239L3.18633 37.0064C3.15944 36.8503 3.07313 36.7111 2.94596 36.6187C2.81879 36.5263 2.66091 36.4882 2.50627 36.5125C2.35163 36.5368 2.21259 36.6216 2.11902 36.7486C2.02546 36.8757 1.98485 37.0349 2.00594 37.1919ZM6.18966 36.3469L6.52646 37.9527C6.54273 38.0304 6.57396 38.1041 6.61835 38.1696C6.66274 38.2351 6.71944 38.2911 6.78519 38.3344C6.85095 38.3776 6.92448 38.4074 7.00159 38.4219C7.0787 38.4364 7.15787 38.4354 7.2346 38.4189C7.31132 38.4024 7.38408 38.3708 7.44873 38.3259C7.51339 38.2809 7.56867 38.2235 7.61141 38.1568C7.65416 38.0902 7.68353 38.0158 7.69786 37.9377C7.71218 37.8596 7.71118 37.7794 7.69491 37.7016L7.35791 36.0959C7.32505 35.9389 7.23198 35.8016 7.09918 35.7142C6.96638 35.6268 6.80472 35.5963 6.64977 35.6296C6.49483 35.6629 6.35928 35.7572 6.27296 35.8917C6.18663 36.0262 6.1566 36.19 6.18946 36.3469H6.18966ZM3.91109 36.2834L4.24888 38.0968C4.28053 38.2522 4.37118 38.3888 4.5013 38.4771C4.63143 38.5654 4.7906 38.5984 4.94452 38.569C5.09844 38.5396 5.23477 38.45 5.32414 38.3197C5.41352 38.1894 5.44877 38.0288 5.42231 37.8724L5.08491 36.0592C5.05553 35.9015 4.96552 35.7621 4.83468 35.6717C4.70384 35.5812 4.54288 35.5471 4.38722 35.5769C4.23156 35.6067 4.09395 35.6978 4.00466 35.8304C3.91537 35.9629 3.88171 36.1259 3.91109 36.2836V36.2834Z" fill="#524F75"/>
<path d="M10.917 9.53063L8.39494 8.05956C7.03141 7.35145 6.44599 5.64449 7.08715 4.24661C7.19255 4.01611 7.32923 3.80166 7.49322 3.60947C8.4859 2.44771 10.2201 2.37129 11.3666 3.4385C11.5526 3.61174 11.7157 3.80869 11.8517 4.02442L13.1087 6.37215" fill="#C38155"/>
<path d="M12.5838 6.66197C12.6604 6.80094 12.788 6.90374 12.9389 6.9481C13.0898 6.99245 13.2518 6.97478 13.39 6.89891C13.5281 6.82304 13.6311 6.69509 13.6767 6.5428C13.7223 6.3905 13.7069 6.22613 13.6337 6.08532L12.3766 3.73739L12.3549 3.69988C12.1911 3.44014 11.9947 3.203 11.7707 2.99439C10.3791 1.69874 8.25739 1.7927 7.04197 3.21477C6.84154 3.44953 6.67445 3.71149 6.54553 3.99305C5.77121 5.68167 6.47088 7.7318 8.1091 8.59214L10.6194 10.0561C10.7564 10.1317 10.9171 10.1501 11.0672 10.1072C11.2174 10.0643 11.345 9.96366 11.4229 9.82672C11.5007 9.68979 11.5226 9.52745 11.4838 9.3744C11.445 9.22135 11.3487 9.08973 11.2153 9.00769L8.69292 7.53662L8.66745 7.52271C7.58897 6.96239 7.12338 5.60505 7.62878 4.50276C7.71159 4.3221 7.81788 4.15515 7.94468 4.00676C8.71462 3.10589 10.0612 3.04661 10.9625 3.88538C11.1051 4.01805 11.2313 4.16887 11.3376 4.3346L12.5838 6.66197Z" fill="#524F75"/>
<path d="M8.72507 5.1231L8.85903 4.93074C8.97035 4.7707 9.11811 4.64018 9.28979 4.55024C9.46147 4.4603 9.65201 4.41359 9.8453 4.41407C10.0386 4.41454 10.2289 4.46219 10.4001 4.55297C10.5714 4.64375 10.7185 4.77499 10.8291 4.93558L11.3643 5.71325C11.4984 5.90811 11.5576 6.14592 11.5305 6.38187C11.5035 6.61782 11.3922 6.83561 11.2176 6.99419C11.0291 7.1654 10.7957 7.27783 10.5456 7.31796C10.2955 7.35809 10.0393 7.32421 9.80773 7.22041L9.22748 6.96051C9.06282 6.88673 8.91637 6.77685 8.79871 6.6388C8.68104 6.50075 8.59509 6.33797 8.54704 6.1622C8.499 5.98643 8.49007 5.80206 8.52089 5.62237C8.55171 5.44267 8.62151 5.27215 8.72527 5.1231H8.72507Z" fill="#FF8D8D"/>
<path d="M30.2302 8.52206C30.3388 8.18358 30.3828 7.82753 30.3599 7.47423C30.3369 7.12094 30.2473 6.77732 30.0963 6.463C29.9452 6.14868 29.7357 5.86982 29.4796 5.64233C29.2234 5.41484 28.9258 5.24318 28.6036 5.13715C28.2814 5.03113 27.941 4.99282 27.6018 5.0244C27.2626 5.05598 26.9312 5.15685 26.6267 5.32123C26.3221 5.48561 26.0502 5.71029 25.8267 5.98245C25.6031 6.2546 25.4321 6.5689 25.3236 6.90739C25.215 7.24587 25.1709 7.60192 25.1939 7.95522C25.2169 8.30851 25.3065 8.65213 25.4575 8.96645C25.6086 9.28077 25.8181 9.55964 26.0742 9.78713C26.3303 10.0146 26.628 10.1863 26.9502 10.2923C27.2723 10.3983 27.6128 10.4366 27.952 10.4051C28.2912 10.3735 28.6225 10.2726 28.9271 10.1082C29.2317 9.94384 29.5035 9.71916 29.7271 9.447C29.9507 9.17485 30.1217 8.86055 30.2302 8.52206Z" fill="white"/>
<path d="M27.7797 11.0312C26.0203 11.0312 24.603 9.54223 24.603 7.7163C24.603 5.89017 26.0203 4.40137 27.7797 4.40137C29.5394 4.40137 30.9564 5.89038 30.9564 7.7163C30.9564 9.54223 29.5394 11.0312 27.7797 11.0312ZM27.7797 9.82148C28.8698 9.82148 29.7621 8.88372 29.7621 7.7163C29.7621 6.54868 28.8698 5.61112 27.7797 5.61112C26.6899 5.61112 25.7974 6.54868 25.7974 7.7163C25.7976 8.88372 26.6901 9.82148 27.7797 9.82148Z" fill="#524F75"/>
<path d="M28.2473 8.57596C28.3236 8.67 28.4194 8.74582 28.5279 8.798C28.6364 8.85018 28.755 8.87742 28.8752 8.87779C29.3332 8.87779 29.7042 8.48785 29.7042 8.00677C29.7042 7.52569 29.3332 7.13574 28.8752 7.13574C28.4227 7.13574 28.0549 7.51621 28.0459 7.98923L28.6608 8.08298L28.2473 8.57596Z" fill="#232323"/>
<path d="M19.0303 7.32442C19.0303 8.15328 19.3553 8.94819 19.934 9.53428C20.5126 10.1204 21.2973 10.4496 22.1156 10.4496C22.9339 10.4496 23.7187 10.1204 24.2973 9.53428C24.8759 8.94819 25.201 8.15328 25.201 7.32442C25.201 6.49557 24.8759 5.70066 24.2973 5.11457C23.7187 4.52848 22.9339 4.19922 22.1156 4.19922C21.2973 4.19922 20.5126 4.52848 19.934 5.11457C19.3553 5.70066 19.0303 6.49557 19.0303 7.32442Z" fill="white"/>
<path d="M22.1151 11.0549C20.0814 11.0549 18.4326 9.38482 18.4326 7.32481C18.4326 5.2648 20.0814 3.59473 22.1151 3.59473C24.1489 3.59473 25.7976 5.2648 25.7976 7.32481C25.7976 9.38482 24.1487 11.0549 22.1151 11.0549ZM22.1151 9.84513C23.4892 9.84513 24.6033 8.71663 24.6033 7.32481C24.6033 5.93298 23.4892 4.80448 22.1151 4.80448C20.741 4.80448 19.6269 5.93298 19.6269 7.32481C19.6269 8.71663 20.7408 9.84513 22.1151 9.84513Z" fill="#524F75"/>
<path d="M22.7353 8.54866C22.8825 8.72134 23.0848 8.83636 23.307 8.87375C23.5292 8.91114 23.7574 8.86853 23.9518 8.75334C24.1463 8.63814 24.2947 8.45762 24.3715 8.2431C24.4483 8.02858 24.4485 7.79361 24.3721 7.57896C24.2956 7.36432 24.1474 7.18355 23.9532 7.06803C23.7589 6.9525 23.5309 6.90952 23.3086 6.94653C23.0863 6.98355 22.8838 7.09823 22.7363 7.27067C22.5888 7.44311 22.5055 7.66242 22.501 7.89055L23.216 7.9958L22.7353 8.54866Z" fill="#232323"/>
<path d="M24.966 10.6523H27.6912C30.2823 10.6523 32.3827 12.7801 32.3827 15.4047C32.3827 15.6021 32.3704 15.7995 32.3463 15.9954C31.9689 19.0481 29.4065 21.3385 26.3693 21.3385H23.7728C21.1539 21.3385 19.0308 19.188 19.0308 16.5352C19.0308 16.3547 19.0407 16.1745 19.0608 15.9954C19.4006 12.9519 21.9421 10.6523 24.966 10.6523Z" fill="#FFDDAD"/>
<path d="M26.6269 15.1306C26.7386 16.1085 26.7386 17.0495 26.6275 17.9548C26.5187 18.8421 26.2814 19.5744 25.7429 20.6479C25.6072 20.9187 25.8078 21.1735 26.112 21.303C26.4161 21.4324 26.8618 20.9287 26.9954 20.6479C27.5732 19.4357 27.6875 19.1242 27.8125 18.1038C27.9353 17.1013 27.9353 16.0635 27.8131 14.9917C27.7919 14.8349 27.711 14.6927 27.5875 14.5957C27.4641 14.4987 27.3081 14.4546 27.1529 14.4728C26.9977 14.4909 26.8557 14.57 26.7574 14.693C26.6591 14.8159 26.6122 14.973 26.6269 15.1306Z" fill="#524F75"/>
<path d="M21.156 15.3763C21.164 15.3511 21.1672 15.3245 21.1651 15.2981C21.1631 15.2717 21.1559 15.246 21.144 15.2224C21.1322 15.1988 21.1158 15.1778 21.0959 15.1606C21.0761 15.1434 21.053 15.1304 21.0282 15.1222C21.0033 15.114 20.9771 15.1108 20.951 15.1129C20.925 15.115 20.8996 15.1223 20.8763 15.1343C20.853 15.1463 20.8322 15.1629 20.8153 15.183C20.7983 15.2032 20.7854 15.2265 20.7773 15.2517C20.7693 15.2769 20.7661 15.3034 20.7682 15.3298C20.7702 15.3562 20.7774 15.3819 20.7893 15.4055C20.8011 15.4291 20.8175 15.4501 20.8374 15.4673C20.8572 15.4845 20.8803 15.4976 20.9051 15.5058C20.93 15.514 20.9562 15.5171 20.9823 15.515C21.0083 15.5129 21.0337 15.5057 21.057 15.4937C21.0803 15.4816 21.101 15.4651 21.118 15.4449C21.135 15.4248 21.1479 15.4015 21.156 15.3763Z" fill="#CBA978"/>
<path d="M20.3825 16.7366C20.3906 16.7114 20.3937 16.6849 20.3917 16.6585C20.3896 16.6321 20.3825 16.6064 20.3706 16.5828C20.3587 16.5592 20.3424 16.5382 20.3225 16.521C20.3026 16.5038 20.2796 16.4907 20.2547 16.4825C20.2299 16.4743 20.2036 16.4712 20.1776 16.4733C20.1515 16.4754 20.1261 16.4826 20.1028 16.4946C20.0795 16.5067 20.0588 16.5232 20.0418 16.5434C20.0249 16.5635 20.012 16.5868 20.0039 16.612C19.9958 16.6372 19.9927 16.6638 19.9948 16.6902C19.9968 16.7166 20.004 16.7423 20.0158 16.7659C20.0277 16.7895 20.044 16.8105 20.0639 16.8277C20.0838 16.8449 20.1068 16.8579 20.1317 16.8661C20.1566 16.8743 20.1828 16.8774 20.2088 16.8754C20.2349 16.8733 20.2603 16.866 20.2836 16.854C20.3069 16.842 20.3276 16.8254 20.3446 16.8053C20.3616 16.7851 20.3744 16.7618 20.3825 16.7366Z" fill="#CBA978"/>
<path d="M21.3493 18.2903C21.3574 18.2652 21.3605 18.2386 21.3585 18.2122C21.3564 18.1858 21.3493 18.1601 21.3374 18.1365C21.3255 18.1129 21.3092 18.0919 21.2893 18.0747C21.2694 18.0575 21.2464 18.0444 21.2215 18.0362C21.1967 18.0281 21.1704 18.0249 21.1444 18.027C21.1183 18.0291 21.0929 18.0363 21.0696 18.0484C21.0463 18.0604 21.0256 18.0769 21.0086 18.0971C20.9917 18.1172 20.9788 18.1405 20.9707 18.1657C20.9626 18.1909 20.9595 18.2175 20.9615 18.2439C20.9636 18.2703 20.9708 18.296 20.9826 18.3196C20.9945 18.3432 21.0108 18.3642 21.0307 18.3814C21.0506 18.3986 21.0736 18.4117 21.0985 18.4198C21.1233 18.428 21.1496 18.4312 21.1756 18.4291C21.2017 18.427 21.2271 18.4197 21.2504 18.4077C21.2737 18.3957 21.2944 18.3791 21.3114 18.359C21.3284 18.3389 21.3412 18.3155 21.3493 18.2903Z" fill="#CBA978"/>
<path d="M22.8 18.1937C22.8081 18.1685 22.8112 18.1419 22.8091 18.1155C22.8071 18.0891 22.7999 18.0634 22.7881 18.0398C22.7762 18.0162 22.7599 17.9952 22.74 17.978C22.7201 17.9608 22.6971 17.9477 22.6722 17.9396C22.6473 17.9314 22.6211 17.9282 22.5951 17.9303C22.569 17.9324 22.5436 17.9397 22.5203 17.9517C22.497 17.9637 22.4763 17.9803 22.4593 18.0004C22.4423 18.0205 22.4294 18.0439 22.4214 18.0691C22.4133 18.0942 22.4102 18.1208 22.4122 18.1472C22.4143 18.1736 22.4214 18.1993 22.4333 18.2229C22.4452 18.2465 22.4615 18.2675 22.4814 18.2847C22.5013 18.3019 22.5243 18.315 22.5492 18.3232C22.574 18.3313 22.6002 18.3345 22.6263 18.3324C22.6524 18.3303 22.6778 18.3231 22.7011 18.311C22.7244 18.299 22.7451 18.2825 22.7621 18.2623C22.779 18.2422 22.7919 18.2188 22.8 18.1937Z" fill="#CBA978"/>
<path d="M21.6935 16.9558C21.7052 16.9194 21.7096 16.881 21.7065 16.8428C21.7034 16.8046 21.6929 16.7674 21.6755 16.7332C21.6582 16.699 21.6343 16.6686 21.6053 16.6436C21.5762 16.6187 21.5426 16.5997 21.5064 16.5878C21.4701 16.5758 21.4319 16.5712 21.3939 16.5741C21.356 16.577 21.319 16.5874 21.2851 16.6047C21.2512 16.622 21.2211 16.6459 21.1964 16.675C21.1718 16.704 21.1531 16.7377 21.1414 16.7741C21.1297 16.8105 21.1253 16.8489 21.1284 16.8871C21.1315 16.9253 21.142 16.9626 21.1594 16.9967C21.1767 17.0309 21.2006 17.0614 21.2297 17.0863C21.2587 17.1113 21.2923 17.1303 21.3285 17.1422C21.3648 17.1541 21.403 17.1588 21.441 17.1559C21.4789 17.1529 21.5159 17.1425 21.5498 17.1252C21.5837 17.1079 21.6138 17.084 21.6385 17.055C21.6631 17.0259 21.6818 16.9922 21.6935 16.9558Z" fill="#CBA978"/>
<path d="M21.8844 19.6298C21.8961 19.5934 21.9006 19.555 21.8975 19.5168C21.8944 19.4785 21.8839 19.4413 21.8665 19.4071C21.8492 19.3729 21.8253 19.3424 21.7962 19.3175C21.7672 19.2925 21.7336 19.2735 21.6974 19.2616C21.6611 19.2496 21.6229 19.245 21.5849 19.2479C21.547 19.2508 21.51 19.2613 21.4761 19.2786C21.4422 19.2959 21.4121 19.3198 21.3874 19.3489C21.3627 19.378 21.344 19.4117 21.3324 19.4481C21.3207 19.4846 21.3162 19.523 21.3193 19.5612C21.3224 19.5994 21.3329 19.6367 21.3503 19.6709C21.3676 19.7051 21.3915 19.7355 21.4205 19.7605C21.4496 19.7855 21.4832 19.8045 21.5194 19.8164C21.5557 19.8283 21.5939 19.833 21.6318 19.83C21.6698 19.8271 21.7068 19.8167 21.7407 19.7994C21.7746 19.782 21.8047 19.7582 21.8294 19.7291C21.854 19.7 21.8727 19.6662 21.8844 19.6298Z" fill="#CBA978"/>
<path d="M22.842 20.2659C22.8501 20.2407 22.8532 20.2142 22.8511 20.1878C22.8491 20.1614 22.8419 20.1357 22.8301 20.1121C22.8182 20.0885 22.8019 20.0675 22.782 20.0503C22.7621 20.0331 22.7391 20.02 22.7142 20.0118C22.6893 20.0036 22.6631 20.0005 22.6371 20.0026C22.611 20.0047 22.5856 20.0119 22.5623 20.0239C22.539 20.036 22.5183 20.0525 22.5013 20.0727C22.4843 20.0928 22.4714 20.1161 22.4634 20.1413C22.4553 20.1665 22.4522 20.1931 22.4542 20.2195C22.4563 20.2459 22.4634 20.2716 22.4753 20.2952C22.4872 20.3188 22.5035 20.3398 22.5234 20.357C22.5433 20.3742 22.5663 20.3872 22.5912 20.3954C22.616 20.4036 22.6422 20.4067 22.6683 20.4047C22.6944 20.4026 22.7198 20.3953 22.7431 20.3833C22.7664 20.3713 22.7871 20.3547 22.8041 20.3346C22.821 20.3144 22.8339 20.2911 22.842 20.2659Z" fill="#CBA978"/>
<path d="M23.2233 19.1194C23.2314 19.0943 23.2345 19.0677 23.2325 19.0413C23.2304 19.0149 23.2233 18.9892 23.2114 18.9656C23.1995 18.942 23.1832 18.921 23.1633 18.9038C23.1434 18.8866 23.1204 18.8735 23.0955 18.8653C23.0707 18.8572 23.0445 18.854 23.0184 18.8561C22.9923 18.8582 22.9669 18.8654 22.9436 18.8775C22.9204 18.8895 22.8996 18.906 22.8827 18.9262C22.8657 18.9463 22.8528 18.9696 22.8447 18.9948C22.8366 19.02 22.8335 19.0466 22.8356 19.073C22.8376 19.0994 22.8448 19.1251 22.8567 19.1487C22.8685 19.1723 22.8849 19.1933 22.9047 19.2105C22.9246 19.2277 22.9476 19.2408 22.9725 19.2489C22.9974 19.2571 23.0236 19.2603 23.0496 19.2582C23.0757 19.2561 23.1011 19.2488 23.1244 19.2368C23.1477 19.2248 23.1684 19.2082 23.1854 19.1881C23.2024 19.168 23.2153 19.1446 23.2233 19.1194Z" fill="#CBA978"/>
<path d="M23.467 18.0271C23.4906 17.9535 23.4842 17.8734 23.4491 17.8044C23.4141 17.7354 23.3533 17.6831 23.2801 17.659C23.207 17.6349 23.1274 17.6411 23.059 17.676C22.9906 17.711 22.9389 17.772 22.9154 17.8455C22.8918 17.9191 22.8982 17.9992 22.9333 18.0682C22.9683 18.1372 23.0291 18.1895 23.1022 18.2136C23.1754 18.2377 23.2549 18.2315 23.3233 18.1965C23.3917 18.1616 23.4434 18.1006 23.467 18.0271Z" fill="#CBA978"/>
<path d="M20.3825 17.9017C20.3906 17.8765 20.3937 17.85 20.3917 17.8236C20.3896 17.7972 20.3825 17.7714 20.3706 17.7478C20.3588 17.7242 20.3424 17.7032 20.3225 17.686C20.3027 17.6688 20.2796 17.6557 20.2548 17.6476C20.2299 17.6394 20.2037 17.6362 20.1776 17.6383C20.1515 17.6404 20.1261 17.6477 20.1028 17.6597C20.0795 17.6717 20.0588 17.6883 20.0418 17.7084C20.0249 17.7286 20.012 17.7519 20.0039 17.7771C19.9958 17.8023 19.9927 17.8288 19.9947 17.8552C19.9968 17.8816 20.004 17.9074 20.0158 17.931C20.0277 17.9546 20.044 17.9756 20.0639 17.9928C20.0838 18.01 20.1068 18.0231 20.1317 18.0312C20.1566 18.0394 20.1828 18.0426 20.2088 18.0405C20.2349 18.0384 20.2603 18.0311 20.2836 18.0191C20.3069 18.0071 20.3276 17.9905 20.3446 17.9704C20.3616 17.9502 20.3745 17.9269 20.3825 17.9017Z" fill="#CBA978"/>
<path d="M31.6008 15.9593C31.6089 15.9341 31.612 15.9076 31.61 15.8812C31.6079 15.8548 31.6007 15.829 31.5889 15.8054C31.577 15.7818 31.5607 15.7608 31.5408 15.7436C31.5209 15.7264 31.4979 15.7134 31.473 15.7052C31.4481 15.697 31.4219 15.6939 31.3959 15.6959C31.3698 15.698 31.3444 15.7053 31.3211 15.7173C31.2978 15.7293 31.2771 15.7459 31.2601 15.766C31.2431 15.7862 31.2302 15.8095 31.2222 15.8347C31.2141 15.8599 31.211 15.8865 31.213 15.9129C31.2151 15.9393 31.2222 15.965 31.2341 15.9886C31.2459 16.0122 31.2623 16.0332 31.2822 16.0504C31.3021 16.0676 31.3251 16.0807 31.35 16.0889C31.3748 16.097 31.401 16.1002 31.4271 16.0981C31.4532 16.096 31.4786 16.0888 31.5019 16.0767C31.5252 16.0647 31.5459 16.0481 31.5629 16.028C31.5798 16.0078 31.5927 15.9845 31.6008 15.9593Z" fill="#CBA978"/>
<path d="M31.6008 17.513C31.6089 17.4878 31.612 17.4613 31.61 17.4349C31.6079 17.4085 31.6007 17.3827 31.5889 17.3591C31.577 17.3355 31.5607 17.3145 31.5408 17.2973C31.5209 17.2801 31.4979 17.2671 31.473 17.2589C31.4481 17.2507 31.4219 17.2476 31.3959 17.2496C31.3698 17.2517 31.3444 17.259 31.3211 17.271C31.2978 17.2831 31.2771 17.2996 31.2601 17.3198C31.2431 17.3399 31.2302 17.3632 31.2222 17.3884C31.2141 17.4136 31.211 17.4402 31.213 17.4666C31.2151 17.493 31.2222 17.5187 31.2341 17.5423C31.2459 17.5659 31.2623 17.5869 31.2822 17.6041C31.3021 17.6213 31.3251 17.6344 31.35 17.6426C31.3748 17.6508 31.401 17.6539 31.4271 17.6518C31.4532 17.6497 31.4786 17.6425 31.5019 17.6304C31.5252 17.6184 31.5459 17.6018 31.5629 17.5817C31.5798 17.5616 31.5927 17.5382 31.6008 17.513Z" fill="#CBA978"/>
<path d="M31.0202 18.679C31.0283 18.6539 31.0314 18.6273 31.0294 18.6009C31.0273 18.5745 31.0202 18.5488 31.0083 18.5252C30.9965 18.5016 30.9801 18.4806 30.9602 18.4634C30.9403 18.4462 30.9173 18.4331 30.8924 18.4249C30.8676 18.4167 30.8414 18.4136 30.8153 18.4157C30.7892 18.4177 30.7638 18.425 30.7405 18.437C30.7172 18.4491 30.6965 18.4656 30.6795 18.4858C30.6626 18.5059 30.6497 18.5293 30.6416 18.5544C30.6335 18.5796 30.6304 18.6062 30.6324 18.6326C30.6345 18.659 30.6417 18.6847 30.6535 18.7083C30.6654 18.7319 30.6817 18.7529 30.7016 18.7701C30.7215 18.7873 30.7445 18.8004 30.7694 18.8086C30.7943 18.8168 30.8205 18.8199 30.8465 18.8178C30.8726 18.8157 30.898 18.8085 30.9213 18.7965C30.9446 18.7844 30.9653 18.7679 30.9823 18.7477C30.9993 18.7276 31.0122 18.7042 31.0202 18.679Z" fill="#CBA978"/>
<path d="M32.0842 15.0853C32.0923 15.0601 32.0954 15.0335 32.0933 15.0071C32.0913 14.9807 32.0841 14.955 32.0722 14.9314C32.0604 14.9078 32.044 14.8868 32.0242 14.8696C32.0043 14.8524 31.9812 14.8393 31.9564 14.8312C31.9315 14.823 31.9053 14.8198 31.8792 14.8219C31.8532 14.824 31.8278 14.8313 31.8045 14.8433C31.7812 14.8553 31.7605 14.8719 31.7435 14.892C31.7265 14.9121 31.7136 14.9355 31.7056 14.9607C31.6975 14.9858 31.6944 15.0124 31.6964 15.0388C31.6985 15.0652 31.7056 15.0909 31.7175 15.1145C31.7294 15.1381 31.7457 15.1591 31.7656 15.1763C31.7855 15.1935 31.8085 15.2066 31.8334 15.2148C31.8582 15.2229 31.8844 15.2261 31.9105 15.224C31.9366 15.2219 31.962 15.2147 31.9853 15.2026C32.0085 15.1906 32.0293 15.1741 32.0462 15.1539C32.0632 15.1338 32.0761 15.1104 32.0842 15.0853Z" fill="#CBA978"/>
<path d="M31.9875 16.7366C31.9956 16.7114 31.9987 16.6849 31.9966 16.6585C31.9946 16.6321 31.9874 16.6063 31.9755 16.5827C31.9637 16.5591 31.9473 16.5382 31.9274 16.521C31.9076 16.5038 31.8845 16.4907 31.8597 16.4825C31.8348 16.4743 31.8086 16.4712 31.7826 16.4733C31.7565 16.4754 31.7311 16.4826 31.7078 16.4946C31.6845 16.5067 31.6638 16.5232 31.6468 16.5433C31.6298 16.5635 31.6169 16.5868 31.6089 16.612C31.6008 16.6372 31.5977 16.6637 31.5997 16.6901C31.6018 16.7165 31.609 16.7422 31.6208 16.7658C31.6327 16.7894 31.649 16.8104 31.6689 16.8276C31.6888 16.8448 31.7118 16.8579 31.7367 16.866C31.7615 16.8742 31.7877 16.8774 31.8138 16.8753C31.8399 16.8732 31.8653 16.866 31.8886 16.8539C31.9118 16.8419 31.9326 16.8254 31.9495 16.8052C31.9665 16.7851 31.9794 16.7618 31.9875 16.7366Z" fill="#CBA978"/>
<path d="M30.924 17.222C30.9321 17.1968 30.9352 17.1702 30.9332 17.1438C30.9311 17.1174 30.924 17.0917 30.9121 17.0681C30.9002 17.0445 30.8839 17.0235 30.864 17.0063C30.8441 16.9891 30.8211 16.9761 30.7962 16.9679C30.7714 16.9597 30.7452 16.9566 30.7191 16.9586C30.693 16.9607 30.6676 16.968 30.6443 16.98C30.621 16.992 30.6003 17.0086 30.5833 17.0287C30.5664 17.0489 30.5535 17.0722 30.5454 17.0974C30.5373 17.1226 30.5342 17.1491 30.5363 17.1755C30.5383 17.2019 30.5455 17.2276 30.5573 17.2512C30.5692 17.2748 30.5855 17.2958 30.6054 17.313C30.6253 17.3302 30.6483 17.3433 30.6732 17.3515C30.6981 17.3597 30.7243 17.3628 30.7503 17.3607C30.7764 17.3586 30.8018 17.3514 30.8251 17.3394C30.8484 17.3273 30.8691 17.3108 30.8861 17.2906C30.9031 17.2705 30.916 17.2472 30.924 17.222Z" fill="#CBA978"/>
<path d="M32.278 16.0569C32.2861 16.0318 32.2892 16.0052 32.2872 15.9788C32.2851 15.9524 32.278 15.9267 32.2661 15.9031C32.2542 15.8795 32.2379 15.8585 32.218 15.8413C32.1981 15.8241 32.1751 15.811 32.1502 15.8028C32.1254 15.7947 32.0992 15.7915 32.0731 15.7936C32.047 15.7957 32.0216 15.8029 31.9983 15.815C31.975 15.827 31.9543 15.8435 31.9373 15.8637C31.9204 15.8838 31.9075 15.9071 31.8994 15.9323C31.8913 15.9575 31.8882 15.9841 31.8903 16.0105C31.8923 16.0369 31.8995 16.0626 31.9113 16.0862C31.9232 16.1098 31.9395 16.1308 31.9594 16.148C31.9793 16.1652 32.0023 16.1783 32.0272 16.1864C32.0521 16.1946 32.0783 16.1978 32.1043 16.1957C32.1304 16.1936 32.1558 16.1863 32.1791 16.1743C32.2024 16.1623 32.2231 16.1457 32.2401 16.1256C32.2571 16.1055 32.27 16.0821 32.278 16.0569Z" fill="#CBA978"/>
<path d="M22.8864 16.6677C22.91 16.5941 22.9036 16.5141 22.8685 16.445C22.8335 16.376 22.7727 16.3237 22.6996 16.2996C22.6264 16.2756 22.5469 16.2817 22.4785 16.3167C22.4101 16.3516 22.3584 16.4126 22.3348 16.4861C22.3112 16.5597 22.3176 16.6398 22.3527 16.7088C22.3877 16.7778 22.4485 16.8301 22.5217 16.8542C22.5948 16.8783 22.6744 16.8722 22.7428 16.8372C22.8112 16.8022 22.8629 16.7412 22.8864 16.6677Z" fill="#CBA978"/>
<path d="M25.9306 12.0117H28.0639C28.2093 12.0117 28.353 12.0429 28.4855 12.1033C28.6181 12.1637 28.7365 12.2519 28.833 12.3621C28.9294 12.4723 29.0016 12.6019 29.0449 12.7425C29.0882 12.8831 29.1015 13.0313 29.084 13.1775C29.0457 13.499 28.8924 13.7951 28.6532 14.0099C28.4139 14.2247 28.1053 14.3433 27.7856 14.3433H26.597C26.2516 14.3433 25.9154 14.2296 25.6393 14.0193C25.3631 13.8091 25.1618 13.5137 25.0657 13.1775C25.0269 13.0417 25.0199 12.8985 25.0451 12.7594C25.0703 12.6203 25.127 12.489 25.2109 12.376C25.2948 12.2629 25.4035 12.1712 25.5284 12.1079C25.6533 12.0447 25.791 12.0118 25.9306 12.0117Z" fill="#8B674F"/>
<path d="M25.9308 12.0115C25.7911 12.0115 25.6534 12.0445 25.5285 12.1077C25.4035 12.1709 25.2948 12.2626 25.2109 12.3757C25.127 12.4888 25.0702 12.62 25.045 12.7592C25.0198 12.8983 25.0269 13.0414 25.0657 13.1773C25.1618 13.5134 25.363 13.8089 25.6392 14.0191C25.9154 14.2294 26.2515 14.3431 26.597 14.3431H27.7855C28.1052 14.3431 28.4139 14.2245 28.6531 14.0097C28.8924 13.7949 29.0456 13.4988 29.084 13.1773C29.1014 13.0311 29.0881 12.8829 29.0448 12.7423C29.0015 12.6018 28.9293 12.4721 28.8328 12.3619C28.7364 12.2518 28.618 12.1635 28.4855 12.1031C28.3529 12.0427 28.2092 12.0115 28.0638 12.0115H25.9308ZM25.9308 10.8018H28.064C29.291 10.8018 30.2859 11.8095 30.2859 13.0523C30.2859 13.1426 30.2805 13.233 30.2699 13.3225C30.1965 13.9375 29.9032 14.504 29.4455 14.915C28.9878 15.3259 28.3974 15.5528 27.7857 15.5529H26.5972C25.9929 15.5529 25.4049 15.354 24.9218 14.9863C24.4387 14.6185 24.0866 14.1018 23.9185 13.5138C23.597 12.3882 24.237 11.2115 25.3483 10.8856C25.5376 10.83 25.7337 10.8018 25.9308 10.8018Z" fill="#524F75"/>
<path d="M11.4692 24.6777C14.4809 26.6192 16.1785 28.0058 19.0837 28.6413C20.1452 28.8734 22.5289 28.6893 25.7223 28.8298C27.9272 28.9268 29.6948 30.7372 29.5949 32.989C29.5891 33.1187 29.5772 33.2481 29.5593 33.3767C29.2392 35.6839 27.1487 37.2937 24.8899 36.9723C24.7766 36.9562 24.6641 36.9352 24.5527 36.9094C21.2969 36.1603 19.4205 35.7738 14.2568 31.7961" fill="#C38155"/>
<path d="M11.0477 25.3501C11.5945 25.6893 13.2401 26.7373 13.3372 26.7986C14.1667 27.3196 14.7762 27.6789 15.3827 27.9939C16.5513 28.6002 17.6551 29.002 18.9251 29.2565C19.3391 29.3393 19.8871 29.3663 20.7498 29.3621C21.1356 29.3601 22.9093 29.3276 23.393 29.323C24.198 29.3155 24.9297 29.3194 25.6662 29.3387C27.578 29.3891 29.0794 30.9237 29.0285 32.8073C29.0253 32.9182 29.0171 33.0287 29.004 33.1388C28.7637 35.1209 26.9979 36.5303 25.0625 36.2896C24.9658 36.2775 24.8692 36.2613 24.7737 36.2412L24.5284 36.1894L24.2886 36.1386C23.4024 35.9502 22.8781 35.8285 22.3367 35.6778C20.0863 35.0518 18.0574 33.9666 14.6223 31.4149C14.4945 31.3217 14.3355 31.2835 14.18 31.3085C14.0245 31.3335 13.885 31.4197 13.792 31.5483C13.6989 31.6769 13.6597 31.8376 13.683 31.9953C13.7063 32.1531 13.7901 32.2951 13.9163 32.3905C17.46 35.023 19.6138 36.1748 22.0206 36.8444C22.5912 37.0033 23.1353 37.1295 24.0437 37.3225L24.2844 37.3735L24.5296 37.4253C24.6578 37.4525 24.787 37.4742 24.917 37.4903C27.5095 37.8129 29.8691 35.9293 30.1893 33.2861C30.2073 33.1384 30.2182 32.9896 30.2224 32.8408C30.2921 30.2759 28.2575 28.1967 25.6975 28.1294C24.9258 28.11 24.1538 28.1047 23.3819 28.1132C22.89 28.1179 21.12 28.1507 20.744 28.1523C19.9584 28.1562 19.4687 28.132 19.1568 28.0695C18.0001 27.838 17.0006 27.4741 15.9271 26.917C15.355 26.6202 14.7708 26.2758 13.9668 25.7705C13.8753 25.7129 12.2251 24.6622 11.6709 24.3184C11.5358 24.2347 11.3735 24.2088 11.2195 24.2463C11.0655 24.2838 10.9326 24.3817 10.8498 24.5184C10.7673 24.6553 10.7417 24.8198 10.7788 24.9758C10.8159 25.1317 10.9126 25.2664 11.0477 25.3501Z" fill="#524F75"/>
<path d="M25.8842 22.465C26.8227 22.376 27.6468 22.3367 28.3576 22.3474C31.394 22.393 33.8193 24.9234 33.7741 27.999C33.7687 28.3712 33.7265 28.7419 33.6481 29.1055L32.9749 32.2253C32.8013 29.4761 31.9929 28.1018 30.5506 28.1018C30.3784 28.1018 30.1851 28.1075 29.971 28.1192C29.5189 29.3499 28.4151 30.2838 27.0389 30.4411C26.9069 30.456 26.7741 30.4637 26.6412 30.4637H25.7661C23.5851 30.4637 21.8169 28.6728 21.8169 26.4636C21.8169 26.4104 21.8179 26.3578 21.8201 26.3053C21.8179 26.2628 21.8169 26.2203 21.8169 26.1777C21.8169 24.4173 23.057 22.9223 24.7412 22.5994C25.0754 22.5089 25.4199 22.4631 25.7659 22.4634H25.7709C25.8087 22.4636 25.8465 22.464 25.8842 22.465Z" fill="#C38155"/>
<path d="M33.0643 28.9759C33.1343 28.6519 33.1719 28.3214 33.1767 27.9895C33.2169 25.2476 31.055 22.9922 28.3483 22.9515C27.6609 22.9412 26.8577 22.9793 25.9393 23.0664L25.9041 23.0699L25.8686 23.0691C25.5404 23.0589 25.2125 23.0973 24.8953 23.1832L24.8519 23.1933C23.4412 23.4638 22.4135 24.7159 22.4135 26.1773C22.4135 26.2102 22.4143 26.2429 22.4158 26.2757L22.417 26.3019L22.4162 26.3283C22.4143 26.3731 22.4135 26.4181 22.4135 26.4632C22.4135 28.3384 23.9141 29.8584 25.7655 29.8584H26.6406C27.2437 29.8586 27.8325 29.6717 28.3277 29.323C28.823 28.9743 29.201 28.4804 29.411 27.9077L29.5478 27.5359L29.9389 27.5147C30.163 27.5026 30.3667 27.4966 30.5502 27.4966C31.6868 27.4966 32.4944 28.1234 32.9926 29.3082L33.0643 28.9759ZM28.3662 21.742C31.7324 21.7926 34.421 24.5978 34.371 28.0075C34.365 28.4201 34.3182 28.8311 34.2311 29.2342L32.6504 36.5619L32.3791 32.2634C32.2228 29.7919 31.5845 28.7061 30.5506 28.7061C30.4931 28.7061 30.4332 28.7067 30.3704 28.7081C30.0298 29.4161 29.4995 30.0127 28.84 30.43C28.1806 30.8472 27.4187 31.0683 26.6412 31.068H25.7661C23.2553 31.068 21.2197 29.0061 21.2197 26.463C21.2197 26.4108 21.2205 26.3588 21.2223 26.3072C21.2206 26.2638 21.2197 26.2205 21.2197 26.1771C21.2197 24.1409 22.646 22.396 24.6082 22.0087C25.0175 21.8999 25.4397 21.8494 25.8627 21.8587C26.8072 21.7702 27.6412 21.7313 28.3662 21.742Z" fill="#524F75"/>
<path d="M29.978 26.0779C29.978 26.1537 29.9625 26.265 29.9284 26.4065C29.8502 26.7331 29.6856 27.1807 29.4344 27.7407C29.3688 27.8867 29.3633 28.0532 29.4189 28.2034C29.4745 28.3536 29.5868 28.4753 29.731 28.5417C29.8752 28.6081 30.0395 28.6138 30.1878 28.5574C30.3361 28.5011 30.4563 28.3874 30.5218 28.2413C31.1439 26.8545 31.3471 26.0059 31.0193 25.4593C30.9388 25.3259 30.8105 25.2293 30.6613 25.1897C30.512 25.1501 30.3534 25.1705 30.2187 25.2466C30.084 25.3228 29.9836 25.4488 29.9386 25.5983C29.8936 25.7477 29.9074 25.909 29.9772 26.0484C29.9776 26.0559 29.978 26.0658 29.978 26.0779Z" fill="#524F75"/>
</g>
<defs>
<clipPath id="clip0_2087_195">
<rect width="43" height="48" fill="white"/>
</clipPath>
</defs>
</svg>
