<svg width="38" height="44" viewBox="0 0 38 44" fill="none" xmlns="http://www.w3.org/2000/svg">
<g clip-path="url(#clip0_2087_108)">
<path d="M32.6855 13.2485C33.4074 13.6997 33.8025 14.0383 34.3053 14.2875C34.8085 14.5368 35.6376 14.6183 36.623 14.594L37.3187 14.5785C37.4376 14.5457 37.6737 14.4812 37.7175 14.301C37.7535 14.1544 37.6678 13.9558 37.5854 13.81C37.5303 13.7127 37.422 13.5653 37.2604 13.3677C36.3219 12.2764 35.9001 11.8617 35.5433 11.5534C35.1324 11.1991 34.5028 10.8323 33.6551 10.4541" fill="#E1975C"/>
<path d="M36.8421 13.7044C36.0308 12.7611 35.5928 12.3047 35.1893 11.9566C34.8248 11.6419 34.2376 11.3 33.4338 10.9413C33.3693 10.9125 33.3111 10.8713 33.2626 10.8202C33.2141 10.7691 33.1762 10.709 33.1511 10.6433C33.126 10.5777 33.1142 10.5077 33.1164 10.4376C33.1185 10.3674 33.1345 10.2983 33.1636 10.2343C33.1926 10.1702 33.234 10.1125 33.2855 10.0644C33.3371 10.0162 33.3976 9.97862 33.4638 9.95371C33.5299 9.92881 33.6004 9.91707 33.6711 9.91919C33.7418 9.9213 33.8114 9.93722 33.8759 9.96603C34.7677 10.364 35.4393 10.7554 35.8965 11.1498C36.3465 11.5383 36.8186 12.0302 37.6696 13.0204C37.8581 13.25 37.9813 13.4179 38.0549 13.548C38.2261 13.8506 38.3137 14.1281 38.241 14.4262C38.1629 14.7478 37.9388 14.9253 37.6459 15.0356C37.5857 15.058 37.5244 15.0773 37.4622 15.0933C37.4193 15.1051 37.3752 15.1115 37.3307 15.1126L36.6351 15.1281C35.4991 15.1559 34.6387 15.0497 34.0646 14.7654C33.9668 14.7167 33.8706 14.6647 33.7764 14.6093C33.5525 14.4777 32.6713 13.8711 32.3982 13.7003C32.2788 13.6241 32.1945 13.5042 32.1637 13.3666C32.1329 13.229 32.1581 13.085 32.2337 12.9657C32.3094 12.8465 32.4294 12.7617 32.5677 12.7298C32.706 12.6979 32.8514 12.7215 32.9723 12.7955C33.2779 12.9864 34.1422 13.5815 34.3249 13.6888C34.4006 13.7331 34.4732 13.7725 34.5457 13.8085C34.9218 13.9948 35.635 14.0828 36.6096 14.0589L37.1014 14.048C37.0583 13.9793 36.9701 13.8609 36.8421 13.7044Z" fill="#524F75"/>
<path d="M35.0006 12.1707C34.8673 12.0825 34.5906 11.934 34.1701 11.7257C34.0249 11.6537 33.8579 11.6378 33.7016 11.6812C33.5453 11.7247 33.4109 11.8242 33.3245 11.9606C33.1479 12.2393 33.1991 12.7448 33.4006 12.9633C33.6813 13.2679 34.0526 13.4919 34.1701 13.5603C34.2627 13.6145 34.6001 13.6911 35.1829 13.7902C35.4441 13.8469 35.7638 13.7451 35.8747 13.5605C35.9306 13.4678 35.9549 13.3597 35.9441 13.2522C35.9334 13.1447 35.8881 13.0435 35.815 12.9635C35.4246 12.5357 35.153 12.2718 35.0006 12.1707Z" fill="#FFE8A9"/>
<path d="M35.9282 1.03424C35.3514 2.75552 34.689 4.02732 33.9409 4.85017C33.1209 5.75162 32.0329 6.3713 30.6768 6.70975C30.9032 7.53956 31.1828 8.2095 31.5159 8.71975C31.8488 9.23 32.4355 9.73473 33.2759 10.2338C34.4799 9.52603 35.4726 8.32891 36.2543 6.64238C36.9801 5.07634 36.9852 3.20731 36.2694 1.03513C36.2577 0.999442 36.2349 0.968336 36.2043 0.946245C36.1738 0.924155 36.1369 0.912209 36.0991 0.91211C36.0613 0.912011 36.0244 0.923765 35.9937 0.945696C35.963 0.967626 35.9401 0.998612 35.9282 1.03424Z" fill="#EAE6DB"/>
<path d="M35.8603 6.41284C35.2086 7.88567 34.3953 8.95715 33.4246 9.63885C32.7935 9.24855 32.3523 8.8618 32.0995 8.48842C31.8614 8.13733 31.6462 7.68963 31.4559 7.14551C32.6599 6.73863 33.6494 6.09899 34.4151 5.2273C35.0402 4.5153 35.5913 3.52349 36.0747 2.25062C36.4615 3.84072 36.3861 5.22427 35.8603 6.41284ZM33.6027 4.52475C32.8717 5.35723 31.888 5.94055 30.6376 6.27561C30.5685 6.29414 30.5038 6.32614 30.4473 6.36975C30.3908 6.41336 30.3436 6.4677 30.3085 6.5296C30.2734 6.5915 30.2511 6.65972 30.2429 6.73028C30.2346 6.80084 30.2406 6.87232 30.2605 6.94056C30.516 7.81581 30.829 8.53048 31.2054 9.08547C31.5996 9.66755 32.2557 10.2122 33.1701 10.734C33.2542 10.782 33.3498 10.8066 33.4468 10.8052C33.5438 10.8037 33.6386 10.7763 33.7212 10.7258C35.0138 9.93524 36.0535 8.63581 36.8467 6.84307C37.6041 5.1307 37.5741 3.12498 36.7786 0.846579C36.7291 0.704872 36.6359 0.582269 36.5121 0.496213C36.3883 0.410158 36.2404 0.365036 36.0893 0.367266C35.9382 0.369497 35.7916 0.418968 35.6705 0.508639C35.5494 0.59831 35.4598 0.723613 35.4146 0.866718C34.8888 2.53275 34.2802 3.75322 33.6027 4.52475Z" fill="#524F75"/>
<path d="M34.0882 30.9473L33.2523 39.1863C33.1943 39.7577 32.9245 40.2874 32.4954 40.6726C32.0662 41.0578 31.5081 41.271 30.9295 41.271H29.2397C27.9504 41.271 26.9053 40.2338 26.9053 38.9541V31.3962" fill="#E1975C"/>
<path d="M33.552 30.8941L32.7159 39.1332C32.6714 39.5727 32.4639 39.9801 32.1338 40.2764C31.8037 40.5728 31.3744 40.7368 30.9293 40.7368H29.2394C28.2476 40.7368 27.4436 39.9389 27.4436 38.9546V31.3967C27.4436 31.2549 27.3869 31.1189 27.2859 31.0186C27.1848 30.9183 27.0478 30.862 26.9049 30.862C26.7621 30.862 26.625 30.9183 26.524 31.0186C26.423 31.1189 26.3662 31.2549 26.3662 31.3967V38.9546C26.3662 40.5295 27.6527 41.8062 29.2394 41.8062H30.9292C32.4045 41.8062 33.64 40.6971 33.788 39.2405L34.6237 31.0014C34.6345 30.8622 34.59 30.7244 34.4997 30.6173C34.4094 30.5103 34.2806 30.4425 34.1406 30.4285C34.0007 30.4145 33.8608 30.4553 33.7508 30.5423C33.6408 30.6293 33.5695 30.7556 33.552 30.8941Z" fill="#524F75"/>
<path d="M27.0576 40.4085C28.1622 40.8244 29.0888 41.0324 29.8369 41.0324C30.5852 41.0324 31.6705 40.7535 33.0927 40.1953L32.5913 43.067H27.6531L27.0576 40.4085Z" fill="#EAE6DB"/>
<path d="M28.0854 42.5316H32.1382L32.402 41.0199C31.3442 41.3831 30.4933 41.5663 29.837 41.5663C29.2424 41.5663 28.5619 41.4506 27.7918 41.2211L28.0854 42.5316ZM27.249 39.9078C28.2975 40.3027 29.1629 40.497 29.837 40.497C30.5025 40.497 31.5304 40.2328 32.8948 39.6975C33.2859 39.544 33.6953 39.8746 33.6237 40.2858L33.1226 43.1575C33.1009 43.2816 33.0358 43.3942 32.9386 43.4753C32.8415 43.5564 32.7186 43.6009 32.5916 43.6009H27.6534C27.5308 43.6009 27.412 43.5594 27.3164 43.4833C27.2208 43.4072 27.1542 43.301 27.1276 43.1822L26.532 40.5237C26.4388 40.1084 26.8482 39.757 27.249 39.9078Z" fill="#524F75"/>
<path d="M7.89075 28.8979C6.69084 29.5045 6.03253 29.5412 5.17722 29.4983C4.33035 29.4557 3.5625 29.3808 3.47774 28.3774C3.44039 27.9338 3.53413 27.3231 3.66665 26.793C3.87172 25.9725 4.00138 25.2674 4.64173 24.0393C4.7317 23.8666 5.09067 23.1874 5.17722 23.0211C5.38122 22.6296 5.53242 22.3261 5.66243 22.0405C6.00972 21.2783 5.76981 20.4335 5.42647 19.8867L4.64173 20.0796C4.72811 20.3893 4.82885 20.7734 4.55877 21.5948C4.46647 21.8753 3.91051 22.7839 3.43482 23.4237C2.6095 24.5339 2.09503 25.5635 1.85188 26.5364C1.67949 27.2263 1.61251 27.8809 1.66585 28.5109C1.81938 30.329 2.90903 31.332 4.55877 31.4149C5.75275 31.4748 7.25722 31.8826 8.76832 32.0169L7.89075 28.8979Z" fill="#E1975C"/>
<path d="M7.64587 28.4207L8.23218 28.1242L9.49673 32.6177L8.72008 32.5487C8.13521 32.4967 7.59829 32.416 6.70868 32.2593C5.37373 32.0242 5.04511 31.9736 4.53136 31.9479C2.57419 31.8497 1.30137 30.6013 1.12862 28.5548C1.07116 27.8743 1.13958 27.1634 1.32867 26.4068C1.59354 25.3473 2.1468 24.2544 3.00103 23.1054C3.43973 22.5153 3.97647 21.641 4.04633 21.4282C4.23434 20.8562 4.23219 20.6146 4.12229 20.2214L3.97432 19.6915L5.67649 19.2734L5.88336 19.603C6.38491 20.4019 6.54365 21.4021 6.1529 22.2599C6.02217 22.5467 5.87025 22.8536 5.6553 23.2662L5.38558 23.7791C5.21948 24.0946 5.15645 24.214 5.11982 24.2844C4.69369 25.1017 4.50586 25.6335 4.29683 26.4824L4.26666 26.6059L4.22877 26.7615L4.18945 26.9212C4.05423 27.4624 3.98581 27.9926 4.01454 28.332C4.05567 28.8192 4.25517 28.9158 5.20439 28.9636C6.15236 29.0112 6.67223 28.913 7.64587 28.4207ZM5.07061 21.7598C4.95443 22.1134 4.37189 23.0625 3.86801 23.7402C3.09297 24.7828 2.60256 25.7511 2.3745 26.6642C2.21253 27.3124 2.15524 27.9073 2.20247 28.4651C2.33069 29.9832 3.17252 30.8087 4.58595 30.8799C5.16453 30.9089 5.50662 30.9613 6.89705 31.2062C7.35532 31.2869 7.71501 31.3466 8.03339 31.3919L7.54298 29.6492C6.71281 29.9971 6.07227 30.0777 5.14999 30.0315C4.4976 29.9987 4.15587 29.9477 3.80534 29.7779C3.29445 29.5302 2.996 29.0732 2.94106 28.4214C2.90083 27.9447 2.98272 27.3083 3.14379 26.6636C3.16444 26.5815 3.16444 26.5811 3.21975 26.3546L3.25046 26.2286C3.47852 25.3033 3.69365 24.6937 4.16323 23.7932C4.20112 23.7206 4.26379 23.6016 4.43115 23.2838C4.52067 23.1144 4.60986 22.9449 4.69872 22.7752C4.90541 22.3781 5.04978 22.087 5.17153 21.8197C5.29526 21.5479 5.32058 21.2334 5.26401 20.9188C5.23977 21.164 5.17782 21.4333 5.07061 21.7598ZM5.23923 20.2775C5.21884 20.1624 5.19259 20.0484 5.16058 19.9359L4.64143 20.0787L4.77091 20.5976L5.55564 20.4048L4.96898 20.1685C5.03685 20.2768 5.09521 20.3902 5.14262 20.5062C5.19793 20.6411 5.23869 20.7798 5.26366 20.9184C5.28499 20.7047 5.27677 20.4891 5.23923 20.2775Z" fill="#524F75"/>
<path d="M0.51416 17.5283C1.60507 17.6748 2.21149 17.6722 2.33342 17.5203C2.36305 17.4834 1.99672 17.1177 1.60273 16.2498C1.50289 16.0298 1.38383 15.611 1.24574 14.9931C1.81822 15.1917 2.21095 15.3528 2.4241 15.4766C3.05907 15.8456 3.41445 16.2439 3.545 16.2412C3.74145 16.2371 3.92605 15.8169 4.0988 14.9805C4.75801 15.6303 5.22526 16.1575 5.50055 16.562C5.63271 16.7563 5.77799 17.0589 5.93655 17.4697C6.2948 18.3984 5.82737 19.4398 4.89198 19.7966C4.41218 19.9797 3.88974 20.0231 3.38593 19.9219C2.88212 19.8207 2.41783 19.579 2.04754 19.2252L1.83959 19.0267C1.83977 19.0265 1.39784 18.5271 0.51416 17.5283Z" fill="#FFE8A9"/>
<path d="M1.88237 18.2515L2.2004 18.6374L1.78343 18.976L2.17041 18.604L2.37117 18.8097C2.65752 19.1031 3.02222 19.3093 3.4225 19.4043C3.82277 19.4992 4.24203 19.4789 4.6311 19.3458C4.95112 19.2363 5.21427 19.0052 5.36275 18.7033C5.51123 18.4014 5.53291 18.0533 5.42302 17.7355C5.29121 17.3547 5.17143 17.0809 5.07195 16.9232C4.92614 16.6919 4.70975 16.4083 4.42333 16.0747C4.22275 16.5623 3.97781 16.7913 3.57862 16.786C3.39312 16.7835 3.27802 16.7229 3.1234 16.6076C3.06127 16.5612 3.0417 16.5448 2.87362 16.4028C2.61324 16.1825 2.43528 16.0456 2.20399 15.9002C2.16637 15.8769 2.12791 15.855 2.0887 15.8344C2.10774 15.8975 2.12587 15.9496 2.14275 15.9904C2.17885 16.0779 2.21584 16.1625 2.25355 16.2442C2.37692 16.5115 2.49651 16.7254 2.63137 16.9375C2.65346 16.972 2.7384 17.1023 2.75636 17.1314C2.78311 17.1745 2.80233 17.2087 2.82028 17.2497C2.84076 17.2962 2.8562 17.3436 2.86482 17.403C2.88529 17.545 2.85817 17.6974 2.73912 17.8353C2.55074 18.054 2.25912 18.1389 1.77858 18.126C1.81001 18.1636 1.8443 18.2053 1.88237 18.2515ZM1.43739 17.0243C1.38089 16.9136 1.32647 16.802 1.27416 16.6894C1.22925 16.5921 1.18638 16.4938 1.14558 16.3948C1.03551 16.1276 0.924709 15.6781 0.802061 15.0216C0.725024 14.6097 1.13373 14.2739 1.52718 14.4259C2.12282 14.6558 2.53458 14.8417 2.78078 14.9966C3.03344 15.1554 3.22989 15.3028 3.47932 15.5103C3.53678 15.3497 3.59784 15.1403 3.65997 14.8847C3.76053 14.4716 4.28327 14.3345 4.57633 14.6443C5.23447 15.3397 5.70261 15.9068 5.98562 16.3559C6.13664 16.5958 6.28605 16.9369 6.44209 17.3882C6.86409 18.6078 6.2108 19.9361 4.98252 20.3565C4.39975 20.5559 3.77176 20.5863 3.1722 20.4441C2.57263 20.3019 2.02635 19.993 1.59739 19.5536L1.39663 19.3479C1.38616 19.3372 1.37615 19.326 1.36664 19.3144L0.094722 17.7712C-0.220788 17.3885 0.111422 16.8223 0.602554 16.9057C0.9283 16.961 1.20736 17.0006 1.43739 17.0243Z" fill="#524F75"/>
<path d="M34.654 25.1946V14.4026C34.654 9.19515 30.4924 4.92618 25.2483 4.75402C25.1481 4.75066 25.0478 4.74899 24.9475 4.74902C19.9195 4.74902 15.8435 8.79433 15.8435 13.7848V18.2134C14.8514 18.7304 13.8656 19.2592 12.8865 19.8C8.69649 22.1079 6.38988 26.7544 7.09919 31.4581C7.76541 35.8766 11.5894 39.1461 16.0911 39.1461H23.2272C29.0522 39.1461 33.956 34.8208 34.6403 29.0798L34.7276 28.3477C34.8534 27.2985 34.8286 26.2369 34.654 25.1946Z" fill="#E1975C"/>
<path d="M35.2913 28.1428C35.2828 28.2319 35.2731 28.321 35.2625 28.41L35.1754 29.1421C34.4589 35.1523 29.3255 39.6802 23.2274 39.6802H16.0913C11.3229 39.6802 7.27246 36.217 6.56656 31.5367C5.82403 26.6126 8.23875 21.7483 12.6252 19.3322C13.5132 18.8419 14.4065 18.3611 15.305 17.89V13.7843C15.305 8.4987 19.6221 4.21387 24.9477 4.21387C25.054 4.21387 25.1603 4.21565 25.2664 4.21903C30.8009 4.40082 35.1929 8.90612 35.1929 14.4022V25.1503C35.3546 26.1395 35.3877 27.1452 35.2913 28.1428ZM34.1154 14.4022C34.1154 9.48303 30.1844 5.45038 25.2307 5.28784C25.1364 5.28478 25.042 5.28323 24.9477 5.2832C20.2174 5.2832 16.3824 9.08916 16.3824 13.7843V18.5368L16.0935 18.6868C15.1052 19.2017 14.1234 19.7285 13.1481 20.2671C9.15457 22.4669 6.95624 26.8954 7.63215 31.3786C8.25904 35.5351 11.8564 38.6109 16.0913 38.6109H23.2274C28.7794 38.6109 33.4532 34.4884 34.1055 29.0164L34.1926 28.2843C34.3125 27.2853 34.289 26.2744 34.1228 25.282L34.1154 14.4022Z" fill="#524F75"/>
<path d="M32.0704 27.742C32.2784 27.7289 32.4867 27.7625 32.6798 27.8403C32.8729 27.9181 33.0458 28.0381 33.1857 28.1915C33.3256 28.3448 33.4288 28.5274 33.4878 28.7258C33.5468 28.9242 33.5599 29.1332 33.5262 29.3373L33.0766 32.0659C32.9238 32.9927 32.463 33.8422 31.7677 34.4791C31.0723 35.1161 30.1823 35.504 29.2393 35.581L30.0915 29.562C30.1599 29.0789 30.3941 28.6341 30.7546 28.3025C31.1151 27.9709 31.5799 27.7729 32.0704 27.742Z" fill="#FFE6A2"/>
<path d="M20.6201 6.51593C21.7726 4.79661 20.9651 3.55868 21.2048 3.55868C21.4445 3.55868 23.5003 4.11794 23.7045 5.03347C25.1859 4.34838 27.0158 3.32324 27.3069 3.32324C27.5976 3.32324 26.5694 5.03347 26.2751 5.37281C28.1516 5.10476 29.3524 3.80944 29.8078 3.80944C30.2632 3.80944 30.3409 4.77576 30.312 6.51611L30.0513 7.42237" fill="#E1975C"/>
<path d="M22.2471 4.44003C22.7924 4.68349 23.1367 4.96062 23.1787 5.14883C23.1961 5.22698 23.231 5.30025 23.2808 5.36323C23.3305 5.42621 23.3939 5.4773 23.4662 5.51273C23.5385 5.54815 23.618 5.56701 23.6986 5.56791C23.7792 5.56881 23.8591 5.55173 23.9322 5.51793C24.2196 5.38434 24.5053 5.24703 24.7891 5.10606C24.8853 5.05847 24.9848 5.0091 25.0897 4.95653C25.1648 4.91892 25.8654 4.56426 26.3252 4.33382C26.1406 4.64196 25.9536 4.92356 25.8667 5.02372C25.5419 5.39834 25.859 5.97204 26.3517 5.90182C27.1559 5.78687 27.8821 5.50599 28.6312 5.07825C28.8034 4.97934 28.9732 4.87635 29.1405 4.76939C29.1879 4.73945 29.4713 4.55731 29.5417 4.51311C29.5936 4.48067 29.6385 4.4534 29.6778 4.43041C29.6887 4.47657 29.6995 4.53075 29.7094 4.59277C29.7688 4.96882 29.7879 5.54502 29.7742 6.43684L29.5332 7.27538C29.494 7.41175 29.511 7.55799 29.5805 7.68192C29.6499 7.80586 29.7661 7.89733 29.9035 7.93624C30.0409 7.97514 30.1883 7.95827 30.3131 7.88935C30.438 7.82044 30.5302 7.70511 30.5694 7.56874L30.8299 6.6623C30.8427 6.61739 30.8495 6.57105 30.8504 6.52453C30.8669 5.53361 30.847 4.89147 30.7735 4.42667C30.6615 3.71966 30.3936 3.27428 29.8076 3.27428C29.549 3.27428 29.3467 3.37105 28.967 3.60845C28.8898 3.65657 28.6023 3.84138 28.5598 3.8683C28.4067 3.96624 28.2512 4.06055 28.0936 4.15113C27.8983 4.26341 27.6977 4.36619 27.4924 4.4591C27.638 4.1923 27.7495 3.95972 27.8162 3.77651C27.8655 3.64035 27.8943 3.5245 27.8962 3.40652C27.902 3.09356 27.6991 2.78809 27.3065 2.78809C27.0785 2.78809 26.8143 2.89894 26.1896 3.20442C25.9008 3.34575 24.6973 3.95473 24.6039 4.00161C24.3832 4.11197 24.1617 4.22111 23.9397 4.329C23.6671 3.98931 23.2347 3.70861 22.6886 3.46462C22.142 3.22063 21.4639 3.02352 21.2043 3.02352C21.086 3.02286 20.9703 3.05826 20.8729 3.12494C20.7756 3.19162 20.7012 3.28636 20.6598 3.39636C20.6178 3.5065 20.6124 3.60025 20.6216 3.71057C20.6259 3.76225 20.633 3.81198 20.6462 3.8879C20.64 3.8519 20.669 4.01783 20.6761 4.06167C20.7943 4.79042 20.7006 5.42971 20.1712 6.21941C20.0929 6.33747 20.0649 6.48147 20.0934 6.61995C20.1218 6.75842 20.2042 6.8801 20.3228 6.95839C20.4413 7.03668 20.5863 7.06521 20.7259 7.03775C20.8656 7.01028 20.9886 6.92906 21.0681 6.81183C21.6767 5.90396 21.8552 5.0975 21.7854 4.25878C21.9414 4.31225 22.0982 4.37356 22.2471 4.44003Z" fill="#524F75"/>
<path d="M16.1252 34.2834L16.3121 39.2507C16.3529 40.3325 15.5021 41.2425 14.4117 41.2828C14.3872 41.2837 14.3626 41.2842 14.3381 41.2842H12.5709C10.9849 41.2842 9.46608 39.9169 9.06958 38.3829L7.33203 32.373" fill="#E1975C"/>
<path d="M15.5865 34.3035L15.7734 39.2707C15.7806 39.4623 15.7489 39.6534 15.68 39.8325C15.6111 40.0116 15.5065 40.1751 15.3725 40.3132C15.2385 40.4512 15.0778 40.5611 14.9 40.6361C14.7223 40.7111 14.5311 40.7498 14.3379 40.7498H12.5707C11.2868 40.7498 9.94179 39.6062 9.59126 38.2502L7.84994 32.2259C7.83116 32.1576 7.7989 32.0937 7.75504 32.0379C7.71117 31.9821 7.65657 31.9355 7.59441 31.9007C7.53224 31.866 7.46375 31.8439 7.39291 31.8357C7.32206 31.8274 7.25027 31.8332 7.1817 31.8528C7.11314 31.8723 7.04916 31.9051 6.99348 31.9494C6.9378 31.9936 6.89153 32.0484 6.85736 32.1105C6.82318 32.1727 6.80178 32.2409 6.7944 32.3113C6.78701 32.3818 6.79379 32.4529 6.81434 32.5207L8.55171 38.5306C9.01519 40.3255 10.7716 41.8192 12.5704 41.8192H14.3376C14.3688 41.8192 14.4001 41.8186 14.4313 41.8174C15.8189 41.766 16.9015 40.608 16.8498 39.2308L16.663 34.2636C16.6554 34.1235 16.5927 33.992 16.4883 33.8974C16.3839 33.8029 16.2462 33.7528 16.105 33.758C15.9637 33.7633 15.8302 33.8234 15.7332 33.9254C15.6362 34.0275 15.5835 34.1632 15.5865 34.3035Z" fill="#524F75"/>
<path d="M29.6428 32.1426L29.2853 39.0926C29.2219 40.3246 28.1969 41.2913 26.9541 41.2913H25.2939C24.0046 41.2913 22.9595 40.2542 22.9595 38.9746V32.694" fill="#E1975C"/>
<path d="M29.1045 32.1158L28.747 39.066C28.7235 39.5223 28.5243 39.9522 28.1906 40.2669C27.8569 40.5816 27.4141 40.7571 26.9537 40.7571H25.2936C24.302 40.7571 23.4978 39.9592 23.4978 38.9751V32.6945C23.4978 32.5527 23.4411 32.4167 23.3401 32.3164C23.239 32.2162 23.102 32.1598 22.9591 32.1598C22.8163 32.1598 22.6792 32.2162 22.5782 32.3164C22.4772 32.4167 22.4204 32.5527 22.4204 32.6945V38.9751C22.4204 40.5498 23.7067 41.8265 25.2936 41.8265H26.9537C28.4837 41.8265 29.7452 40.6366 29.8231 39.1201L30.1807 32.1702C30.1843 32.1 30.1739 32.0299 30.1502 31.9638C30.1265 31.8976 30.0899 31.8368 30.0425 31.7847C29.9951 31.7326 29.9378 31.6903 29.8739 31.6601C29.81 31.63 29.7408 31.6127 29.6701 31.6091C29.5995 31.6055 29.5288 31.6157 29.4621 31.6392C29.3954 31.6627 29.334 31.699 29.2815 31.7461C29.229 31.7932 29.1863 31.85 29.1559 31.9135C29.1256 31.9769 29.1081 32.0457 29.1045 32.1158Z" fill="#524F75"/>
<path d="M15.4126 32.5508C15.4126 32.7399 15.4883 32.9212 15.623 33.0549C15.7577 33.1886 15.9404 33.2637 16.1309 33.2637C16.3214 33.2637 16.5041 33.1886 16.6388 33.0549C16.7735 32.9212 16.8492 32.7399 16.8492 32.5508C16.8492 32.3617 16.7735 32.1804 16.6388 32.0467C16.5041 31.913 16.3214 31.8379 16.1309 31.8379C15.9404 31.8379 15.7577 31.913 15.623 32.0467C15.4883 32.1804 15.4126 32.3617 15.4126 32.5508Z" fill="#524F75"/>
<path d="M22.2363 30.9473C22.2363 31.1363 22.312 31.3177 22.4467 31.4514C22.5814 31.585 22.7641 31.6602 22.9546 31.6602C23.1451 31.6602 23.3278 31.585 23.4625 31.4514C23.5972 31.3177 23.6729 31.1363 23.6729 30.9473C23.6729 30.7582 23.5972 30.5769 23.4625 30.4432C23.3278 30.3095 23.1451 30.2344 22.9546 30.2344C22.7641 30.2344 22.5814 30.3095 22.4467 30.4432C22.312 30.5769 22.2363 30.7582 22.2363 30.9473Z" fill="#524F75"/>
<path d="M22.9292 40.429C24.0478 40.8449 24.9858 41.0528 25.7436 41.0528C26.5013 41.0528 27.6003 40.7738 29.0404 40.2158L28.533 43.087H23.5324L22.9292 40.429Z" fill="#EAE6DB"/>
<path d="M23.9634 42.5514H28.0807L28.3482 41.0371C27.273 41.4022 26.409 41.5865 25.7437 41.5865C25.1402 41.5865 24.4484 41.47 23.6655 41.2388L23.9634 42.5514ZM23.1182 39.9274C24.1812 40.3227 25.0593 40.5174 25.7437 40.5174C26.4196 40.5174 27.4615 40.2531 28.8448 39.7171C29.236 39.5655 29.6439 39.897 29.5713 40.3076L29.0638 43.1786C29.0419 43.3025 28.9767 43.4147 28.8796 43.4956C28.7826 43.5764 28.6599 43.6208 28.5332 43.6208H23.5324C23.4101 43.6207 23.2915 43.5794 23.196 43.5036C23.1005 43.4278 23.0339 43.3219 23.007 43.2035L22.4038 40.5455C22.3097 40.131 22.7174 39.7784 23.1182 39.9274Z" fill="#524F75"/>
<path d="M22.9472 34.4902C22.9939 35.515 22.8743 37.1844 22.5884 39.4987C22.4379 40.7163 21.3574 41.6063 20.1239 41.529L18.4514 41.424C17.2279 41.3472 16.273 40.3445 16.2644 39.1278L16.2031 36.4887" fill="#E1975C"/>
<path d="M22.4092 34.5142C22.4541 35.5019 22.3363 37.1468 22.0538 39.4335C21.9981 39.8847 21.7708 40.2978 21.4184 40.5881C21.066 40.8784 20.6151 41.0241 20.158 40.9953L18.4855 40.8903C18.0319 40.8619 17.6061 40.6638 17.2939 40.336C16.9816 40.0083 16.8063 39.5752 16.8031 39.1241L16.7417 36.4763C16.7367 36.3357 16.6761 36.2027 16.5731 36.1062C16.47 36.0096 16.3327 35.9573 16.1911 35.9605C16.0494 35.9637 15.9147 36.0221 15.8161 36.1232C15.7176 36.2243 15.6631 36.3599 15.6646 36.5005L15.7256 39.14C15.7361 40.6287 16.9115 41.8627 18.4173 41.9574L20.0898 42.0623C21.6081 42.1577 22.938 41.0621 23.1231 39.5635C23.4124 37.222 23.5338 35.528 23.4853 34.4659C23.4833 34.395 23.4671 34.3251 23.4376 34.2605C23.4081 34.1958 23.366 34.1376 23.3136 34.0893C23.2612 34.041 23.1996 34.0035 23.1325 33.979C23.0653 33.9546 22.994 33.9436 22.9225 33.9468C22.8511 33.95 22.781 33.9673 22.7163 33.9977C22.6517 34.0281 22.5938 34.0709 22.546 34.1237C22.4982 34.1766 22.4615 34.2383 22.438 34.3053C22.4145 34.3724 22.4047 34.4434 22.4092 34.5142Z" fill="#524F75"/>
<path d="M16.502 40.5287C17.6435 40.8577 18.5866 41.0221 19.3309 41.0221C20.0753 41.0221 21.0771 40.7879 22.3365 40.3193L21.7873 43.067H16.8747L16.502 40.5287Z" fill="#EAE6DB"/>
<path d="M17.3408 42.5319H21.3451L21.6256 41.1289C20.7179 41.413 19.9554 41.5561 19.3314 41.5561C18.7171 41.5561 17.9921 41.4549 17.1533 41.254L17.3408 42.5319ZM16.6523 40.0149C17.7492 40.3307 18.6447 40.4868 19.3312 40.4868C19.9994 40.4868 20.9434 40.2661 22.1478 39.8181C22.543 39.6709 22.9474 40.0118 22.8654 40.4228L22.3157 43.1706C22.2915 43.292 22.2257 43.4013 22.1293 43.4798C22.033 43.5584 21.9122 43.6013 21.7876 43.6012H16.875C16.7456 43.6013 16.6205 43.555 16.5226 43.471C16.4247 43.387 16.3605 43.2708 16.3418 43.1437L15.9692 40.6053C15.9127 40.2205 16.2759 39.9065 16.6523 40.0149Z" fill="#524F75"/>
<path d="M10.564 40.75C11.7795 40.9886 12.7671 41.108 13.5269 41.108C14.2867 41.108 15.2743 40.9886 16.4899 40.75L16.0339 43.0669H11.0199L10.564 40.75Z" fill="#EAE6DB"/>
<path d="M11.4633 42.532H15.5901L15.8094 41.4172C14.9117 41.5671 14.1519 41.6425 13.5266 41.6425C12.9014 41.6425 12.1416 41.5671 11.2439 41.4172L11.4633 42.532ZM10.6684 40.2253C11.8523 40.4578 12.8073 40.5732 13.5268 40.5732C14.2464 40.5732 15.2013 40.4578 16.3853 40.2253C16.7609 40.1517 17.0919 40.4794 17.0184 40.8524L16.5625 43.1693C16.5386 43.291 16.4727 43.4007 16.3763 43.4795C16.2798 43.5584 16.1588 43.6015 16.0338 43.6015H11.0198C10.8948 43.6015 10.7738 43.5584 10.6773 43.4795C10.5809 43.4007 10.5151 43.291 10.4911 43.1693L10.0352 40.8524C9.96175 40.4792 10.2927 40.1517 10.6684 40.2253Z" fill="#524F75"/>
<path d="M12.9439 1.14503C12.9792 1.19725 13.0067 1.24323 13.0259 1.2828C13.8505 2.985 14.5291 4.22686 15.415 4.9893C16.4042 5.84103 17.7424 6.37962 19.4295 6.60489C19.0835 7.81895 18.7701 8.60669 18.4898 8.96831C18.2095 9.32992 17.6436 9.8252 16.7925 10.4543C15.4467 9.96921 14.2477 8.88133 13.1953 7.19089C12.2175 5.62021 11.784 3.684 12.2584 1.28262C12.2729 1.20979 12.3088 1.14284 12.3615 1.09022C12.4143 1.0376 12.4816 1.00167 12.5549 0.986952C12.6282 0.972235 12.7043 0.979395 12.7735 1.00753C12.8427 1.03566 12.902 1.08351 12.9439 1.14503Z" fill="#EAE6DB"/>
<path d="M13.5108 6.85251C14.3523 8.37721 15.32 9.40164 16.4086 9.94361C17.1152 9.4633 17.5904 9.08066 17.8227 8.81136C18.0203 8.58252 18.2806 8.05231 18.5825 7.24264C17.0985 6.88388 15.9006 6.27507 14.9971 5.41104C14.2207 4.66839 13.6556 3.67676 12.8308 1.7532C12.4373 3.67694 12.688 5.36132 13.5108 6.85251ZM13.5679 0.783307C13.613 0.857804 13.6496 0.927489 13.6778 0.994501C14.5285 3.01502 15.0643 3.99043 15.7449 4.64112C16.6065 5.46523 17.819 6.02823 19.3945 6.32283C19.4704 6.33701 19.5423 6.36719 19.6054 6.41135C19.6685 6.4555 19.7212 6.5126 19.7601 6.57876C19.7991 6.64493 19.8232 6.71862 19.8309 6.79485C19.8386 6.87107 19.8297 6.94805 19.8049 7.02058C19.3737 8.27758 18.9986 9.09295 18.6409 9.5075C18.3013 9.90084 17.6785 10.391 16.7573 11.0005C16.6065 11.1003 16.4152 11.1181 16.2484 11.0479C14.807 10.4417 13.5816 9.20737 12.5659 7.36651C11.5457 5.5178 11.2908 3.40675 11.892 1.03068C11.9361 0.856141 12.0313 0.698492 12.1656 0.577644C12.3 0.456796 12.4674 0.378171 12.6467 0.351701C12.8261 0.325231 13.0093 0.352102 13.1732 0.428921C13.3372 0.505741 13.4745 0.629061 13.5679 0.783307Z" fill="#524F75"/>
<path d="M18.106 13.7685C17.1292 13.9856 16.5592 14.2016 15.9038 14.2836C15.2485 14.3656 14.295 14.1513 13.208 13.7685L12.4405 13.4998C12.3207 13.4219 12.0832 13.2681 12.1038 13.0608C12.1207 12.892 12.2925 12.7127 12.4405 12.588C12.5391 12.5047 12.7165 12.3877 12.9728 12.2365C14.4372 11.4188 15.0664 11.1319 15.5821 10.9342C16.1758 10.707 17.0171 10.5463 18.106 10.4521" fill="#E1975C"/>
<path d="M12.7894 12.9949C12.859 12.9361 13.0158 12.8327 13.2478 12.6958C14.5199 11.9858 15.1874 11.6582 15.776 11.4327C16.3147 11.2265 17.1097 11.0745 18.1527 10.9845C18.2927 10.9694 18.4213 10.9004 18.5107 10.7923C18.6001 10.6843 18.6434 10.5458 18.6312 10.4065C18.6189 10.2672 18.5523 10.1381 18.4454 10.047C18.3385 9.95595 18.1999 9.91002 18.0593 9.9191C16.9242 10.0171 16.0368 10.1866 15.3883 10.4351C14.7437 10.6819 14.0331 11.0305 12.7086 11.7701C12.4169 11.9418 12.2189 12.0726 12.0914 12.1802C11.7961 12.4294 11.6002 12.6807 11.5675 13.0077C11.5325 13.3592 11.7022 13.6129 11.97 13.8236C12.0265 13.8682 12.0696 13.8977 12.1452 13.9468C12.1815 13.9703 12.2203 13.9894 12.2611 14.0036L13.0286 14.2724C14.2649 14.708 15.247 14.9042 15.9709 14.8136C16.0957 14.7979 16.2199 14.7779 16.3433 14.7538C16.638 14.6965 17.8499 14.3729 18.2234 14.2898C18.2926 14.2747 18.3581 14.2461 18.4162 14.2057C18.4742 14.1654 18.5237 14.1141 18.5617 14.0547C18.5997 13.9954 18.6256 13.9291 18.6378 13.8599C18.65 13.7906 18.6483 13.7196 18.6328 13.651C18.6173 13.5823 18.5884 13.5174 18.5476 13.4599C18.5067 13.4024 18.4549 13.3534 18.395 13.3159C18.3351 13.2783 18.2683 13.2528 18.1985 13.2409C18.1286 13.2289 18.0571 13.2308 17.988 13.2463C17.5784 13.3374 16.3857 13.6559 16.1362 13.7044C16.0323 13.7245 15.9337 13.7406 15.8362 13.7527C15.3219 13.817 14.479 13.6486 13.3881 13.2642L12.7407 13.0375C12.756 13.0236 12.7721 13.0093 12.7894 12.9949Z" fill="#524F75"/>
<path d="M15.9101 11.797C16.0848 11.7505 16.433 11.6922 16.9549 11.622C17.1408 11.597 17.3295 11.6419 17.4838 11.7479C17.6382 11.8539 17.747 12.0133 17.789 12.1948C17.8752 12.5678 17.6825 12.9907 17.3133 13.1011C16.8378 13.2431 16.4083 13.282 16.2578 13.313C16.0793 13.3497 15.6077 13.3839 15.0139 13.313C14.7691 13.2837 14.5037 13.2372 14.4531 12.9932C14.4008 12.7407 14.6217 12.4131 14.8483 12.2871C15.4226 11.9959 15.7765 11.8325 15.9101 11.797Z" fill="#FFE8A9"/>
<path d="M28.7007 13.2057C28.7007 13.7469 28.9176 14.266 29.3036 14.6487C29.6897 15.0313 30.2133 15.2463 30.7593 15.2463C31.3053 15.2463 31.8289 15.0313 32.215 14.6487C32.601 14.266 32.8179 13.7469 32.8179 13.2057C32.8179 12.6645 32.601 12.1454 32.215 11.7627C31.8289 11.38 31.3053 11.165 30.7593 11.165C30.2133 11.165 29.6897 11.38 29.3036 11.7627C28.9176 12.1454 28.7007 12.6645 28.7007 13.2057Z" fill="white"/>
<path d="M30.7595 15.7805C29.3252 15.7805 28.1621 14.6276 28.1621 13.2052C28.1621 11.7828 29.3252 10.6299 30.7595 10.6299C32.1937 10.6299 33.3568 11.7828 33.3568 13.2052C33.3568 14.6276 32.1937 15.7805 30.7595 15.7805ZM30.7595 14.7112C31.599 14.7112 32.2794 14.0368 32.2794 13.2052C32.2794 12.3736 31.599 11.6992 30.7595 11.6992C29.9199 11.6992 29.2395 12.3736 29.2395 13.2052C29.2395 14.0368 29.9199 14.7112 30.7595 14.7112Z" fill="#524F75"/>
<path d="M29.656 13.8259C29.7181 13.8973 29.795 13.9545 29.8814 13.9938C29.9679 14.033 30.0618 14.0532 30.1568 14.0531C30.3323 14.0532 30.5005 13.9841 30.6247 13.8611C30.7488 13.7381 30.8186 13.5712 30.8188 13.3971C30.8188 13.0349 30.5225 12.7412 30.1568 12.7412C29.9837 12.7411 29.8175 12.8083 29.6938 12.9285C29.5701 13.0486 29.4987 13.2121 29.4951 13.3839L29.9857 13.4545L29.656 13.8259Z" fill="#232323"/>
<path d="M22.5952 12.2339C22.5952 12.6084 22.6694 12.9792 22.8138 13.3252C22.9582 13.6713 23.1698 13.9857 23.4366 14.2505C23.7034 14.5153 24.0201 14.7254 24.3688 14.8688C24.7174 15.0121 25.091 15.0859 25.4684 15.0859C25.8457 15.0859 26.2194 15.0121 26.568 14.8688C26.9166 14.7254 27.2334 14.5153 27.5002 14.2505C27.767 13.9857 27.9786 13.6713 28.123 13.3252C28.2673 12.9792 28.3416 12.6084 28.3416 12.2339C28.3416 11.8593 28.2673 11.4885 28.123 11.1425C27.9786 10.7964 27.767 10.482 27.5002 10.2172C27.2334 9.95236 26.9166 9.74227 26.568 9.59894C26.2194 9.45561 25.8457 9.38184 25.4684 9.38184C25.091 9.38184 24.7174 9.45561 24.3688 9.59894C24.0201 9.74227 23.7034 9.95236 23.4366 10.2172C23.1698 10.482 22.9582 10.7964 22.8138 11.1425C22.6694 11.4885 22.5952 11.8593 22.5952 12.2339Z" fill="white"/>
<path d="M25.4685 15.6201C23.5841 15.6201 22.0566 14.104 22.0566 12.2339C22.0566 10.3638 23.5841 8.84766 25.4685 8.84766C27.353 8.84766 28.8804 10.3638 28.8804 12.2339C28.8804 14.104 27.353 15.6201 25.4685 15.6201ZM25.4685 14.5508C26.7579 14.5508 27.803 13.5135 27.803 12.2339C27.803 10.9543 26.7579 9.917 25.4685 9.917C24.1792 9.917 23.1341 10.9543 23.1341 12.2339C23.1341 13.5135 24.1792 14.5508 25.4685 14.5508Z" fill="#524F75"/>
<path d="M25.6869 13.3508C25.8066 13.4885 25.9659 13.5865 26.1434 13.6317C26.3208 13.6769 26.508 13.6672 26.6797 13.6038C26.8514 13.5404 26.9994 13.4264 27.104 13.2771C27.2085 13.1277 27.2645 12.9502 27.2645 12.7684C27.2657 12.6514 27.2437 12.5353 27.1996 12.4267C27.1556 12.3181 27.0905 12.2192 27.008 12.1356C26.9255 12.052 26.8271 11.9854 26.7187 11.9395C26.6102 11.8936 26.4937 11.8694 26.3758 11.8682C26.2579 11.867 26.1409 11.8889 26.0315 11.9326C25.9221 11.9762 25.8224 12.0409 25.7382 12.1228C25.654 12.2047 25.5868 12.3023 25.5406 12.4099C25.4944 12.5176 25.47 12.6332 25.4688 12.7502L26.1344 12.8463L25.6869 13.3508Z" fill="#232323"/>
<path d="M25.66 15.6995C26.8086 15.5161 27.6558 15.4304 28.2013 15.4425C28.7501 15.4547 29.5578 15.5534 30.6243 15.7387C31.761 15.9363 32.8148 16.4589 33.6565 17.2424C34.4981 18.026 35.0909 19.0364 35.3622 20.1496L35.5809 21.0476C36.1476 23.3738 34.7073 25.7155 32.3635 26.278C32.2516 26.3047 32.1387 26.3271 32.025 26.3451C29.9956 26.6665 28.7212 26.8337 28.2013 26.847C27.6897 26.8599 26.4782 26.7082 24.5666 26.3913C22.014 25.9682 20.2793 23.5857 20.6762 21.0475L20.7455 20.6042C20.9376 19.3763 21.5166 18.2402 22.3995 17.3591C23.2824 16.4779 24.4238 15.897 25.66 15.6995Z" fill="#FFE6A2"/>
<path d="M25.7456 16.228C24.6218 16.4075 23.5841 16.9356 22.7814 17.7367C21.9788 18.5378 21.4524 19.5706 21.2779 20.687L21.2085 21.13C20.8569 23.3789 22.3939 25.4895 24.6553 25.8645C26.5293 26.175 27.7242 26.3247 28.1875 26.3129C28.6738 26.3006 29.9376 26.1347 31.94 25.8178C32.0396 25.802 32.1386 25.7823 32.2367 25.7588C34.2912 25.2655 35.5541 23.2129 35.057 21.1739L34.8383 20.2758C34.5917 19.2638 34.0528 18.3453 33.2877 17.633C32.5226 16.9207 31.5646 16.4456 30.5313 16.266C29.4892 16.0849 28.7054 15.989 28.1891 15.9776C27.6839 15.9664 26.8646 16.0493 25.7456 16.228ZM25.5745 15.1722C26.7529 14.984 27.6277 14.8956 28.2133 14.9084C28.7948 14.9213 29.6262 15.023 30.7171 15.2125C31.9571 15.428 33.1068 15.9981 34.0249 16.8529C34.943 17.7077 35.5897 18.8099 35.8856 20.0243L36.1045 20.9224C36.7413 23.5355 35.1229 26.1661 32.49 26.7981C32.3643 26.8282 32.2376 26.8535 32.1099 26.8736C30.0538 27.1991 28.7687 27.3677 28.2153 27.3819C27.6558 27.3962 26.4273 27.2424 24.478 26.9193C21.6343 26.4479 19.7019 23.7938 20.144 20.9661L20.2133 20.5228C20.6429 17.7746 22.8078 15.614 25.5745 15.1722Z" fill="#524F75"/>
<path d="M28.0515 22.2086C28.46 21.8643 28.7006 21.3742 28.7006 20.8458C28.7006 19.7367 27.9662 18.9712 26.7093 19.0081C25.4606 19.0448 24.75 19.7622 24.75 20.8458C24.75 20.9876 24.8068 21.1236 24.9078 21.2238C25.0088 21.3241 25.1458 21.3804 25.2887 21.3804C25.4316 21.3804 25.5686 21.3241 25.6696 21.2238C25.7707 21.1236 25.8274 20.9876 25.8274 20.8458C25.8274 20.3435 26.0718 20.0967 26.7413 20.0771C27.371 20.0586 27.6232 20.3214 27.6232 20.8458C27.6232 21.052 27.5273 21.2475 27.3542 21.3933C27.2452 21.485 27.1775 21.616 27.1658 21.7574C27.1542 21.8987 27.1996 22.0389 27.292 22.147C27.3845 22.2551 27.5165 22.3223 27.6589 22.3339C27.8013 22.3455 27.9425 22.3004 28.0515 22.2086Z" fill="#524F75"/>
<path d="M26.5658 21.2963C26.8303 21.2963 27.2646 21.1498 27.2611 20.781C27.2577 20.4121 26.8303 20.2656 26.5658 20.2656C26.3013 20.2656 26.0869 20.6221 26.0869 20.862C26.0869 21.1018 26.3015 21.2963 26.5658 21.2963Z" fill="#F9D679"/>
<path d="M31.1457 22.2086C30.7372 21.8643 30.4966 21.3742 30.4966 20.8458C30.4966 19.7367 31.231 18.9712 32.4879 19.0081C33.7366 19.0448 34.4472 19.7622 34.4472 20.8458C34.4472 20.9876 34.3904 21.1236 34.2894 21.2238C34.1884 21.3241 34.0514 21.3804 33.9085 21.3804C33.7656 21.3804 33.6286 21.3241 33.5275 21.2238C33.4265 21.1236 33.3698 20.9876 33.3698 20.8458C33.3698 20.3435 33.1254 20.0967 32.4559 20.0771C31.8261 20.0586 31.574 20.3214 31.574 20.8458C31.574 21.052 31.6699 21.2475 31.843 21.3933C31.952 21.485 32.0197 21.616 32.0314 21.7574C32.043 21.8987 31.9976 22.0389 31.9052 22.147C31.8127 22.2551 31.6807 22.3223 31.5383 22.3339C31.3959 22.3455 31.2547 22.3004 31.1457 22.2086Z" fill="#524F75"/>
<path d="M32.4522 21.2963C32.1877 21.2963 31.7534 21.1498 31.7569 20.781C31.7603 20.4121 32.1877 20.2656 32.4522 20.2656C32.7167 20.2656 32.9311 20.6221 32.9311 20.862C32.9311 21.1018 32.7165 21.2963 32.4522 21.2963Z" fill="#F9D679"/>
</g>
<defs>
<clipPath id="clip0_2087_108">
<rect width="38" height="44" fill="white"/>
</clipPath>
</defs>
</svg>
