<svg width="58" height="53" viewBox="0 0 58 53" fill="none" xmlns="http://www.w3.org/2000/svg">
<g clip-path="url(#clip0_2087_68)">
<path d="M24.0795 45.8158C24.1918 45.1884 23.767 44.5901 23.1307 44.4791L22.117 44.3029C21.4808 44.1922 20.8742 44.6112 20.7619 45.239L20.2293 48.2184C20.1979 48.3944 20.1322 48.5625 20.0358 48.713C19.9395 48.8636 19.8144 48.9937 19.6678 49.0959C19.5211 49.1981 19.3558 49.2704 19.1812 49.3087C19.0065 49.347 18.8261 49.3505 18.6501 49.319L18.6447 49.3181L16.8278 48.9853C16.1972 48.876 15.6054 49.2843 15.4959 49.897C15.3852 50.516 15.8012 51.1078 16.4279 51.2225L20.5181 51.9711C20.5873 51.9974 20.6601 52.0176 20.7358 52.0307L21.7495 52.207C21.9169 52.2364 22.0887 52.2293 22.2531 52.1861C22.677 52.0818 23.0205 51.7406 23.1014 51.2888C23.1026 51.2806 23.4288 49.4562 24.0795 45.8158Z" fill="#6FCB6C"/>
<path d="M16.3053 51.8912C15.3118 51.7093 14.649 50.7666 14.8259 49.7767C15.002 48.7911 15.949 48.1415 16.9502 48.3157L18.7671 48.6487C18.8553 48.6647 18.9457 48.6631 19.0332 48.6441C19.1208 48.6251 19.2037 48.589 19.2773 48.538C19.3509 48.4869 19.4137 48.4218 19.4621 48.3464C19.5105 48.271 19.5436 48.1868 19.5594 48.0986L20.092 45.119C20.2705 44.1207 21.2302 43.4579 22.2335 43.6323L23.2472 43.8086C24.253 43.9835 24.9282 44.9348 24.7493 45.9351L23.7712 51.4078C23.7094 51.7514 23.5495 52.0698 23.3108 52.3246C23.0721 52.5793 22.7647 52.7595 22.4259 52.8434C22.1669 52.9115 21.8963 52.9228 21.6326 52.8765L20.6189 52.7003C20.5247 52.6839 20.4319 52.6604 20.3413 52.6298L16.3053 51.8912ZM23.0143 45.1494L22.0006 44.9734C21.7313 44.9266 21.4779 45.1015 21.4319 45.3585L20.8993 48.3381C20.8522 48.6021 20.7535 48.8541 20.6089 49.0799C20.4644 49.3056 20.2767 49.5007 20.0568 49.6539C19.8368 49.8072 19.5888 49.9156 19.3269 49.973C19.065 50.0303 18.7944 50.0356 18.5305 49.9883L16.7114 49.6553C16.4485 49.6095 16.2094 49.7737 16.1661 50.0158C16.1216 50.2646 16.2906 50.5048 16.5508 50.5522L20.7017 51.3123L20.7596 51.3343C20.7891 51.3454 20.8204 51.3541 20.8528 51.3593L21.8665 51.5355C21.9395 51.5487 22.0117 51.5451 22.0911 51.5244C22.2671 51.4811 22.4009 51.342 22.4318 51.169L23.4101 45.6958C23.4552 45.4418 23.2808 45.1959 23.0143 45.1494Z" fill="#524F75"/>
<path d="M36.6124 44.1848C36.4151 43.5717 35.7634 43.2362 35.1564 43.4354L34.1895 43.7527C33.5827 43.9518 33.2504 44.6099 33.4475 45.2228L34.4031 48.1931C34.5132 48.5352 34.4835 48.9068 34.3206 49.2271C34.1577 49.5474 33.8747 49.7902 33.5335 49.9027L31.9146 50.4364C31.3171 50.6333 30.9909 51.2816 31.1849 51.8852C31.3797 52.4888 32.0214 52.8175 32.6171 52.621L37.6016 50.9779C38.1991 50.781 38.5253 50.1327 38.3314 49.5291C38.3293 49.5214 37.7561 47.7399 36.6124 44.1848Z" fill="#6FCB6C"/>
<path d="M38.9794 49.3212C39.2872 50.2795 38.7684 51.3102 37.8146 51.6246L32.8303 53.2675C31.8739 53.583 30.8478 53.0557 30.537 52.0937C30.229 51.1351 30.748 50.1042 31.7013 49.7907L33.3204 49.2567C33.491 49.2004 33.6325 49.079 33.7139 48.9188C33.7954 48.7587 33.8102 48.5729 33.7553 48.4018L32.7996 45.4313C32.4882 44.4631 33.0131 43.4222 33.9767 43.106L34.9439 42.7887C35.9106 42.4718 36.9472 43.0053 37.26 43.9761L38.9794 49.3212ZM35.3682 44.0825L34.401 44.3996C34.1509 44.4818 34.0118 44.7573 34.0946 45.0153L35.0502 47.9856C35.3943 49.0537 34.8112 50.1985 33.7462 50.5499L32.1269 51.0838C31.886 51.1635 31.7524 51.4288 31.8318 51.6768C31.9114 51.9224 32.1672 52.0538 32.4036 51.9755L37.3882 50.3326C37.6291 50.253 37.7629 49.9873 37.6833 49.7392L35.9634 44.3942C35.8822 44.1388 35.6155 44.0013 35.3682 44.0825Z" fill="#524F75"/>
<path d="M24.3508 26.4322C21.4497 27.325 19.2705 27.9441 17.8125 28.2891C16.3553 28.6348 14.7101 28.9212 12.8771 29.1499C12.7333 29.7292 12.4427 30.1257 12.0065 30.3396C11.3524 30.6603 10.1878 31.2832 9.37033 31.0904C8.55215 30.8981 7.97623 30.6826 7.55138 29.4931C7.1263 28.304 7.3985 27.0701 7.90297 26.5341C8.40766 25.9981 9.47807 25.6181 10.1465 25.478C10.5923 25.3847 11.1069 25.5272 11.6906 25.9058C13.9074 24.8753 15.6229 24.1356 16.8373 23.6869C18.0518 23.2383 20.2144 22.5446 23.326 21.6064" fill="#70C56E"/>
<path d="M12.3069 30.951C12.2774 30.9651 12.2466 30.9805 12.2037 31.0018L12.0899 31.0581C11.9919 31.1061 11.9152 31.144 11.8372 31.1812C11.4931 31.3468 11.1975 31.4736 10.9017 31.5759C10.2725 31.7937 9.71835 31.8719 9.21457 31.7531C7.97744 31.4618 7.36727 31 6.91066 29.7223C6.43545 28.3926 6.66364 26.8574 7.40764 26.0676C7.96179 25.4792 9.0272 25.0178 10.0067 24.8123C10.5526 24.6978 11.1279 24.8162 11.7285 25.138C13.8045 24.1788 15.427 23.4829 16.6008 23.0489C17.8323 22.5944 20.0053 21.8978 23.1292 20.9558C23.2147 20.9299 23.3046 20.9212 23.3935 20.9301C23.4824 20.939 23.5687 20.9654 23.6475 21.0076C23.7262 21.0499 23.7959 21.1072 23.8525 21.1764C23.9091 21.2456 23.9515 21.3252 23.9773 21.4108C24.0031 21.4963 24.0118 21.5862 24.0029 21.6751C23.994 21.764 23.9677 21.8503 23.9254 21.9291C23.8832 22.0078 23.8258 22.0775 23.7567 22.1341C23.6875 22.1907 23.6078 22.2331 23.5223 22.2589C20.4233 23.1934 18.2707 23.8837 17.0731 24.326C15.8793 24.7672 14.1787 25.5001 11.9773 26.5237C11.8729 26.5723 11.7578 26.5935 11.6428 26.5854C11.5279 26.5774 11.4169 26.5403 11.3202 26.4777C10.8743 26.1885 10.5318 26.0937 10.2861 26.1449C9.55413 26.2983 8.72008 26.6598 8.39843 27.0012C8.02825 27.3945 7.88013 28.3905 8.1927 29.265C8.47828 30.0634 8.70579 30.2358 9.52691 30.4288C9.72924 30.4765 10.0491 30.4311 10.4569 30.2905C10.6955 30.2079 10.9471 30.0999 11.2485 29.9548C11.4019 29.8802 11.5549 29.8049 11.7076 29.7291C11.9522 29.6093 12.1193 29.3811 12.2176 28.986C12.2508 28.8526 12.3237 28.7325 12.4265 28.6413C12.5293 28.5501 12.6573 28.4922 12.7937 28.4751C14.6031 28.2495 16.224 27.9666 17.6569 27.6277C19.0964 27.2863 21.2635 26.6707 24.152 25.782C24.3245 25.7289 24.511 25.7466 24.6705 25.831C24.83 25.9155 24.9494 26.0599 25.0025 26.2324C25.0555 26.4049 25.0379 26.5914 24.9534 26.7509C24.8689 26.9104 24.7246 27.0298 24.5521 27.0829C21.6378 27.9798 19.4457 28.6022 17.9704 28.9517C16.6019 29.2761 15.0752 29.5487 13.3885 29.771C13.1639 30.3054 12.8016 30.7081 12.3067 30.951H12.3069Z" fill="#524F75"/>
<path d="M7.62948 27.8971L9.33342 27.3219C9.37609 27.3061 9.42148 27.2991 9.46692 27.3011C9.51236 27.3032 9.55692 27.3144 9.59797 27.334C9.63901 27.3536 9.67572 27.3812 9.7059 27.4152C9.73608 27.4493 9.75914 27.489 9.7737 27.5321C9.78826 27.5752 9.79403 27.6208 9.79068 27.6661C9.78732 27.7115 9.7749 27.7557 9.75416 27.7962C9.73341 27.8367 9.70476 27.8726 9.66989 27.9018C9.63503 27.931 9.59466 27.953 9.55118 27.9663L7.84723 28.5418C7.80475 28.5567 7.75971 28.5631 7.71474 28.5605C7.66977 28.5579 7.62577 28.5464 7.58527 28.5267C7.54478 28.507 7.50861 28.4794 7.47885 28.4456C7.4491 28.4118 7.42635 28.3724 7.41194 28.3297C7.39752 28.287 7.39172 28.2419 7.39488 28.197C7.39803 28.152 7.41008 28.1082 7.43032 28.068C7.45055 28.0277 7.47858 27.9919 7.51277 27.9626C7.54695 27.9332 7.58662 27.911 7.62948 27.8971ZM8.15005 29.2259L9.85422 28.6504C9.93878 28.6247 10.03 28.6329 10.1086 28.6733C10.1873 28.7137 10.2471 28.7831 10.2754 28.8668C10.3038 28.9505 10.2984 29.042 10.2606 29.1218C10.2227 29.2017 10.1552 29.2636 10.0724 29.2946L8.36826 29.8705C8.28274 29.8993 8.18928 29.8931 8.1084 29.853C8.02752 29.813 7.96581 29.7425 7.93683 29.6571C7.9225 29.6148 7.91665 29.57 7.91961 29.5255C7.92257 29.4809 7.93429 29.4373 7.95409 29.3973C7.97389 29.3573 8.00139 29.3215 8.03501 29.2921C8.06864 29.2627 8.10773 29.2402 8.15005 29.2259Z" fill="#524F75"/>
<path d="M43.7781 33.1023C44.6248 33.4276 44.9029 35.2349 44.6119 38.5249L39.5298 36.5735C41.5148 33.9343 42.9311 32.7772 43.7781 33.1023Z" fill="#B0E6BB"/>
<path d="M43.9576 34.8231C43.8642 34.1345 43.6968 33.8031 43.5611 33.7484C43.4257 33.6937 43.0753 33.8158 42.5297 34.2461C41.9942 34.6682 41.3527 35.3292 40.6114 36.2261L43.9619 37.58C44.052 36.42 44.0495 35.4989 43.9576 34.8231ZM44.071 32.4866C45.3426 33.0008 45.6162 35.0078 45.2319 38.6255C45.2208 38.7302 45.1855 38.8309 45.1289 38.9196C45.0723 39.0084 44.9958 39.0828 44.9055 39.137C44.8152 39.1912 44.7136 39.2237 44.6087 39.232C44.5037 39.2402 44.3982 39.224 44.3006 39.1846L39.2532 37.1454C39.1555 37.106 39.0684 37.0444 38.9986 36.9656C38.9288 36.8867 38.8782 36.7928 38.8509 36.6911C38.8236 36.5894 38.8203 36.4827 38.8412 36.3795C38.8621 36.2763 38.9067 36.1794 38.9715 36.0963C41.2087 33.2267 42.7992 31.9726 44.071 32.4866Z" fill="#524F75"/>
<path d="M48.4943 34.5885C49.1909 34.7627 49.5767 36.1833 49.652 38.8515L45.4702 37.8088C46.7895 35.4883 47.797 34.4147 48.4943 34.5885Z" fill="#B0E6BB"/>
<path d="M48.6754 35.9964C48.5665 35.493 48.4374 35.28 48.3927 35.2662C48.3485 35.2524 48.1221 35.3569 47.7508 35.7135C47.3858 36.0635 46.9589 36.5895 46.4753 37.2891L48.8518 38.0156C48.8414 37.1652 48.7822 36.4904 48.6754 35.9964ZM48.7906 33.9647C49.9268 34.3119 50.2786 35.9394 50.2055 38.9497C50.2029 39.0546 50.176 39.1575 50.127 39.2504C50.0781 39.3432 50.0083 39.4235 49.9231 39.4849C49.838 39.5463 49.7398 39.5873 49.6362 39.6045C49.5327 39.6217 49.4266 39.6147 49.3261 39.5841L45.2044 38.3239C45.1041 38.2931 45.0122 38.2396 44.9359 38.1675C44.8597 38.0953 44.8012 38.0065 44.7649 37.908C44.7287 37.8095 44.7158 37.7039 44.7271 37.5996C44.7385 37.4953 44.7738 37.395 44.8304 37.3065C46.4531 34.7701 47.6551 33.6178 48.7906 33.9647Z" fill="#524F75"/>
<path d="M52.7128 35.672C53.3529 35.7282 53.8944 36.9143 54.3369 39.23L50.4951 38.8939C51.3333 36.6902 52.0725 35.6162 52.7128 35.672Z" fill="#B0E6BB"/>
<path d="M52.5837 36.3888C52.4825 36.4691 52.3575 36.6174 52.2199 36.8336C51.9948 37.187 51.7542 37.6885 51.5031 38.3338L53.5191 38.4395C53.3368 37.7713 53.1503 37.2473 52.9629 36.8726C52.8486 36.6435 52.7402 36.4827 52.6474 36.3924C52.6378 36.3828 52.6277 36.3735 52.6173 36.3647C52.6058 36.3723 52.5946 36.3803 52.5837 36.3888ZM52.6887 34.9892C53.7965 35.0473 54.4661 36.3879 55.0645 39.0164C55.1643 39.4564 54.8157 39.8708 54.3654 39.847L50.5141 39.6449C50.4091 39.6393 50.3067 39.6095 50.2152 39.5577C50.1236 39.506 50.0452 39.4337 49.9863 39.3466C49.9273 39.2595 49.8893 39.1599 49.8752 39.0557C49.8612 38.9514 49.8715 38.8454 49.9053 38.7458C50.7756 36.1944 51.5818 34.9309 52.6887 34.9892Z" fill="#524F75"/>
<path d="M20.9317 45.316C16.7231 45.4587 13.5386 42.9032 13.3971 38.6697C13.3835 38.265 13.552 34.0759 13.9753 31.0096C14.1971 29.4028 14.6378 26.1523 15.2975 21.2596C15.6239 18.8389 13.9748 16.5944 11.5672 16.182C8.4277 15.6445 6.27487 15.2411 5.10874 14.9721C2.64855 14.4044 0.960938 12.6734 0.960938 10.1881C0.960938 7.69704 3.20927 6.36509 5.68012 6.19792C13.2623 6.17546 17.1507 6.17546 17.345 6.19792L26.3279 6.17773C32.13 6.17773 36.8331 10.9089 36.8331 16.7453V30.2137C36.8331 33.7173 39.1297 36.8067 42.4852 37.8161C44.2744 38.3544 45.3247 38.6506 45.6356 38.7044C50.1736 39.4885 52.4945 38.7704 55.4594 39.3928C56.1612 39.5398 58.4925 40.6451 54.9733 41.7387C51.5078 42.8152 44.1533 44.5935 36.1809 45.316C30.8657 45.7975 25.7831 45.7975 20.9317 45.316Z" fill="#70C56E"/>
<path d="M20.9318 45.3166C25.783 45.7982 30.8658 45.7982 36.1811 45.3166C44.1532 44.5939 51.5075 42.8158 54.9734 41.7393C58.4927 40.6462 56.1607 39.5409 55.4595 39.3934C52.4953 38.771 50.1737 39.4891 45.6358 38.705C45.3248 38.6512 44.2746 38.355 42.4853 37.8167C39.1299 36.8078 36.8332 33.7184 36.8332 30.2143V16.7459C36.8332 10.9096 32.1301 6.17836 26.3281 6.17836L17.345 6.19855C17.1506 6.17609 13.262 6.17609 5.68003 6.19855C3.20941 6.36549 0.961073 7.69743 0.961073 10.1887C0.961073 12.6741 2.64914 14.405 5.10933 14.9728C6.27546 15.2418 8.42829 15.6451 11.5678 16.1827C13.9754 16.5948 15.6245 18.8395 15.298 21.2602C14.6384 26.1532 14.1977 29.4034 13.9759 31.0103C13.5526 34.0765 13.3841 38.2652 13.3977 38.6703C13.5392 42.9038 16.7234 45.4593 20.9318 45.3166ZM12.0374 38.7154C12.0045 37.7333 12.2821 33.3264 12.6276 30.8243C12.8492 29.2192 13.2897 25.9701 13.9493 21.0785C14.1777 19.3839 13.0234 17.8129 11.3381 17.5244C8.17402 16.9825 6.00235 16.5755 4.80311 16.299C1.66833 15.5754 -0.399902 13.2665 -0.399902 10.1887C-0.399902 7.05778 2.20296 5.06962 5.58839 4.84075C13.0254 4.81602 16.5458 4.81398 17.342 4.83825L26.3281 4.81738C32.8832 4.81738 38.1942 10.1597 38.1942 16.7459V30.2143C38.1943 31.6281 38.6498 33.0043 39.4934 34.1389C40.3369 35.2735 41.5235 36.1062 42.8773 36.5136C44.5865 37.0278 45.6378 37.3238 45.8676 37.3638C47.7555 37.6899 48.9976 37.7559 51.3909 37.7478C52.5096 37.7439 52.9844 37.7496 53.6029 37.7854C54.3542 37.8288 55.0442 37.9149 55.7394 38.061C56.5907 38.24 57.5711 38.7685 57.9996 39.5692C58.4208 40.3572 58.2511 41.2525 57.5849 41.9044C57.1149 42.3644 56.3959 42.7219 55.3774 43.0383C50.5373 44.542 43.1844 46.0484 36.3042 46.6721C30.9379 47.1585 25.7982 47.1612 20.8858 46.6794C15.8969 46.8078 12.2007 43.6056 12.0374 38.7154Z" fill="#524F75"/>
<path d="M18.6656 25.459H20.4567C21.1355 25.459 21.7965 25.6765 22.3426 26.0797C22.8887 26.4829 23.2913 27.0504 23.4912 27.6992C24.2917 30.2959 24.7585 32.0168 24.8919 32.8616C24.9955 33.5178 25.1266 35.0936 25.2852 37.5896C25.4759 40.5903 23.1981 43.1773 20.1974 43.3678C20.0825 43.3752 19.9673 43.3789 19.8522 43.379H19.8252C16.924 43.379 14.5723 41.0272 14.5723 38.126C14.5723 37.9555 14.5807 37.7849 14.597 37.6152L15.5048 28.3266C15.6638 26.6993 17.0315 25.459 18.6656 25.459Z" fill="white"/>
<path d="M7.76562 6.5726L7.83254 5.50877C7.83231 4.87614 8.37421 4.36328 9.04199 4.36328C9.71001 4.36328 10.244 4.8242 10.4461 5.50877L10.4876 6.63157" fill="#6FCB6C"/>
<path d="M9.80735 6.65635C9.81063 6.74565 9.83146 6.83344 9.86866 6.91469C9.90587 6.99594 9.95871 7.06907 10.0242 7.1299C10.0896 7.19073 10.1664 7.23807 10.2502 7.26922C10.334 7.30036 10.423 7.31471 10.5123 7.31143C10.6016 7.30815 10.6894 7.28732 10.7707 7.25012C10.8519 7.21292 10.9251 7.16007 10.9859 7.09461C11.0467 7.02915 11.0941 6.95234 11.1252 6.86858C11.1563 6.78482 11.1707 6.69575 11.1674 6.60644L11.1232 5.39813L11.0989 5.31601C10.8117 4.34224 10.0156 3.68262 9.04225 3.68262C8.01472 3.68262 7.1657 4.47901 7.15231 5.48455L7.08631 6.52955C7.08069 6.61875 7.0927 6.70818 7.12165 6.79274C7.1506 6.8773 7.19591 6.95533 7.25502 7.02237C7.31412 7.08941 7.38585 7.14416 7.46611 7.18348C7.54637 7.2228 7.63359 7.24593 7.72279 7.25155C7.81199 7.25716 7.90142 7.24515 7.98598 7.21621C8.07054 7.18726 8.14856 7.14194 8.21561 7.08284C8.28265 7.02374 8.3374 6.952 8.37672 6.87174C8.41604 6.79148 8.43917 6.70426 8.44479 6.61506L8.5117 5.55146L8.51306 5.50859C8.51306 5.26044 8.74216 5.04359 9.04225 5.04359C9.36276 5.04359 9.63564 5.25386 9.7697 5.62813L9.80735 6.65635Z" fill="#524F75"/>
<path d="M8.93224 5.60059C9.14705 5.60059 9.32103 5.77479 9.32103 5.98937V6.24274C9.32098 6.34582 9.27999 6.44466 9.20709 6.51753C9.13418 6.5904 9.03532 6.63134 8.93224 6.63134C8.82916 6.63134 8.7303 6.5904 8.6574 6.51753C8.58449 6.44466 8.54351 6.34582 8.54346 6.24274V5.98937C8.5434 5.9383 8.55341 5.88772 8.57293 5.84052C8.59245 5.79332 8.62108 5.75044 8.6572 5.71433C8.69331 5.67821 8.73619 5.64958 8.78339 5.63006C8.83059 5.61054 8.88117 5.60053 8.93224 5.60059Z" fill="#4E904C"/>
<path d="M3.45605 6.5726L3.52819 5.50877C3.52796 4.87614 4.11136 4.36328 4.83087 4.36328C5.55037 4.36328 6.13355 4.87614 6.13355 5.50877L6.17801 6.63157" fill="#6FCB6C"/>
<path d="M4.83085 3.68262C3.76271 3.68262 2.86265 4.46609 2.84768 5.48273L2.77691 6.52638C2.77001 6.61599 2.78094 6.70609 2.80906 6.79146C2.83717 6.87683 2.88193 6.95579 2.94073 7.02377C2.99953 7.09175 3.07122 7.1474 3.15165 7.18752C3.23208 7.22764 3.31967 7.25143 3.40934 7.25751C3.49902 7.2636 3.58901 7.25185 3.67412 7.22296C3.75924 7.19407 3.83778 7.1486 3.90523 7.08919C3.97267 7.02977 4.02767 6.95758 4.06706 6.87679C4.10645 6.79599 4.12944 6.7082 4.13471 6.61847L4.20684 5.55464L4.20843 5.50859C4.20843 5.27269 4.46883 5.04359 4.83085 5.04359C5.19264 5.04359 5.45304 5.27269 5.45304 5.50859L5.45349 5.53536L5.49795 6.65816C5.50146 6.74746 5.52252 6.83519 5.55994 6.91634C5.59737 6.99749 5.65041 7.07048 5.71605 7.13113C5.78169 7.19177 5.85863 7.23889 5.94248 7.26979C6.02634 7.30069 6.11546 7.31476 6.20475 7.31121C6.29405 7.3077 6.38178 7.28663 6.46293 7.24921C6.54408 7.21179 6.61707 7.15874 6.67772 7.09311C6.73836 7.02747 6.78548 6.95053 6.81638 6.86667C6.84727 6.78282 6.86135 6.6937 6.85779 6.6044L6.81401 5.49339C6.80517 4.47153 5.90284 3.68262 4.83085 3.68262Z" fill="#524F75"/>
<path d="M4.71218 5.60059C4.94355 5.60059 5.13091 5.78817 5.13091 6.01931V6.21302C5.13084 6.32405 5.08668 6.4305 5.00813 6.50897C4.92959 6.58744 4.8231 6.63151 4.71207 6.63148C4.60105 6.63145 4.49458 6.58732 4.41608 6.50881C4.33758 6.4303 4.29347 6.32382 4.29346 6.2128V6.01931C4.29343 5.96431 4.30424 5.90985 4.32527 5.85904C4.3463 5.80822 4.37715 5.76205 4.41603 5.72316C4.45492 5.68427 4.50109 5.65343 4.55191 5.6324C4.60273 5.61137 4.65719 5.60056 4.71218 5.60059Z" fill="#4E904C"/>
<path d="M14.3438 5.04377C14.3438 5.886 14.6783 6.69373 15.2739 7.28927C15.8694 7.88481 16.6771 8.21938 17.5194 8.21938C18.3616 8.21938 19.1693 7.88481 19.7649 7.28927C20.3604 6.69373 20.695 5.886 20.695 5.04377C20.695 4.20155 20.3604 3.39382 19.7649 2.79828C19.1693 2.20274 18.3616 1.86816 17.5194 1.86816C16.6771 1.86816 15.8694 2.20274 15.2739 2.79828C14.6783 3.39382 14.3438 4.20155 14.3438 5.04377Z" fill="white"/>
<path d="M17.5197 8.8997C15.3897 8.8997 13.6636 7.1733 13.6636 5.0436C13.6636 2.9139 15.3897 1.1875 17.5197 1.1875C19.6496 1.1875 21.3758 2.9139 21.3758 5.0436C21.3758 7.1733 19.6491 8.8997 17.5197 8.8997ZM17.5197 7.53872C18.8977 7.53872 20.0148 6.42158 20.0148 5.0436C20.0148 3.66561 18.8977 2.54848 17.5197 2.54848C16.1417 2.54848 15.0246 3.66561 15.0246 5.0436C15.0246 6.42158 16.1412 7.53872 17.5197 7.53872Z" fill="#524F75"/>
<path d="M15.8456 5.7726C15.9499 5.89339 16.0829 5.98605 16.2324 6.04205C16.3818 6.09806 16.543 6.11562 16.701 6.09312C16.859 6.07061 17.0088 6.00878 17.1367 5.91328C17.2646 5.81778 17.3664 5.69168 17.4329 5.54656C17.4993 5.40145 17.5282 5.24196 17.517 5.08276C17.5057 4.92355 17.4547 4.76972 17.3684 4.6354C17.2822 4.50108 17.1637 4.39056 17.0236 4.31401C16.8836 4.23745 16.7265 4.19731 16.5669 4.19727C16.3176 4.19721 16.0781 4.29493 15.9 4.46945C15.7219 4.64396 15.6193 4.88136 15.6143 5.13067L16.3206 5.23319L15.8456 5.7726Z" fill="#232323"/>
<path d="M20.6953 4.93045C20.6953 5.45173 20.798 5.96791 20.9975 6.44952C21.197 6.93112 21.4894 7.36872 21.858 7.73732C22.2266 8.10592 22.6642 8.39831 23.1458 8.5978C23.6274 8.79729 24.1435 8.89996 24.6648 8.89996C25.1861 8.89996 25.7023 8.79729 26.1839 8.5978C26.6655 8.39831 27.1031 8.10592 27.4717 7.73732C27.8403 7.36872 28.1327 6.93112 28.3322 6.44952C28.5317 5.96791 28.6343 5.45173 28.6343 4.93045C28.6343 4.40916 28.5317 3.89299 28.3322 3.41138C28.1327 2.92978 27.8403 2.49218 27.4717 2.12358C27.1031 1.75498 26.6655 1.46258 26.1839 1.2631C25.7023 1.06361 25.1861 0.960938 24.6648 0.960938C24.1435 0.960938 23.6274 1.06361 23.1458 1.2631C22.6642 1.46258 22.2266 1.75498 21.858 2.12358C21.4894 2.49218 21.197 2.92978 20.9975 3.41138C20.798 3.89299 20.6953 4.40916 20.6953 4.93045Z" fill="white"/>
<path d="M24.6646 9.58027C22.0965 9.58027 20.0146 7.49843 20.0146 4.93027C20.0146 2.36211 22.0965 0.280273 24.6646 0.280273C27.2328 0.280273 29.3146 2.36211 29.3146 4.93027C29.3146 7.49843 27.2324 9.58027 24.6646 9.58027ZM24.6646 8.2193C26.4809 8.2193 27.9537 6.74672 27.9537 4.93027C27.9537 3.11382 26.4809 1.64125 24.6646 1.64125C22.8484 1.64125 21.3756 3.11382 21.3756 4.93027C21.3756 6.74672 22.848 8.2193 24.6646 8.2193Z" fill="#524F75"/>
<path d="M22.6706 5.95831C22.862 6.17998 23.1249 6.32765 23.4138 6.37569C23.7027 6.42372 23.9993 6.36908 24.2521 6.22126C24.5049 6.07344 24.698 5.84176 24.7978 5.56644C24.8976 5.29112 24.8979 4.98954 24.7986 4.71405C24.6992 4.43855 24.5066 4.20654 24.254 4.05827C24.0015 3.91 23.705 3.85484 23.416 3.90236C23.127 3.94988 22.8638 4.09708 22.6721 4.31842C22.4803 4.53976 22.3721 4.82126 22.3662 5.11405L23.2955 5.24924L22.6706 5.95831Z" fill="#232323"/>
<path d="M16.6825 10.9424C17.1473 10.9798 17.7286 12.1892 18.4266 14.5707L15.251 14.169C15.7398 11.9805 16.217 10.9049 16.6825 10.9424Z" fill="#FFF660"/>
<path d="M16.3904 11.9046C16.2017 12.3297 16.0061 12.9571 15.8065 13.7816L17.7897 14.0325C17.5255 13.1905 17.2809 12.5366 17.0584 12.0736C16.928 11.8025 16.8084 11.6041 16.7055 11.4813C16.6916 11.4647 16.6771 11.4487 16.6619 11.4333C16.5832 11.5229 16.4895 11.681 16.3904 11.9046ZM18.8619 14.4428C18.8831 14.5151 18.886 14.5915 18.8703 14.6651C18.8546 14.7388 18.8208 14.8074 18.7719 14.8647C18.7231 14.922 18.6607 14.9663 18.5905 14.9935C18.5203 15.0207 18.4444 15.03 18.3697 15.0206L15.1941 14.6188C15.1314 14.6109 15.0711 14.59 15.017 14.5574C14.9629 14.5248 14.9162 14.4813 14.8799 14.4297C14.8436 14.378 14.8184 14.3193 14.8061 14.2573C14.7938 14.1954 14.7945 14.1316 14.8083 14.0699C15.3651 11.5789 15.878 10.4225 16.7188 10.4901C17.488 10.5516 18.0873 11.7982 18.8619 14.4428Z" fill="#524F75"/>
<path d="M12.617 10.9454C13.1816 11.0202 13.6818 12.0775 14.1173 14.1169L10.7148 13.9177C11.4182 11.8611 12.0522 10.8703 12.617 10.9454Z" fill="white"/>
<path d="M13.0055 11.9888C12.8148 11.5855 12.6471 11.4075 12.5573 11.3954C12.3538 11.3684 11.8861 12.0614 11.346 13.5006L13.5406 13.629C13.3691 12.9263 13.1897 12.3785 13.0055 11.9888ZM12.6764 10.4961C13.5293 10.6093 14.0809 11.7758 14.5607 14.0228C14.5753 14.0911 14.5739 14.1619 14.5566 14.2296C14.5393 14.2973 14.5067 14.36 14.4612 14.413C14.4157 14.466 14.3585 14.5078 14.2942 14.5351C14.2299 14.5624 14.1602 14.5745 14.0905 14.5704L10.688 14.3712C10.6182 14.3671 10.5502 14.347 10.4895 14.3123C10.4287 14.2776 10.3768 14.2294 10.3378 14.1713C10.2988 14.1132 10.2738 14.0469 10.2646 13.9776C10.2555 13.9082 10.2625 13.8377 10.2852 13.7715C11.0689 11.481 11.7754 10.3765 12.6764 10.4961Z" fill="#524F75"/>
<path d="M8.33279 10.9427C8.71658 10.9815 9.05683 11.8884 9.35352 13.6633L6.8584 13.3571C7.45768 11.7087 7.94922 10.904 8.33279 10.9427Z" fill="white"/>
<path d="M8.06341 11.7537C7.89033 12.037 7.6973 12.4458 7.48681 12.9772L8.79697 13.1381C8.6856 12.5712 8.56969 12.128 8.45083 11.8113C8.39185 11.6539 8.33401 11.5337 8.28207 11.4532C8.21992 11.519 8.14552 11.6194 8.06341 11.7537ZM8.3787 10.4914C9.09117 10.5633 9.45999 11.5471 9.80092 13.5885C9.81256 13.6582 9.8078 13.7295 9.78701 13.797C9.76623 13.8644 9.72999 13.9261 9.68119 13.9771C9.63239 14.0281 9.57236 14.0669 9.50589 14.0907C9.43941 14.1144 9.36832 14.1222 9.29827 14.1137L6.80314 13.8072C6.73543 13.7989 6.67046 13.7754 6.61307 13.7385C6.55569 13.7016 6.50737 13.6522 6.4717 13.5941C6.43604 13.5359 6.41395 13.4705 6.40709 13.4026C6.40022 13.3347 6.40876 13.2662 6.43205 13.202C7.1232 11.3007 7.66192 10.4191 8.3787 10.4914Z" fill="#524F75"/>
<path d="M1.57122 13.3189C10.6451 14.4414 16.0695 15.0421 17.8807 15.1242C19.76 15.2093 21.4619 14.8942 22.9787 14.1761C23.1146 14.1117 23.2194 13.9959 23.27 13.8543C23.3206 13.7127 23.3129 13.5568 23.2485 13.4208C23.1841 13.2849 23.0684 13.1801 22.9268 13.1295C22.7851 13.0789 22.6292 13.0866 22.4933 13.151C21.1498 13.7873 19.6318 14.0681 17.932 13.9912C16.1641 13.9109 10.7449 13.3107 1.71049 12.1933C1.63629 12.1836 1.56088 12.1886 1.48862 12.2081C1.41636 12.2276 1.34868 12.2612 1.28947 12.307C1.23027 12.3528 1.18072 12.4098 1.14367 12.4749C1.10663 12.5399 1.08282 12.6116 1.07363 12.6859C1.06444 12.7602 1.07004 12.8356 1.09012 12.9077C1.11019 12.9798 1.14434 13.0472 1.1906 13.106C1.23686 13.1649 1.29431 13.214 1.35963 13.2505C1.42496 13.287 1.49687 13.3103 1.57122 13.3189Z" fill="#524F75"/>
<path d="M29.0679 28.355C30.3837 28.5711 32.3516 28.7077 34.9715 28.7649C35.1554 29.3327 35.4726 29.7075 35.9226 29.8908C36.5974 30.1648 37.8029 30.7048 38.6052 30.4559C39.4071 30.2069 39.9671 29.9512 40.3081 28.7354C40.6492 27.5196 40.2916 26.3073 39.7509 25.808C39.2104 25.3088 38.1161 25.0045 37.4395 24.9115C36.9885 24.8495 36.4849 25.0277 35.9288 25.4459C33.4216 24.5154 31.5084 23.8527 30.191 23.4573L26.8638 22.2031" fill="#70C56E"/>
<path d="M35.666 30.5211L35.7723 30.5644L35.8897 30.6128C35.991 30.6545 36.0697 30.6864 36.1506 30.7184C36.5058 30.859 36.809 30.9655 37.1114 31.0467C37.7543 31.22 38.3123 31.259 38.8066 31.1059C40.0205 30.7288 40.597 30.2257 40.9632 28.9191C41.3446 27.5594 41.0099 26.0439 40.2124 25.3081C39.6188 24.7599 38.5237 24.3737 37.532 24.2373C36.9783 24.1611 36.4117 24.3201 35.8334 24.6848C33.4894 23.8194 31.6823 23.1955 30.4083 22.8126L27.1035 21.5668C27.0197 21.5342 26.9302 21.5185 26.8402 21.5207C26.7503 21.5229 26.6617 21.5429 26.5795 21.5795C26.4973 21.6162 26.4233 21.6688 26.3615 21.7343C26.2998 21.7997 26.2517 21.8768 26.22 21.961C26.1883 22.0452 26.1735 22.1348 26.1767 22.2248C26.1798 22.3147 26.2008 22.4031 26.2383 22.4849C26.2758 22.5666 26.3292 22.6401 26.3953 22.7012C26.4615 22.7622 26.539 22.8094 26.6236 22.8403L29.9505 24.0947L29.9953 24.1097C31.2961 24.4998 33.197 25.1584 35.6922 26.084C35.7991 26.1238 35.9143 26.136 36.0272 26.1195C36.1401 26.103 36.247 26.0584 36.3381 25.9897C36.7628 25.6701 37.0981 25.5516 37.3466 25.5858C38.0873 25.6876 38.9443 25.9899 39.2892 26.3082C39.6862 26.6746 39.9032 27.6583 39.653 28.5519C39.424 29.3684 39.2091 29.556 38.4029 29.8062C38.2043 29.8679 37.882 29.8453 37.4654 29.7329C37.2215 29.667 36.963 29.5766 36.6528 29.4535C36.5348 29.4063 36.1387 29.2439 36.1787 29.2605C35.9267 29.1582 35.7439 28.9417 35.6184 28.5552C35.5748 28.4209 35.4906 28.3035 35.3773 28.2192C35.264 28.1349 35.1273 28.0879 34.9861 28.0848C32.3953 28.0285 30.4553 27.8938 29.1781 27.6838C29 27.6545 28.8175 27.6972 28.6709 27.8025C28.5243 27.9078 28.4255 28.0669 28.3962 28.2451C28.367 28.4232 28.4097 28.6056 28.5149 28.7522C28.6202 28.8989 28.7794 28.9977 28.9575 29.0269C30.2346 29.2364 32.0831 29.3718 34.5129 29.4352C34.7737 29.9444 35.16 30.3153 35.666 30.5211Z" fill="#524F75"/>
<path d="M26.0098 28.0917C25.9932 28.2097 26 28.3298 26.0299 28.4452C26.0597 28.5606 26.1119 28.6689 26.1836 28.7641C26.2553 28.8593 26.3451 28.9394 26.4478 28.9999C26.5504 29.0603 26.664 29.1 26.782 29.1166C26.9 29.1332 27.0201 29.1264 27.1355 29.0965C27.2509 29.0667 27.3592 29.0144 27.4544 28.9427C27.5495 28.871 27.6296 28.7812 27.6901 28.6785C27.7506 28.5759 27.7902 28.4623 27.8068 28.3443C27.8234 28.2263 27.8166 28.1062 27.7868 27.9908C27.7569 27.8754 27.7047 27.7671 27.633 27.6719C27.5613 27.5767 27.4715 27.4966 27.3689 27.4361C27.2662 27.3756 27.1526 27.336 27.0346 27.3194C26.9166 27.3028 26.7965 27.3096 26.6811 27.3395C26.5658 27.3693 26.4574 27.4216 26.3622 27.4933C26.2671 27.565 26.187 27.6548 26.1265 27.7574C26.066 27.8601 26.0264 27.9737 26.0098 28.0917Z" fill="#524F75"/>
<path d="M40.1192 27.1488L38.3791 26.6937C38.2918 26.6709 38.199 26.6836 38.1211 26.7292C38.0432 26.7747 37.9866 26.8494 37.9637 26.9367C37.9408 27.024 37.9536 27.1168 37.9992 27.1947C38.0447 27.2726 38.1194 27.3292 38.2067 27.3521L39.9465 27.8071C40.0327 27.8268 40.1232 27.8122 40.1989 27.7664C40.2745 27.7206 40.3293 27.6471 40.3518 27.5616C40.3742 27.4761 40.3625 27.3852 40.3191 27.3081C40.2757 27.2311 40.204 27.1739 40.1192 27.1488ZM39.6925 28.511L37.9525 28.0558C37.8663 28.0362 37.7759 28.0509 37.7004 28.0968C37.6249 28.1426 37.5701 28.216 37.5477 28.3015C37.5253 28.387 37.5371 28.4778 37.5804 28.5548C37.6237 28.6318 37.6953 28.6889 37.78 28.7141L39.5198 29.1694C39.6072 29.192 39.7 29.1791 39.7779 29.1335C39.8557 29.0878 39.9123 29.0132 39.9352 28.9258C39.9466 28.8827 39.9493 28.8377 39.9433 28.7934C39.9372 28.7492 39.9225 28.7066 39.9 28.6681C39.8774 28.6295 39.8475 28.5958 39.8119 28.5689C39.7763 28.5419 39.7357 28.5223 39.6925 28.511Z" fill="#524F75"/>
</g>
<defs>
<clipPath id="clip0_2087_68">
<rect width="58" height="53" fill="white"/>
</clipPath>
</defs>
</svg>
