<svg width="52" height="58" viewBox="0 0 52 58" fill="none" xmlns="http://www.w3.org/2000/svg">
<g clip-path="url(#clip0_2087_158)">
<path d="M28.2222 40.5608C31.8002 39.5693 36.0863 37.7293 41.0491 37.4541C46.0119 37.179 50.7354 40.5605 50.8967 45.6733C50.921 46.4463 50.8987 47.2209 50.7354 47.9776C50.2482 50.2373 46.7305 57.0562 33.6869 56.1895C36.5237 54.0142 37.24 49.4463 38.2532 47.4371C36.9379 46.8746 33.5944 45.722 28.2222 43.98V40.5608Z" fill="#FD9041"/>
<path d="M37.3664 48.516C37.6066 48.0807 38.388 47.8496 39.2005 47.9566C39.7553 48.0299 39.4162 48.9923 39.9896 49.191C40.3605 49.3197 41.0796 48.6621 41.4348 48.846C41.9526 49.1144 41.802 49.8972 42.2402 50.2896C42.5304 50.5498 43.807 50.5468 44.0419 50.8641C44.462 51.4317 43.4692 51.8021 43.6398 52.5622C43.7035 52.8457 45.1133 52.8283 45.1332 53.1399C45.1663 53.6575 45.0384 54.6914 44.5503 55.1537C43.0103 56.612 39.3048 57.0845 33.4336 56.5712C35.1911 52.7668 36.5019 50.0816 37.3664 48.516Z" fill="#FFF3BD"/>
<path d="M37.8498 48.2932C38.066 47.631 38.5981 47.0315 39.106 46.3778C39.1625 46.3074 39.2044 46.2265 39.2293 46.1397C39.2542 46.0529 39.2616 45.9621 39.2511 45.8724C39.2405 45.7828 39.2122 45.6961 39.1679 45.6175C39.1235 45.5389 39.0639 45.4699 38.9927 45.4145C38.9214 45.3592 38.8398 45.3185 38.7526 45.295C38.6655 45.2715 38.5745 45.2655 38.4851 45.2775C38.3956 45.2894 38.3094 45.3191 38.2315 45.3647C38.1536 45.4103 38.0855 45.4709 38.0313 45.5431C37.4304 46.3161 36.9949 47.1118 36.7279 47.9293C36.7002 48.0143 36.6895 48.1039 36.6964 48.193C36.7032 48.2821 36.7276 48.3689 36.7681 48.4486C36.8085 48.5283 36.8643 48.5992 36.9322 48.6574C37.0001 48.7155 37.0787 48.7597 37.1637 48.7874C37.5207 48.9038 37.7332 48.6504 37.8498 48.2932Z" fill="#524F75"/>
<path d="M28.2223 40.5605V43.9797C33.5945 45.7217 36.938 46.8743 38.2534 47.437C37.2401 49.4463 36.5238 54.0142 33.6871 56.1894C46.7307 57.0562 50.2483 50.2372 50.7356 47.9775C50.8989 47.2208 50.9211 46.4462 50.8968 45.6732C50.7356 40.5605 46.0121 37.1789 41.0493 37.454C36.0865 37.7292 31.8003 39.569 28.2223 40.5605ZM27.8024 45.2742C27.5289 45.1855 27.2906 45.0125 27.1215 44.7799C26.9524 44.5473 26.8613 44.2672 26.8613 43.9797V40.5605C26.8613 40.2628 26.9589 39.9734 27.1391 39.7365C27.3192 39.4995 27.5721 39.3282 27.8589 39.2487C28.4058 39.0972 28.9931 38.9196 29.7632 38.6751C30.0485 38.5843 31.4458 38.1345 31.847 38.0075C35.5239 36.8432 38.0887 36.2552 40.974 36.0953C46.8833 35.7678 52.0766 39.9022 52.2574 45.6303C52.2889 46.6352 52.2397 47.4592 52.0659 48.2647C51.6383 50.2461 50.1472 52.5831 47.723 54.3549C44.4243 56.7656 39.7466 57.9562 33.5966 57.5475C32.344 57.4642 31.8625 55.8735 32.8587 55.1095C33.8449 54.3533 34.6196 53.1468 35.3257 51.407C35.5797 50.7802 36.1888 49.0187 36.4739 48.2026C34.7675 47.5724 31.8674 46.5925 27.8024 45.2742Z" fill="#524F75"/>
<path d="M9.4168 42.286C8.41853 42.3742 7.69381 42.5434 7.24264 42.7934C6.79148 43.0434 6.1888 43.8679 5.43436 45.267L4.93103 43.0508C4.85527 42.7988 4.71418 42.2431 4.5867 42.0131C3.60204 40.2366 1.6386 40.135 -0.131348 41.116L5.68161 51.3129L7.25512 50.8322L12.6196 51.2514C13.2831 51.2434 13.9385 51.1048 14.5484 50.8436C15.7674 50.3232 16.7327 49.3438 17.2354 48.1173" fill="#FD9041"/>
<path d="M5.59443 42.9C5.55419 42.7579 5.51382 42.6158 5.4733 42.4738C5.45816 42.422 5.44274 42.3703 5.42703 42.3186C5.34197 42.0396 5.26825 41.8393 5.1816 41.6828C4.05085 39.6425 1.74423 39.2977 -0.461461 40.5203C-0.540204 40.564 -0.609502 40.6228 -0.665339 40.6935C-0.721177 40.7641 -0.762442 40.8451 -0.786747 40.9318C-0.811052 41.0185 -0.817913 41.1091 -0.80693 41.1985C-0.795948 41.2878 -0.767341 41.3741 -0.722767 41.4524L5.09019 51.6495C5.16671 51.7837 5.28662 51.8879 5.4302 51.9449C5.57378 52.0019 5.73249 52.0083 5.88023 51.9632L7.33035 51.5202L12.5665 51.9294C12.5869 51.931 12.6075 51.9319 12.628 51.9314C13.3806 51.9222 14.124 51.765 14.8159 51.4687C16.1989 50.8782 17.2939 49.7672 17.8643 48.3759C17.9311 48.2094 17.9294 48.0232 17.8596 47.858C17.7898 47.6927 17.6576 47.5617 17.4917 47.4934C17.3259 47.4251 17.1397 47.4251 16.9738 47.4933C16.8079 47.5616 16.6757 47.6926 16.6059 47.8578C16.1711 48.9196 15.3356 49.7674 14.2802 50.2175C13.7614 50.4396 13.2046 50.5594 12.6404 50.5702L7.30767 50.1535C7.22277 50.1469 7.13738 50.1563 7.05589 50.181L6.00295 50.5026L0.823301 41.4172C2.17702 40.8966 3.36356 41.2103 3.9912 42.3427C4.01728 42.3896 4.06719 42.526 4.12526 42.716C4.13841 42.7587 4.15179 42.8043 4.16631 42.8539C4.17969 42.8995 4.24525 43.1314 4.27201 43.2223L4.77058 45.4173C4.90986 46.0302 5.73484 46.1427 6.03312 45.5895C6.72517 44.3061 7.27614 43.5524 7.57238 43.3881C7.92306 43.1937 8.56476 43.0438 9.47661 42.9633C9.56563 42.9554 9.65224 42.9301 9.73148 42.8888C9.81072 42.8475 9.88104 42.791 9.93844 42.7225C9.99583 42.654 10.0392 42.5748 10.066 42.4896C10.0928 42.4043 10.1026 42.3147 10.0947 42.2256C10.0869 42.1366 10.0616 42.05 10.0202 41.9708C9.97893 41.8915 9.92241 41.8212 9.85391 41.7638C9.78541 41.7064 9.70628 41.6631 9.62103 41.6362C9.53579 41.6094 9.44609 41.5997 9.35707 41.6075C8.27215 41.7035 7.46441 41.892 6.91276 42.1977C6.54212 42.4032 6.15356 42.8177 5.72077 43.455L5.59443 42.9Z" fill="#524F75"/>
<path d="M10.9997 27.8564L13.0861 29.3549L10.05 34.0979L14.2794 38.1103L11.5525 41.7711L6.98074 35.3014C6.65631 34.8422 6.49648 34.2868 6.52715 33.7254C6.55783 33.164 6.7772 32.6293 7.14972 32.2082L10.9997 27.8564Z" fill="#FD9041"/>
<path d="M11.1019 28.7675L7.65935 32.6592C7.38841 32.9655 7.22885 33.3543 7.20654 33.7626C7.18422 34.1709 7.30046 34.5747 7.53641 34.9087L11.5667 40.6125L13.3725 38.1884L9.5815 34.5916C9.46679 34.4826 9.39358 34.3372 9.37446 34.1801C9.35533 34.0231 9.39149 33.8643 9.47671 33.731L12.1651 29.5312L11.1019 28.7675ZM10.9261 33.9914L14.7478 37.6166C14.8686 37.7312 14.9432 37.8861 14.9574 38.052C14.9717 38.2179 14.9246 38.3833 14.8251 38.5169L12.0982 42.1774C11.8219 42.5485 11.2637 42.5413 10.9967 42.1636L6.42495 35.6942C6.01195 35.1097 5.80847 34.4029 5.8475 33.6884C5.88653 32.9738 6.16579 32.2933 6.63998 31.7573L10.49 27.4054C10.6016 27.2792 10.7562 27.1989 10.9237 27.18C11.0912 27.1612 11.2597 27.2052 11.3966 27.3036L13.483 28.802C13.6244 28.9036 13.7215 29.0556 13.7543 29.2267C13.787 29.3978 13.7529 29.5749 13.659 29.7216L10.9261 33.9914Z" fill="#524F75"/>
<path d="M10.8732 34.0565L9.6322 32.7647C9.57029 32.7003 9.49629 32.6487 9.41443 32.6128C9.33256 32.577 9.24444 32.5576 9.15509 32.5558C9.06574 32.554 8.97692 32.5698 8.89368 32.6024C8.81045 32.6349 8.73444 32.6835 8.67 32.7454C8.60555 32.8074 8.55393 32.8814 8.51808 32.9632C8.48224 33.0451 8.46286 33.1332 8.46107 33.2226C8.45928 33.3119 8.47511 33.4007 8.50765 33.484C8.54019 33.5672 8.5888 33.6432 8.65071 33.7077L9.8917 34.9994C10.0167 35.1296 10.1884 35.2047 10.3688 35.2084C10.5493 35.212 10.7238 35.1438 10.8539 35.0187C10.9841 34.8937 11.0592 34.7221 11.0628 34.5416C11.0664 34.3612 10.9982 34.1867 10.8732 34.0565Z" fill="#524F75"/>
<path d="M32.2105 24.6734C34.2039 23.0212 35.3519 20.4242 35.04 17.6556L35.0037 17.3337C34.4162 12.1187 30.0157 8.17773 24.7805 8.17773H18.7106C13.4495 8.17773 9.01022 12.1012 8.35106 17.3335L8.32361 17.5517C8.28208 17.8818 8.26125 18.2141 8.26123 18.5468C8.26123 21.3939 9.75581 23.8913 12.0012 25.2934C11.588 26.1844 11.3437 27.1443 11.2806 28.1244C11.0145 32.1965 10.8033 34.8588 10.6475 36.1113C10.5391 36.9819 10.1065 38.2301 9.34933 39.8556C7.4984 43.8303 9.21233 48.557 13.1775 50.4124C13.4155 50.5236 13.5885 50.622 13.8365 50.7094C17.4818 51.9907 18.4815 52.4185 21.6761 52.409C24.8706 52.3995 27.1595 51.9914 30.7008 50.7094C34.8166 49.2191 36.9476 44.6664 35.461 40.5408C35.3974 40.364 35.3274 40.1895 35.2512 40.0178C34.5065 38.3347 34.0798 37.0327 33.9721 36.1113C33.8192 34.8068 33.5767 32.103 33.2438 27.9999C33.1503 26.8282 32.7974 25.6919 32.2105 24.6734Z" fill="#FD9041"/>
<path d="M33.922 27.9451C34.2543 32.04 34.4966 34.7386 34.6479 36.0322C34.7461 36.8715 35.1535 38.1163 35.8734 39.742C35.9558 39.9284 36.0318 40.1178 36.101 40.31C37.7146 44.7885 35.4012 49.7306 30.9322 51.3488C27.3714 52.6384 25.0031 53.0795 21.6778 53.0893C20.1837 53.0938 19.1393 53.0042 18.0898 52.7785C17.055 52.5563 16.7828 52.4662 13.6106 51.3511C13.4661 51.2998 13.3246 51.2402 13.1869 51.1728C13.1694 51.1647 12.9544 51.0592 12.8891 51.0286C8.58384 49.0139 6.72316 43.8832 8.73241 39.5685C9.46212 38.0015 9.8745 36.812 9.97203 36.0274C10.1258 34.7926 10.3361 32.1382 10.6013 28.08C10.6574 27.2118 10.8443 26.3571 11.1559 25.5447C10.0479 24.7451 9.14591 23.6936 8.52428 22.4768C7.90265 21.2601 7.57919 19.913 7.58057 18.5466C7.58057 18.1855 7.60325 17.8246 7.64839 17.4664L7.67584 17.2482C8.37788 11.6762 13.1061 7.49707 18.7104 7.49707H24.7804C30.3622 7.49707 35.0534 11.6984 35.68 17.2571L35.716 17.579C35.8673 18.91 35.7063 20.2581 35.2459 21.5161C34.7854 22.7741 34.0382 23.9076 33.0635 24.8266C33.5438 25.8026 33.8351 26.8607 33.922 27.9451ZM31.776 24.1495C32.7071 23.3794 33.4314 22.3892 33.8833 21.2685C34.3351 20.1479 34.5002 18.9322 34.3637 17.7316L34.3274 17.4097C33.7784 12.5388 29.669 8.85827 24.7804 8.85827H18.7104C13.7927 8.85805 9.64245 12.5261 9.02615 17.4184L8.99848 17.6366C8.96058 17.9384 8.94157 18.2424 8.94155 18.5466C8.94017 19.7808 9.25348 20.9951 9.85188 22.0745C10.4503 23.154 11.314 24.0631 12.3615 24.7159L12.8716 25.0344L12.6184 25.5797C12.2405 26.3945 12.0171 27.2724 11.9595 28.1687C11.6925 32.2544 11.4809 34.9248 11.3226 36.1955C11.2035 37.1518 10.7505 38.4584 9.96613 40.143C8.27353 43.7775 9.8407 48.0997 13.4659 49.796C13.5441 49.8325 13.7678 49.942 13.7755 49.9459C13.8878 49.9994 13.9701 50.035 14.062 50.0673C17.155 51.1545 17.4247 51.2436 18.3758 51.448C19.3206 51.6512 20.2705 51.7326 21.6739 51.7283C24.8382 51.719 27.0518 51.3067 30.469 50.0693C34.2314 48.707 36.1803 44.5442 34.821 40.7713C34.7627 40.6097 34.6987 40.4502 34.6291 40.2932C33.8587 38.5532 33.4137 37.1938 33.2962 36.1905C33.1424 34.8754 32.8993 32.1666 32.5656 28.0551C32.4803 26.9835 32.1577 25.9444 31.6211 25.0131L31.3341 24.5156L31.776 24.1495Z" fill="#524F75"/>
<path d="M18.7358 14.6738C19.4392 13.2217 20.1276 11.9719 20.8013 10.9246C21.4749 9.87731 22.2852 9.18843 23.232 8.8584H18.7358C18.1254 9.62758 17.7953 10.4129 17.7452 11.2142C17.6951 12.0156 18.0251 13.1686 18.7358 14.6738Z" fill="#FFF3BD"/>
<path d="M15.9052 21.5605H24.6241C26.127 21.5605 27.3453 22.7786 27.346 24.2816C27.3483 30.372 26.7329 34.3417 25.5001 36.1906C24.2035 38.135 21.4552 41.1965 17.2553 45.3751C17.1423 45.4875 17.0017 45.5682 16.8476 45.609C16.6935 45.6498 16.5314 45.6493 16.3776 45.6075C16.2238 45.5658 16.0837 45.4842 15.9714 45.3711C15.8591 45.258 15.7786 45.1173 15.738 44.9632C14.5678 40.5298 13.7775 37.0308 13.3667 34.466C12.9807 32.0562 12.9212 28.6077 13.188 24.1208C13.2735 22.6829 14.4648 21.5605 15.9052 21.5605Z" fill="#FFF3BD"/>
<path d="M21.2821 48.4837C20.9698 49.6185 20.8135 50.4451 20.8135 50.9641C20.8135 51.4826 21.1426 52.5035 21.8009 54.0274L19.9856 53.5737C19.7281 53.5175 19.4652 53.4891 19.2017 53.4891C17.1681 53.4891 15.5195 55.1384 15.5195 57.1731H29.2488L28.7999 55.1599L31.2454 50.9641C31.5604 50.3763 31.7572 49.7325 31.8245 49.0691C31.9607 47.7444 31.572 46.4192 30.7418 45.3779" fill="#FD9041"/>
<path d="M20.1508 52.9132C19.8392 52.844 19.5211 52.8089 19.202 52.8084C16.7924 52.8084 14.8394 54.7626 14.8394 57.1728C14.8394 57.2622 14.857 57.3507 14.8912 57.4333C14.9254 57.5158 14.9755 57.5908 15.0387 57.654C15.1019 57.7172 15.1769 57.7673 15.2594 57.8015C15.342 57.8357 15.4305 57.8533 15.5198 57.8533H29.2491C29.3511 57.8534 29.4518 57.8305 29.5437 57.7864C29.6356 57.7423 29.7165 57.6781 29.7803 57.5985C29.844 57.519 29.8891 57.4261 29.9122 57.3268C29.9353 57.2275 29.9357 57.1242 29.9135 57.0247L29.5225 55.272L31.8339 51.3064C32.197 50.6345 32.424 49.8975 32.5016 49.1376C32.6562 47.6362 32.2155 46.134 31.2743 44.954C31.1619 44.8128 30.998 44.722 30.8186 44.7016C30.6393 44.6812 30.4592 44.7329 30.318 44.8453C30.1767 44.9578 30.086 45.1217 30.0656 45.301C30.0452 45.4803 30.0969 45.6604 30.2093 45.8017C30.9291 46.7039 31.2661 47.8526 31.1477 49.0006C31.0898 49.5716 30.9212 50.1258 30.6514 50.6322L28.2121 54.8172C28.1257 54.9654 28.0984 55.1407 28.1359 55.3081L28.3999 56.4926H16.2777C16.5857 55.1615 17.7782 54.1696 19.202 54.1696C19.4168 54.1696 19.6309 54.193 19.8407 54.2386L21.6361 54.6875C22.183 54.8243 22.6493 54.2749 22.4257 53.7572C21.8053 52.321 21.4943 51.356 21.4943 50.9641C21.4943 50.522 21.6411 49.7446 21.9387 48.6642C21.9848 48.4908 21.9606 48.3061 21.8712 48.1505C21.7818 47.9948 21.6346 47.8807 21.4615 47.8331C21.2884 47.7855 21.1036 47.8082 20.9472 47.8963C20.7908 47.9844 20.6755 48.1307 20.6265 48.3034C20.2989 49.4926 20.1333 50.3691 20.1333 50.9641C20.1333 51.4243 20.31 52.1043 20.6641 53.0416L20.1508 52.9132Z" fill="#524F75"/>
<path d="M20.9634 46.5118C20.9634 46.631 20.9868 46.7489 21.0324 46.859C21.078 46.9691 21.1449 47.0691 21.2291 47.1534C21.3134 47.2376 21.4134 47.3045 21.5235 47.3501C21.6336 47.3957 21.7515 47.4191 21.8707 47.4191C21.9898 47.4191 22.1078 47.3957 22.2179 47.3501C22.328 47.3045 22.428 47.2376 22.5123 47.1534C22.5965 47.0691 22.6634 46.9691 22.7089 46.859C22.7545 46.7489 22.778 46.631 22.778 46.5118C22.778 46.3927 22.7545 46.2747 22.7089 46.1646C22.6634 46.0545 22.5965 45.9545 22.5123 45.8702C22.428 45.786 22.328 45.7192 22.2179 45.6736C22.1078 45.628 21.9898 45.6045 21.8707 45.6045C21.7515 45.6045 21.6336 45.628 21.5235 45.6736C21.4134 45.7192 21.3134 45.786 21.2291 45.8702C21.1449 45.9545 21.078 46.0545 21.0324 46.1646C20.9868 46.2747 20.9634 46.3927 20.9634 46.5118Z" fill="#524F75"/>
<path d="M9.69838 14.862C8.88792 12.5426 8.69058 9.52035 8.59599 8.20905C8.50798 6.9912 9.31776 4.08189 9.70178 1.72309C9.75645 1.38761 9.93043 0.566037 10.2605 0.483698C10.5873 0.402267 11.1791 1.15035 11.374 1.42481C12.5024 3.01647 13.3054 4.47226 13.7561 5.19676C14.2488 5.98884 14.8288 6.63259 16.0594 8.87616" fill="#FD9041"/>
<path d="M10.8191 1.81778C11.3072 2.50644 11.7604 3.2053 12.2383 3.98922C12.4327 4.30837 13.0606 5.36607 13.1788 5.55548C13.2133 5.61105 13.2491 5.66708 13.2863 5.72446C13.4042 5.9057 13.9595 6.708 14.1369 6.97702C14.545 7.59581 14.9619 8.28877 15.4629 9.20266C15.5497 9.36091 15.6958 9.47821 15.8691 9.52874C16.0423 9.57928 16.2286 9.55892 16.3868 9.47214C16.5451 9.38536 16.6624 9.23927 16.7129 9.06601C16.7634 8.89275 16.7431 8.70651 16.6563 8.54826C16.1375 7.60261 15.7018 6.87789 15.2731 6.22802C15.0835 5.94018 14.5314 5.1431 14.4272 4.98296C14.3958 4.9345 14.3648 4.88573 14.3342 4.83665C14.2254 4.66177 13.6018 3.61155 13.4004 3.28129C12.9075 2.47219 12.4377 1.74792 11.9292 1.03069C11.754 0.78373 11.5589 0.551582 11.3458 0.336588C10.9284 -0.0769222 10.5668 -0.294678 10.0959 -0.177407C9.64727 -0.0655803 9.4159 0.275798 9.23671 0.779586C9.14371 1.04112 9.07521 1.336 9.03007 1.61296C8.95113 2.09746 8.85065 2.62847 8.71478 3.29149C8.68088 3.45677 8.64663 3.62198 8.61202 3.78711C7.95445 6.93097 7.85963 7.46356 7.91702 8.25724C7.97758 9.09537 7.99323 9.30065 8.03973 9.79355C8.15678 11.0373 8.31692 12.1778 8.5476 13.2429C8.69209 13.9103 8.8604 14.5261 9.05593 15.0857C9.08542 15.1701 9.13123 15.2478 9.19076 15.3144C9.25029 15.3811 9.32236 15.4354 9.40287 15.4742C9.48337 15.513 9.57072 15.5355 9.65995 15.5406C9.74917 15.5456 9.83851 15.533 9.92287 15.5035C10.0072 15.474 10.085 15.4282 10.1516 15.3687C10.2183 15.3092 10.2725 15.2371 10.3113 15.1566C10.3501 15.0761 10.3727 14.9887 10.3777 14.8995C10.3828 14.8103 10.3702 14.7209 10.3407 14.6366C10.1649 14.1337 10.0111 13.5707 9.87773 12.9549C9.6602 11.95 9.50709 10.8603 9.39481 9.66608C9.34967 9.18656 9.33425 8.98672 9.27459 8.15902C9.23149 7.5636 9.33901 6.95978 9.94442 4.06566C9.98275 3.8817 10.0165 3.71952 10.0483 3.5646C10.1876 2.88502 10.2912 2.33722 10.3736 1.83162C10.3976 1.68232 10.43 1.5345 10.4707 1.38885C10.5954 1.52313 10.7231 1.68259 10.8191 1.81778Z" fill="#524F75"/>
<path d="M9.88955 1.84461C12.142 5.89079 13.3439 8.58734 13.48 9.83921C13.4963 9.98874 13.5713 10.1257 13.6885 10.2199C13.8058 10.3141 13.9557 10.3579 14.1052 10.3416C14.2547 10.3254 14.3916 10.2504 14.4859 10.1331C14.5801 10.0159 14.6239 9.86602 14.6076 9.7165C14.4486 8.25617 13.2112 5.48001 10.8806 1.29319C10.8444 1.22812 10.7957 1.17082 10.7373 1.12457C10.679 1.07831 10.6121 1.04401 10.5405 1.02362C10.4688 1.00323 10.3939 0.997149 10.3199 1.00573C10.246 1.01431 10.1744 1.03738 10.1094 1.07362C10.0442 1.10977 9.98691 1.15839 9.94061 1.21672C9.89432 1.27504 9.85999 1.34193 9.83957 1.41354C9.81916 1.48515 9.81306 1.56008 9.82164 1.63405C9.83022 1.70802 9.85329 1.77957 9.88955 1.84461Z" fill="#524F75"/>
<path d="M32.6718 13.5246C33.4852 11.2018 33.6102 9.10594 33.7036 7.79214C33.7905 6.57203 33.604 4.09279 33.2132 1.72854C33.1579 1.39238 32.9812 0.568765 32.6482 0.485746C32.3186 0.403633 31.7232 1.1524 31.5276 1.42709C30.3926 3.02011 29.5855 4.47771 29.1321 5.20311C28.6367 5.99611 28.0533 6.64008 26.8164 8.88637" fill="#FD9041"/>
<path d="M32.3289 1.88825C31.8027 2.55082 31.3107 3.22563 30.7899 3.98438C30.578 4.29309 29.8923 5.31745 29.7639 5.50073C29.7263 5.55449 29.6877 5.6087 29.6469 5.66405C29.5194 5.83893 28.9195 6.61174 28.7271 6.87146C28.2848 7.46848 27.83 8.13944 27.2793 9.02634C27.1841 9.17968 27.0318 9.28893 26.8561 9.33004C26.6803 9.37116 26.4955 9.34077 26.3421 9.24557C26.1888 9.15037 26.0795 8.99815 26.0384 8.8224C25.9973 8.64665 26.0277 8.46177 26.1229 8.30842C26.6931 7.39022 27.1686 6.68864 27.6331 6.06145C27.8386 5.78381 28.4347 5.016 28.5477 4.8613C28.5828 4.81298 28.6166 4.76626 28.6488 4.71999C28.767 4.55077 29.448 3.53367 29.6675 3.21384C30.2047 2.43105 30.7146 1.73151 31.2628 1.0415C31.4517 0.803658 31.66 0.581891 31.8855 0.378474C32.3251 -0.0112191 32.6993 -0.209242 33.1632 -0.0674739C33.6053 0.0677163 33.8201 0.420889 33.9743 0.93307C34.0546 1.19982 34.1086 1.49878 34.1397 1.77824C34.4051 4.14928 34.4736 6.7095 34.3112 8.01854L34.2856 8.22586L34.2581 8.44679C34.2363 8.62122 34.2164 8.7741 34.1957 8.92631C33.9489 10.7387 33.5901 12.2668 32.9352 13.8639C32.9017 13.9472 32.8521 14.023 32.7892 14.087C32.7263 14.151 32.6513 14.2019 32.5686 14.2369C32.4859 14.2718 32.3972 14.29 32.3074 14.2904C32.2177 14.2909 32.1287 14.2736 32.0457 14.2395C31.9626 14.2055 31.8871 14.1553 31.8236 14.092C31.76 14.0286 31.7096 13.9533 31.6752 13.8704C31.6409 13.7875 31.6233 13.6986 31.6234 13.6088C31.6236 13.5191 31.6415 13.4302 31.6761 13.3474C32.2804 11.873 32.6145 10.4501 32.847 8.74235C32.8872 8.4455 32.9251 8.14835 32.9606 7.85091C33.1074 6.66573 33.0418 4.2035 32.7873 1.92931C32.7704 1.77464 32.7443 1.62112 32.7093 1.46952C32.5739 1.60101 32.4469 1.74086 32.3289 1.88825Z" fill="#524F75"/>
<path d="M33.027 1.85002C30.756 5.90277 29.5443 8.60363 29.4068 9.85709C29.3995 9.93174 29.3774 10.0042 29.3419 10.0703C29.3064 10.1363 29.2581 10.1947 29.1999 10.242C29.1417 10.2892 29.0747 10.3245 29.0027 10.3457C28.9308 10.3669 28.8553 10.3736 28.7808 10.3654C28.7062 10.3573 28.634 10.3344 28.5683 10.2981C28.5027 10.2619 28.4449 10.213 28.3982 10.1542C28.3516 10.0955 28.3171 10.028 28.2967 9.95585C28.2764 9.88367 28.2705 9.80816 28.2795 9.73369C28.4396 8.27064 29.6874 5.48972 32.0376 1.29564C32.074 1.23068 32.1228 1.17353 32.1813 1.12744C32.2397 1.08136 32.3067 1.04725 32.3784 1.02707C32.4501 1.00689 32.525 1.00103 32.5989 1.00983C32.6729 1.01863 32.7443 1.04191 32.8093 1.07834C32.8743 1.11466 32.9315 1.16344 32.9777 1.2219C33.0238 1.28035 33.058 1.34734 33.0782 1.41902C33.0984 1.49069 33.1043 1.56566 33.0955 1.63961C33.0868 1.71357 33.0635 1.78507 33.027 1.85002Z" fill="#524F75"/>
<path d="M12.1172 15.7768C12.1172 16.5288 12.404 17.2499 12.9144 17.7817C13.4249 18.3134 14.1172 18.6121 14.8391 18.6121C15.561 18.6121 16.2534 18.3134 16.7638 17.7817C17.2743 17.2499 17.5611 16.5288 17.5611 15.7768C17.5611 15.0248 17.2743 14.3036 16.7638 13.7719C16.2534 13.2401 15.561 12.9414 14.8391 12.9414C14.1172 12.9414 13.4249 13.2401 12.9144 13.7719C12.404 14.3036 12.1172 15.0248 12.1172 15.7768Z" fill="white"/>
<path d="M14.839 19.2924C12.9536 19.2924 11.4365 17.7124 11.4365 15.7766C11.4365 13.8408 12.9536 12.2607 14.839 12.2607C16.7244 12.2607 18.2414 13.8408 18.2414 15.7766C18.2414 17.7124 16.7244 19.2924 14.839 19.2924ZM14.839 17.9315C15.96 17.9315 16.8804 16.9727 16.8804 15.7766C16.8804 14.5805 15.96 13.6217 14.839 13.6217C13.718 13.6217 12.7975 14.5805 12.7975 15.7766C12.7975 16.9727 13.718 17.9315 14.839 17.9315Z" fill="#524F75"/>
<path d="M15.2462 16.5477C15.3281 16.6433 15.4296 16.7201 15.544 16.7727C15.6583 16.8253 15.7827 16.8526 15.9086 16.8525C16.3917 16.8525 16.7835 16.4585 16.7835 15.9726C16.7835 15.4865 16.3917 15.0928 15.9086 15.0928C15.4313 15.0928 15.0432 15.477 15.0337 15.9547L15.6824 16.0495L15.2462 16.5477Z" fill="#232323"/>
<path d="M19.8296 15.663C19.8295 16.1397 19.9233 16.6117 20.1057 17.0521C20.288 17.4925 20.5554 17.8926 20.8924 18.2297C21.2294 18.5668 21.6295 18.8341 22.0699 19.0166C22.5102 19.199 22.9822 19.2929 23.4589 19.2929C23.9355 19.2929 24.4075 19.199 24.8479 19.0166C25.2882 18.8341 25.6883 18.5668 26.0253 18.2297C26.3624 17.8926 26.6297 17.4925 26.812 17.0521C26.9944 16.6117 27.0882 16.1397 27.0881 15.663C27.0882 15.1864 26.9944 14.7144 26.812 14.274C26.6297 13.8336 26.3624 13.4335 26.0253 13.0964C25.6883 12.7593 25.2882 12.4919 24.8479 12.3095C24.4075 12.1271 23.9355 12.0332 23.4589 12.0332C22.9822 12.0332 22.5102 12.1271 22.0699 12.3095C21.6295 12.4919 21.2294 12.7593 20.8924 13.0964C20.5554 13.4335 20.288 13.8336 20.1057 14.274C19.9233 14.7144 19.8295 15.1864 19.8296 15.663Z" fill="white"/>
<path d="M23.4587 19.973C21.0783 19.973 19.1489 18.0434 19.1489 15.6633C19.1489 13.2832 21.0783 11.3535 23.4587 11.3535C25.839 11.3535 27.7684 13.2832 27.7684 15.6633C27.7684 18.0434 25.839 19.973 23.4587 19.973ZM23.4587 18.6121C25.0873 18.6121 26.4075 17.2919 26.4075 15.6633C26.4075 14.0346 25.0873 12.7145 23.4587 12.7145C21.83 12.7145 20.5099 14.0346 20.5099 15.6633C20.5099 17.2919 21.83 18.6121 23.4587 18.6121Z" fill="#524F75"/>
<path d="M24.1875 17.0855C24.3387 17.2608 24.5399 17.3856 24.7641 17.4432C24.9883 17.5008 25.2247 17.4884 25.4416 17.4077C25.6586 17.327 25.8457 17.1818 25.9777 16.9917C26.1098 16.8016 26.1805 16.5757 26.1804 16.3442C26.1783 16.0467 26.0595 15.762 25.8495 15.5513C25.6395 15.3406 25.3551 15.2209 25.0576 15.2178C24.7602 15.2148 24.4734 15.3287 24.2592 15.5351C24.0449 15.7414 23.9203 16.0237 23.9121 16.3211L24.753 16.4433L24.1875 17.0855Z" fill="#232323"/>
<path d="M23.2292 23.5301C21.6649 24.5918 20.4058 25.4184 19.4801 25.8192C18.1298 26.4042 16.4631 26.9808 14.0968 26.9808C13.8389 27.0926 12.9066 27.1521 12.6818 26.9849C12.3323 26.7247 11.065 25.5207 11.4808 25.3427C12.6879 24.8262 14.7528 23.327 15.4832 21.9402C15.7957 21.3464 16.0795 20.322 16.904 17.8779" fill="#FD9041"/>
<path d="M12.3136 25.6965C13.7696 24.9185 15.4357 23.4897 16.0837 22.2589C16.2963 21.8554 16.4335 21.4721 16.9062 20.0308C17.1167 19.3852 17.3304 18.7406 17.5472 18.0971C17.5758 18.0124 17.5874 17.9229 17.5814 17.8338C17.5753 17.7446 17.5518 17.6575 17.5121 17.5775C17.4724 17.4974 17.4174 17.4259 17.3501 17.3672C17.2828 17.3084 17.2046 17.2634 17.1199 17.2349C17.0352 17.2063 16.9457 17.1947 16.8566 17.2008C16.7674 17.2068 16.6804 17.2303 16.6003 17.27C16.5202 17.3097 16.4488 17.3647 16.39 17.432C16.3312 17.4993 16.2863 17.5776 16.2577 17.6622C16.0427 18.2996 15.9107 18.6991 15.6131 19.6068C15.1728 20.9497 15.0396 21.3208 14.8795 21.6247C14.3079 22.7103 12.5089 24.1636 11.2119 24.7187C10.6612 24.9543 10.6153 25.4724 10.8251 25.9254C10.9193 26.1286 11.0728 26.3428 11.2788 26.5803C11.5825 26.9305 12.0205 27.3433 12.2741 27.5323C12.6672 27.8249 13.6555 27.8262 14.2099 27.6622C16.2879 27.6479 17.909 27.2419 19.7493 26.4451C20.6153 26.0699 21.6268 25.4407 23.6102 24.0944C23.6848 24.0445 23.7488 23.9804 23.7985 23.9056C23.8482 23.8309 23.8827 23.747 23.8998 23.6589C23.917 23.5708 23.9166 23.4802 23.8986 23.3922C23.8806 23.3043 23.8454 23.2208 23.7949 23.1465C23.7445 23.0722 23.6799 23.0087 23.6048 22.9595C23.5297 22.9103 23.4456 22.8765 23.3574 22.8599C23.2692 22.8434 23.1785 22.8444 23.0907 22.8631C23.0029 22.8817 22.9197 22.9175 22.8457 22.9685C20.9401 24.2621 19.9655 24.8684 19.2085 25.1964C17.493 25.9395 16.0227 26.3019 14.0956 26.3019H13.9545L13.8252 26.358C13.8288 26.3564 13.7748 26.3691 13.6984 26.3804C13.5965 26.3954 13.4754 26.4056 13.3572 26.4088C13.2544 26.4126 13.1515 26.4088 13.0492 26.3974C12.8426 26.2439 12.53 25.9449 12.3136 25.6965Z" fill="#524F75"/>
<path d="M12.3464 25.0821L13.3417 26.0774C13.4603 26.196 13.5508 26.3396 13.6066 26.4977C13.6625 26.6558 13.6822 26.8244 13.6644 26.9912C13.6465 27.1579 13.5916 27.3186 13.5036 27.4613C13.4155 27.604 13.2967 27.7252 13.1557 27.816C12.8241 28.0296 12.4294 28.1232 12.0373 28.0812C11.6452 28.0392 11.2792 27.8642 11.0004 27.5854L10.896 27.481C10.6132 27.1982 10.4333 26.8287 10.3851 26.4316C10.3369 26.0346 10.4232 25.6328 10.6302 25.2905C10.7164 25.148 10.8339 25.027 10.9738 24.9366C11.1136 24.8462 11.2722 24.7888 11.4376 24.7688C11.6029 24.7487 11.7706 24.7664 11.9281 24.8207C12.0855 24.875 12.2285 24.9644 12.3464 25.0821Z" fill="#966745"/>
<path d="M11.9168 25.5637C11.8744 25.5166 11.8219 25.4798 11.7631 25.456C11.7044 25.4323 11.6411 25.4222 11.5779 25.4265C11.5146 25.4308 11.4532 25.4494 11.3983 25.4809C11.3433 25.5124 11.2963 25.556 11.2606 25.6084C11.1215 25.8135 11.0551 26.0593 11.0721 26.3066C11.089 26.5538 11.1883 26.7883 11.3541 26.9725L11.453 27.0821C11.6128 27.2597 11.8286 27.3772 12.0645 27.415C12.3004 27.4528 12.5422 27.4088 12.7495 27.2901C12.8069 27.2572 12.8562 27.212 12.8938 27.1576C12.9313 27.1032 12.9563 27.0411 12.9667 26.9758C12.9772 26.9105 12.9729 26.8438 12.9542 26.7804C12.9355 26.7169 12.9028 26.6585 12.8586 26.6094L11.9168 25.5637ZM12.9283 24.653L13.8701 25.6989C14.0502 25.899 14.1832 26.1369 14.2594 26.3952C14.3356 26.6534 14.3531 26.9254 14.3105 27.1913C14.2679 27.4571 14.1663 27.71 14.0132 27.9315C13.8601 28.153 13.6593 28.3374 13.4257 28.4712C12.9485 28.7443 12.3921 28.8458 11.8492 28.7588C11.3062 28.6718 10.8095 28.4014 10.4415 27.9928L10.3426 27.883C9.97321 27.4727 9.75197 26.9504 9.71426 26.3995C9.67656 25.8487 9.82456 25.3011 10.1346 24.8442C10.2862 24.621 10.4865 24.4352 10.7204 24.3008C10.9543 24.1664 11.2158 24.087 11.4849 24.0686C11.7541 24.0502 12.0239 24.0932 12.2739 24.1945C12.524 24.2957 12.7477 24.4525 12.9283 24.653Z" fill="#524F75"/>
<path d="M14.2295 26.3142C16.3606 26.2162 17.6866 25.9179 19.2771 25.1701C20.3373 24.6713 21.5044 23.9669 22.778 23.0574L21.0371 21.5537C18.0015 24.059 15.6674 25.4915 14.0347 25.8512C14.1222 26.0338 14.2012 26.1107 14.2295 26.3142Z" fill="#FFF3BD"/>
<path d="M31.0734 26.9561L36.5926 29.8216C36.706 29.8803 36.8147 29.947 36.9188 30.021C38.1427 30.8936 38.4276 32.5932 37.555 33.8172L33.693 39.2352C34.0675 39.702 33.7339 41.3858 33.3528 41.6891C32.8844 42.0615 26.7398 41.7798 26.6343 41.6891C25.879 41.0376 25.5521 39.3795 26.9474 38.9088L31.0734 38.6756L33.3816 34.9491C33.449 34.8403 33.4927 34.7185 33.5097 34.5917C33.5267 34.4649 33.5167 34.3359 33.4803 34.2132C33.4439 34.0905 33.3819 33.9769 33.2985 33.8799C33.2151 33.7829 33.1121 33.7046 32.9962 33.6502L30.2468 32.3584" fill="#FD9041"/>
<path d="M32.9365 41.1113C32.9095 41.1159 32.8793 41.1202 32.8458 41.1247C32.6636 41.1485 32.4089 41.1669 32.094 41.1787C31.51 41.2012 30.7383 41.2014 29.8723 41.1823C29.1479 41.1667 28.4238 41.1393 27.7004 41.1002C27.4645 41.0877 27.2288 41.0719 26.9933 41.0526C26.7865 40.8332 26.6658 40.5159 26.6649 40.229C26.6637 39.9184 26.7883 39.707 27.0877 39.5821L31.1116 39.3548C31.2209 39.3486 31.327 39.3162 31.421 39.2602C31.515 39.2043 31.5941 39.1266 31.6517 39.0336L33.9599 35.307C34.078 35.1166 34.1543 34.9035 34.1841 34.6815C34.2138 34.4595 34.1963 34.2337 34.1326 34.019C34.0689 33.8043 33.9604 33.6055 33.8144 33.4357C33.6684 33.2659 33.4881 33.1289 33.2853 33.0337L30.536 31.7422C30.4551 31.7041 30.3675 31.6824 30.2783 31.6782C30.189 31.674 30.0998 31.6875 30.0158 31.7178C29.9317 31.7481 29.8545 31.7947 29.7884 31.8549C29.7224 31.9151 29.6689 31.9877 29.6309 32.0686C29.5929 32.1494 29.5711 32.237 29.567 32.3262C29.5628 32.4155 29.5762 32.5047 29.6066 32.5887C29.6369 32.6728 29.6834 32.75 29.7436 32.8161C29.8038 32.8821 29.8764 32.9356 29.9573 32.9736L32.7067 34.2654C32.8201 34.3185 32.8689 34.4537 32.8154 34.5671C32.8129 34.5723 32.1015 35.7219 30.6811 38.0156L26.9087 38.229C26.8475 38.2326 26.7874 38.244 26.7295 38.2635C24.9142 38.8759 24.921 41.11 26.1897 42.204C26.4095 42.3938 26.3262 42.3866 27.6244 42.4589C28.2749 42.4952 29.0768 42.5261 29.8421 42.5426C32.1771 42.5941 33.3643 42.5485 33.776 42.2214C34.3478 41.7664 34.6824 40.2689 34.4587 39.3325L38.1089 34.2121C39.1997 32.6819 38.8433 30.5572 37.3132 29.4666C37.1835 29.374 37.0474 29.2907 36.906 29.2173L31.3868 26.352C31.3075 26.3108 31.2208 26.2856 31.1318 26.2779C31.0428 26.2702 30.9531 26.2801 30.8679 26.3071C30.7827 26.334 30.7036 26.3775 30.6352 26.435C30.5668 26.4925 30.5103 26.5629 30.4692 26.6422C30.428 26.7215 30.4028 26.8082 30.3951 26.8972C30.3874 26.9863 30.3973 27.076 30.4242 27.1612C30.4512 27.2464 30.4946 27.3254 30.5521 27.3938C30.6097 27.4623 30.6801 27.5187 30.7594 27.5599L36.279 30.4252C36.5385 30.5598 36.7659 30.7486 36.9461 30.9787C37.1263 31.2089 37.2549 31.475 37.3233 31.7592C37.3917 32.0433 37.3983 32.3389 37.3426 32.6258C37.2869 32.9127 37.1703 33.1843 37.0006 33.4223L33.1386 38.8401C33.0526 38.9608 33.0083 39.1063 33.0126 39.2545C33.0169 39.4027 33.0694 39.5454 33.1622 39.661C33.1581 39.688 33.1674 39.7465 33.1724 39.8186C33.1835 39.9835 33.1701 40.1938 33.1345 40.4138C33.0994 40.6293 33.0451 40.8385 32.9832 41.0013C32.9691 41.0386 32.9535 41.0753 32.9365 41.1113Z" fill="#524F75"/>
<path d="M26.4908 40.841H27.8186C27.9389 40.841 28.0543 40.7932 28.1394 40.7082C28.2245 40.6231 28.2723 40.5077 28.2723 40.3874C28.2723 40.267 28.2245 40.1517 28.1394 40.0666C28.0543 39.9815 27.9389 39.9337 27.8186 39.9337H26.4908C26.3704 39.9337 26.2551 39.9815 26.17 40.0666C26.0849 40.1517 26.0371 40.267 26.0371 40.3874C26.0371 40.5077 26.0849 40.6231 26.17 40.7082C26.2551 40.7932 26.3704 40.841 26.4908 40.841ZM34.115 35.0569L34.986 33.3094C35.0648 33.1481 35.0767 32.9621 35.0191 32.792C34.9614 32.622 34.8388 32.4816 34.6781 32.4015C34.5174 32.3214 34.3315 32.3081 34.161 32.3645C33.9905 32.4208 33.8492 32.5423 33.7679 32.7024L32.8971 34.4499C32.8572 34.5298 32.8335 34.6169 32.8273 34.706C32.8211 34.7951 32.8325 34.8846 32.8609 34.9693C32.8892 35.0541 32.934 35.1324 32.9926 35.1998C33.0512 35.2672 33.1226 35.3224 33.2025 35.3623C33.2825 35.4022 33.3695 35.4259 33.4587 35.4321C33.5478 35.4383 33.6373 35.4269 33.722 35.3986C33.8067 35.3702 33.885 35.3254 33.9525 35.2668C34.0199 35.2082 34.0751 35.1368 34.115 35.0569Z" fill="#524F75"/>
</g>
<defs>
<clipPath id="clip0_2087_158">
<rect width="52" height="58" fill="white"/>
</clipPath>
</defs>
</svg>
