<svg width="1440" height="340" viewBox="0 0 1440 340" fill="none" xmlns="http://www.w3.org/2000/svg">
<rect x="0.5" y="0.5" width="84" height="84" rx="7.5" stroke="#DCDCDC"/>
<rect x="0.5" y="85.5" width="84" height="84" rx="7.5" stroke="#DCDCDC"/>
<rect x="0.5" y="170.5" width="84" height="84" rx="7.5" stroke="#DCDCDC"/>
<rect x="0.5" y="255.5" width="84" height="84" rx="7.5" stroke="#DCDCDC"/>
<rect x="85.5" y="0.5" width="83" height="84" rx="7.5" stroke="#DCDCDC"/>
<rect x="85.5" y="85.5" width="83" height="84" rx="7.5" stroke="#008080"/>
<rect x="85.5" y="170.5" width="83" height="84" rx="7.5" stroke="#DCDCDC"/>
<rect x="85.5" y="255.5" width="83" height="84" rx="7.5" stroke="#DCDCDC"/>
<rect x="169.5" y="0.5" width="85" height="84" rx="7.5" stroke="#DCDCDC"/>
<rect x="169.5" y="85.5" width="85" height="84" rx="7.5" stroke="#DCDCDC"/>
<rect x="169.5" y="170.5" width="85" height="84" rx="7.5" stroke="#DCDCDC"/>
<rect x="169.5" y="255.5" width="85" height="84" rx="7.5" stroke="#DCDCDC"/>
<rect x="255.5" y="0.5" width="83" height="84" rx="7.5" stroke="#DCDCDC"/>
<rect x="255.5" y="85.5" width="83" height="84" rx="7.5" stroke="#DCDCDC"/>
<rect x="255.5" y="170.5" width="83" height="84" rx="7.5" stroke="#DCDCDC"/>
<rect x="255.5" y="255.5" width="83" height="84" rx="7.5" stroke="#DCDCDC"/>
<rect x="339.5" y="0.5" width="84" height="84" rx="7.5" stroke="#DCDCDC"/>
<rect x="339.5" y="85.5" width="84" height="84" rx="7.5" stroke="#DCDCDC"/>
<rect x="339.5" y="170.5" width="84" height="84" rx="7.5" stroke="#DCDCDC"/>
<rect x="339.5" y="255.5" width="84" height="84" rx="7.5" stroke="#DCDCDC"/>
<rect x="424.5" y="0.5" width="83" height="84" rx="7.5" stroke="#DCDCDC"/>
<rect x="424.5" y="85.5" width="83" height="84" rx="7.5" stroke="#DCDCDC"/>
<rect x="424.5" y="170.5" width="83" height="84" rx="7.5" stroke="#DCDCDC"/>
<rect x="424.5" y="255.5" width="83" height="84" rx="7.5" stroke="#DCDCDC"/>
<rect x="508.5" y="0.5" width="84" height="84" rx="7.5" stroke="#DCDCDC"/>
<rect x="508.5" y="85.5" width="84" height="84" rx="7.5" stroke="#DCDCDC"/>
<rect x="508.5" y="170.5" width="84" height="84" rx="7.5" stroke="#DCDCDC"/>
<rect x="508.5" y="255.5" width="84" height="84" rx="7.5" stroke="#DCDCDC"/>
<rect x="593.5" y="0.5" width="83" height="84" rx="7.5" stroke="#DCDCDC"/>
<rect x="593.5" y="85.5" width="83" height="84" rx="7.5" stroke="#DCDCDC"/>
<rect x="593.5" y="170.5" width="83" height="84" rx="7.5" stroke="#DCDCDC"/>
<rect x="593.5" y="255.5" width="83" height="84" rx="7.5" stroke="#DCDCDC"/>
<rect x="677.5" y="0.5" width="85" height="84" rx="7.5" stroke="#DCDCDC"/>
<rect x="677.5" y="85.5" width="85" height="84" rx="7.5" stroke="#DCDCDC"/>
<rect x="677.5" y="170.5" width="85" height="84" rx="7.5" stroke="#DCDCDC"/>
<rect x="677.5" y="255.5" width="85" height="84" rx="7.5" stroke="#DCDCDC"/>
<rect x="763.5" y="0.5" width="83" height="84" rx="7.5" stroke="#DCDCDC"/>
<rect x="763.5" y="85.5" width="83" height="84" rx="7.5" stroke="#DCDCDC"/>
<rect x="763.5" y="170.5" width="83" height="84" rx="7.5" stroke="#DCDCDC"/>
<rect x="763.5" y="255.5" width="83" height="84" rx="7.5" stroke="#DCDCDC"/>
<rect x="847.5" y="0.5" width="84" height="84" rx="7.5" stroke="#DCDCDC"/>
<rect x="847.5" y="85.5" width="84" height="84" rx="7.5" stroke="#DCDCDC"/>
<rect x="847.5" y="170.5" width="84" height="84" rx="7.5" stroke="#DCDCDC"/>
<rect x="847.5" y="255.5" width="84" height="84" rx="7.5" stroke="#DCDCDC"/>
<rect x="932.5" y="0.5" width="83" height="84" rx="7.5" stroke="#DCDCDC"/>
<rect x="932.5" y="85.5" width="83" height="84" rx="7.5" stroke="#DCDCDC"/>
<rect x="932.5" y="170.5" width="83" height="84" rx="7.5" stroke="#DCDCDC"/>
<rect x="932.5" y="255.5" width="83" height="84" rx="7.5" stroke="#DCDCDC"/>
<rect x="1016.5" y="0.5" width="84" height="84" rx="7.5" stroke="#DCDCDC"/>
<rect x="1016.5" y="85.5" width="84" height="84" rx="7.5" stroke="#DCDCDC"/>
<rect x="1016.5" y="170.5" width="84" height="84" rx="7.5" stroke="#DCDCDC"/>
<rect x="1016.5" y="255.5" width="84" height="84" rx="7.5" stroke="#DCDCDC"/>
<rect x="1101.5" y="0.5" width="84" height="84" rx="7.5" stroke="#DCDCDC"/>
<rect x="1101.5" y="85.5" width="84" height="84" rx="7.5" stroke="#DCDCDC"/>
<rect x="1101.5" y="170.5" width="84" height="84" rx="7.5" stroke="#DCDCDC"/>
<rect x="1101.5" y="255.5" width="84" height="84" rx="7.5" stroke="#DCDCDC"/>
<rect x="1186.5" y="0.5" width="84" height="84" rx="7.5" stroke="#DCDCDC"/>
<rect x="1186.5" y="85.5" width="84" height="84" rx="7.5" stroke="#DCDCDC"/>
<rect x="1186.5" y="170.5" width="84" height="84" rx="7.5" stroke="#DCDCDC"/>
<rect x="1186.5" y="255.5" width="84" height="84" rx="7.5" stroke="#DCDCDC"/>
<rect x="1271.5" y="0.5" width="83" height="84" rx="7.5" stroke="#DCDCDC"/>
<rect x="1271.5" y="85.5" width="83" height="84" rx="7.5" stroke="#DCDCDC"/>
<rect x="1271.5" y="170.5" width="83" height="84" rx="7.5" stroke="#DCDCDC"/>
<rect x="1271.5" y="255.5" width="83" height="84" rx="7.5" stroke="#008080"/>
<rect x="1355.5" y="0.5" width="84" height="84" rx="7.5" stroke="#DCDCDC"/>
<rect x="1355.5" y="85.5" width="84" height="84" rx="7.5" stroke="#DCDCDC"/>
<rect x="1355.5" y="170.5" width="84" height="84" rx="7.5" stroke="#DCDCDC"/>
<rect x="1355.5" y="255.5" width="84" height="84" rx="7.5" stroke="#DCDCDC"/>
</svg>
