<svg width="698" height="800" viewBox="0 0 698 800" fill="none" xmlns="http://www.w3.org/2000/svg">
<path fill-rule="evenodd" clip-rule="evenodd" d="M589.666 233.333C589.666 247.14 578.473 258.333 564.666 258.333H31.333C17.526 258.333 6.33301 247.14 6.33301 233.333C6.33301 219.526 17.526 208.333 31.333 208.333H564.666C578.473 208.333 589.666 219.526 589.666 233.333Z" fill="white"/>
<path fill-rule="evenodd" clip-rule="evenodd" d="M589.666 400C589.666 413.807 578.473 425 564.666 425H31.333C17.526 425 6.33301 413.807 6.33301 400C6.33301 386.193 17.526 375 31.333 375H564.666C578.473 375 589.666 386.193 589.666 400Z" fill="white"/>
<path fill-rule="evenodd" clip-rule="evenodd" d="M589.666 566.667C589.666 580.474 578.473 591.667 564.666 591.667H31.333C17.526 591.667 6.33301 580.474 6.33301 566.667C6.33301 552.86 17.526 541.667 31.333 541.667H564.666C578.473 541.667 589.666 552.86 589.666 566.667Z" fill="white"/>
</svg>
