<svg width="359" height="193" viewBox="0 0 359 193" fill="none" xmlns="http://www.w3.org/2000/svg">
<g clip-path="url(#clip0_2138_3)">
<path d="M282.764 63.8524C258.434 -10.9388 127.7 -14.1903 117.659 69.7235C117.659 69.7235 109.908 71.2584 103.072 70.2118C65.7942 64.5086 0.565735 135.897 50.6274 190.447H330.191C360.439 138.351 338.712 85.0454 282.763 63.8524H282.764Z" fill="#F6F5F5"/>
<path d="M215.585 110.684L215.103 110.214C246.308 78.1336 247.549 60.5863 249.426 34.0282C250.091 24.6232 250.842 13.9835 253.004 1.14252C238.225 8.01188 226.246 17.525 217.391 29.4275C210.214 39.0741 205.057 50.3039 202.067 62.8066C196.972 84.1128 199.982 101.964 200.012 102.142L199.35 102.258C199.318 102.078 196.285 84.1128 201.407 62.6756C204.416 50.0788 209.609 38.7625 216.841 29.0383C225.881 16.8841 238.149 7.20312 253.302 0.263818L253.88 -0.00195312L253.772 0.626234C251.534 13.7177 250.77 24.533 250.094 34.0753C248.207 60.7821 246.96 78.4261 215.582 110.684H215.585Z" fill="#DADADA"/>
<path d="M209.704 103.792L209.051 103.624C209.176 103.144 221.602 55.1739 237.236 28.5459L237.817 28.8867C222.229 55.4346 209.827 103.312 209.704 103.792Z" fill="#DADADA"/>
<path d="M226.937 51.0894L226.264 51.0652C226.268 50.9686 226.549 41.3398 221.518 32.0734L222.11 31.7529C227.23 41.1885 226.941 50.9927 226.937 51.0907V51.0894Z" fill="#DADADA"/>
<path d="M219.763 70.5936L219.29 70.1168C226.441 63.016 235.783 60.8224 235.876 60.8008L236.025 61.4569C235.933 61.4773 226.773 63.634 219.763 70.5936Z" fill="#DADADA"/>
<path d="M239.322 131.24L239.256 130.57C251.423 129.365 261.294 121.211 269.43 105.644C276.637 91.8514 281.589 74.2278 286.378 57.1854C289.482 46.1362 292.42 35.6859 295.847 26.6369C260.83 35.3883 246.316 63.1455 246.173 63.4266L245.574 63.1214C245.72 62.8353 260.533 34.4816 296.311 25.8307L296.933 25.6807L296.704 26.2783C293.189 35.4354 290.195 46.0891 287.027 57.3685C282.229 74.444 277.267 92.1006 270.026 105.955C261.777 121.74 251.734 130.011 239.324 131.24H239.322Z" fill="#DADADA"/>
<path d="M236.342 114.715L235.728 114.443C235.932 113.981 256.385 68.1772 273.568 54.8594L273.98 55.3909C266.936 60.85 258.199 72.8326 248.708 90.0429C241.527 103.066 236.394 114.601 236.342 114.715Z" fill="#DADADA"/>
<path d="M258.944 72.7037L258.282 72.5804C258.293 72.5295 259.241 67.3425 260.086 54.8105L260.757 54.8563C259.909 67.4366 258.954 72.6528 258.944 72.7037Z" fill="#DADADA"/>
<path d="M247.476 92.2126L247.095 91.6581C247.188 91.5946 256.532 85.2224 268.798 82.4248L268.946 83.081C256.805 85.8493 247.568 92.149 247.476 92.2113V92.2126Z" fill="#DADADA"/>
<path d="M84.5559 175.207C54.338 144.141 53.1363 127.148 51.3192 101.427C50.6694 92.2377 49.9331 81.8218 47.7789 69.2161L47.6721 68.5879L48.2507 68.8537C81.3081 83.9899 93.676 109.896 98.231 128.963C103.164 149.609 100.243 166.913 100.212 167.085L99.5497 166.969C99.5789 166.797 102.477 149.61 97.571 129.093C93.0745 110.294 80.9139 84.786 48.5483 69.7311C50.6274 82.0863 51.351 92.3255 51.9906 101.377C53.7976 126.951 54.9916 143.844 85.0391 174.735L84.5571 175.204L84.5559 175.207Z" fill="#DADADA"/>
<path d="M90.2168 168.567C90.0986 168.104 78.1541 122 63.145 96.4375L63.7249 96.0967C78.7823 121.742 90.7496 167.936 90.8679 168.399L90.2156 168.567H90.2168Z" fill="#DADADA"/>
<path d="M73.6207 117.811C73.6169 117.717 73.3371 108.271 78.2698 99.1826L78.8611 99.5031C74.0187 108.425 74.2896 117.694 74.2921 117.787L73.6194 117.811H73.6207Z" fill="#DADADA"/>
<path d="M80.532 136.602C73.7847 129.902 64.9659 127.828 64.8782 127.806L65.0282 127.151C65.1185 127.172 74.1179 129.284 81.0063 136.125L80.532 136.602Z" fill="#DADADA"/>
<path d="M63.786 187.007C37.8243 184.592 27.4312 155.813 18.2615 130.42C15.1625 121.837 12.2339 113.729 8.83868 106.753L8.53857 106.138L9.21 106.276C26.7471 109.926 38.8365 117.577 45.889 123.353C53.5404 129.618 57.0934 135.106 57.1277 135.16L56.5605 135.523C56.4232 135.308 42.5421 114.148 9.74154 107.077C13.0262 113.944 15.8797 121.844 18.8935 130.192C27.9946 155.396 38.3113 183.963 63.847 186.338L63.7847 187.009L63.786 187.007Z" fill="#DADADA"/>
<path d="M66.3714 174.503C66.1756 174.152 46.5657 139.327 30.4656 129.113L30.8254 128.545C47.068 138.85 66.7605 173.823 66.9576 174.174L66.3702 174.503H66.3714Z" fill="#DADADA"/>
<path d="M44.7117 142.366C44.7028 142.327 43.7439 138.354 42.7979 128.801L43.4667 128.735C44.4065 138.229 45.3551 142.168 45.364 142.206L44.7104 142.366H44.7117Z" fill="#DADADA"/>
<path d="M55.702 157.338C55.6155 157.288 46.8896 152.4 35.4983 150.157L35.628 149.497C47.1312 151.763 55.9462 156.702 56.0339 156.752L55.702 157.337V157.338Z" fill="#DADADA"/>
<path d="M305.156 189.988L304.998 189.336C333.583 182.356 338.972 151.65 344.184 121.957C346.014 111.535 347.905 100.764 350.795 91.4415C322.341 96.893 306.223 116.54 297.697 132.116C288.385 149.128 285.865 165.095 285.84 165.253L285.175 165.152C285.199 164.991 287.734 148.924 297.098 131.811C305.749 115.999 322.161 96.0283 351.224 90.6759L351.775 90.5742L351.605 91.1083C348.632 100.509 346.708 111.472 344.848 122.073C339.599 151.98 334.171 182.904 305.158 189.988H305.156Z" fill="#DADADA"/>
<path d="M302.71 173.157L302.061 172.978C302.166 172.6 312.705 135.13 329.845 120.332L330.285 120.842C313.299 135.505 302.814 172.782 302.71 173.157Z" fill="#DADADA"/>
<path d="M314.823 141.739L314.165 141.603C314.18 141.527 315.72 133.892 315.179 122.682L315.852 122.649C316.396 133.95 314.84 141.662 314.825 141.738L314.823 141.739Z" fill="#DADADA"/>
<path d="M305.76 158.047L305.347 157.515C305.44 157.443 314.846 150.179 327.842 145.564L328.067 146.198C315.173 150.778 305.853 157.974 305.76 158.047Z" fill="#DADADA"/>
<path d="M239.204 52.4135C237.999 52.4135 237.019 51.4331 237.019 50.2263C237.019 49.0195 237.999 48.0391 239.204 48.0391C240.41 48.0391 241.39 49.0195 241.39 50.2263C241.39 51.4331 240.41 52.4135 239.204 52.4135ZM239.204 48.713C238.37 48.713 237.691 49.3921 237.691 50.2263C237.691 51.0605 238.37 51.7395 239.204 51.7395C240.039 51.7395 240.718 51.0605 240.718 50.2263C240.718 49.3921 240.039 48.713 239.204 48.713Z" fill="#DADADA"/>
<path d="M57.9038 86.2191C56.6983 86.2191 55.7166 85.2387 55.7166 84.0319C55.7166 82.8252 56.697 81.8447 57.9038 81.8447C59.1105 81.8447 60.0897 82.8252 60.0897 84.0319C60.0897 85.2387 59.1093 86.2191 57.9038 86.2191ZM57.9038 82.5187C57.0696 82.5187 56.3905 83.1977 56.3905 84.0319C56.3905 84.8661 57.0696 85.5452 57.9038 85.5452C58.738 85.5452 59.417 84.8661 59.417 84.0319C59.417 83.1977 58.738 82.5187 57.9038 82.5187Z" fill="#DADADA"/>
<path d="M260.732 134.94C259.526 134.94 258.546 133.96 258.546 132.754C258.546 131.549 259.526 130.568 260.732 130.568C261.937 130.568 262.918 131.549 262.918 132.754C262.918 133.96 261.937 134.94 260.732 134.94ZM260.732 131.24C259.898 131.24 259.219 131.919 259.219 132.753C259.219 133.587 259.898 134.266 260.732 134.266C261.566 134.266 262.245 133.587 262.245 132.753C262.245 131.919 261.566 131.24 260.732 131.24Z" fill="#DADADA"/>
<path d="M335.125 111.617C333.919 111.617 332.939 110.637 332.939 109.431C332.939 108.226 333.919 107.244 335.125 107.244C336.33 107.244 337.311 108.225 337.311 109.431C337.311 110.638 336.33 111.617 335.125 111.617ZM335.125 107.917C334.291 107.917 333.612 108.596 333.612 109.431C333.612 110.267 334.291 110.945 335.125 110.945C335.959 110.945 336.638 110.266 336.638 109.431C336.638 108.597 335.959 107.917 335.125 107.917Z" fill="#DADADA"/>
<path d="M253.5 105.394C254.336 105.394 255.013 104.716 255.013 103.88C255.013 103.045 254.336 102.367 253.5 102.367C252.664 102.367 251.987 103.045 251.987 103.88C251.987 104.716 252.664 105.394 253.5 105.394Z" fill="#DADADA"/>
<path d="M323.184 161.123C324.02 161.123 324.697 160.446 324.697 159.61C324.697 158.774 324.02 158.097 323.184 158.097C322.348 158.097 321.671 158.774 321.671 159.61C321.671 160.446 322.348 161.123 323.184 161.123Z" fill="#DADADA"/>
<path d="M213.301 60.655C213.302 59.8193 212.625 59.1409 211.789 59.1397C210.954 59.1385 210.275 59.8151 210.274 60.6508C210.273 61.4866 210.949 62.165 211.785 62.1662C212.621 62.1673 213.299 61.4908 213.301 60.655Z" fill="#DADADA"/>
<path d="M44.6736 166.057C45.5094 166.057 46.1869 165.379 46.1869 164.544C46.1869 163.708 45.5094 163.03 44.6736 163.03C43.8379 163.03 43.1604 163.708 43.1604 164.544C43.1604 165.379 43.8379 166.057 44.6736 166.057Z" fill="#DADADA"/>
<path d="M87.7783 61.5458C87.585 61.5458 87.3892 61.5178 87.1946 61.4593L83.0097 60.2093C82.487 60.0529 82.0572 59.7032 81.7991 59.2238C81.5409 58.7456 81.4863 58.195 81.6427 57.6762L83.0682 52.9419C81.2981 52.0021 79.6754 50.8233 78.236 49.4309L74.1566 52.1853C73.2244 52.8134 71.9554 52.5693 71.3246 51.641L68.878 48.0359C68.5728 47.5858 68.4609 47.0453 68.5639 46.5112C68.6669 45.9771 68.9721 45.5143 69.4235 45.2103L73.4559 42.4891C72.6014 40.4773 72.066 38.3473 71.8638 36.1487L67.0799 35.6006C66.5382 35.5383 66.0524 35.2687 65.7142 34.8427C65.3759 34.418 65.2246 33.8865 65.2869 33.3473L65.7867 29.0212C65.9151 27.906 66.9286 27.1036 68.0464 27.232L72.7679 27.7737C73.4012 25.7912 74.3193 23.9194 75.5032 22.2027L72.2427 18.8214C71.8651 18.4297 71.6629 17.9147 71.6731 17.3717C71.6845 16.8275 71.9058 16.3214 72.3 15.9437L75.4498 12.9248C76.2611 12.1466 77.5544 12.172 78.3326 12.9808L81.5638 16.3315C83.3975 15.1566 85.3902 14.2753 87.4922 13.7094L87.1921 9.09086C87.1196 7.97183 87.9729 7.0003 89.0944 6.92782L93.4536 6.64424C94.5892 6.56921 95.548 7.42248 95.6217 8.54152L95.9231 13.1614C98.0811 13.45 100.169 14.0655 102.139 14.9925L104.908 11.2501C105.576 10.3472 106.855 10.1552 107.759 10.8203L111.274 13.4055C111.713 13.7285 111.999 14.2016 112.08 14.7395C112.162 15.2774 112.028 15.814 111.704 16.2514L108.91 20.0269C110.305 21.577 111.459 23.3141 112.344 25.1974L116.955 24.0478C118.047 23.7782 119.156 24.4408 119.428 25.5293L120.485 29.7549C120.616 30.2814 120.536 30.8282 120.256 31.2936C119.975 31.7603 119.528 32.0896 118.999 32.2219L114.327 33.3854C114.413 35.5917 114.158 37.7726 113.571 39.8784L117.921 42.0542C118.408 42.2983 118.772 42.7167 118.943 43.233C119.115 43.748 119.074 44.2999 118.83 44.7856L116.872 48.6781C116.367 49.6801 115.14 50.0871 114.134 49.5848L109.731 47.3836C108.486 48.9502 107.028 50.3299 105.394 51.491L107.422 56.0014C107.645 56.4974 107.662 57.0493 107.468 57.5566C107.275 58.0653 106.893 58.4684 106.395 58.6909L102.41 60.4725C101.384 60.9303 100.175 60.4725 99.7151 59.4488L97.6767 54.9155C96.6136 55.1507 95.5251 55.3059 94.4378 55.3758C93.3506 55.447 92.2506 55.4343 91.1647 55.3389L89.7328 60.0974C89.4683 60.9773 88.6557 61.5483 87.7783 61.5483V61.5458ZM78.3161 48.5649L78.5119 48.7595C80.0175 50.2536 81.7368 51.5024 83.6239 52.4727L83.8731 52.6011L82.2861 57.8707C82.1818 58.2192 82.2187 58.5867 82.3904 58.9058C82.5633 59.2263 82.852 59.4616 83.2017 59.5658L87.3866 60.8158C88.1102 61.0307 88.8732 60.6213 89.0881 59.9015L90.6802 54.6141L90.9561 54.6421C92.0942 54.7565 93.2514 54.7768 94.3933 54.7031C95.5365 54.6281 96.6797 54.4577 97.7924 54.197L98.062 54.1334L100.327 59.1703C100.635 59.8558 101.445 60.1622 102.132 59.8558L106.118 58.0742C106.452 57.9254 106.707 57.6558 106.836 57.3138C106.966 56.9742 106.955 56.6055 106.806 56.2736L104.55 51.2544L104.78 51.0955C106.527 49.8874 108.071 48.4263 109.368 46.7503L109.537 46.5316L114.434 48.9795C115.11 49.3177 115.932 49.0443 116.269 48.3716L118.228 44.4792C118.39 44.1549 118.418 43.7861 118.304 43.4415C118.189 43.0956 117.947 42.8159 117.62 42.6518L112.767 40.2255L112.846 39.956C113.493 37.7522 113.762 35.4582 113.642 33.14L113.628 32.8628L118.837 31.5657C119.191 31.478 119.49 31.2567 119.679 30.9439C119.865 30.6323 119.92 30.2674 119.832 29.9151L118.776 25.6895C118.594 24.9609 117.851 24.5158 117.119 24.6989L111.965 25.9832L111.849 25.7277C110.941 23.7286 109.724 21.8937 108.229 20.2749L108.039 20.0702L111.164 15.8496C111.38 15.5571 111.47 15.1973 111.415 14.8386C111.361 14.4788 111.17 14.1621 110.876 13.946L107.361 11.3607C106.755 10.9144 105.897 11.0441 105.45 11.6481L102.349 15.8382L102.097 15.7161C100.037 14.714 97.8395 14.0668 95.5645 13.7921L95.2873 13.759L94.9503 8.58348C94.9007 7.83449 94.2484 7.26607 93.4981 7.31312L89.1389 7.59669C88.3874 7.64629 87.8152 8.29482 87.8635 9.04509L88.2005 14.2194L87.9296 14.288C85.7093 14.8539 83.6137 15.7809 81.6999 17.0424L81.4659 17.1963L77.8468 13.4437C77.3242 12.902 76.4569 12.8854 75.914 13.4068L72.7641 16.4256C72.5009 16.6774 72.3521 17.017 72.3445 17.3806C72.3368 17.7443 72.4729 18.0889 72.7247 18.3509L76.3705 22.1315L76.209 22.3591C74.9361 24.1559 73.9658 26.1333 73.3249 28.234L73.2435 28.5024L67.9662 27.8983C67.216 27.8055 66.5369 28.3498 66.4517 29.0962L65.952 33.4223C65.91 33.7834 66.0117 34.1382 66.2381 34.4218C66.4657 34.7079 66.79 34.8885 67.1537 34.9292L72.4856 35.5396L72.5072 35.8155C72.6916 38.1299 73.255 40.3692 74.1807 42.4725L74.2939 42.7294L69.7974 45.7635C69.4947 45.9682 69.29 46.2773 69.2213 46.6346C69.1527 46.9906 69.2277 47.3531 69.4312 47.6544L71.8778 51.2595C72.3012 51.8813 73.152 52.0454 73.7763 51.6232L78.3123 48.5611L78.3161 48.5649ZM93.0568 46.5608C86.6707 46.5608 81.279 41.5989 80.8593 35.1543C80.4219 28.4413 85.544 22.6223 92.2773 22.1849C95.5391 21.9725 98.6864 23.0394 101.143 25.1872C103.6 27.3363 105.069 30.3119 105.281 33.5635C105.493 36.8163 104.421 39.956 102.265 42.4064C100.108 44.8556 97.1248 46.3218 93.8631 46.5341C93.5935 46.5519 93.3239 46.5608 93.0568 46.5608ZM93.0912 22.8309C92.8356 22.8309 92.5787 22.8398 92.3206 22.8563C85.9573 23.2709 81.1175 28.7681 81.5295 35.111C81.9428 41.4552 87.4604 46.2773 93.8173 45.864C96.8997 45.6631 99.7189 44.2782 101.757 41.9639C103.796 39.6495 104.808 36.6828 104.607 33.6092C104.407 30.537 103.019 27.7254 100.698 25.6946C98.5719 23.8329 95.8939 22.8309 93.0899 22.8309H93.0912Z" fill="#DADADA"/>
<path d="M195.942 31.2979H95.871C92.408 31.2979 89.6006 34.1052 89.6006 37.5683V183.839C89.6006 187.302 92.408 190.11 95.871 190.11H195.942C199.405 190.11 202.213 187.302 202.213 183.839V37.5683C202.213 34.1052 199.405 31.2979 195.942 31.2979Z" fill="#86A7FF"/>
<path d="M165.754 38.2852H126.062V44.9485H165.754V38.2852Z" fill="#D3DFFF"/>
<path d="M190.98 55.1045H100.834V75.0971H190.98V55.1045Z" fill="#DADADA"/>
<path d="M187.036 57.8389H104.779V72.3622H187.036V57.8389Z" fill="white"/>
<path d="M167.469 84.3711H161.345C159.507 84.3711 158.016 85.8616 158.016 87.7002V89.1156C158.016 90.9542 159.507 92.4447 161.345 92.4447H167.469C169.308 92.4447 170.799 90.9542 170.799 89.1156V87.7002C170.799 85.8616 169.308 84.3711 167.469 84.3711Z" fill="#1F3C88"/>
<path d="M187.651 84.3711H181.527C179.689 84.3711 178.198 85.8616 178.198 87.7002V89.1156C178.198 90.9542 179.689 92.4447 181.527 92.4447H187.651C189.49 92.4447 190.98 90.9542 190.98 89.1156V87.7002C190.98 85.8616 189.49 84.3711 187.651 84.3711Z" fill="#1F3C88"/>
<path d="M189.392 102.2H177.091C176.216 102.2 175.506 102.91 175.506 103.786V111.155C175.506 112.031 176.216 112.741 177.091 112.741H189.392C190.268 112.741 190.978 112.031 190.978 111.155V103.786C190.978 102.91 190.268 102.2 189.392 102.2Z" fill="#1F3C88"/>
<path d="M164.707 102.2H152.406C151.531 102.2 150.821 102.91 150.821 103.786V111.155C150.821 112.031 151.531 112.741 152.406 112.741H164.707C165.583 112.741 166.293 112.031 166.293 111.155V103.786C166.293 102.91 165.583 102.2 164.707 102.2Z" fill="#1F3C88"/>
<path d="M140.023 102.2H127.723C126.847 102.2 126.137 102.91 126.137 103.786V111.155C126.137 112.031 126.847 112.741 127.723 112.741H140.023C140.899 112.741 141.609 112.031 141.609 111.155V103.786C141.609 102.91 140.899 102.2 140.023 102.2Z" fill="#1F3C88"/>
<path d="M115.338 102.2H103.038C102.162 102.2 101.452 102.91 101.452 103.786V111.155C101.452 112.031 102.162 112.741 103.038 112.741H115.338C116.214 112.741 116.924 112.031 116.924 111.155V103.786C116.924 102.91 116.214 102.2 115.338 102.2Z" fill="#1F3C88"/>
<path d="M189.392 121.263H177.092C176.216 121.263 175.506 121.973 175.506 122.848V130.218C175.506 131.093 176.216 131.803 177.092 131.803H189.392C190.268 131.803 190.978 131.093 190.978 130.218V122.848C190.978 121.973 190.268 121.263 189.392 121.263Z" fill="#1F3C88"/>
<path d="M164.707 121.263H152.407C151.531 121.263 150.821 121.973 150.821 122.848V130.218C150.821 131.093 151.531 131.803 152.407 131.803H164.707C165.583 131.803 166.293 131.093 166.293 130.218V122.848C166.293 121.973 165.583 121.263 164.707 121.263Z" fill="#D3DFFF"/>
<path d="M140.023 121.263H127.723C126.847 121.263 126.137 121.973 126.137 122.848V130.218C126.137 131.093 126.847 131.803 127.723 131.803H140.023C140.899 131.803 141.609 131.093 141.609 130.218V122.848C141.609 121.973 140.899 121.263 140.023 121.263Z" fill="#D3DFFF"/>
<path d="M115.339 121.263H103.038C102.162 121.263 101.452 121.973 101.452 122.848V130.218C101.452 131.093 102.162 131.803 103.038 131.803H115.339C116.214 131.803 116.924 131.093 116.924 130.218V122.848C116.924 121.973 116.214 121.263 115.339 121.263Z" fill="#D3DFFF"/>
<path d="M189.392 140.323H177.092C176.216 140.323 175.506 141.033 175.506 141.909V149.278C175.506 150.154 176.216 150.864 177.092 150.864H189.392C190.268 150.864 190.978 150.154 190.978 149.278V141.909C190.978 141.033 190.268 140.323 189.392 140.323Z" fill="#1F3C88"/>
<path d="M164.707 140.323H152.407C151.531 140.323 150.821 141.033 150.821 141.909V149.278C150.821 150.154 151.531 150.864 152.407 150.864H164.707C165.583 150.864 166.293 150.154 166.293 149.278V141.909C166.293 141.033 165.583 140.323 164.707 140.323Z" fill="#D3DFFF"/>
<path d="M140.023 140.323H127.723C126.847 140.323 126.137 141.033 126.137 141.909V149.278C126.137 150.154 126.847 150.864 127.723 150.864H140.023C140.899 150.864 141.609 150.154 141.609 149.278V141.909C141.609 141.033 140.899 140.323 140.023 140.323Z" fill="#D3DFFF"/>
<path d="M115.338 140.323H103.038C102.162 140.323 101.452 141.033 101.452 141.909V149.278C101.452 150.154 102.162 150.864 103.038 150.864H115.338C116.214 150.864 116.924 150.154 116.924 149.278V141.909C116.924 141.033 116.214 140.323 115.338 140.323Z" fill="#D3DFFF"/>
<path d="M189.392 160.059H177.092C176.216 160.059 175.506 160.769 175.506 161.644V169.013C175.506 169.889 176.216 170.599 177.092 170.599H189.392C190.268 170.599 190.978 169.889 190.978 169.013V161.644C190.978 160.769 190.268 160.059 189.392 160.059Z" fill="#FBC343"/>
<path d="M164.707 160.059H152.407C151.531 160.059 150.821 160.769 150.821 161.644V169.013C150.821 169.889 151.531 170.599 152.407 170.599H164.707C165.583 170.599 166.293 169.889 166.293 169.013V161.644C166.293 160.769 165.583 160.059 164.707 160.059Z" fill="#D3DFFF"/>
<path d="M140.023 160.059H127.723C126.847 160.059 126.137 160.769 126.137 161.644V169.013C126.137 169.889 126.847 170.599 127.723 170.599H140.023C140.899 170.599 141.609 169.889 141.609 169.013V161.644C141.609 160.769 140.899 160.059 140.023 160.059Z" fill="#D3DFFF"/>
<path d="M115.338 160.059H103.038C102.162 160.059 101.452 160.769 101.452 161.644V169.013C101.452 169.889 102.162 170.599 103.038 170.599H115.338C116.214 170.599 116.924 169.889 116.924 169.013V161.644C116.924 160.769 116.214 160.059 115.338 160.059Z" fill="#D3DFFF"/>
<path d="M169.125 68.3935C169.363 68.419 169.639 68.3935 170.013 68.3554C170.65 68.2689 171.251 68.0057 171.713 67.5682C172.251 67.0799 172.638 66.3678 172.789 65.4052H172.752C172.3 65.9545 171.65 66.2801 170.839 66.2801C169.375 66.2801 168.438 65.1801 168.438 63.7915C168.438 62.2528 169.551 60.9023 171.214 60.9023C172.878 60.9023 173.902 62.2528 173.902 64.3281C173.902 66.116 173.302 67.3673 172.502 68.143C171.877 68.756 171.013 69.1311 170.14 69.2315C169.739 69.2939 169.389 69.3066 169.126 69.2939V68.3935H169.125ZM169.525 63.7165C169.525 64.7287 170.138 65.4421 171.088 65.4421C171.826 65.4421 172.402 65.0797 172.689 64.5914C172.753 64.4922 172.789 64.3663 172.789 64.1908C172.789 62.8034 172.276 61.7403 171.125 61.7403C170.188 61.7403 169.524 62.5656 169.524 63.7165H169.525Z" fill="#3A6BEA"/>
<path d="M175.544 68.3935C175.782 68.419 176.058 68.3935 176.432 68.3554C177.069 68.2689 177.67 68.0057 178.132 67.5682C178.67 67.0799 179.058 66.3678 179.208 65.4052H179.171C178.719 65.9545 178.07 66.2801 177.258 66.2801C175.795 66.2801 174.857 65.1801 174.857 63.7915C174.857 62.2528 175.97 60.9023 177.633 60.9023C179.297 60.9023 180.322 62.2528 180.322 64.3281C180.322 66.116 179.721 67.3673 178.922 68.143C178.296 68.756 177.432 69.1311 176.559 69.2315C176.158 69.2939 175.809 69.3066 175.545 69.2939V68.3935H175.544ZM175.945 63.7165C175.945 64.7287 176.558 65.4421 177.508 65.4421C178.245 65.4421 178.821 65.0797 179.108 64.5914C179.172 64.4922 179.208 64.3663 179.208 64.1908C179.208 62.8034 178.695 61.7403 177.544 61.7403C176.607 61.7403 175.943 62.5656 175.943 63.7165H175.945Z" fill="#3A6BEA"/>
<path d="M293.245 145.377H231.805V190.446H293.245V145.377Z" fill="#FBC343"/>
<path d="M293.246 155.581H276.876V156.254H293.246V155.581Z" fill="#E49B31"/>
<path d="M293.246 180.249H264.768V180.922H293.246V180.249Z" fill="#E49B31"/>
<path d="M262.433 161.709C262.433 166.896 261.652 172.109 260.065 177.176C257.651 184.873 250.526 190.107 242.467 190.107H231.805V145.381H259.791C261.539 150.642 262.435 156.159 262.435 161.709H262.433Z" fill="#E49B31"/>
<path d="M152.536 179.533H203.186C204.872 179.533 206.24 180.901 206.24 182.588V187.392C206.24 189.078 204.872 190.446 203.186 190.446H152.535C150.849 190.446 149.481 189.078 149.481 187.392V182.588C149.481 180.901 150.849 179.533 152.535 179.533H152.536Z" fill="#FBC343"/>
<path d="M199.964 171.669V176.479C199.964 178.168 198.592 179.534 196.91 179.534H146.26C144.571 179.534 143.205 178.168 143.205 176.479V171.669C143.205 169.986 144.571 168.614 146.26 168.614H196.91C198.592 168.614 199.964 169.986 199.964 171.669Z" fill="#FBC343"/>
<path d="M206.24 182.588V187.392C206.24 189.081 204.874 190.447 203.185 190.447H166.865C164.356 187.351 162.822 183.362 161.901 179.535C160.837 175.148 160.561 170.984 160.502 168.615H196.91C198.592 168.615 199.964 169.987 199.964 171.67V176.48C199.964 178.169 198.592 179.535 196.91 179.535H203.187C204.875 179.535 206.241 180.9 206.241 182.589L206.24 182.588Z" fill="#E49B31"/>
<path d="M232.86 93.0955L228.771 105.657L228.468 106.585L226.571 112.418L226.557 112.459L220.442 112.324L196.976 111.792L195.261 106.881L194.972 106.061L190.431 93.0968C204.518 97.9748 216.13 87.3109 232.86 93.0968V93.0955Z" fill="#FBC343"/>
<path d="M228.468 106.585L226.571 112.418L220.443 112.324L196.977 111.792L195.262 106.881C203.328 106.74 217.207 106.552 228.468 106.585Z" fill="#E49B31"/>
<path d="M254.684 177.516C253.48 181.364 251.092 184.594 248.004 186.868C244.909 189.142 241.116 190.448 237.086 190.448H183.941C176.259 190.448 169.518 185.314 167.472 177.9C166.294 173.615 165.662 169.268 165.562 164.942C165.555 164.525 165.548 164.108 165.548 163.691C165.548 163.198 165.554 162.706 165.568 162.213C166.002 146.534 173.663 131.932 185.959 122.195L198.673 112.129L227.768 112.802L243.761 128.106C246.01 130.259 248.015 132.665 249.623 135.331C251.551 138.527 253.111 141.899 254.294 145.383C257.786 155.651 258.015 166.899 254.684 177.515V177.516Z" fill="#FBC343"/>
<path d="M207.36 176.392V170.769C203.392 170.591 199.545 169.526 197.293 168.223L199.072 161.294C201.561 162.654 205.051 163.899 208.903 163.899C212.278 163.899 214.587 162.596 214.587 160.229C214.587 157.861 212.692 156.554 208.309 155.073C201.974 152.942 197.648 149.982 197.648 144.238C197.648 139.025 201.322 134.941 207.658 133.697V128.07H213.458V133.283C217.427 133.461 220.092 134.291 222.045 135.236L220.329 141.929C218.79 141.277 216.066 139.913 211.799 139.913C207.951 139.913 206.707 141.571 206.707 143.231C206.707 145.184 208.78 146.428 213.814 148.322C220.859 150.811 223.704 154.065 223.704 159.398C223.704 164.732 219.971 169.168 213.163 170.355V176.392H207.358H207.36Z" fill="white"/>
<path d="M232.582 110.052H191.424C189.715 110.052 188.329 111.438 188.329 113.147V114.464C188.329 116.174 189.715 117.559 191.424 117.559H232.582C234.292 117.559 235.677 116.174 235.677 114.464V113.147C235.677 111.438 234.292 110.052 232.582 110.052Z" fill="#ED7545"/>
<path opacity="0.4" d="M254.684 177.516C253.48 181.364 251.092 184.594 248.004 186.868C244.909 189.142 241.116 190.448 237.086 190.448H183.94C176.259 190.448 169.518 185.314 167.472 177.9C166.294 173.615 165.662 169.269 165.562 164.942C174.354 173.325 184.714 184.285 208.932 184.621C239.006 185.038 251.967 170.943 254.294 145.385C257.785 155.652 258.014 166.901 254.684 177.516Z" fill="#E49B31"/>
<path d="M48.2612 181.141L42.8796 179.123L30.3782 190.111H45.1724L48.2612 181.141Z" fill="#102048"/>
<path d="M48.2609 181.141H60.1456L58.8002 189.662L45.1721 190.111L48.2609 181.141Z" fill="#F9B384"/>
<path d="M95.9663 133.37L95.5289 136.351L95.2669 138.148L93.3836 151.059L92.6639 155.99L92.0242 160.39L90.3495 171.854L89.186 179.807C88.3111 185.787 83.1851 190.221 77.1372 190.221H50.8398L50.8729 189.884L51.7274 181.138L51.8483 179.907L70.1801 176.375L72.642 158.492C71.4314 153.291 71.7277 148.285 72.2516 144.773C72.6954 141.78 73.3147 139.875 73.3147 139.875L81.4951 137.527L95.965 133.369L95.9663 133.37Z" fill="#1F3C88"/>
<path d="M90.3497 171.854L89.1861 179.807C88.3112 185.788 83.1853 190.222 77.1374 190.222H75.792C87.8407 188.065 85.4857 172.676 90.3497 171.854Z" fill="#102048"/>
<path d="M41.4725 185.786L38.8936 189.934L39.4648 190.289L42.0437 186.141L41.4725 185.786Z" fill="white"/>
<path d="M93.3835 151.059L92.0241 160.39C88.2372 159.306 83.2422 153.893 83.2422 153.893L93.3822 151.059H93.3835Z" fill="#102048"/>
<path d="M121.246 174.861C121.246 174.861 114.855 178.141 103.419 176.039L112.922 169.731L121.247 174.861H121.246Z" fill="#102048"/>
<path d="M117.729 179.382L107.51 179.611L107.451 177.404L107.289 171.356L116.371 172.029L116.801 174.363L117.729 179.382Z" fill="#F9B384"/>
<path d="M116.801 174.363L107.451 177.404L107.289 171.356L116.371 172.029L116.801 174.363Z" fill="#E28B6D"/>
<path d="M129.32 190.194L118.051 181.112L117.732 179.384L107.509 179.61L107.793 190.194H129.32Z" fill="#102048"/>
<path d="M121.63 183.672L117.593 186.192L117.949 186.763L121.986 184.242L121.63 183.672Z" fill="white"/>
<path d="M73.3147 139.876L109.881 134.068C111.591 133.796 113.343 134.026 114.925 134.729C118.07 136.127 120.136 139.203 120.242 142.643L121.245 174.86C121.245 174.86 110.818 172.674 103.418 176.037L102.745 154.004C98.2744 156.039 90.5301 156.471 82.6816 155.686L73.3135 139.876H73.3147Z" fill="#1F3C88"/>
<path d="M116.095 173.85H115.422C115.422 168.276 115.557 163.648 115.675 159.565C115.964 149.622 116.123 144.146 113.591 141.828C111.541 139.952 107.445 140.011 101.503 140.714C95.1347 141.457 92.5953 134.676 92.5698 134.608L93.2018 134.379C93.2959 134.64 95.5849 140.75 101.423 140.047C107.712 139.304 111.796 139.275 114.044 141.333C116.805 143.859 116.651 149.115 116.347 159.587C116.229 163.665 116.094 168.287 116.094 173.852L116.095 173.85Z" fill="#3A6BEA"/>
<path d="M103.432 171.98L103.193 171.35C103.278 171.318 111.808 168.143 121.221 170.497L121.058 171.149C111.858 168.848 103.515 171.947 103.432 171.978V171.98Z" fill="#3A6BEA"/>
<path d="M54.5745 190.318C53.5267 188.222 55.148 179.541 55.2179 179.172L55.8792 179.298C55.4176 181.746 54.3901 188.445 55.1772 190.018L54.5758 190.319L54.5745 190.318Z" fill="#3A6BEA"/>
<path d="M92.3269 137.186C92.3269 137.186 89.7443 142.682 83.9176 146.382C81.9402 147.633 79.9959 148.206 78.2538 148.212C75.624 148.218 73.4368 146.94 72.2529 144.773C72.6967 141.78 73.316 139.875 73.316 139.875L81.4964 137.528L89.7506 137.266L92.3269 137.186Z" fill="#102048"/>
<path d="M85.76 104.059V111.845H93.3847V105.11L85.76 104.059Z" fill="#ED7545"/>
<path d="M93.3847 100.296H85.76V104.059L93.3847 105.11V100.296Z" fill="#F9B384"/>
<path d="M88.0083 101.36C88.1762 101.36 89.8471 103.981 93.3848 105.11L93.3339 101.024L88.0083 101.361V101.36Z" fill="#102048"/>
<path d="M94.2811 90.9877C94.2811 90.9877 98.4851 102.313 93.0476 103.042C87.6101 103.77 86.7683 101.303 86.7683 101.303L85.0859 95.3037L88.8423 90.2578L94.2798 90.9865L94.2811 90.9877Z" fill="#F9B384"/>
<path d="M96.8601 96.4473C96.8721 95.7971 96.3548 95.2602 95.7045 95.2482C95.0543 95.2361 94.5175 95.7535 94.5054 96.4037C94.4934 97.0539 95.0107 97.5908 95.661 97.6028C96.3112 97.6149 96.8481 97.0975 96.8601 96.4473Z" fill="#F9B384"/>
<path d="M88.5627 96.3698C88.5627 96.3698 88.8425 90.3143 94.2813 90.987C94.2813 90.987 90.6215 86.287 85.7995 88.1093C83.3503 89.035 81.7125 91.3736 81.4721 93.9804C81.1618 97.3502 83.1303 101.191 85.8771 101.863C85.8771 101.863 86.7736 99.7892 88.2817 97.1544L88.5615 96.3698H88.5627Z" fill="#102048"/>
<path d="M89.8637 96.0867C90.3177 97.0532 90.0163 98.1518 89.1897 98.541C88.3632 98.9301 87.3243 98.4609 86.8703 97.4944C86.4163 96.528 86.7177 95.4293 87.5443 95.0402C88.3708 94.651 89.4097 95.1203 89.8637 96.0867Z" fill="#F9B384"/>
<path opacity="0.4" d="M93.9816 97.1241C93.9938 96.273 93.3137 95.5732 92.4626 95.561C91.6115 95.5488 90.9117 96.2289 90.8995 97.08C90.8873 97.9311 91.5674 98.631 92.4185 98.6432C93.2696 98.6553 93.9694 97.9753 93.9816 97.1241Z" fill="#EB5D60"/>
<path d="M88.7089 97.4354C88.6161 97.4354 88.541 97.3603 88.541 97.2675C88.541 97.2281 88.522 96.2896 87.4805 96.1447C87.3889 96.1319 87.3241 96.0467 87.3368 95.9539C87.3495 95.8624 87.4347 95.8026 87.5263 95.8102C88.8602 95.9972 88.8767 97.2535 88.8767 97.2662C88.8767 97.3591 88.8017 97.4341 88.7089 97.4341V97.4354Z" fill="#102048"/>
<path d="M114.182 92.9512C114.182 92.9512 120.064 93.4001 123.264 97.1565L115.982 98.9507L114.182 92.9512Z" fill="#BA5C36"/>
<path d="M124.605 89.7284C124.632 90.2663 123.151 92.9507 122.062 94.8543C121.422 95.9505 120.925 96.7847 120.925 96.7847L117.003 97.9279L114.204 93.7099L114.069 93.5013C114.069 93.5013 114.11 93.3195 114.184 92.9965V92.9901C114.19 92.9838 114.19 92.9698 114.198 92.9494C114.668 90.9517 116.337 84.1421 117.299 83.9145C118.147 83.7199 117.649 87.4471 117.649 87.4471C117.649 87.4471 119.741 81.3852 120.979 81.6344C121.969 81.829 120.031 87.6429 120.031 87.6429C120.031 87.6429 120.724 86.9168 121.423 87.1457C122.17 87.3949 122.264 88.0943 122.264 88.0943C122.264 88.0943 122.761 87.7446 123.259 88.0409C123.757 88.3436 123.71 89.2859 123.71 89.2859C123.71 89.2859 124.55 88.8891 124.605 89.7297V89.7284Z" fill="#F9B384"/>
<path d="M83.9787 109.11L81.3147 119.525L77.1844 135.672C74.3792 136.917 71.4188 137.375 69.0714 136.985C66.3463 136.533 64.4426 134.946 64.5711 132.141C64.9081 124.572 83.9787 109.112 83.9787 109.112V109.11Z" fill="#ED7545"/>
<path d="M83.4675 112.068L81.3146 119.525L77.1843 135.672C74.3791 136.917 71.4187 137.375 69.0713 136.985C75.0581 119.806 83.4675 112.07 83.4675 112.07V112.068Z" fill="#BA5C36"/>
<path d="M100.117 135.631C94.5675 136.008 77.0761 150.473 72.8708 141.141C72.8708 141.141 73.4558 106.332 91.4253 106.978C94.6069 107.092 97.3994 109.212 98.3608 112.246C98.7918 113.618 99.2216 115.409 99.5586 117.709C99.902 120.044 100.158 122.91 100.245 126.402C100.319 129.093 100.286 132.155 100.117 135.633V135.631Z" fill="#ED7545"/>
<path d="M100.245 126.402C97.467 124.605 94.5676 119.189 94.5676 119.189L99.5588 117.709C99.9021 120.044 100.158 122.91 100.245 126.402Z" fill="#BA5C36"/>
<path d="M122.062 94.8541C121.422 95.9503 120.925 96.7845 120.925 96.7845L117.003 97.9277L114.204 93.7097L114.184 92.9963V92.9492H114.198L122.062 94.8529V94.8541Z" fill="#E28B6D"/>
<path d="M91.4268 106.979C91.4268 106.979 100.056 107.584 105.27 108.594L114.184 92.9512C116.906 95.1295 119.933 96.5346 123.266 97.1565L115.464 115.538C113.744 119.029 110.243 121.291 106.353 121.424L92.9921 121.881L91.4268 106.979Z" fill="#ED7545"/>
<path d="M105.269 108.845C105.254 108.845 105.239 108.845 105.224 108.841C105.06 108.811 88.7662 105.822 85.989 108.278C85.8847 108.369 85.7257 108.361 85.6329 108.255C85.5413 108.151 85.5502 107.992 85.6545 107.899C88.6136 105.283 104.635 108.218 105.315 108.345C105.453 108.371 105.543 108.503 105.517 108.639C105.495 108.761 105.389 108.845 105.269 108.845Z" fill="#BA5C36"/>
<path d="M283.829 175.758L284.95 190.111H266.283L275.7 183.608L275.533 174.638L283.829 175.758Z" fill="#102048"/>
<path d="M311.355 169.647L316.4 181.925L303.619 192.689L305.468 180.58L302.947 172.506L311.355 169.647Z" fill="#102048"/>
<path d="M288.764 100.404C288.596 100.875 288.441 101.481 288.294 102.193C288.045 103.438 287.83 105.025 287.648 106.896C287.055 113.005 286.807 122.081 286.74 131.722C286.599 153.433 287.419 178.003 287.419 178.003L284.002 177.95L275.593 177.821L272.62 177.774C268.113 143.382 269.397 114.338 270.076 104.226C270.097 103.876 270.123 103.553 270.137 103.25C270.279 101.394 270.373 100.404 270.373 100.404H288.766H288.764Z" fill="#1F3C88"/>
<path d="M314.55 172.843L312.841 173.267L303.88 175.507L298.404 176.879C298.404 176.879 291.919 152.814 286.739 131.722C284.251 121.551 282.057 112.071 281.048 106.318C280.698 104.286 280.489 102.718 280.463 101.75L288.293 102.194L298.183 102.758C298.183 102.758 298.424 104.178 298.896 106.728C300.78 116.894 306.304 145.043 314.551 172.842L314.55 172.843Z" fill="#1F3C88"/>
<path d="M298.896 106.728C294.914 107.057 291.119 107.071 287.649 106.896C285.287 106.775 283.075 106.567 281.049 106.317C276.044 105.692 272.182 104.784 270.077 104.226C268.926 103.917 268.301 103.714 268.301 103.714L270.137 103.25L281.466 100.404H288.765C288.597 100.875 288.442 101.481 288.295 102.193L298.184 102.758C298.184 102.758 298.426 104.177 298.898 106.728H298.896Z" fill="#102048"/>
<path d="M287.089 134.348C286.545 132.067 283.975 121.264 283.641 119.434L278.441 117.485L278.677 116.855L284.278 118.955V119.188C284.316 119.686 286.372 128.435 287.744 134.192L287.091 134.348H287.089Z" fill="#3A6BEA"/>
<path d="M273.889 144.194C271.442 144.194 269.888 143.588 269.802 143.552L270.051 142.928C270.077 142.939 272.822 144.002 276.701 143.247L276.83 143.907C275.753 144.117 274.763 144.194 273.889 144.194Z" fill="#3A6BEA"/>
<path d="M293.365 143.722C291.798 143.722 290.485 143.478 290.382 143.459L290.507 142.798C290.553 142.807 295.103 143.648 297.204 142.18L297.589 142.73C296.47 143.514 294.811 143.722 293.365 143.722Z" fill="#3A6BEA"/>
<path d="M275.911 183.36L275.502 183.894L278.137 185.912L278.546 185.378L275.911 183.36Z" fill="white"/>
<path d="M305.579 180.247L305.326 180.87L308.914 182.327L309.167 181.704L305.579 180.247Z" fill="white"/>
<path d="M278.896 63.6279C278.896 63.6279 267.347 65.0852 264.432 78.0928L267.908 93.5673L266.339 103.883C266.339 103.883 282.036 105.452 298.182 102.761L293.277 76.4663L278.897 63.6279H278.896Z" fill="#ED7545"/>
<path d="M286.072 96.5936C286.072 96.5936 282.596 94.0427 287.137 82.8574L290.165 93.8736L286.073 96.5923L286.072 96.5936Z" fill="#6E3620"/>
<path d="M285.622 74.4119L285.769 74.6895C285.96 75.0502 285.822 75.4988 285.461 75.6899L272.539 82.5316L271.7 80.9458L284.621 74.1041C284.982 73.9131 285.431 74.0511 285.622 74.4119Z" fill="#102048"/>
<path d="M288.986 92.9487L288.643 92.7605L284.183 90.352L276.709 86.3082C276.574 85.4066 276.676 84.6398 277.214 84.1147L276.844 83.9671C276.238 83.7115 275.795 83.166 275.674 82.5137L275.66 82.4336C275.465 81.7812 275.559 81.1759 275.619 80.8389L275.795 80.61C276.232 80.0378 276.427 79.7491 276.992 79.2977L276.037 79.3511C276.037 79.3511 273.682 79.9971 274.78 78.4839C275.534 77.4348 277.221 76.5459 278.184 76.1021C278.587 75.9139 279.079 75.994 279.388 76.317C282.624 79.6741 288.315 83.6976 288.315 83.6976L288.376 84.5178L288.928 92.0725L288.989 92.9474L288.986 92.9487Z" fill="#F9B384"/>
<path d="M280.166 80.0924L278.13 79.098C277.918 78.9937 277.681 78.9607 277.449 79.0014L275.281 79.379L275.223 79.0471L277.391 78.6695C277.695 78.6161 278.002 78.6606 278.279 78.7954L280.315 79.7898L280.166 80.0924Z" fill="#E28B6D"/>
<path d="M279.788 82.0048L277.347 81.0689C277.239 81.027 277.124 81.0066 277.007 81.0066H275.617V80.6709H277.007C277.165 80.6709 277.32 80.6989 277.468 80.7561L279.909 81.692L279.788 82.0061V82.0048Z" fill="#E28B6D"/>
<path d="M279.451 83.9107L277.234 83.0726C277.061 83.0065 276.87 82.9824 276.683 83.004L275.775 83.107L275.737 82.7725L276.646 82.6695C276.884 82.6428 277.129 82.6734 277.355 82.7586L279.572 83.5966L279.453 83.9107H279.451Z" fill="#E28B6D"/>
<path d="M288.926 92.0742L288.643 92.7609L284.184 90.3524L287.136 82.8574L288.375 84.5194L288.926 92.0742Z" fill="#E28B6D"/>
<path d="M286.072 96.5931C286.072 96.5931 292.744 102.928 298.18 102.761L296.61 95.3037L286.071 96.5931H286.072Z" fill="#BA5C36"/>
<path d="M278.896 63.6275C278.896 63.6275 279.718 63.5423 281.087 63.5894C294.554 64.0497 304.869 75.6381 304.212 89.0971C303.94 94.6605 302.495 100.184 297.845 100.295L286.072 96.5946C287.182 92.43 288.011 88.1115 287.138 82.8584L292.603 85.4653L278.896 63.6275Z" fill="#ED7545"/>
<path d="M282.736 96.0765L266.281 96.4809L265.831 95.0872L264.175 90.0019L259.386 75.2879L275.841 74.8848L282.736 96.0765Z" fill="#D3DFFF"/>
<path opacity="0.3" d="M267.667 88.2393C267.667 88.2393 267.641 92.7866 265.831 95.0883L264.177 90.0017L267.669 88.2393H267.667Z" fill="#1F3C88"/>
<path d="M259.687 87.8841C260.205 86.2107 261.149 84.6656 262.188 83.2719C262.519 82.8281 263.237 81.7383 263.927 81.9036C265.329 82.2406 263.927 84.7063 263.927 84.7063C263.927 84.7063 265.273 82.6882 265.778 83.6966C266.283 84.7063 265.554 85.8266 265.554 85.8266C265.554 85.8266 267.684 84.4253 266.899 87.228C266.899 87.228 268.638 87.0042 267.572 88.9103C266.812 90.271 266.319 91.7868 265.367 93.0381C264.408 94.297 262.605 95.004 261.107 94.2855C259.346 93.4412 259.121 91.1891 259.338 89.4749C259.407 88.932 259.526 88.4017 259.687 87.8829V87.8841Z" fill="#F9B384"/>
<path d="M262.708 87.4399C262.685 87.4399 262.662 87.4348 262.639 87.4259C262.554 87.3878 262.516 87.2886 262.554 87.2034L264.151 83.5868C264.188 83.5016 264.288 83.4635 264.372 83.5004C264.458 83.5385 264.496 83.6377 264.457 83.7229L262.86 87.3394C262.832 87.4017 262.771 87.4399 262.706 87.4399H262.708Z" fill="#E28B6D"/>
<path d="M264.347 88.7875C264.323 88.7875 264.299 88.7824 264.276 88.7709C264.192 88.7315 264.155 88.6311 264.195 88.5471L265.708 85.3095C265.748 85.2256 265.849 85.19 265.932 85.2282C266.016 85.2676 266.052 85.368 266.013 85.452L264.5 88.6896C264.472 88.7506 264.411 88.7875 264.347 88.7875Z" fill="#E28B6D"/>
<path d="M265.609 89.8785C265.582 89.8785 265.555 89.8721 265.53 89.8594C265.448 89.8161 265.415 89.7144 265.46 89.6318L266.763 87.1508C266.808 87.0694 266.908 87.0376 266.991 87.0809C267.072 87.1241 267.105 87.2258 267.061 87.3085L265.757 89.7894C265.727 89.8467 265.668 89.8797 265.609 89.8797V89.8785Z" fill="#E28B6D"/>
<path d="M271.048 76.354H265.161L264.152 74.3359H270.038L271.048 76.354Z" fill="#102048"/>
<path d="M278.736 70.1988C276.99 70.1988 275.843 69.3354 275.826 69.3227C275.716 69.2375 275.696 69.0798 275.78 68.9691C275.866 68.8598 276.023 68.8382 276.134 68.9234C276.231 68.9958 278.513 70.6947 281.569 68.8509C281.687 68.7784 281.844 68.8178 281.915 68.9361C281.986 69.0556 281.948 69.2108 281.828 69.282C280.688 69.9699 279.632 70.1988 278.736 70.1988Z" fill="#BA5C36"/>
<path d="M286.072 96.8447C286.049 96.8447 286.025 96.8409 286.001 96.8346C285.867 96.7951 285.791 96.654 285.83 96.5205C288.249 88.3299 286.908 82.9738 286.894 82.9204L286.796 82.5439L297.214 84.2899C297.351 84.3128 297.444 84.4425 297.421 84.5798C297.398 84.7184 297.261 84.8113 297.131 84.7871L287.462 83.1658C287.72 84.5353 288.409 89.5723 286.316 96.6629C286.283 96.7723 286.183 96.8435 286.075 96.8435L286.072 96.8447Z" fill="#BA5C36"/>
<path d="M293.695 84.1192C293.695 84.1192 293.685 84.1192 293.68 84.1192C293.541 84.1103 293.435 83.9908 293.443 83.8522C293.446 83.7975 293.726 78.3714 289.954 72.7953C289.877 72.6796 289.907 72.5232 290.021 72.4456C290.137 72.3681 290.294 72.3973 290.372 72.513C294.243 78.2366 293.951 83.8267 293.947 83.8827C293.938 84.0162 293.827 84.1192 293.695 84.1192Z" fill="#BA5C36"/>
<path d="M283.521 57.4355V63.9285C283.521 66.0229 281.888 67.7205 279.873 67.7205C277.857 67.7205 276.225 66.0229 276.225 63.9285V57.4355H283.52H283.521Z" fill="#F9B384"/>
<path d="M280.073 58.3009C280.073 58.3009 279.694 62.3129 276.225 63.4726V57.7744L280.073 58.3009Z" fill="#102048"/>
<path d="M273.471 50.034C273.471 50.034 272.339 59.1414 275.89 60.221C279.44 61.3019 282.682 58.1635 282.682 58.1635L282.013 50.652L276.765 47.5645L273.472 50.034H273.471Z" fill="#F9B384"/>
<path d="M293.669 67.7339L286.666 68.198C285.78 67.2227 285.279 65.8506 284.95 64.303C284.654 65.8964 284.888 67.2202 285.67 68.2654L283.773 68.3939C282.091 65.8773 280.678 60.3076 282.346 55.544L282.541 54.4199C282.541 54.4199 281.343 50.7932 279.607 50.6393C279.607 50.6393 273.653 54.6564 271.003 50.1752C269.026 46.8384 270.694 42.4513 275.45 45.6876C275.45 45.6876 286.879 40.3251 286.853 51.3184C286.846 53.2894 287.587 55.2274 289.046 56.5461C289.167 56.6669 289.302 56.7813 289.443 56.8894C292.007 58.9215 294.771 62.9716 293.667 67.7352L293.669 67.7339Z" fill="#102048"/>
<path d="M284.344 55.0047C284.682 53.9552 284.229 52.8699 283.331 52.5807C282.433 52.2914 281.431 52.9077 281.093 53.9571C280.755 55.0066 281.208 56.0919 282.106 56.3812C283.004 56.6705 284.006 56.0542 284.344 55.0047Z" fill="#F9B384"/>
<path d="M282.484 55.1053C282.391 55.1053 282.316 55.0303 282.316 54.9375C282.316 54.2114 282.889 53.5705 283.568 53.5361H283.577C283.666 53.5361 283.74 53.6061 283.745 53.6964C283.75 53.7892 283.678 53.868 283.585 53.8731C283.135 53.896 282.651 54.3296 282.651 54.9387C282.651 55.0316 282.576 55.1066 282.484 55.1066V55.1053Z" fill="#102048"/>
<path d="M274.719 53.5068C274.719 53.7396 274.531 53.9278 274.298 53.9278C274.065 53.9278 273.877 53.7396 273.877 53.5068C273.877 53.2741 274.065 53.0859 274.298 53.0859C274.531 53.0859 274.719 53.2741 274.719 53.5068Z" fill="#102048"/>
<path d="M277.256 53.2969C277.256 53.5296 277.068 53.7178 276.835 53.7178C276.602 53.7178 276.414 53.5296 276.414 53.2969C276.414 53.0642 276.602 52.876 276.835 52.876C277.068 52.876 277.256 53.0642 277.256 53.2969Z" fill="#102048"/>
<path d="M275.322 56.3248C275.28 56.3248 275.237 56.3096 275.205 56.2765C274.863 55.9421 274.723 55.6254 274.789 55.3329C274.856 55.0367 275.118 54.865 275.275 54.7861L275.238 53.9558C275.234 53.8629 275.306 53.7841 275.398 53.7803C275.49 53.7803 275.57 53.8489 275.574 53.9405L275.621 55.0125L275.502 55.0532C275.409 55.085 275.159 55.2121 275.116 55.408C275.069 55.6191 275.264 55.8658 275.439 56.0349C275.505 56.0997 275.506 56.2066 275.441 56.2727C275.408 56.307 275.365 56.3235 275.32 56.3235L275.322 56.3248Z" fill="#102048"/>
<path d="M275.661 57.5367C275.521 57.5367 275.432 57.524 275.421 57.5214C275.329 57.5075 275.267 57.421 275.282 57.3294C275.296 57.2379 275.39 57.1768 275.474 57.1895C275.483 57.1908 276.335 57.3129 277.083 56.6618C277.151 56.6008 277.258 56.6071 277.319 56.6783C277.38 56.7483 277.374 56.8551 277.303 56.9161C276.683 57.4566 276.011 57.538 275.661 57.538V57.5367Z" fill="#102048"/>
<path opacity="0.4" d="M278.927 56.3247C279.536 56.3247 280.03 55.8306 280.03 55.221C280.03 54.6114 279.536 54.1172 278.927 54.1172C278.317 54.1172 277.823 54.6114 277.823 55.221C277.823 55.8306 278.317 56.3247 278.927 56.3247Z" fill="#EB5D60"/>
<path d="M359 189.774H0V190.447H359V189.774Z" fill="#102048"/>
</g>
<defs>
<clipPath id="clip0_2138_3">
<rect width="359" height="192.689" fill="white"/>
</clipPath>
</defs>
</svg>
