<svg width="131" height="28" viewBox="0 0 131 28" fill="none" xmlns="http://www.w3.org/2000/svg">
<path d="M31.9043 7.78125V22H30.0488V7.78125H31.9043ZM36.4746 7.78125V9.32422H25.4883V7.78125H36.4746ZM39.375 13.0938V22H37.5684V11.4336H39.3262L39.375 13.0938ZM42.6758 11.375L42.666 13.0547C42.5163 13.0221 42.373 13.0026 42.2363 12.9961C42.1061 12.9831 41.9564 12.9766 41.7871 12.9766C41.3704 12.9766 41.0026 13.0417 40.6836 13.1719C40.3646 13.3021 40.0944 13.4844 39.873 13.7188C39.6517 13.9531 39.4759 14.2331 39.3457 14.5586C39.222 14.8776 39.1406 15.2292 39.1016 15.6133L38.5938 15.9062C38.5938 15.2682 38.6556 14.6693 38.7793 14.1094C38.9095 13.5495 39.1081 13.0547 39.375 12.625C39.6419 12.1888 39.9805 11.8503 40.3906 11.6094C40.8073 11.362 41.3021 11.2383 41.875 11.2383C42.0052 11.2383 42.1549 11.2546 42.3242 11.2871C42.4935 11.3132 42.6107 11.3424 42.6758 11.375ZM50.1855 20.1934V14.7539C50.1855 14.3372 50.1009 13.9759 49.9316 13.6699C49.7689 13.3574 49.5215 13.1165 49.1895 12.9473C48.8574 12.778 48.4473 12.6934 47.959 12.6934C47.5033 12.6934 47.1029 12.7715 46.7578 12.9277C46.4193 13.084 46.1523 13.2891 45.957 13.543C45.7682 13.7969 45.6738 14.0703 45.6738 14.3633H43.8672C43.8672 13.9857 43.9648 13.6113 44.1602 13.2402C44.3555 12.8691 44.6354 12.5339 45 12.2344C45.3711 11.9284 45.8138 11.6875 46.3281 11.5117C46.849 11.3294 47.4284 11.2383 48.0664 11.2383C48.8346 11.2383 49.5117 11.3685 50.0977 11.6289C50.6901 11.8893 51.1523 12.2832 51.4844 12.8105C51.8229 13.3314 51.9922 13.9857 51.9922 14.7734V19.6953C51.9922 20.0469 52.0215 20.4212 52.0801 20.8184C52.1452 21.2155 52.2396 21.5573 52.3633 21.8438V22H50.4785C50.3874 21.7917 50.3158 21.515 50.2637 21.1699C50.2116 20.8184 50.1855 20.4928 50.1855 20.1934ZM50.498 15.5938L50.5176 16.8633H48.6914C48.1771 16.8633 47.7181 16.9056 47.3145 16.9902C46.9108 17.0684 46.5723 17.1888 46.2988 17.3516C46.0254 17.5143 45.8171 17.7194 45.6738 17.9668C45.5306 18.2077 45.459 18.4909 45.459 18.8164C45.459 19.1484 45.5339 19.4512 45.6836 19.7246C45.8333 19.998 46.0579 20.2161 46.3574 20.3789C46.6634 20.5352 47.0378 20.6133 47.4805 20.6133C48.0339 20.6133 48.5221 20.4961 48.9453 20.2617C49.3685 20.0273 49.7038 19.7409 49.9512 19.4023C50.2051 19.0638 50.3418 18.735 50.3613 18.416L51.1328 19.2852C51.0872 19.5586 50.9635 19.8613 50.7617 20.1934C50.5599 20.5254 50.2897 20.8444 49.9512 21.1504C49.6191 21.4499 49.222 21.7005 48.7598 21.9023C48.304 22.0977 47.7897 22.1953 47.2168 22.1953C46.5007 22.1953 45.8724 22.0553 45.332 21.7754C44.7982 21.4954 44.3815 21.1211 44.082 20.6523C43.7891 20.1771 43.6426 19.6465 43.6426 19.0605C43.6426 18.4941 43.7533 17.9961 43.9746 17.5664C44.196 17.1302 44.515 16.7689 44.9316 16.4824C45.3483 16.1895 45.8496 15.9681 46.4355 15.8184C47.0215 15.6686 47.6758 15.5938 48.3984 15.5938H50.498ZM59.0625 20.7109C59.4922 20.7109 59.8893 20.623 60.2539 20.4473C60.6185 20.2715 60.918 20.0306 61.1523 19.7246C61.3867 19.4121 61.5202 19.0573 61.5527 18.6602H63.2715C63.2389 19.2852 63.0273 19.8678 62.6367 20.4082C62.2526 20.9421 61.748 21.375 61.123 21.707C60.498 22.0326 59.8112 22.1953 59.0625 22.1953C58.2682 22.1953 57.5749 22.0553 56.9824 21.7754C56.3965 21.4954 55.9082 21.1113 55.5176 20.623C55.1335 20.1348 54.8438 19.5749 54.6484 18.9434C54.4596 18.3053 54.3652 17.6315 54.3652 16.9219V16.5117C54.3652 15.8021 54.4596 15.1315 54.6484 14.5C54.8438 13.862 55.1335 13.2988 55.5176 12.8105C55.9082 12.3223 56.3965 11.9382 56.9824 11.6582C57.5749 11.3783 58.2682 11.2383 59.0625 11.2383C59.8893 11.2383 60.612 11.4076 61.2305 11.7461C61.849 12.0781 62.334 12.5339 62.6855 13.1133C63.0436 13.6862 63.2389 14.3372 63.2715 15.0664H61.5527C61.5202 14.6302 61.3965 14.2363 61.1816 13.8848C60.9733 13.5332 60.6868 13.2533 60.3223 13.0449C59.9642 12.8301 59.5443 12.7227 59.0625 12.7227C58.5091 12.7227 58.0436 12.8333 57.666 13.0547C57.2949 13.2695 56.9987 13.5625 56.7773 13.9336C56.5625 14.2982 56.4062 14.7051 56.3086 15.1543C56.2174 15.597 56.1719 16.0495 56.1719 16.5117V16.9219C56.1719 17.3841 56.2174 17.8398 56.3086 18.2891C56.3997 18.7383 56.5527 19.1452 56.7676 19.5098C56.9889 19.8743 57.2852 20.1673 57.6562 20.3887C58.0339 20.6035 58.5026 20.7109 59.0625 20.7109ZM67.1191 7V22H65.3027V7H67.1191ZM73.5742 11.4336L68.9648 16.3652L66.3867 19.041L66.2402 17.1172L68.0859 14.9102L71.3672 11.4336H73.5742ZM71.9238 22L68.1543 16.9609L69.0918 15.3496L74.0527 22H71.9238ZM77.4023 11.4336V22H75.5859V11.4336H77.4023ZM75.4492 8.63086C75.4492 8.33789 75.5371 8.09049 75.7129 7.88867C75.8952 7.68685 76.1621 7.58594 76.5137 7.58594C76.8587 7.58594 77.1224 7.68685 77.3047 7.88867C77.4935 8.09049 77.5879 8.33789 77.5879 8.63086C77.5879 8.91081 77.4935 9.15169 77.3047 9.35352C77.1224 9.54883 76.8587 9.64648 76.5137 9.64648C76.1621 9.64648 75.8952 9.54883 75.7129 9.35352C75.5371 9.15169 75.4492 8.91081 75.4492 8.63086ZM82.998 22H81.1914V10.3203C81.1914 9.55859 81.3281 8.91732 81.6016 8.39648C81.8815 7.86914 82.2819 7.47201 82.8027 7.20508C83.3236 6.93164 83.9421 6.79492 84.6582 6.79492C84.8665 6.79492 85.0749 6.80794 85.2832 6.83398C85.498 6.86003 85.7064 6.89909 85.9082 6.95117L85.8105 8.42578C85.6738 8.39323 85.5176 8.37044 85.3418 8.35742C85.1725 8.3444 85.0033 8.33789 84.834 8.33789C84.4499 8.33789 84.1178 8.41602 83.8379 8.57227C83.5645 8.72201 83.3561 8.94336 83.2129 9.23633C83.0697 9.5293 82.998 9.89062 82.998 10.3203V22ZM85.2441 11.4336V12.8203H79.5215V11.4336H85.2441ZM90.2246 20.9062L93.1641 11.4336H95.0977L90.8594 23.6309C90.7617 23.8913 90.6315 24.1712 90.4688 24.4707C90.3125 24.7767 90.1107 25.0664 89.8633 25.3398C89.6159 25.6133 89.3164 25.8346 88.9648 26.0039C88.6198 26.1797 88.2064 26.2676 87.7246 26.2676C87.5814 26.2676 87.3991 26.248 87.1777 26.209C86.9564 26.1699 86.8001 26.1374 86.709 26.1113L86.6992 24.6465C86.7513 24.653 86.8327 24.6595 86.9434 24.666C87.0605 24.679 87.1419 24.6855 87.1875 24.6855C87.5977 24.6855 87.946 24.6302 88.2324 24.5195C88.5189 24.4154 88.7598 24.2363 88.9551 23.9824C89.1569 23.735 89.3294 23.3932 89.4727 22.957L90.2246 20.9062ZM88.0664 11.4336L90.8105 19.6367L91.2793 21.541L89.9805 22.2051L86.0938 11.4336H88.0664ZM104.023 18.2793C104.023 18.0254 103.984 17.7975 103.906 17.5957C103.835 17.3874 103.698 17.1986 103.496 17.0293C103.294 16.8535 103.011 16.681 102.646 16.5117C102.282 16.3424 101.81 16.1667 101.23 15.9844C100.586 15.776 99.974 15.5417 99.3945 15.2812C98.8216 15.0208 98.3138 14.7181 97.8711 14.373C97.4349 14.0215 97.0898 13.6146 96.8359 13.1523C96.5885 12.6901 96.4648 12.153 96.4648 11.541C96.4648 10.9486 96.5951 10.4115 96.8555 9.92969C97.1159 9.44141 97.4805 9.02474 97.9492 8.67969C98.418 8.32812 98.9714 8.05794 99.6094 7.86914C100.254 7.68034 100.96 7.58594 101.729 7.58594C102.777 7.58594 103.691 7.77474 104.473 8.15234C105.254 8.52995 105.859 9.04753 106.289 9.70508C106.725 10.3626 106.943 11.1146 106.943 11.9609H104.033C104.033 11.5443 103.945 11.1797 103.77 10.8672C103.6 10.5482 103.34 10.2975 102.988 10.1152C102.643 9.93294 102.207 9.8418 101.68 9.8418C101.172 9.8418 100.749 9.91992 100.41 10.0762C100.072 10.2259 99.8177 10.431 99.6484 10.6914C99.4792 10.9453 99.3945 11.2318 99.3945 11.5508C99.3945 11.7917 99.4531 12.0098 99.5703 12.2051C99.694 12.4004 99.8763 12.5827 100.117 12.752C100.358 12.9212 100.654 13.0807 101.006 13.2305C101.357 13.3802 101.764 13.5267 102.227 13.6699C103.001 13.9043 103.682 14.168 104.268 14.4609C104.86 14.7539 105.355 15.0827 105.752 15.4473C106.149 15.8118 106.449 16.2253 106.65 16.6875C106.852 17.1497 106.953 17.6738 106.953 18.2598C106.953 18.8783 106.833 19.4316 106.592 19.9199C106.351 20.4082 106.003 20.8216 105.547 21.1602C105.091 21.4987 104.548 21.7559 103.916 21.9316C103.285 22.1074 102.578 22.1953 101.797 22.1953C101.094 22.1953 100.4 22.1042 99.7168 21.9219C99.0332 21.7331 98.4115 21.4499 97.8516 21.0723C97.2982 20.6947 96.8555 20.2129 96.5234 19.627C96.1914 19.041 96.0254 18.3477 96.0254 17.5469H98.9648C98.9648 17.9896 99.0332 18.3639 99.1699 18.6699C99.3066 18.9759 99.4987 19.2233 99.7461 19.4121C100 19.6009 100.299 19.7376 100.645 19.8223C100.996 19.9069 101.38 19.9492 101.797 19.9492C102.305 19.9492 102.721 19.8776 103.047 19.7344C103.379 19.5911 103.623 19.3926 103.779 19.1387C103.942 18.8848 104.023 18.5983 104.023 18.2793ZM115.02 19.4707V11.4336H117.832V22H115.186L115.02 19.4707ZM115.332 17.3027L116.162 17.2832C116.162 17.9863 116.081 18.6406 115.918 19.2461C115.755 19.8451 115.511 20.3659 115.186 20.8086C114.86 21.2448 114.45 21.5866 113.955 21.834C113.46 22.0749 112.878 22.1953 112.207 22.1953C111.693 22.1953 111.217 22.1237 110.781 21.9805C110.352 21.8307 109.98 21.5996 109.668 21.2871C109.362 20.9681 109.121 20.5612 108.945 20.0664C108.776 19.5651 108.691 18.9629 108.691 18.2598V11.4336H111.504V18.2793C111.504 18.5918 111.54 18.8555 111.611 19.0703C111.689 19.2852 111.797 19.4609 111.934 19.5977C112.07 19.7344 112.23 19.832 112.412 19.8906C112.601 19.9492 112.809 19.9785 113.037 19.9785C113.617 19.9785 114.072 19.8613 114.404 19.627C114.743 19.3926 114.98 19.0736 115.117 18.6699C115.26 18.2598 115.332 17.804 115.332 17.3027ZM119.98 7H122.793V19.5781L122.51 22H119.98V7ZM129.482 16.6094V16.8145C129.482 17.6022 129.398 18.3249 129.229 18.9824C129.066 19.64 128.812 20.2096 128.467 20.6914C128.122 21.1667 127.692 21.5378 127.178 21.8047C126.67 22.0651 126.071 22.1953 125.381 22.1953C124.736 22.1953 124.176 22.0651 123.701 21.8047C123.232 21.5443 122.839 21.1764 122.52 20.7012C122.201 20.2259 121.943 19.6693 121.748 19.0312C121.553 18.3932 121.406 17.6966 121.309 16.9414V16.4922C121.406 15.737 121.553 15.0404 121.748 14.4023C121.943 13.7643 122.201 13.2077 122.52 12.7324C122.839 12.2572 123.232 11.8893 123.701 11.6289C124.17 11.3685 124.723 11.2383 125.361 11.2383C126.058 11.2383 126.663 11.3717 127.178 11.6387C127.699 11.8991 128.128 12.2702 128.467 12.752C128.812 13.2272 129.066 13.7936 129.229 14.4512C129.398 15.1022 129.482 15.8216 129.482 16.6094ZM126.67 16.8145V16.6094C126.67 16.1797 126.637 15.776 126.572 15.3984C126.514 15.0143 126.41 14.679 126.26 14.3926C126.11 14.0996 125.905 13.8685 125.645 13.6992C125.391 13.5299 125.062 13.4453 124.658 13.4453C124.274 13.4453 123.949 13.5104 123.682 13.6406C123.415 13.7708 123.193 13.9531 123.018 14.1875C122.848 14.4219 122.721 14.7018 122.637 15.0273C122.552 15.3464 122.5 15.6979 122.48 16.082V17.3613C122.5 17.8757 122.585 18.3314 122.734 18.7285C122.891 19.1191 123.125 19.4284 123.438 19.6562C123.757 19.8776 124.17 19.9883 124.678 19.9883C125.075 19.9883 125.404 19.9102 125.664 19.7539C125.924 19.5977 126.126 19.3763 126.27 19.0898C126.419 18.8034 126.523 18.4681 126.582 18.084C126.641 17.6934 126.67 17.2702 126.67 16.8145Z" fill="white"/>
<path d="M8.88513 10.2783C6.06509 10.2783 2.70499 12.9008 2.70499 15.3052V16.71C2.70499 19.5158 6.06509 22.4405 8.88513 22.4405H10.7419C12.5364 22.4405 13.9912 20.993 13.9912 19.2074V15.3587C13.9912 12.5529 11.7052 10.2783 8.88513 10.2783Z" fill="#A07874"/>
<path d="M4.3577 13.4211C4.38111 13.4042 4.40926 13.3951 4.43814 13.3951C4.46703 13.3951 4.49518 13.4042 4.51859 13.4211L5.35077 14.0227C5.37432 14.0397 5.39186 14.0638 5.40087 14.0915C5.40988 14.1191 5.40989 14.1489 5.40092 14.1766L5.08381 15.1475C5.0748 15.175 5.05732 15.199 5.03389 15.2159C5.01045 15.2329 4.98224 15.2421 4.9533 15.2421H3.92317C3.89423 15.2421 3.86603 15.2329 3.84259 15.2159C3.81915 15.199 3.80168 15.175 3.79267 15.1475L3.47565 14.1766C3.45707 14.1198 3.47748 14.0576 3.52571 14.0227L4.3577 13.4211ZM4.08983 13.0503L3.25765 13.6517C3.15554 13.7256 3.0795 13.8299 3.04052 13.9497C3.00154 14.0696 3.00162 14.1987 3.04075 14.3185L3.35786 15.2894C3.3968 15.4086 3.47246 15.5126 3.57404 15.5862C3.67561 15.6599 3.79788 15.6995 3.92336 15.6995H4.9533C5.07874 15.6994 5.20097 15.6598 5.30251 15.5861C5.40406 15.5125 5.47972 15.4086 5.5187 15.2894L5.83581 14.3185C5.87496 14.1987 5.87504 14.0695 5.83604 13.9497C5.79704 13.8299 5.72098 13.7255 5.61882 13.6517L4.78674 13.0503C4.68534 12.977 4.56341 12.9375 4.43828 12.9375C4.31316 12.9375 4.19122 12.977 4.08983 13.0503Z" fill="#896865"/>
<path d="M4.51859 15.7384L5.35077 16.34C5.37432 16.357 5.39186 16.3811 5.40088 16.4087C5.40989 16.4364 5.4099 16.4661 5.40092 16.4938L5.08381 17.4646C5.07483 17.4922 5.05737 17.5162 5.03393 17.5332C5.01049 17.5502 4.98227 17.5593 4.9533 17.5593H3.92317C3.86387 17.5593 3.81106 17.5211 3.79267 17.4646L3.47556 16.4938C3.46653 16.4662 3.46652 16.4364 3.47552 16.4087C3.48451 16.3811 3.50206 16.357 3.52562 16.34L4.3577 15.7384C4.38111 15.7215 4.40926 15.7124 4.43814 15.7124C4.46703 15.7124 4.49518 15.7215 4.51859 15.7384ZM3.25765 15.9691C3.15555 16.043 3.07953 16.1473 3.04054 16.2671C3.00156 16.387 3.00164 16.5161 3.04075 16.6358L3.35786 17.6068C3.39679 17.726 3.47246 17.83 3.57403 17.9036C3.6756 17.9773 3.79788 18.017 3.92336 18.0169H4.9533C5.07876 18.0169 5.201 17.9772 5.30255 17.9036C5.4041 17.8299 5.47975 17.726 5.5187 17.6068L5.83581 16.6358C5.87496 16.5161 5.87504 16.3869 5.83604 16.2671C5.79704 16.1473 5.72098 16.0429 5.61882 15.9691L4.78674 15.3677C4.68534 15.2943 4.56341 15.2549 4.43828 15.2549C4.31316 15.2549 4.19122 15.2943 4.08983 15.3677L3.25765 15.9691Z" fill="#896865"/>
<path d="M2.86012 16.7642C2.88906 16.7643 2.91726 16.7551 2.9407 16.7381C2.96414 16.7212 2.98161 16.6972 2.99062 16.6697L3.30773 15.6988C3.32613 15.642 3.3059 15.5798 3.25767 15.5449L2.4254 14.9434L2.69355 14.5725L3.52564 15.1739C3.62779 15.2477 3.70386 15.3521 3.74286 15.4719C3.78186 15.5917 3.78178 15.7209 3.74263 15.8406L3.42552 16.8116C3.38659 16.9308 3.31093 17.0347 3.20938 17.1084C3.10782 17.182 2.98557 17.2217 2.86012 17.2217V16.7642ZM5.64502 11.7346C5.66843 11.7177 5.69658 11.7086 5.72546 11.7086C5.75434 11.7086 5.78249 11.7177 5.80591 11.7346L6.63808 12.3361C6.66163 12.3532 6.67917 12.3773 6.68816 12.4049C6.69716 12.4325 6.69715 12.4623 6.68814 12.49L6.37103 13.4609C6.36205 13.4884 6.34458 13.5124 6.32112 13.5295C6.29766 13.5465 6.26942 13.5556 6.24044 13.5556H5.21049C5.15109 13.5556 5.09829 13.5175 5.07998 13.4609L4.76278 12.49C4.75376 12.4623 4.75374 12.4325 4.76274 12.4049C4.77174 12.3772 4.78928 12.3532 4.81284 12.3361L5.64502 11.7346ZM5.37687 11.3638L4.54479 11.9652C4.44265 12.039 4.36659 12.1434 4.3276 12.2632C4.2886 12.3831 4.28867 12.5122 4.3278 12.632L4.64491 13.6029C4.68386 13.7222 4.75955 13.8261 4.86114 13.8998C4.96272 13.9735 5.085 14.0131 5.21049 14.0131H6.24034C6.36581 14.0131 6.48806 13.9734 6.58962 13.8997C6.69118 13.8261 6.76686 13.7222 6.80584 13.6029L7.12295 12.632C7.16208 12.5122 7.16214 12.3831 7.12314 12.2632C7.08415 12.1434 7.0081 12.039 6.90596 11.9652L6.07387 11.3638C5.97246 11.2904 5.85051 11.251 5.72537 11.251C5.60023 11.251 5.47828 11.2904 5.37687 11.3638ZM4.51797 18.2266L5.35015 18.8281C5.3737 18.8451 5.39124 18.8692 5.40025 18.8969C5.40926 18.9245 5.40927 18.9543 5.4003 18.982L5.10213 19.8948C5.09165 19.9268 5.06975 19.9539 5.0406 19.9708C5.01145 19.9878 4.9771 19.9934 4.94408 19.9866L3.96685 19.786C3.94622 19.7818 3.92684 19.7728 3.9102 19.7599C3.89356 19.747 3.88009 19.7305 3.87084 19.7116L3.51429 18.9761C3.50026 18.947 3.49689 18.9139 3.50479 18.8826C3.51269 18.8514 3.53134 18.8238 3.55749 18.8049L4.35708 18.227C4.3804 18.2099 4.40855 18.2007 4.43747 18.2006C4.46638 18.2005 4.49457 18.2096 4.51797 18.2266ZM3.28943 18.4337C3.17609 18.5157 3.09524 18.6349 3.06108 18.7705C3.02692 18.9061 3.04164 19.0494 3.10264 19.1753L3.45919 19.9107C3.49902 19.9929 3.55721 20.0648 3.62928 20.1208C3.70135 20.1769 3.78535 20.2156 3.87478 20.234L4.8521 20.4346C4.99525 20.4639 5.14419 20.4396 5.27053 20.3662C5.39687 20.2927 5.49176 20.1754 5.53712 20.0365L5.83519 19.1236C5.87429 19.0038 5.87435 18.8747 5.83535 18.7549C5.79635 18.6351 5.72031 18.5308 5.6182 18.457L4.78603 17.8555C4.68466 17.7822 4.56274 17.7427 4.43762 17.7427C4.3125 17.7427 4.19057 17.7822 4.08921 17.8555L3.28943 18.4337Z" fill="#896865"/>
<path d="M6.56832 20.1106L7.4004 20.7121C7.42395 20.7292 7.44149 20.7532 7.45048 20.7809C7.45948 20.8085 7.45947 20.8383 7.45046 20.866L7.13335 21.8369C7.12437 21.8644 7.10691 21.8884 7.08347 21.9054C7.06003 21.9224 7.03181 21.9316 7.00285 21.9316H5.9729C5.91351 21.9316 5.8607 21.8933 5.8423 21.8369L5.52519 20.866C5.51618 20.8383 5.51618 20.8085 5.52519 20.7809C5.53421 20.7532 5.55177 20.7291 5.57534 20.7121L6.40743 20.1106C6.43084 20.0936 6.45899 20.0845 6.48787 20.0845C6.51676 20.0845 6.54491 20.0936 6.56832 20.1106ZM5.30729 20.3413C5.20516 20.4151 5.12911 20.5194 5.09011 20.6393C5.05111 20.7591 5.05118 20.8882 5.0903 21.008L5.40741 21.9789C5.44636 22.0982 5.52204 22.2021 5.62363 22.2758C5.72522 22.3494 5.84751 22.3891 5.97299 22.389H7.00294C7.1284 22.389 7.25065 22.3493 7.35222 22.2757C7.45379 22.202 7.5295 22.0981 7.56852 21.9789L7.88563 21.008C7.92476 20.8882 7.92484 20.7591 7.88586 20.6393C7.84688 20.5195 7.77085 20.4151 7.66873 20.3413L6.83656 19.7397C6.73514 19.6664 6.61319 19.627 6.48806 19.627C6.36292 19.627 6.24097 19.6664 6.13955 19.7397L5.30729 20.3413Z" fill="#896865"/>
<path d="M8.7651 10.4866C11.4493 10.4866 13.6247 12.651 13.6247 15.3203V19.1902C13.6247 20.8336 12.2852 22.1664 10.6321 22.1664H8.42895C5.72944 22.1664 2.82556 19.3334 2.82556 16.679V15.2665C2.82556 13.0515 6.02458 10.4866 8.7651 10.4866ZM8.7651 9.9375C5.74463 9.9375 2.27645 12.7183 2.27645 15.2665V16.679C2.27645 19.6398 5.42926 22.7155 8.42913 22.7155H10.6321C12.5878 22.7155 14.1738 21.1375 14.1738 19.1902V15.3203C14.1738 12.3471 11.752 9.9375 8.7651 9.9375Z" fill="#524F75"/>
<path d="M17.2279 21.3532C17.2703 21.4576 17.3489 21.5433 17.4493 21.5946C17.5497 21.6459 17.6652 21.6592 17.7747 21.6323C17.8699 21.609 17.9261 21.5938 17.9437 21.5868C17.965 21.5784 18.2143 21.444 18.348 21.3676C18.5367 21.2595 18.6846 20.9422 18.5993 20.7306C18.5139 20.519 18.2379 20.5385 18.0248 20.5675C17.8449 20.5919 17.6292 20.6574 17.6026 20.6682C17.5808 20.6772 17.5217 20.7103 17.4253 20.7683C17.328 20.8262 17.2547 20.9169 17.2185 21.0242C17.1823 21.1314 17.1856 21.2481 17.2279 21.3531L17.2279 21.3532Z" fill="#F1FFAC"/>
<path d="M18.3244 20.9879C18.2942 21.0567 18.2467 21.1134 18.2102 21.1334C18.0996 21.1943 17.8433 21.3271 17.8361 21.3299C17.8367 21.3297 17.7821 21.3433 17.7043 21.3609C17.6588 21.3714 17.6109 21.3652 17.5696 21.3433C17.5282 21.3214 17.4961 21.2854 17.4792 21.2418C17.4622 21.1971 17.4618 21.1479 17.4779 21.1029C17.4941 21.058 17.5257 21.0203 17.5672 20.9966C17.6137 20.9696 17.6606 20.9435 17.7079 20.9181C17.7456 20.9035 17.9449 20.8552 18.0656 20.8411C18.1829 20.8271 18.2619 20.825 18.3181 20.8355C18.3291 20.8373 18.3398 20.8402 18.3502 20.8441C18.358 20.8718 18.3515 20.9265 18.3244 20.9878V20.9879ZM16.9665 21.4385C17.0307 21.6053 17.1528 21.7434 17.3106 21.8275C17.4683 21.9116 17.651 21.9361 17.8253 21.8965C17.9383 21.8709 17.9969 21.8561 18.033 21.8423C18.0738 21.8267 18.3368 21.6904 18.4747 21.6146C18.7897 21.4414 18.9914 20.9822 18.8612 20.6429C18.7856 20.446 18.6235 20.3338 18.4189 20.2956C18.2937 20.2723 18.1698 20.2755 18.0009 20.2956C17.8357 20.3152 17.592 20.3743 17.511 20.4052C17.4697 20.4212 17.4068 20.4551 17.2934 20.5203C16.9733 20.7049 16.8344 21.0941 16.9665 21.4385Z" fill="#524F75"/>
<path d="M17.662 22.4753C17.7025 22.5805 17.7796 22.6675 17.8791 22.7205C17.9786 22.7735 18.0939 22.7889 18.2038 22.7639C18.2992 22.7423 18.367 22.7216 18.4225 22.6976C18.4782 22.6736 18.6465 22.5833 18.7815 22.5092C18.972 22.4044 19.1257 22.0896 19.0439 21.8766C18.9621 21.6635 18.6859 21.6781 18.4723 21.7036C18.292 21.7249 18.1956 21.7594 18.0994 21.7896C18.0034 21.8198 17.9668 21.8376 17.8694 21.8936C17.7712 21.9499 17.6963 22.0395 17.6583 22.1461C17.6203 22.2528 17.6216 22.3695 17.662 22.4753Z" fill="#F1FFAC"/>
<path d="M18.7639 22.1226C18.7337 22.1915 18.6863 22.2479 18.6498 22.2681C18.4959 22.3526 18.3519 22.4286 18.3142 22.445C18.2757 22.4616 18.2231 22.4777 18.1438 22.4955C18.0982 22.506 18.0504 22.4998 18.009 22.4779C17.9677 22.456 17.9356 22.42 17.9187 22.3763C17.9017 22.3317 17.9013 22.2824 17.9175 22.2374C17.9337 22.1924 17.9654 22.1547 18.0069 22.1311C18.0921 22.082 18.1105 22.0736 18.1826 22.051C18.1951 22.047 18.1951 22.047 18.2069 22.0434C18.3306 22.004 18.3885 21.9897 18.5052 21.9759C18.6226 21.9619 18.7013 21.9598 18.7578 21.9702C18.773 21.9729 18.7834 21.9762 18.7897 21.9789C18.7974 22.0063 18.7911 22.0609 18.764 22.1226H18.7639ZM17.4061 22.573C17.4702 22.7398 17.5923 22.878 17.75 22.9621C17.9077 23.0462 18.0904 23.0707 18.2647 23.0312C18.3745 23.0064 18.4583 22.981 18.5319 22.9491C18.5928 22.9228 18.7409 22.8446 18.9142 22.7494C19.2292 22.5761 19.4308 22.117 19.3007 21.7778C19.225 21.5807 19.063 21.4686 18.8584 21.4303C18.733 21.407 18.6092 21.4104 18.4403 21.4303C18.2829 21.4492 18.1942 21.471 18.0399 21.5204C18.0285 21.524 18.0285 21.524 18.0173 21.5273C17.9045 21.5628 17.8505 21.5875 17.7329 21.6555C17.578 21.7443 17.4599 21.8856 17.4 22.0539C17.3401 22.2221 17.3422 22.4062 17.4061 22.573Z" fill="#524F75"/>
<path d="M16.8914 20.6103C16.8316 19.7644 16.6552 19.1151 16.3621 18.6625C15.9228 17.9834 15.5659 18.0608 15.0003 18.0735C14.4347 18.086 13.6177 18.3357 13.1224 18.6661C12.6274 18.996 12.2873 19.5451 12.2958 19.9225C12.3041 20.3 12.4393 20.7 12.4747 20.7922C12.511 20.887 12.6383 21.1533 12.8958 21.4593C13.1535 21.7653 13.7635 21.8784 14.1681 21.723L14.577 21.5662C14.4955 22.6251 14.5786 23.3282 14.8262 23.6757C15.1978 24.1968 16.1183 24.3746 16.6179 24.1827C16.9508 24.055 17.3554 23.846 17.8314 23.5556C18.3309 23.3639 18.581 22.8051 18.39 22.3076L18.0441 21.4066C17.8766 20.9709 17.3362 20.5353 16.8914 20.6104V20.6103Z" fill="#5FD360"/>
<path d="M16.6171 20.6295C16.6198 20.6677 16.6305 20.7049 16.6484 20.7387C16.6663 20.7725 16.6911 20.8022 16.7212 20.8259C16.7513 20.8496 16.786 20.8667 16.8231 20.8762C16.8602 20.8856 16.8989 20.8872 16.9366 20.8808C17.2148 20.8341 17.6518 21.1517 17.7874 21.5049L18.1333 22.4056C18.2699 22.7615 18.0906 23.1617 17.7325 23.2992C17.7171 23.3051 17.7022 23.3126 17.6879 23.3212C17.225 23.6034 16.8345 23.8053 16.5191 23.9264C16.0891 24.0914 15.3212 23.8974 15.0495 23.5161C14.8506 23.237 14.7736 22.5856 14.8503 21.5869C14.8657 21.3858 14.6665 21.2374 14.4783 21.3096L14.0695 21.4665C13.7613 21.5849 13.2791 21.4884 13.1057 21.2824C12.9163 21.0573 12.7835 20.8315 12.7307 20.6937C12.7065 20.6305 12.6709 20.518 12.6412 20.3982C12.5991 20.2276 12.5732 20.0619 12.5698 19.9162C12.5634 19.6329 12.8641 19.1679 13.2743 18.8942C13.7182 18.5984 14.4827 18.3595 15.0061 18.3476C15.0599 18.3465 15.2297 18.3409 15.2564 18.3403C15.7074 18.3287 15.8638 18.3979 16.1314 18.8114C16.3958 19.2198 16.5603 19.8258 16.6171 20.6295ZM16.5925 18.5129C16.2123 17.9256 15.8724 17.7752 15.2425 17.7912C15.2127 17.7921 15.044 17.7976 14.994 17.7987C14.3667 17.8126 13.5006 18.0832 12.9699 18.4371C12.416 18.8066 12.0098 19.4348 12.0209 19.9282C12.0284 20.2625 12.1216 20.6391 12.218 20.8904C12.2928 21.0851 12.4567 21.364 12.6857 21.6358C13.0182 22.0309 13.7498 22.1774 14.2663 21.979C14.2445 22.8598 14.3458 23.4746 14.6025 23.8347C15.0258 24.4289 16.061 24.6904 16.7159 24.4389C17.0615 24.3062 17.4736 24.0938 17.9539 23.8022C18.5785 23.5475 18.8883 22.8402 18.6461 22.2089L18.3002 21.308C18.1168 20.8303 17.6269 20.4144 17.1434 20.3394C17.0647 19.5707 16.8831 18.9621 16.5925 18.5129Z" fill="#524F75"/>
<path d="M16.0913 20.4234C16.5093 20.2391 16.8424 20.2258 17.2234 20.344C17.2584 20.3542 17.291 20.3713 17.3193 20.3943C17.3476 20.4172 17.371 20.4455 17.3882 20.4776C17.4055 20.5097 17.4161 20.5449 17.4196 20.5812C17.4231 20.6175 17.4194 20.654 17.4086 20.6888C17.3978 20.7236 17.3802 20.7559 17.3568 20.7839C17.3334 20.8118 17.3047 20.8348 17.2723 20.8515C17.2399 20.8682 17.2046 20.8783 17.1683 20.8812C17.1319 20.8841 17.0954 20.8798 17.0608 20.8684C16.8033 20.7886 16.6063 20.7965 16.3129 20.9259C16.2463 20.9553 16.1707 20.957 16.1028 20.9306C16.0349 20.9043 15.9802 20.852 15.9508 20.7854C15.9215 20.7187 15.9198 20.6432 15.9462 20.5753C15.9726 20.5075 16.0248 20.4529 16.0913 20.4234ZM15.3427 21.437C15.0273 21.6513 14.7724 21.7859 14.5667 21.8411C14.5318 21.8504 14.4955 21.8528 14.4598 21.848C14.424 21.8433 14.3895 21.8316 14.3583 21.8136C14.3271 21.7956 14.2997 21.7716 14.2778 21.7429C14.2558 21.7143 14.2397 21.6817 14.2304 21.6469C14.2211 21.612 14.2187 21.5757 14.2234 21.54C14.2281 21.5042 14.2398 21.4697 14.2579 21.4385C14.2759 21.4073 14.2999 21.3799 14.3285 21.358C14.3571 21.336 14.3898 21.3199 14.4246 21.3106C14.5581 21.2747 14.7652 21.1653 15.0341 20.9828C15.0944 20.9419 15.1684 20.9266 15.2399 20.9402C15.3114 20.9539 15.3746 20.9954 15.4155 21.0556C15.4565 21.1158 15.4718 21.1899 15.4581 21.2614C15.4445 21.3329 15.403 21.3961 15.3427 21.437Z" fill="#524F75"/>
<path d="M15.6452 15.9529C16.8024 15.8521 17.5737 15.6984 17.9591 15.4923C18.7896 15.048 20.2046 13.4206 20.1331 12.4985C20.0617 11.5764 18.5458 10.7981 17.8772 11.4126C17.2087 12.0273 16.9758 13.1674 16.5756 13.2439C16.4094 13.2757 15.9643 13.2158 15.2404 13.0645C14.5762 12.9257 13.9254 13.3514 13.7866 14.0154C13.7621 14.1325 13.7549 14.2526 13.7651 14.372C13.8469 15.3271 14.6879 16.0351 15.6431 15.953C15.6438 15.9529 15.6445 15.9529 15.6452 15.9529Z" fill="#5FD360"/>
<path d="M15.6217 15.6794C14.8158 15.7485 14.108 15.1526 14.0389 14.3484C14.0311 14.2558 14.0367 14.1626 14.0555 14.0716C14.1633 13.5561 14.6687 13.2254 15.1843 13.3332C15.9515 13.4937 16.4096 13.5552 16.6274 13.5135C16.8732 13.4667 17.0288 13.2854 17.2257 12.9291C17.2555 12.8754 17.5127 12.3788 17.5989 12.2296C17.7524 11.9646 17.8997 11.7652 18.0634 11.6148C18.542 11.1746 19.8037 11.7982 19.8596 12.5197C19.9143 13.2241 18.7038 14.7827 17.8299 15.2502C17.4875 15.4336 16.7433 15.5816 15.6217 15.6794ZM18.089 15.7343C19.1344 15.1749 20.4819 13.4402 20.4072 12.4772C20.3179 11.3243 18.5295 10.4404 17.6918 11.2105C17.481 11.4043 17.3025 11.6455 17.1238 11.9545C17.0295 12.1174 16.7692 12.6203 16.7455 12.6631C16.6787 12.7837 16.6252 12.8666 16.5782 12.9213C16.5446 12.9605 16.5254 12.9739 16.5244 12.9741C16.4098 12.9961 15.9776 12.938 15.2967 12.7956C14.4843 12.6259 13.688 13.1468 13.5182 13.9593C13.4882 14.1026 13.4793 14.2496 13.4919 14.3954C13.5869 15.5018 14.5606 16.3215 15.6671 16.2265C16.8619 16.1225 17.6607 15.9636 18.089 15.7344V15.7343Z" fill="#524F75"/>
<path d="M18.0066 11.9699C18.1173 11.9873 18.2306 11.9644 18.3258 11.9052C18.4209 11.8461 18.4916 11.7546 18.525 11.6477C18.5538 11.5549 18.5698 11.4991 18.5727 11.4806C18.5763 11.4579 18.5896 11.1773 18.5927 11.0245C18.5973 10.8089 18.4023 10.5204 18.1778 10.4849C17.9534 10.4494 17.8287 10.694 17.7443 10.8902C17.673 11.0558 17.6185 11.2727 17.6141 11.3007C17.6104 11.3238 17.6086 11.3911 17.6083 11.5027C17.6081 11.6153 17.6481 11.7242 17.7212 11.8099C17.7942 11.8956 17.8954 11.9523 18.0066 11.97V11.9699Z" fill="#F1FFAC"/>
<path d="M18.2499 10.8495C18.294 10.9092 18.3189 10.9776 18.3181 11.0183C18.3156 11.1435 18.3026 11.4297 18.3015 11.4371C18.3016 11.4364 18.2864 11.49 18.2628 11.5653C18.2491 11.6094 18.2201 11.6471 18.1809 11.6716C18.1418 11.696 18.0951 11.7054 18.0495 11.6982C18.003 11.6908 17.9606 11.667 17.9301 11.6311C17.8995 11.5952 17.8828 11.5496 17.8829 11.5025C17.8826 11.4494 17.8834 11.3963 17.8852 11.3432C17.8914 11.3038 17.9489 11.1087 17.9963 10.998C18.0427 10.8905 18.0799 10.8218 18.1168 10.779C18.1236 10.7708 18.1312 10.7632 18.1396 10.7565C18.1668 10.7635 18.2105 10.7959 18.2499 10.8495ZM17.9636 12.2406C18.1394 12.2684 18.3194 12.2319 18.4706 12.1379C18.6218 12.0439 18.7341 11.8986 18.7869 11.7286C18.8212 11.6186 18.8377 11.5609 18.8437 11.5231C18.8506 11.48 18.8639 11.1862 18.8671 11.0298C18.8744 10.6719 18.5781 10.2698 18.2205 10.2132C18.0127 10.1802 17.8351 10.264 17.7 10.4212C17.6173 10.5174 17.5587 10.6259 17.4918 10.7811C17.4265 10.9328 17.356 11.1718 17.3426 11.2572C17.3357 11.3009 17.3338 11.3718 17.3335 11.5017C17.3333 11.6798 17.3966 11.852 17.5121 11.9875C17.6277 12.1229 17.7878 12.2127 17.9636 12.2406Z" fill="#524F75"/>
<path d="M19.0497 11.9585C19.1486 12.0111 19.2633 12.0263 19.3725 12.0013C19.4818 11.9764 19.5784 11.9129 19.6447 11.8225C19.7022 11.7442 19.7396 11.6846 19.7655 11.6303C19.7916 11.5761 19.8589 11.3989 19.9116 11.2554C19.9861 11.0528 19.8957 10.7167 19.6951 10.61C19.4944 10.5034 19.2968 10.6941 19.1532 10.8521C19.0319 10.9855 18.982 11.0741 18.9299 11.1592C18.8777 11.2443 18.8617 11.2815 18.8253 11.3871C18.7884 11.4935 18.7908 11.6095 18.8319 11.7142C18.8731 11.819 18.9503 11.9056 19.0497 11.9585Z" fill="#F1FFAC"/>
<path d="M19.6448 10.9786C19.6668 11.0494 19.6682 11.1224 19.6542 11.1605C19.5941 11.3241 19.5358 11.4748 19.5182 11.5113C19.5003 11.5487 19.4715 11.5949 19.4237 11.6597C19.3964 11.6969 19.3567 11.7231 19.3117 11.7334C19.2667 11.7437 19.2195 11.7375 19.1788 11.7159C19.1372 11.6937 19.1048 11.6574 19.0876 11.6136C19.0704 11.5697 19.0694 11.5211 19.0848 11.4766C19.1166 11.3843 19.1249 11.3663 19.164 11.3024L19.1771 11.2809C19.244 11.171 19.2781 11.1226 19.3564 11.0365C19.4351 10.9499 19.4928 10.8971 19.5416 10.8685C19.5506 10.8629 19.5603 10.8582 19.5704 10.8546C19.5943 10.8704 19.6249 10.9153 19.6448 10.9786ZM18.9212 12.2007C19.0784 12.2843 19.2604 12.3085 19.434 12.2689C19.6075 12.2292 19.761 12.1284 19.8664 11.9848C19.9327 11.8946 19.9789 11.821 20.0134 11.7487C20.042 11.6894 20.1018 11.5344 20.1696 11.35C20.2932 11.0141 20.144 10.5375 19.8242 10.3674C19.6385 10.2687 19.4432 10.29 19.2643 10.3947C19.1548 10.4588 19.0638 10.5422 18.9503 10.6672C18.8442 10.7838 18.7917 10.8583 18.7082 10.9955C18.7021 11.0059 18.7021 11.0059 18.696 11.0156C18.6345 11.1158 18.61 11.1696 18.5659 11.2972C18.5077 11.4654 18.5116 11.6489 18.5767 11.8146C18.6418 11.9802 18.764 12.1172 18.9212 12.2007Z" fill="#524F75"/>
<path d="M19.7068 12.8659C19.779 12.9286 19.8714 12.9633 19.9671 12.9635C20.0628 12.9637 20.1554 12.9295 20.228 12.8671C20.2909 12.8131 20.3337 12.7678 20.3766 12.7231C20.4193 12.6782 20.4873 12.5559 20.5587 12.4467C20.6596 12.2925 20.6488 11.9955 20.5024 11.8682C20.356 11.741 20.155 11.8616 20.0053 11.9655C19.8788 12.0531 19.8299 12.1037 19.7701 12.1645C19.7101 12.2251 19.6804 12.2668 19.6296 12.3474C19.5786 12.4289 19.5584 12.5258 19.5725 12.6209C19.5867 12.7159 19.6343 12.8028 19.7068 12.8659Z" fill="#F1FFAC"/>
<path d="M20.3272 12.2925C20.308 12.3233 20.2891 12.3543 20.2705 12.3855C20.2048 12.4957 20.1854 12.5266 20.1804 12.5322C20.1232 12.5945 20.0968 12.6215 20.0535 12.6599C20.0314 12.6797 20.0028 12.6909 19.9731 12.6914C19.9434 12.6919 19.9145 12.6816 19.8917 12.6625C19.8682 12.6428 19.8526 12.6153 19.8476 12.5851C19.8426 12.5548 19.8485 12.5238 19.8643 12.4975C19.9075 12.4257 19.9252 12.4019 19.9653 12.3593L19.972 12.3523L19.9914 12.332C20.0408 12.2805 20.08 12.2466 20.1582 12.1901C20.2344 12.1353 20.2883 12.1033 20.3289 12.0893C20.3506 12.1361 20.3563 12.2464 20.3272 12.2924V12.2925ZM19.5386 13.0831C19.6625 13.1869 19.8195 13.2427 19.9811 13.2403C20.1427 13.2378 20.2981 13.1773 20.4187 13.0697C20.4787 13.0164 20.5155 12.9786 20.5842 12.9042C20.6132 12.8728 20.6385 12.8367 20.6703 12.786C20.6811 12.7689 20.6923 12.7503 20.7062 12.7269L20.7423 12.6667C20.7549 12.6454 20.7648 12.6288 20.7745 12.613C20.7805 12.603 20.7864 12.5937 20.7919 12.5849C20.9649 12.3102 20.9228 11.8633 20.6697 11.6509C20.5203 11.5255 20.339 11.5073 20.1589 11.567C20.0512 11.6026 19.9577 11.6579 19.8375 11.7442C19.732 11.8202 19.6679 11.876 19.5959 11.9509C19.5893 11.9577 19.5846 11.9628 19.5738 11.9741C19.5703 11.9776 19.5703 11.9776 19.5669 11.9813C19.4964 12.0554 19.4562 12.1106 19.3939 12.2141C19.3106 12.3524 19.2793 12.516 19.3058 12.6753C19.3324 12.8346 19.4149 12.9792 19.5386 13.0831ZM17.2406 12.9463C17.0826 13.2295 16.9855 13.4777 16.9472 13.6884C16.9417 13.7247 16.9289 13.7595 16.9097 13.7908C16.8905 13.822 16.8652 13.8491 16.8353 13.8705C16.8054 13.8918 16.7715 13.9069 16.7357 13.9149C16.6999 13.9229 16.6628 13.9237 16.6267 13.9171C16.5906 13.9106 16.5561 13.8968 16.5254 13.8767C16.4947 13.8566 16.4683 13.8306 16.4479 13.8001C16.4274 13.7696 16.4132 13.7353 16.4063 13.6993C16.3993 13.6633 16.3996 13.6262 16.4071 13.5903C16.4574 13.3141 16.576 13.011 16.7611 12.6787C16.7966 12.6151 16.8559 12.5683 16.926 12.5484C16.996 12.5285 17.0711 12.5373 17.1347 12.5728C17.1983 12.6082 17.2452 12.6675 17.2651 12.7376C17.285 12.8077 17.2762 12.8827 17.2407 12.9463H17.2406Z" fill="#524F75"/>
<path d="M11.1677 11.6515C8.8223 11.6641 7.25944 12.3592 6.53279 13.696C5.80613 15.0328 5.57185 16.2443 5.57185 17.7863C5.57185 19.3282 6.6319 21.2919 7.21259 21.773C8.094 22.503 9.18956 22.8166 10.4126 22.8166C13.3494 22.8166 15.7305 20.4359 15.7305 17.4989V15.404C15.7305 12.4671 13.5132 11.639 11.1677 11.6515Z" fill="#5FD360"/>
<path d="M11.1681 11.9262C13.8705 11.9117 15.4548 12.982 15.4548 15.4042V17.499C15.4548 20.2842 13.1968 22.5421 10.4115 22.5421C9.19742 22.5421 8.18376 22.2218 7.38673 21.5616C7.12508 21.3447 6.73521 20.751 6.4235 20.064C6.062 19.2674 5.84556 18.4523 5.84556 17.7863C5.84556 16.2017 6.10291 15.0602 6.77319 13.8272C7.44612 12.5889 8.9181 11.9383 11.1681 11.9262ZM11.1651 11.3771C8.73406 11.3902 7.07374 12.1241 6.29034 13.565C5.57375 14.8834 5.29627 16.1146 5.29627 17.7863C5.29627 19.2228 6.25648 21.3383 7.0364 21.9844C7.93849 22.7319 9.07634 23.0913 10.4115 23.0913C13.5001 23.0913 16.0039 20.5876 16.0039 17.499V15.4042C16.0039 13.9323 15.4707 12.8628 14.4813 12.1944C13.6416 11.6271 12.5056 11.3699 11.1651 11.3771Z" fill="#524F75"/>
<path d="M12.7552 13.116C10.8734 13.0829 8.59135 14.0741 8.59135 15.917V16.8175C8.91359 18.8625 10.3189 20.4472 11.886 20.4367C13.4529 20.4262 15.1807 18.6606 15.1807 16.8175V16.092C15.1807 14.5229 14.637 13.1492 12.7552 13.116Z" fill="#F1FFAC"/>
<path d="M8.76917 15.0669C8.6812 15.2655 8.62506 15.4767 8.60279 15.6928C9.08353 15.3127 10.218 15.051 11.7896 14.9123C12.8474 14.8189 13.7921 14.7931 15.0208 14.7922C14.9767 14.6352 14.9194 14.4823 14.8496 14.335C13.6906 14.3383 12.7742 14.3661 11.7495 14.4566C10.4413 14.572 9.42645 14.7649 8.76917 15.0669ZM8.66264 17.1883C8.69916 17.3486 8.74283 17.5072 8.79351 17.6636C9.24378 17.2619 10.4019 16.9868 12.0279 16.8432C13.0629 16.752 13.99 16.7252 15.1807 16.7231V16.2655C13.9773 16.2676 13.0395 16.2945 11.9876 16.3873C10.4234 16.5255 9.27792 16.7744 8.66264 17.1883Z" fill="#C6D672"/>
<path d="M12.2551 13.1306C12.4215 13.1181 12.5884 13.1132 12.7553 13.116C12.7721 13.1163 12.7888 13.1167 12.8055 13.1172C13.396 14.0434 13.6629 15.3969 13.5813 16.881C13.5103 18.1738 13.181 19.4002 12.6662 20.2956C12.457 20.3682 12.245 20.4145 12.035 20.4304C12.6381 19.6067 13.0464 18.2777 13.1245 16.856C13.2088 15.3203 12.8974 13.9499 12.2551 13.1306Z" fill="#C6D672"/>
<path d="M9.68509 19.2978C9.79695 19.4305 9.91763 19.5556 10.0463 19.6721C10.6074 19.5248 11.3327 19.4129 12.1871 19.3376C12.869 19.2774 13.504 19.2451 14.1982 19.2297C14.3275 19.0834 14.4466 18.9283 14.5547 18.7656C13.7036 18.7776 12.9592 18.8098 12.1468 18.8819C11.1445 18.9702 10.3142 19.1041 9.68509 19.2978Z" fill="#C6D672"/>
<path d="M7.3457 14.2573H7.09137C5.56686 14.2044 4.51889 14.4053 3.94735 14.8598C2.9531 15.6511 1.99984 17.0887 2.18325 18.0052C2.36683 18.9221 3.96785 19.5162 4.55705 18.8171C5.14624 18.1178 5.23859 16.9449 5.62681 16.8189C5.84078 16.7493 6.50392 16.9161 7.20037 16.5765" fill="#5FD360"/>
<path d="M7.34654 13.9831C7.41936 13.9831 7.48919 14.012 7.54068 14.0635C7.59217 14.115 7.62109 14.1849 7.62109 14.2577C7.62109 14.3305 7.59217 14.4003 7.54068 14.4518C7.48919 14.5033 7.41936 14.5322 7.34654 14.5322H7.09221C5.61776 14.4812 4.62689 14.671 4.11915 15.075C3.10128 15.885 2.30754 17.2236 2.45333 17.9518C2.59729 18.6711 3.92595 19.1412 4.34794 18.6405C4.49236 18.4691 4.61472 18.2504 4.73479 17.9653C4.80242 17.8048 4.99736 17.2747 5.02042 17.2171C5.17252 16.8358 5.30449 16.6355 5.5429 16.5581C5.64283 16.5257 5.70928 16.523 5.95802 16.526C6.45378 16.532 6.74243 16.4948 7.08104 16.3297C7.14622 16.3001 7.2204 16.297 7.28779 16.3212C7.35518 16.3455 7.41045 16.395 7.44183 16.4594C7.47321 16.5238 7.47822 16.5978 7.45578 16.6658C7.43335 16.7338 7.38525 16.7904 7.32174 16.8235C6.8862 17.0357 6.52663 17.0821 5.95134 17.0752C5.7878 17.0732 5.72749 17.0753 5.71266 17.0803C5.71184 17.0806 5.69427 17.0966 5.66535 17.1402C5.62526 17.2012 5.58207 17.2912 5.53027 17.4207C5.51196 17.4667 5.31465 18.0034 5.24089 18.1782C5.10123 18.5101 4.95343 18.7738 4.76783 18.9941C4.02946 19.8701 2.14382 19.2032 1.91484 18.0592C1.71908 17.0814 2.6155 15.5695 3.77723 14.6452C4.41182 14.1403 5.51544 13.9285 7.09697 13.9829H7.34654V13.9831Z" fill="#524F75"/>
<path d="M8.13379 16.2345C8.13379 16.3202 8.10011 16.4025 8.04016 16.4631C7.98021 16.5237 7.8989 16.5578 7.81411 16.5578C7.72933 16.5578 7.64802 16.5237 7.58807 16.4631C7.52812 16.4025 7.49444 16.3202 7.49444 16.2345C7.49444 16.1487 7.52812 16.0665 7.58807 16.0058C7.64802 15.9452 7.72933 15.9111 7.81411 15.9111C7.8989 15.9111 7.98021 15.9452 8.04016 16.0058C8.10011 16.0665 8.13379 16.1487 8.13379 16.2345Z" fill="#524F75"/>
<path d="M4.17685 18.3323C3.94513 18.3241 3.7426 18.4893 3.70105 18.7198C3.68384 18.8164 3.6746 18.8742 3.67396 18.8932C3.67322 18.9165 3.69409 19.1996 3.70965 19.3534C3.73152 19.5703 3.96032 19.8357 4.18738 19.8436C4.41489 19.8515 4.50906 19.5906 4.56901 19.3832C4.61971 19.2084 4.64753 18.9838 4.64835 18.9551C4.64927 18.9316 4.64286 18.8637 4.6295 18.7516C4.60122 18.5185 4.4094 18.3404 4.17685 18.3323Z" fill="#F1FFAC"/>
<path d="M4.07187 19.4887C4.02035 19.4336 3.98676 19.3673 3.98274 19.3254C3.96992 19.1991 3.94796 18.9101 3.94823 18.9022C3.95542 18.8573 3.96311 18.8125 3.9713 18.7678C3.9885 18.6708 4.07242 18.6026 4.16724 18.6058C4.26388 18.6091 4.34478 18.6842 4.35686 18.7839C4.36365 18.8375 4.36929 18.8912 4.37379 18.945C4.37242 18.9856 4.33902 19.1892 4.30515 19.3064C4.27193 19.4203 4.2432 19.4944 4.21153 19.5423C4.2033 19.5549 4.19616 19.5634 4.1914 19.568C4.16394 19.5641 4.11727 19.5371 4.07187 19.4887ZM4.18655 18.0571C3.81791 18.0443 3.49632 18.306 3.43079 18.6704C3.41029 18.7848 3.40095 18.8447 3.39949 18.883C3.39812 18.9267 3.42054 19.223 3.43637 19.3802C3.47243 19.7384 3.81507 20.1046 4.17785 20.1174C4.38917 20.1247 4.55537 20.0187 4.67022 19.8446C4.74032 19.7385 4.78544 19.6226 4.83258 19.4591C4.87888 19.2991 4.91961 19.0509 4.92263 18.9641C4.92419 18.9199 4.9176 18.8486 4.90185 18.7185C4.85793 18.3511 4.55473 18.07 4.18655 18.0571Z" fill="#524F75"/>
<path d="M3.33245 18.3334C3.11592 18.2505 2.87065 18.3404 2.75635 18.5451C2.70848 18.6308 2.67837 18.6952 2.65897 18.7529C2.63948 18.8105 2.59363 18.9963 2.55821 19.1468C2.50806 19.3592 2.63792 19.6845 2.85043 19.7661C3.06275 19.8475 3.23691 19.6316 3.36101 19.4553C3.46589 19.3063 3.50497 19.2113 3.54679 19.1192C3.5887 19.0273 3.60014 18.9879 3.62394 18.8776C3.67336 18.6476 3.54972 18.4169 3.33245 18.3334Z" fill="#F1FFAC"/>
<path d="M2.85571 19.3936C2.82496 19.3247 2.81498 19.251 2.82468 19.2101C2.86495 19.0382 2.90503 18.8799 2.9183 18.8407C2.93185 18.8007 2.95519 18.7506 2.99518 18.6792C3.04304 18.5932 3.14454 18.5561 3.23331 18.59C3.32364 18.6248 3.37562 18.7219 3.35457 18.8201C3.3337 18.9168 3.32757 18.9363 3.296 19.0057L3.28548 19.0289C3.23185 19.1478 3.20338 19.2007 3.13557 19.2973C3.0672 19.3944 3.01586 19.455 2.97029 19.4901C2.95839 19.4993 2.94896 19.505 2.94292 19.5078C2.91821 19.495 2.8827 19.4542 2.85571 19.3936ZM3.43007 18.0774C3.0856 17.9452 2.69674 18.0881 2.51581 18.4111C2.4608 18.5096 2.42374 18.589 2.39793 18.6652C2.3767 18.728 2.33561 18.8909 2.29003 19.0841C2.20748 19.4346 2.4123 19.8924 2.7511 20.0225C2.94841 20.0983 3.14005 20.0523 3.30533 19.925C3.40619 19.8473 3.48654 19.7525 3.58456 19.6134C3.67598 19.4833 3.71909 19.4024 3.78581 19.2546C3.79075 19.2435 3.79075 19.2435 3.7956 19.2331C3.84465 19.1252 3.86241 19.0688 3.89105 18.9355C3.96921 18.5738 3.77418 18.2093 3.43007 18.0774Z" fill="#524F75"/>
<path d="M2.56135 17.6701C2.39744 17.5594 2.17606 17.5872 2.04153 17.7353C1.98525 17.7975 1.94773 17.8479 1.91039 17.8984C1.87295 17.9487 1.81978 18.0796 1.76121 18.1981C1.67884 18.3651 1.7246 18.6606 1.88531 18.7691C2.04638 18.8778 2.23262 18.7313 2.36962 18.6086C2.48549 18.5047 2.52832 18.4481 2.58085 18.3796C2.6332 18.3112 2.65827 18.2658 2.69909 18.1787C2.78466 17.9969 2.72627 17.7814 2.56135 17.6701Z" fill="#F1FFAC"/>
<path d="M2.01154 18.3261C2.01704 18.3139 2.02247 18.3017 2.02783 18.2894C2.03709 18.2681 2.04625 18.2467 2.05528 18.2253C2.10608 18.1049 2.12108 18.0713 2.12566 18.0646C2.17426 17.994 2.19705 17.9633 2.23493 17.9185C2.2763 17.8695 2.3454 17.8585 2.39701 17.8907C2.45009 17.9239 2.47133 17.9927 2.44552 18.0534C2.41202 18.1316 2.39774 18.1584 2.36315 18.207L2.35739 18.2149L2.34082 18.2382C2.29836 18.2967 2.26394 18.3369 2.19348 18.4045C2.12465 18.4705 2.07505 18.5106 2.03616 18.5307C2.0087 18.4866 1.98838 18.3774 2.01154 18.3261ZM2.68813 17.425C2.40397 17.2475 2.03268 17.3074 1.81578 17.5642C1.76343 17.626 1.73213 17.6686 1.67393 17.7527C1.63576 17.808 1.63018 17.8207 1.54937 18.0117C1.53701 18.0416 1.52419 18.0713 1.51093 18.1008C1.37677 18.3982 1.4789 18.8374 1.75986 19.0129C1.92597 19.1168 2.10882 19.1086 2.27923 19.0232C2.38127 18.9721 2.46638 18.9037 2.57392 18.8005C2.66836 18.7097 2.72474 18.6449 2.78578 18.56C2.79146 18.5523 2.79548 18.5466 2.80464 18.5337L2.8104 18.5257C2.87035 18.4415 2.90256 18.3811 2.95061 18.2694C3.08248 17.9607 2.97175 17.6024 2.68813 17.425Z" fill="#524F75"/>
<path d="M7.87778 19.7293C7.77747 19.7293 7.52992 19.7047 7.24374 19.9357C6.95774 20.1666 6.70095 20.5188 6.70095 20.9522V21.39C5.75144 20.9345 5.07219 20.7601 4.66338 20.8667C4.0503 21.0265 3.5594 21.8225 3.5594 22.3575C3.5594 22.7141 3.60909 23.1668 3.70848 23.7152C3.70848 24.2503 4.13605 24.684 4.66357 24.684H5.61865C6.08073 24.684 6.67468 24.3353 6.76318 23.8931C7.56598 24.1405 8.22857 24.2085 8.75068 24.0973C9.5338 23.9303 9.5888 23.5694 9.77788 23.0368C9.96696 22.5043 10.0209 22.3763 9.93474 21.7082" fill="#5FD360"/>
<path d="M6.92545 24.2264C6.68402 24.6502 6.12585 24.9585 5.61838 24.9585H4.66321C3.99192 24.9585 3.44766 24.4151 3.43384 23.741C3.33445 23.188 3.28458 22.7276 3.28458 22.3575C3.28458 21.6566 3.89336 20.7838 4.59393 20.6011C5.01821 20.4905 5.6215 20.6156 6.42622 20.9628C6.42622 20.4697 6.67734 20.0397 7.07124 19.7218C7.33865 19.5061 7.56919 19.4494 7.85253 19.4544L7.87742 19.4546C7.94901 19.4564 8.01705 19.4862 8.06703 19.5375C8.11701 19.5887 8.14498 19.6575 8.14498 19.7291C8.14498 19.8008 8.11701 19.8695 8.06703 19.9208C8.01705 19.9721 7.94901 20.0018 7.87742 20.0037C7.8679 20.0037 7.86406 20.0037 7.8431 20.0033C7.67654 20.0005 7.56681 20.0275 7.4158 20.1492C7.14088 20.3711 6.97532 20.6548 6.97532 20.9521V21.3898C6.97532 21.592 6.76419 21.7248 6.58189 21.6374C5.68757 21.2083 5.05939 21.0471 4.73258 21.1322C4.28505 21.2488 3.83378 21.8961 3.83378 22.3574C3.83378 22.6955 3.88173 23.1326 3.97856 23.6661C3.9813 23.6823 3.98286 23.6985 3.98286 23.715C3.98286 24.0993 4.28853 24.4093 4.66339 24.4093H5.61847C5.99105 24.4093 6.43839 24.1162 6.49366 23.8392C6.5012 23.8016 6.51655 23.7659 6.53873 23.7346C6.5609 23.7032 6.5894 23.6769 6.62239 23.6572C6.65538 23.6376 6.69212 23.6251 6.73025 23.6205C6.76837 23.616 6.80703 23.6194 6.84372 23.6307C7.60552 23.8654 8.2229 23.929 8.69303 23.8288C9.16847 23.7275 9.28753 23.6065 9.4368 23.1816C9.44577 23.1565 9.50077 22.9958 9.5188 22.9452C9.63128 22.6279 9.65416 22.5577 9.67658 22.447C9.71072 22.2776 9.70824 22.1003 9.66221 21.7435C9.6529 21.6712 9.67266 21.5983 9.71715 21.5406C9.76164 21.483 9.8272 21.4454 9.89943 21.436C9.93519 21.4314 9.9715 21.4339 10.0063 21.4433C10.0411 21.4528 10.0737 21.469 10.1023 21.491C10.1599 21.5355 10.1975 21.601 10.2068 21.6733C10.2598 22.0843 10.2633 22.316 10.215 22.5556C10.1852 22.7028 10.1596 22.782 10.0364 23.129C10.0198 23.1761 9.96504 23.3357 9.95507 23.3636C9.74659 23.9574 9.48677 24.2212 8.8077 24.3659C8.28944 24.4764 7.6629 24.4281 6.92545 24.2264Z" fill="#524F75"/>
<path d="M10.0557 20.993C10.0557 21.0785 10.0222 21.1604 9.96268 21.2208C9.90314 21.2812 9.82239 21.3152 9.73819 21.3152C9.65399 21.3152 9.57324 21.2812 9.5137 21.2208C9.45416 21.1604 9.42071 21.0785 9.42071 20.993C9.42071 20.9076 9.45416 20.8257 9.5137 20.7653C9.57324 20.7048 9.65399 20.6709 9.73819 20.6709C9.82239 20.6709 9.90314 20.7048 9.96268 20.7653C10.0222 20.8257 10.0557 20.9076 10.0557 20.993Z" fill="#524F75"/>
<path d="M6.06665 24.0967C5.84893 24.1715 5.72007 24.3972 5.76382 24.6267C5.78212 24.7228 5.79439 24.7798 5.80052 24.7976C5.80802 24.8193 5.92855 25.0754 5.99783 25.2129C6.09548 25.407 6.40234 25.5726 6.61595 25.4989C6.82955 25.4253 6.82378 25.1491 6.80511 24.9349C6.78956 24.7541 6.73519 24.5355 6.72604 24.5084C6.71835 24.4862 6.68834 24.4254 6.6359 24.326C6.52672 24.1186 6.28502 24.0213 6.06665 24.0967Z" fill="#F1FFAC"/>
<path d="M6.35576 25.213C6.29106 25.1757 6.2399 25.1222 6.22379 25.0834C6.17023 24.953 6.11827 24.8219 6.06793 24.6902C6.06803 24.6906 6.06006 24.6349 6.05055 24.5555C6.03911 24.4585 6.09823 24.3698 6.18819 24.3457C6.27989 24.3211 6.37763 24.3687 6.41799 24.4598C6.44012 24.5088 6.46111 24.5583 6.48096 24.6083C6.49148 24.6476 6.51903 24.851 6.52104 24.9725C6.52296 25.0909 6.51711 25.1696 6.50091 25.2246C6.49679 25.2381 6.49304 25.2479 6.48993 25.2536C6.46265 25.2574 6.41168 25.2452 6.35576 25.213ZM6.04579 23.8153C5.69079 23.9105 5.46135 24.2539 5.50528 24.6206C5.51892 24.7356 5.52761 24.7953 5.5375 24.8322C5.54875 24.8743 5.65656 25.1503 5.71733 25.2954C5.85607 25.6266 6.28877 25.8767 6.63819 25.7829C6.84181 25.7284 6.96939 25.5786 7.02787 25.3789C7.06356 25.2571 7.07253 25.1336 7.06988 24.964C7.06732 24.7982 7.03373 24.55 7.01122 24.4663C6.99996 24.4237 6.97278 24.3576 6.92006 24.2383C6.77098 23.9005 6.40042 23.7203 6.04579 23.8153Z" fill="#524F75"/>
<path d="M5.12068 24.0537C4.89042 24.0537 4.69512 24.225 4.66181 24.4561C4.6479 24.5531 4.64304 24.6237 4.64542 24.6842C4.6479 24.7447 4.67151 24.934 4.69219 25.0867C4.72129 25.3021 4.9575 25.5583 5.18346 25.5583C5.40951 25.5583 5.49389 25.2951 5.54624 25.0867C5.59026 24.9106 5.59273 24.8083 5.59877 24.7078C5.60481 24.6073 5.60152 24.5667 5.58431 24.4556C5.54843 24.2242 5.35176 24.0537 5.12068 24.0537Z" fill="#F1FFAC"/>
<path d="M5.05771 25.2095C5.00499 25.1567 4.9693 25.0919 4.96372 25.0502C4.9401 24.876 4.92098 24.7143 4.91933 24.6732C4.91759 24.6311 4.92134 24.5761 4.93297 24.4955C4.94688 24.3988 5.02714 24.3287 5.12012 24.3287C5.21503 24.3287 5.2973 24.3997 5.31258 24.4984C5.32768 24.5957 5.32897 24.6161 5.3243 24.6919L5.32283 24.7171C5.31542 24.8469 5.30801 24.9063 5.27936 25.0203C5.25063 25.1349 5.22445 25.2095 5.1948 25.2584C5.18748 25.2708 5.18125 25.279 5.17677 25.2838C5.14959 25.28 5.10346 25.2552 5.05771 25.2095ZM5.12012 23.7793C4.75258 23.7793 4.44215 24.0517 4.38962 24.4174C4.37351 24.5287 4.36747 24.6157 4.37068 24.6958C4.37333 24.7618 4.39319 24.928 4.41964 25.124C4.46787 25.48 4.82131 25.8333 5.18309 25.8333C5.39385 25.8333 5.55593 25.7216 5.66411 25.5439C5.73009 25.4354 5.77082 25.3185 5.812 25.154C5.85053 25.0004 5.86188 24.9097 5.87112 24.7483L5.87268 24.7247C5.87972 24.6069 5.87615 24.5479 5.85547 24.4139C5.79845 24.0492 5.4872 23.7793 5.12012 23.7793Z" fill="#524F75"/>
<path d="M4.17185 24.0989C3.98039 24.0548 3.78482 24.1597 3.71279 24.3455C3.68277 24.4234 3.66566 24.4838 3.649 24.5439C3.63216 24.6041 3.62914 24.745 3.61697 24.8759C3.59986 25.0608 3.74729 25.3192 3.93518 25.3626C4.12307 25.406 4.24387 25.2032 4.32734 25.04C4.3979 24.902 4.41757 24.834 4.44192 24.7517C4.46635 24.6693 4.4734 24.6182 4.48036 24.5224C4.49482 24.3228 4.36394 24.1432 4.17185 24.0989Z" fill="#F1FFAC"/>
<path d="M3.8842 24.8966C3.88588 24.8833 3.8875 24.87 3.88905 24.8567C3.89134 24.8357 3.89381 24.8142 3.89655 24.7876C3.90991 24.6582 3.91458 24.6217 3.91705 24.614C3.94286 24.5326 3.95558 24.4968 3.97864 24.4429C4.00354 24.3845 4.06513 24.3541 4.12233 24.3695C4.18145 24.3853 4.22098 24.4438 4.21403 24.5087C4.20488 24.593 4.19902 24.6227 4.18017 24.6789L4.17705 24.6884C4.17239 24.7024 4.17065 24.7078 4.168 24.7153C4.14466 24.7834 4.12343 24.8316 4.0762 24.9167C4.03063 24.9986 3.99539 25.0509 3.96446 25.0816C3.92657 25.0472 3.87724 24.9511 3.8842 24.8966ZM4.26436 23.8392C3.94204 23.753 3.60571 23.9187 3.47365 24.2267C3.44171 24.301 3.42432 24.3507 3.39357 24.4478C3.37325 24.5115 3.3716 24.5253 3.35019 24.7309C3.34763 24.7557 3.34534 24.775 3.34332 24.7936C3.34195 24.8054 3.34067 24.8163 3.3393 24.8268C3.29811 25.1498 3.52261 25.5387 3.84155 25.6243C4.03026 25.675 4.20232 25.6137 4.34005 25.4821C4.42205 25.4038 4.48337 25.3137 4.55557 25.1837C4.619 25.0697 4.6535 24.9914 4.68718 24.8929C4.69068 24.8827 4.69413 24.8725 4.69752 24.8623C4.69917 24.8576 4.69917 24.8576 4.70054 24.8528C4.73303 24.7554 4.74648 24.6883 4.75957 24.5678C4.79581 24.2353 4.58651 23.9255 4.26436 23.8392ZM6.67697 24.1429C6.16401 24.0589 5.84214 23.8684 5.6969 23.5135C5.66933 23.4461 5.66966 23.3705 5.69782 23.3034C5.72599 23.2362 5.77968 23.183 5.84708 23.1554C5.91449 23.1279 5.99008 23.1282 6.05724 23.1564C6.1244 23.1845 6.17762 23.2382 6.20519 23.3056C6.26495 23.4519 6.42209 23.5447 6.76565 23.6011C6.83749 23.6129 6.90173 23.6527 6.94423 23.7118C6.98674 23.7709 7.00404 23.8445 6.99234 23.9163C6.98056 23.9882 6.94071 24.0524 6.88157 24.0949C6.82243 24.1374 6.74884 24.1547 6.67697 24.1429ZM6.62471 22.1791C6.47709 21.8305 6.39518 21.5561 6.38164 21.3446C6.37882 21.3084 6.38323 21.272 6.39462 21.2374C6.406 21.2029 6.42412 21.171 6.44794 21.1435C6.47176 21.116 6.50079 21.0936 6.53336 21.0774C6.56593 21.0613 6.60138 21.0517 6.63766 21.0494C6.67394 21.0471 6.71032 21.0519 6.7447 21.0638C6.77908 21.0756 6.81076 21.0941 6.83792 21.1183C6.86507 21.1425 6.88716 21.1718 6.90289 21.2046C6.91862 21.2373 6.92769 21.2729 6.92956 21.3092C6.93853 21.4461 7.0046 21.6684 7.13026 21.9649C7.14483 21.9981 7.15266 22.034 7.15328 22.0703C7.1539 22.1066 7.14731 22.1427 7.13388 22.1765C7.12045 22.2102 7.10046 22.241 7.07505 22.267C7.04965 22.293 7.01935 22.3136 6.9859 22.3278C6.95244 22.342 6.91651 22.3494 6.88018 22.3496C6.84385 22.3497 6.80784 22.3427 6.77425 22.3289C6.74065 22.3151 6.71014 22.2947 6.68447 22.269C6.6588 22.2433 6.63849 22.2127 6.62471 22.1791Z" fill="#524F75"/>
<path d="M6.42383 6.57715C5.27271 7.1107 4.552 7.53882 4.26171 7.86133C3.97114 8.18394 3.75268 8.75757 3.60662 9.58233L3.75104 9.71229C4.64901 9.40909 5.2318 9.10909 5.49913 8.81221C5.76645 8.51532 6.0573 7.9524 6.3713 7.12351L6.42383 6.57715Z" fill="#7B7795"/>
<path d="M6.53841 6.82594L6.14964 6.55066L6.09729 7.09702L6.11395 7.02591L6.10077 7.06023C5.80279 7.84079 5.52979 8.36665 5.29422 8.62821C5.09169 8.85316 4.63355 9.10218 3.92913 9.35853C3.86968 9.38023 3.81004 9.4014 3.75022 9.42204C3.72139 9.43202 3.69192 9.44199 3.66245 9.45197L3.75022 9.71206L3.93398 9.50807L3.78975 9.37811L3.60598 9.58211L3.87624 9.62997C3.88054 9.60554 3.88511 9.58128 3.8896 9.5574C3.89454 9.53168 3.89912 9.50624 3.90415 9.48107C3.91219 9.44017 3.92052 9.39932 3.92913 9.35853C4.06376 8.72687 4.24606 8.28786 4.46488 8.04487C4.687 7.79814 5.23785 7.45531 6.10333 7.03277L6.11285 7.02811C6.25396 6.95917 6.39583 6.89178 6.53841 6.82594ZM6.30733 6.32763C5.12326 6.87664 4.38023 7.31785 4.05662 7.67725C3.72459 8.04588 3.48975 8.66326 3.33518 9.53406C3.32709 9.57996 3.33081 9.62716 3.34597 9.67123C3.36113 9.7153 3.38724 9.7548 3.42185 9.78601L3.56608 9.91587C3.6023 9.94847 3.64653 9.97085 3.69425 9.98071C3.74197 9.99056 3.79145 9.98755 3.83762 9.97198C4.77751 9.65477 5.39452 9.33702 5.70193 8.99548C5.99763 8.66702 6.30165 8.07864 6.62691 7.22039C6.6355 7.19753 6.6411 7.17366 6.64357 7.14937L6.69591 6.603C6.71641 6.39178 6.49979 6.23849 6.30733 6.32763Z" fill="#524F75"/>
<path d="M6.45117 6.21777C5.19444 6.39148 4.38002 6.59016 4.00809 6.81374C3.63598 7.03723 3.25947 7.52209 2.87857 8.26806L2.97851 8.43453C3.92609 8.40717 4.57093 8.29057 4.91348 8.08484C5.25594 7.87901 5.69853 7.42572 6.2415 6.72497L6.45117 6.21777Z" fill="#7B7795"/>
<path d="M6.48912 6.48899L6.19782 6.11203L5.98788 6.61922L6.02448 6.55607C6.01588 6.56697 6.00893 6.57603 6.00197 6.58499C5.48883 7.24438 5.07389 7.66747 4.77215 7.84877C4.5126 8.00472 4.00175 8.10877 3.25304 8.14803C3.18983 8.15144 3.12658 8.15421 3.06332 8.15636C3.03284 8.15746 3.00191 8.15847 2.9707 8.15938L2.97857 8.43385L3.15694 8.32668L3.21396 8.29236L3.11384 8.12589L2.87864 8.26728L3.12317 8.39221C3.14604 8.34721 3.16938 8.30245 3.19318 8.25795C3.21278 8.22115 3.23267 8.18451 3.25286 8.14803C3.56631 7.58337 3.86896 7.21684 4.14937 7.04835C4.43381 6.8774 5.06098 6.71056 6.01213 6.55955L6.02265 6.55781C6.17792 6.53338 6.33342 6.51044 6.48912 6.48899ZM6.41399 5.9451C5.12102 6.12393 4.28161 6.32856 3.86713 6.57776C3.44193 6.83328 3.03669 7.35494 2.63447 8.14254C2.61325 8.18406 2.60295 8.23029 2.60455 8.27689C2.60615 8.32348 2.6196 8.3689 2.64362 8.40886L2.74374 8.57533C2.76883 8.61708 2.80457 8.65141 2.8473 8.6748C2.89003 8.69818 2.93821 8.70978 2.9869 8.7084C3.97832 8.67976 4.66132 8.5563 5.05531 8.31954C5.43419 8.09193 5.89673 7.61814 6.45883 6.8925C6.47388 6.87323 6.4862 6.85198 6.49544 6.82935L6.70529 6.32215C6.78637 6.12603 6.62411 5.916 6.41399 5.9451Z" fill="#524F75"/>
<path d="M6.13027 5.9438C6.22289 4.33106 7.59667 3.5171 9.19971 2.93577C9.78387 2.8092 10.2982 2.75667 10.743 2.77809C11.0444 2.79264 11.4274 2.84517 11.8921 2.93577C13.3004 3.20731 15.043 4.37893 15.043 6.15905C15.043 6.36432 15.0237 6.56502 14.9868 6.75959C15.613 7.34732 16.0039 8.18014 16.0039 9.10374C16.0039 10.8839 14.9061 12.0553 13.1301 12.3269C12.4926 12.4727 11.8848 12.552 11.3065 12.5647C10.7283 12.5774 9.74497 12.4982 8.35646 12.3269C6.56526 12.3269 5.11323 10.8839 5.11323 9.10374C5.11323 8.73639 5.1751 8.3834 5.28895 8.05448C5.46155 7.55644 6.03299 6.95251 6.13037 6.75968C6.22756 6.56676 6.11847 6.1488 6.13027 5.9438Z" fill="#5FD360"/>
<path d="M15.3184 6.15906C15.3184 4.42397 13.7484 3.01385 11.9455 2.66636C11.469 2.57347 11.0736 2.51929 10.7572 2.50401C10.2865 2.48131 9.74855 2.53622 9.14243 2.66755C9.1304 2.67014 9.11856 2.67357 9.10701 2.6778C8.16336 3.01999 7.45538 3.38478 6.92036 3.84502C6.2715 4.40319 5.90506 5.08839 5.85701 5.92816C5.85216 6.01282 5.85665 6.06791 5.87806 6.26568C5.88291 6.31043 5.88593 6.33944 5.88849 6.36873C5.90231 6.51891 5.89801 6.6118 5.88593 6.63587C5.86497 6.67751 5.50979 7.13968 5.4709 7.19285C5.36364 7.33992 5.27459 7.47345 5.20046 7.60258C5.12715 7.72979 5.06995 7.84977 5.03024 7.96463C4.90355 8.33104 4.83905 8.71606 4.83942 9.10375C4.83942 11.0302 6.40539 12.5923 8.33999 12.6015C9.73226 12.7728 10.7207 12.8523 11.3133 12.8393C11.9077 12.8262 12.5307 12.7453 13.1823 12.5969C15.1065 12.2987 16.2793 10.9977 16.2793 9.10375C16.2793 8.1786 15.916 7.31073 15.282 6.66369C15.3062 6.49657 15.3184 6.32793 15.3184 6.15906ZM10.7306 3.05247C11.0172 3.06629 11.3878 3.11718 11.841 3.2054C13.4118 3.50824 14.7692 4.72726 14.7692 6.15906C14.7692 6.34503 14.7519 6.5287 14.7178 6.70845C14.7092 6.75386 14.7122 6.80071 14.7265 6.84466C14.7408 6.8886 14.766 6.92822 14.7997 6.95985C15.3899 7.51362 15.7302 8.28137 15.7302 9.10375C15.7302 10.7236 14.757 11.8005 13.0895 12.0556C12.4499 12.2011 11.8604 12.278 11.3014 12.2902C10.7401 12.3026 9.76713 12.2242 8.39088 12.0545C8.3798 12.0531 8.36855 12.0525 8.35729 12.0525C6.71738 12.0525 5.38862 10.732 5.38862 9.10385C5.38862 8.77319 5.44335 8.45031 5.54924 8.14437C5.57651 8.06566 5.61925 7.97597 5.67645 7.87668C5.7396 7.76686 5.81839 7.64889 5.91485 7.51637C5.91165 7.52076 6.32815 6.97897 6.37629 6.88343C6.45124 6.73508 6.45874 6.57062 6.4355 6.3184C6.43248 6.28545 6.42928 6.25387 6.42406 6.20638C6.40685 6.04878 6.40301 5.99982 6.4053 5.95964C6.47842 4.68425 7.40806 3.88099 9.27668 3.20037C9.83119 3.08149 10.3163 3.03243 10.7306 3.05247Z" fill="#524F75"/>
<path d="M14.5117 5.03051C13.9013 4.77087 12.8436 4.62956 11.3388 4.60687C9.83384 4.58408 8.25296 4.72529 6.59611 5.03051C6.46469 5.38706 6.38836 5.63773 6.36722 5.78269C6.3178 6.12067 6.44739 6.4257 6.41435 6.59986C6.37875 6.78784 6.18803 7.00703 6.04599 7.24086C5.99666 7.32231 5.8992 7.45455 5.75423 7.63777C7.93566 7.481 9.54629 7.40257 10.5858 7.40257C11.6252 7.40257 13.2485 7.50708 15.4551 7.71602C15.1387 7.08372 14.9393 6.58403 14.8566 6.21695C14.774 5.84996 14.659 5.45442 14.5117 5.03051Z" fill="#7B7795"/>
<path d="M14.5125 5.02996C14.6598 5.45387 14.7746 5.84942 14.8574 6.2165C14.94 6.58348 15.1394 7.08317 15.4559 7.71547C13.2493 7.50654 11.6261 7.40202 10.5865 7.40202C9.54694 7.40202 7.93631 7.48045 5.75497 7.63723C5.90012 7.4541 5.99749 7.32176 6.04682 7.24031C6.18895 7.00639 6.37967 6.78729 6.41509 6.59932C6.44813 6.42516 6.31854 6.12013 6.36796 5.78215C6.38901 5.63728 6.46534 5.38652 6.59685 5.02996C8.2537 4.72475 9.83458 4.58353 11.3395 4.60632C12.8445 4.62902 13.9021 4.77023 14.5125 5.02996ZM5.84612 6.54642C5.83056 6.57278 5.81089 6.60343 5.78444 6.64288C5.76687 6.66914 5.69356 6.7764 5.70006 6.7667C5.64963 6.84092 5.61321 6.89666 5.57743 6.95541C5.54311 7.01206 5.45644 7.12985 5.32456 7.29614C5.02777 7.67054 5.3177 8.21919 5.79423 8.18496C7.96358 8.02901 9.56296 7.95122 10.5864 7.95122C11.6048 7.95122 13.2133 8.05473 15.404 8.2622C15.8333 8.30284 16.1398 7.8555 15.9469 7.46984C15.6487 6.87387 15.4641 6.41134 15.3931 6.09587C15.3057 5.70765 15.1851 5.29244 15.0314 4.84976C15.0062 4.77737 14.9662 4.71104 14.9139 4.65504C14.8616 4.59904 14.7981 4.5546 14.7276 4.5246C14.0351 4.23 12.9187 4.08092 11.3479 4.05712C9.80585 4.03378 8.1889 4.17829 6.49746 4.48982C6.40377 4.50711 6.3162 4.54847 6.24333 4.60984C6.17047 4.67122 6.11483 4.75049 6.08187 4.83988C5.93782 5.23057 5.85308 5.50897 5.82462 5.70271C5.79286 5.92062 5.80467 6.0988 5.8464 6.35899C5.86736 6.48959 5.86717 6.48712 5.86891 6.50505C5.86324 6.51658 5.85555 6.53031 5.84612 6.54642Z" fill="#524F75"/>
<path d="M11.1534 10.6938C12.6132 11.3175 13.73 11.6366 14.5039 11.6509C15.6646 11.6725 16.6445 11.194 16.6445 10.0462V9.96626C16.6445 9.24464 16.2947 8.60987 15.695 8.2372C15.3409 8.01719 14.2519 7.88477 13.8214 7.88477" fill="#5FD360"/>
<path d="M11.2621 10.4404C12.6921 11.0514 13.7791 11.362 14.5098 11.3755C15.6626 11.397 16.3708 10.9242 16.3708 10.0453V9.96533C16.3708 9.33898 16.0703 8.79216 15.551 8.46946C15.3025 8.31498 14.3451 8.15849 13.8222 8.15849C13.7494 8.15849 13.6796 8.12956 13.6281 8.07807C13.5766 8.02658 13.5477 7.95675 13.5477 7.88393C13.5477 7.81111 13.5766 7.74128 13.6281 7.68979C13.6796 7.6383 13.7494 7.60938 13.8222 7.60938C14.4405 7.60938 15.4811 7.7796 15.8408 8.00309C16.522 8.42654 16.9199 9.15018 16.9199 9.96533V10.0453C16.9199 11.2864 15.9245 11.951 14.4996 11.9246C13.6826 11.9095 12.5359 11.5819 11.0464 10.9454C10.9811 10.9157 10.9301 10.8616 10.9041 10.7947C10.8782 10.7279 10.8795 10.6535 10.9076 10.5876C10.9358 10.5216 10.9887 10.4693 11.0549 10.4418C11.1211 10.4143 11.1955 10.4138 11.2621 10.4404Z" fill="#524F75"/>
<path d="M15.237 9.78615C15.3204 9.77755 15.44 9.69472 15.5961 9.53759C15.7305 9.33844 15.7068 9.10781 15.5588 9.00495C15.3944 8.89513 15.154 8.88378 15.0197 9.08301C14.8939 9.26578 14.8278 9.40131 14.8215 9.48963C14.812 9.62215 14.9026 9.65372 14.9744 9.71312C15.0459 9.77251 15.1119 9.79905 15.237 9.78615ZM13.5687 9.76473C13.4871 9.74945 13.3616 9.67001 13.1921 9.52642C13.0758 9.35409 13.1345 9.1112 13.323 8.98399C13.5116 8.85678 13.7587 8.89348 13.8749 9.06581C13.9515 9.22139 13.9903 9.34164 13.9912 9.42639C13.9925 9.5536 13.9559 9.65217 13.8814 9.71046C13.807 9.76876 13.6911 9.7877 13.5687 9.76473Z" fill="#3EA63F"/>
<path d="M16.2793 6.33153C16.2793 6.4983 16.2498 6.66344 16.1923 6.81752C16.1348 6.97161 16.0506 7.11161 15.9443 7.22955C15.8381 7.34748 15.712 7.44104 15.5732 7.50487C15.4343 7.56869 15.2856 7.60154 15.1353 7.60154C14.9851 7.60154 14.8363 7.56869 14.6975 7.50487C14.5587 7.44104 14.4325 7.34748 14.3263 7.22955C14.2201 7.11161 14.1358 6.97161 14.0783 6.81752C14.0209 6.66344 13.9913 6.4983 13.9913 6.33153C13.9913 6.16477 14.0209 5.99963 14.0783 5.84554C14.1358 5.69146 14.2201 5.55145 14.3263 5.43352C14.4325 5.31558 14.5587 5.22203 14.6975 5.1582C14.8363 5.09438 14.9851 5.06152 15.1353 5.06152C15.2856 5.06152 15.4343 5.09438 15.5732 5.1582C15.712 5.22203 15.8381 5.31558 15.9443 5.43352C16.0506 5.55145 16.1348 5.69146 16.1923 5.84554C16.2498 5.99963 16.2793 6.16477 16.2793 6.33153Z" fill="white"/>
<path d="M15.1352 7.87567C15.9253 7.87567 16.5537 7.17821 16.5537 6.33139C16.5537 5.48448 15.9253 4.78711 15.1352 4.78711C14.3451 4.78711 13.7166 5.48448 13.7166 6.33139C13.7166 7.17821 14.3449 7.87567 15.1352 7.87567ZM15.1352 7.32656C14.6618 7.32656 14.2658 6.887 14.2658 6.33139C14.2658 5.77578 14.6618 5.33622 15.1352 5.33622C15.6086 5.33622 16.0046 5.77578 16.0046 6.33139C16.0046 6.887 15.6084 7.32656 15.1352 7.32656Z" fill="#524F75"/>
<path d="M15.725 6.73433C15.6803 6.78613 15.6234 6.82587 15.5593 6.8499C15.4953 6.87393 15.4262 6.88148 15.3585 6.87185C15.2908 6.86223 15.2266 6.83574 15.1718 6.79482C15.1169 6.7539 15.0733 6.69986 15.0448 6.63767C15.0163 6.57548 15.0039 6.50713 15.0088 6.4389C15.0136 6.37067 15.0355 6.30475 15.0725 6.24719C15.1094 6.18963 15.1603 6.14229 15.2203 6.1095C15.2803 6.07672 15.3476 6.05955 15.416 6.05957C15.5229 6.05955 15.6255 6.10141 15.7018 6.17616C15.7781 6.25092 15.822 6.35261 15.8242 6.45941L15.5216 6.50343L15.725 6.73433Z" fill="#232323"/>
<path d="M14.082 5.97702C14.0821 6.18136 14.0454 6.38371 13.9741 6.5725C13.9029 6.7613 13.7984 6.93285 13.6667 7.07735C13.5349 7.22185 13.3785 7.33648 13.2064 7.41469C13.0343 7.4929 12.8498 7.53315 12.6635 7.53315C12.4772 7.53315 12.2927 7.4929 12.1206 7.41469C11.9485 7.33648 11.7921 7.22185 11.6603 7.07735C11.5286 6.93285 11.4241 6.7613 11.3529 6.5725C11.2816 6.38371 11.2449 6.18136 11.245 5.97702C11.2449 5.77269 11.2816 5.57034 11.3529 5.38154C11.4241 5.19275 11.5286 5.0212 11.6603 4.8767C11.7921 4.73219 11.9485 4.61756 12.1206 4.53936C12.2927 4.46115 12.4772 4.4209 12.6635 4.4209C12.8498 4.4209 13.0343 4.46115 13.2064 4.53936C13.3785 4.61756 13.5349 4.73219 13.6667 4.8767C13.7984 5.0212 13.9029 5.19275 13.9741 5.38154C14.0454 5.57034 14.0821 5.77269 14.082 5.97702Z" fill="white"/>
<path d="M12.6643 7.80722C13.6053 7.80722 14.3574 6.98254 14.3574 5.97685C14.3574 4.97116 13.6053 4.14648 12.6643 4.14648C11.7233 4.14648 10.9712 4.97134 10.9712 5.97685C10.9712 6.98236 11.7232 7.80722 12.6643 7.80722ZM12.6643 7.25811C12.0384 7.25811 11.5204 6.68987 11.5204 5.97685C11.5204 5.26383 12.0384 4.69559 12.6643 4.69559C13.2902 4.69559 13.8083 5.26392 13.8083 5.97685C13.8083 6.68978 13.29 7.25811 12.6643 7.25811Z" fill="#524F75"/>
<path d="M13.5945 6.44355C13.5274 6.52131 13.4381 6.57668 13.3387 6.60223C13.2392 6.62778 13.1343 6.62229 13.038 6.58649C12.9417 6.55069 12.8587 6.48629 12.8001 6.40195C12.7415 6.3176 12.7101 6.21734 12.7101 6.11463C12.7109 5.98253 12.7636 5.85603 12.8568 5.76243C12.9501 5.66882 13.0763 5.61562 13.2085 5.61428C13.3406 5.61295 13.4679 5.6636 13.563 5.7553C13.6581 5.847 13.7133 5.97241 13.7168 6.10448L13.3436 6.15875L13.5945 6.44355Z" fill="#232323"/>
<path d="M11.6122 10.2788C11.1845 10.2788 10.8678 10.6293 11.0078 11.1184C11.0182 11.1532 11.0215 11.1897 11.0177 11.2258C11.0139 11.2619 11.0029 11.2969 10.9855 11.3287C10.968 11.3606 10.9444 11.3886 10.9161 11.4113C10.8877 11.434 10.8551 11.4508 10.8202 11.4608C10.7853 11.4708 10.7488 11.4737 10.7127 11.4695C10.6766 11.4653 10.6418 11.4539 10.6101 11.4362C10.5785 11.4184 10.5507 11.3945 10.5283 11.3659C10.506 11.3372 10.4895 11.3045 10.4799 11.2695C10.232 10.4042 10.8419 9.72967 11.6122 9.72967C11.685 9.72967 11.7548 9.75859 11.8063 9.81008C11.8578 9.86157 11.8867 9.93141 11.8867 10.0042C11.8867 10.077 11.8578 10.1469 11.8063 10.1984C11.7548 10.2499 11.685 10.2788 11.6122 10.2788ZM6.21725 6.17464C6.8005 5.98062 7.30678 5.92809 7.73691 6.02483C7.77209 6.03273 7.80537 6.04749 7.83484 6.06826C7.86431 6.08903 7.88941 6.1154 7.90869 6.14587C7.92797 6.17633 7.94107 6.2103 7.94722 6.24582C7.95338 6.28135 7.95248 6.31774 7.94457 6.35292C7.93666 6.3881 7.9219 6.42137 7.90113 6.45085C7.88037 6.48032 7.85399 6.50541 7.82353 6.5247C7.79306 6.54398 7.7591 6.55707 7.72357 6.56323C7.68804 6.56938 7.65165 6.56848 7.61648 6.56057C7.29525 6.48836 6.88634 6.53083 6.3905 6.69575C6.35628 6.70712 6.32016 6.71165 6.28419 6.70906C6.24823 6.70648 6.21313 6.69683 6.18089 6.68068C6.14865 6.66453 6.11991 6.64219 6.0963 6.61493C6.0727 6.58767 6.0547 6.55603 6.04332 6.52181C6.03195 6.4876 6.02742 6.45148 6.03001 6.41551C6.03259 6.37955 6.04223 6.34444 6.05839 6.31221C6.07454 6.27997 6.09688 6.25123 6.12414 6.22762C6.15139 6.20402 6.18304 6.18602 6.21725 6.17464Z" fill="#524F75"/>
</svg>
