<svg width="70" height="70" viewBox="0 0 70 70" fill="none" xmlns="http://www.w3.org/2000/svg">
<path d="M25.792 50.5804L27.4915 49.107C27.511 49.0902 27.5265 49.0692 27.5368 49.0456C27.547 49.022 27.5519 48.9964 27.5509 48.9707C27.5499 48.9449 27.5431 48.9198 27.5311 48.897C27.519 48.8743 27.502 48.8545 27.4812 48.8393L26.5955 48.1813C26.5631 48.1573 26.5236 48.1451 26.4833 48.1466C26.4431 48.1481 26.4046 48.1632 26.374 48.1895C24.6355 49.542 23.7473 50.2279 23.7094 50.2477L22.7634 50.7392C22.6667 50.7894 22.5822 50.8604 22.516 50.947C22.4573 51.0237 22.4144 51.1115 22.3899 51.205C22.3654 51.2985 22.3598 51.396 22.3735 51.4917C22.3871 51.5874 22.4197 51.6795 22.4693 51.7624C22.519 51.8454 22.5846 51.9177 22.6625 51.9749L26.8524 55.112C26.905 55.1511 26.9752 55.1581 27.0344 55.1297L27.9101 54.7128C27.9632 54.6877 27.9931 54.6172 28.0001 54.5019C27.6977 53.614 26.9293 52.6323 26.4499 52.1674C26.3269 52.0482 26.1156 51.8701 25.8158 51.6326C25.7454 51.577 25.6868 51.508 25.6431 51.4297C25.5994 51.3513 25.5716 51.2652 25.5612 51.1761C25.5509 51.087 25.5581 50.9967 25.5827 50.9105C25.6072 50.8242 25.6484 50.7436 25.7041 50.6733C25.7304 50.6393 25.7599 50.6082 25.792 50.5804Z" fill="#FFC62E"/>
<path d="M23.5868 49.7001C23.7552 49.5712 23.9232 49.442 24.091 49.3124C24.5332 48.9709 25.1871 48.4633 26.0523 47.7905C26.1712 47.6928 26.3193 47.6378 26.4731 47.634C26.6269 47.6302 26.7775 47.678 26.901 47.7696L27.7868 48.4275C27.8691 48.4884 27.9367 48.5671 27.9845 48.6578C28.0323 48.7484 28.0591 48.8486 28.063 48.9509C28.0669 49.0533 28.0477 49.1552 28.0069 49.2492C27.9661 49.3432 27.9047 49.4268 27.8273 49.4938L26.1278 50.9671C26.1088 50.9835 26.0936 51.004 26.0835 51.027C26.0733 51.05 26.0683 51.0749 26.0689 51.1C26.0694 51.1252 26.0755 51.1499 26.0868 51.1724C26.098 51.1949 26.114 51.2146 26.1338 51.2302C26.446 51.4771 26.6682 51.6647 26.8065 51.7987C27.4667 52.4385 28.1925 53.4765 28.4851 54.3358L28.5175 54.4312L28.5114 54.5321C28.4943 54.8138 28.3941 55.0486 28.1303 55.1744L27.2546 55.5914C27.1412 55.6453 27.0153 55.6672 26.8904 55.6549C26.7654 55.6425 26.6462 55.5964 26.5456 55.5214L22.3572 52.385C22.2248 52.2873 22.1132 52.1642 22.0289 52.0228C21.9447 51.8815 21.8894 51.7248 21.8663 51.5619C21.8432 51.399 21.8528 51.2331 21.8945 51.074C21.9361 50.9148 22.0091 50.7655 22.1091 50.6348C22.2211 50.4885 22.3639 50.3687 22.5274 50.2838L23.4437 49.8076C23.4873 49.7754 23.5305 49.7428 23.5868 49.7001ZM26.7095 48.576L26.6955 48.5873C26.7003 48.5835 26.705 48.5799 26.7095 48.576ZM26.0935 52.5339C25.9857 52.4296 25.7853 52.2602 25.498 52.0328C25.3602 51.9237 25.2481 51.7856 25.1698 51.6282C25.0915 51.4709 25.0489 51.2982 25.0449 51.1225C25.041 50.9468 25.0759 50.7724 25.1471 50.6117C25.2183 50.451 25.324 50.308 25.4568 50.1928L26.836 48.997L26.4949 48.7438C24.5996 50.2179 24.0281 50.6586 23.9457 50.7014L22.9996 51.193C22.9697 51.2085 22.9435 51.2305 22.923 51.2573C22.8492 51.3535 22.8685 51.4887 22.9696 51.5638L26.9968 54.5793L27.4037 54.3853C27.116 53.7461 26.5737 52.9993 26.0935 52.5339Z" fill="#524F75"/>
<path d="M41.8797 51.0955L40.219 48.5661C40.1958 48.5306 40.1603 48.5049 40.1192 48.494C40.0782 48.4831 40.0346 48.4878 39.9969 48.5072L39.0199 49.0094C38.9238 49.0724 38.9021 49.1803 38.9546 49.2605L41.7745 54.4839C41.8103 54.5848 41.8675 54.6769 41.942 54.7538C42.0093 54.8233 42.0898 54.8787 42.1787 54.9168C42.2676 54.955 42.3632 54.9751 42.4599 54.976C42.5567 54.9769 42.6526 54.9586 42.7422 54.9221C42.8319 54.8856 42.9133 54.8317 42.9819 54.7635L46.73 51.0496C46.8019 50.967 46.7942 50.8572 46.7223 50.7942C46.224 50.3783 45.9576 50.1736 45.9233 50.1799C44.9737 50.353 44.2303 50.6477 43.6932 51.0643C43.5992 51.1386 43.5078 51.2161 43.4192 51.2968V51.2967C43.3094 51.3949 43.1796 51.4684 43.0388 51.5119C42.898 51.5555 42.7495 51.5682 42.6033 51.5491C42.4572 51.53 42.3169 51.4796 42.192 51.4013C42.0671 51.323 41.9606 51.2187 41.8797 51.0955Z" fill="#FFC62E"/>
<path d="M38.7397 48.5806L38.7624 48.5658L39.763 48.0512C39.9132 47.974 40.0866 47.9551 40.2499 47.9982C40.4132 48.0412 40.5548 48.1431 40.6474 48.2842L42.3081 50.8138C42.3486 50.8754 42.4019 50.9276 42.4643 50.9667C42.5268 51.0058 42.597 51.031 42.67 51.0405C42.7431 51.0501 42.8174 51.0437 42.8878 51.0219C42.9582 51.0001 43.0231 50.9634 43.078 50.9142C43.1756 50.8254 43.2763 50.7401 43.38 50.6584C43.989 50.1862 44.8077 49.8618 45.832 49.675C45.9176 49.6584 46.0059 49.6643 46.0885 49.6921C46.1214 49.7027 46.1501 49.7152 46.1781 49.7292C46.2102 49.7457 46.2413 49.7642 46.2753 49.7865C46.3249 49.8191 46.3857 49.8639 46.4614 49.9219C46.601 50.0293 46.797 50.1883 47.0605 50.4083C47.3504 50.6625 47.3686 51.0953 47.1171 51.3849L47.0912 51.4127L43.3431 55.1267C43.2264 55.2425 43.0879 55.334 42.9356 55.3959C42.7833 55.4578 42.6202 55.4889 42.4558 55.4874C42.2914 55.4859 42.1289 55.4518 41.9778 55.387C41.8267 55.3223 41.6899 55.2282 41.5754 55.1103C41.4595 54.9915 41.3686 54.8507 41.308 54.6962L38.5116 49.5164C38.3183 49.1948 38.4237 48.7877 38.7397 48.5806ZM44.0074 51.4686C43.9473 51.5152 43.8647 51.5853 43.7614 51.6781C43.1292 52.2439 42.1576 52.1902 41.5916 51.558C41.5406 51.5012 41.4939 51.4406 41.4521 51.3767L39.9592 49.1029L39.5626 49.3068L42.245 54.2754L42.2581 54.313C42.2694 54.3445 42.2873 54.3732 42.3104 54.3968C42.3305 54.4177 42.3546 54.4345 42.3813 54.446C42.408 54.4575 42.4367 54.4636 42.4658 54.4639C42.4948 54.4642 42.5237 54.4586 42.5506 54.4477C42.5775 54.4367 42.6019 54.4204 42.6225 54.3999L46.1056 50.9483C46.0173 50.8759 45.928 50.8048 45.8377 50.7349C45.832 50.7307 45.8266 50.7262 45.8208 50.7221C45.0412 50.8835 44.4379 51.1351 44.0074 51.4686Z" fill="#524F75"/>
<path d="M29.6659 34.9089C24.3544 34.4704 22.5015 33.4126 22.1457 31.9854C21.7899 30.5583 24.5707 29.0082 29.6546 27.5215" fill="#3D96C8"/>
<path d="M29.8282 34.2256C25.1021 34.0837 23.0267 33.3277 22.6397 32.0621C22.3513 31.1186 24.767 29.5315 29.5842 27.8443C29.6477 27.8221 29.7062 27.7875 29.7563 27.7427C29.8064 27.6978 29.8473 27.6436 29.8764 27.5829C29.9056 27.5223 29.9225 27.4566 29.9263 27.3894C29.93 27.3222 29.9205 27.255 29.8982 27.1915C29.876 27.128 29.8415 27.0695 29.7966 27.0194C29.7518 26.9693 29.6975 26.9284 29.6369 26.8993C29.5763 26.8701 29.5105 26.8532 29.4433 26.8494C29.3762 26.8457 29.3089 26.8552 29.2455 26.8774C23.8107 28.7809 21.108 30.5565 21.6598 32.3615C22.2241 34.2073 24.6623 35.0954 29.7973 35.2494C29.8649 35.2521 29.9324 35.2414 29.9958 35.2178C30.0592 35.1943 30.1174 35.1584 30.1669 35.1122C30.2164 35.0661 30.2562 35.0106 30.2841 34.9489C30.3121 34.8873 30.3275 34.8207 30.3295 34.7531C30.3316 34.6855 30.3202 34.6181 30.296 34.5549C30.2719 34.4917 30.2355 34.4339 30.1888 34.3848C30.1422 34.3357 30.0863 34.2964 30.0244 34.2691C29.9625 34.2418 29.8958 34.227 29.8282 34.2256Z" fill="#524F75"/>
<path d="M23.4554 48.3361C25.4159 49.5406 29.6154 50.3316 33.1772 50.3649C34.674 50.3787 37.3792 50.0541 41.2938 49.3912C43.6173 48.7393 45.3012 47.8759 45.5725 44.5311C45.9667 39.6678 46.0311 36.4982 45.7647 35.0226C45.5494 33.8276 45.1701 31.7367 44.6263 28.7497C43.8452 24.4582 40.126 21.3408 35.7867 21.3408H33.758C29.4476 21.3408 25.7444 24.4183 24.9327 28.6746L22.9683 39.7102C22.803 40.6386 21.9164 41.2572 20.9881 41.0921C20.7771 41.0544 20.575 40.9774 20.3925 40.865L19.9578 40.5978C19.5781 40.402 18.8969 40.6721 18.6361 41.0776C18.3754 41.4831 18.9317 43.5332 19.3744 44.3029C19.8173 45.0715 21.4947 47.1317 23.4554 48.3361Z" fill="#3D96C8"/>
<path d="M23.1872 48.7731C21.4724 47.7195 19.6242 45.7638 18.9304 44.5581C18.3513 43.5514 17.8223 41.396 18.2053 40.8003C18.605 40.1785 19.5653 39.8192 20.1924 40.1423L20.6609 40.4289C20.8268 40.531 21.0151 40.5911 21.2095 40.6038C21.4039 40.6165 21.5984 40.5815 21.7762 40.5018C21.954 40.4221 22.1096 40.3002 22.2294 40.1467C22.3493 39.9931 22.4298 39.8126 22.464 39.6209L24.4297 28.5791C25.2872 24.0817 29.2014 20.8291 33.7581 20.8291H35.7867C40.3738 20.8291 44.305 24.1241 45.1302 28.6585C45.674 31.6458 46.0533 33.7369 46.2688 34.9324C46.5454 36.4673 46.4807 39.6639 46.0827 44.5731C45.9442 46.2819 45.4448 47.4889 44.5574 48.3408C43.8191 49.0493 42.8965 49.474 41.4318 49.8847C37.4363 50.5642 34.7082 50.8915 33.1721 50.8772C29.372 50.8422 25.1698 49.9909 23.1872 48.7731ZM19.0897 41.6007C19.1088 41.8241 19.161 42.1135 19.2391 42.4316C19.3944 43.0649 19.63 43.7194 19.8185 44.0472C20.4294 45.1087 22.1588 46.9388 23.7237 47.9C25.5179 49.0024 29.5509 49.819 33.182 49.8528C34.6362 49.8661 37.3103 49.546 41.1815 48.8907C42.482 48.5242 43.2636 48.1622 43.8482 47.6014C44.54 46.937 44.9422 45.9647 45.0619 44.4894C45.4524 39.6719 45.5157 36.5296 45.2606 35.1132C45.0452 33.9186 44.666 31.828 44.1222 28.8412C43.3857 24.7935 39.878 21.8535 35.7867 21.8535H33.7581C29.694 21.8535 26.2017 24.7558 25.4371 28.7649L23.4727 39.8003C23.2579 41.007 22.1053 41.8113 20.8986 41.5966C20.6242 41.5478 20.3614 41.4476 20.1241 41.3014L19.7135 41.0487C19.5925 41.0036 19.2345 41.1373 19.0875 41.3258C19.0793 41.4086 19.0806 41.495 19.0897 41.6007Z" fill="#524F75"/>
<path d="M44.151 29.0051C44.5217 31.0224 44.8907 33.04 45.258 35.0579C45.5168 36.4816 45.4543 39.54 45.0709 44.2327C44.8071 47.46 43.1698 48.2932 40.91 48.9222C37.1035 49.5619 34.4724 49.8752 33.0167 49.8617C32.0403 49.8527 30.9514 49.7588 29.8599 49.613C30.0246 49.4155 30.2175 49.2432 30.4323 49.1018C32.1309 47.9828 33.1861 44.7596 33.3522 43.7487C33.6899 41.6939 33.7245 39.1982 33.702 31.9444C33.6901 28.0782 36.4663 24.7665 40.2754 24.1036C40.618 24.0438 40.9653 24.0148 41.3131 24.0167C42.7965 25.3103 43.797 27.069 44.151 29.0051Z" fill="white"/>
<path d="M42.2559 28.6928C42.2559 29.0995 42.3199 29.5022 42.4444 29.878C42.5689 30.2537 42.7514 30.5951 42.9814 30.8827C43.2115 31.1703 43.4846 31.3985 43.7851 31.5541C44.0857 31.7097 44.4078 31.7899 44.7332 31.7899C45.0585 31.7899 45.3806 31.7097 45.6812 31.5541C45.9818 31.3985 46.2549 31.1703 46.4849 30.8827C46.7149 30.5951 46.8974 30.2537 47.0219 29.878C47.1464 29.5022 47.2105 29.0995 47.2105 28.6928C47.2105 28.2861 47.1464 27.8833 47.0219 27.5076C46.8974 27.1318 46.7149 26.7904 46.4849 26.5028C46.2549 26.2152 45.9818 25.9871 45.6812 25.8315C45.3806 25.6758 45.0585 25.5957 44.7332 25.5957C44.4078 25.5957 44.0857 25.6758 43.7851 25.8315C43.4846 25.9871 43.2115 26.2152 42.9814 26.5028C42.7514 26.7904 42.5689 27.1318 42.4444 27.5076C42.3199 27.8833 42.2559 28.2861 42.2559 28.6928Z" fill="white"/>
<path d="M44.837 31.5101C46.2831 31.5101 47.4147 30.1557 47.4147 28.526C47.4147 26.8964 46.2829 25.542 44.837 25.542C43.3909 25.542 42.2593 26.8964 42.2593 28.526C42.2593 30.1557 43.3912 31.5101 44.837 31.5101ZM44.837 30.4857C44.0013 30.4857 43.2837 29.6266 43.2837 28.526C43.2837 27.4255 44.0016 26.5664 44.837 26.5664C45.6724 26.5664 46.3903 27.4255 46.3903 28.526C46.3903 29.6266 45.6724 30.4857 44.837 30.4857Z" fill="#524F75"/>
<path d="M45.9542 28.9952C45.8372 29.1475 45.6653 29.2438 45.473 29.2438C45.1218 29.2438 44.8374 28.9224 44.8374 28.5262C44.8374 28.1299 45.1218 27.8086 45.473 27.8086C45.8198 27.8086 46.1017 28.1221 46.1087 28.5117L45.6374 28.589L45.9542 28.9954V28.9952Z" fill="#232323"/>
<path d="M42.793 36.2898C43.6709 36.2212 44.4303 36.1957 45.7864 35.1975C46.3519 34.781 47.3761 33.9443 47.8538 33.3705C48.3063 32.8272 48.1617 32.1707 47.8538 31.7355C47.2208 30.8407 46.2739 30.7898 45.2012 30.4549C44.7892 30.3263 43.8384 30.0526 42.6216 29.8213C42.933 30.7506 43.0704 31.8706 43.033 33.1813C43.0006 34.3255 42.9207 35.3617 42.793 36.2898Z" fill="#FFC62E"/>
<path d="M43.5388 32.6933C43.6545 31.6969 43.6632 30.7929 43.5634 29.9807C44.2031 30.1835 44.7757 30.393 45.2328 30.581C45.3588 30.6327 45.4882 30.6826 45.6383 30.7376C45.6963 30.7589 45.7552 30.7801 45.831 30.8074L46.0157 30.8736C46.9008 31.1922 47.2414 31.4015 47.516 31.8724C47.7263 32.2327 47.7171 32.6156 47.4523 32.8821C47.036 33.3016 46.0904 33.9823 45.3304 34.4455C44.4512 34.9814 43.8792 35.1629 43.1529 35.1954C43.3052 34.429 43.4336 33.5951 43.5388 32.6933ZM42.5151 36.2223L42.6269 36.2235C42.7795 36.2251 42.8605 36.2256 42.9538 36.2247C43.9653 36.2163 44.7405 36.0046 45.8636 35.32C46.6886 34.8174 47.6913 34.0953 48.1794 33.6036C48.805 32.9731 48.8267 32.0855 48.4005 31.3558C47.9706 30.6198 47.4564 30.3034 46.3623 29.9097L46.1766 29.8431C46.1028 29.8166 46.0461 29.7962 45.9912 29.7758C45.8672 29.7308 45.7441 29.6833 45.622 29.6333C44.949 29.3567 44.0491 29.0396 43.0515 28.7581C42.6749 28.6517 42.3228 28.9903 42.4147 29.371C42.6288 30.2605 42.6656 31.3288 42.521 32.575C42.3909 33.6948 42.224 34.702 42.0201 35.5964C42.0031 35.6711 42.0031 35.7486 42.02 35.8232C42.0369 35.8979 42.0703 35.9678 42.1178 36.0278C42.1652 36.0879 42.2256 36.1365 42.2943 36.1702C42.3631 36.2038 42.4385 36.2217 42.5151 36.2223Z" fill="#524F75"/>
<path d="M36.9634 29.0346C36.9634 29.856 37.2244 30.6437 37.689 31.2245C38.1536 31.8053 38.7837 32.1316 39.4407 32.1316C40.0977 32.1316 40.7278 31.8053 41.1924 31.2245C41.657 30.6437 41.918 29.856 41.918 29.0346C41.918 28.2132 41.657 27.4254 41.1924 26.8446C40.7278 26.2638 40.0977 25.9375 39.4407 25.9375C38.7837 25.9375 38.1536 26.2638 37.689 26.8446C37.2244 27.4254 36.9634 28.2132 36.9634 29.0346Z" fill="white"/>
<path d="M39.5383 32.6978C41.3669 32.6978 42.8309 31.1025 42.8309 29.1556C42.8309 27.2086 41.367 25.6133 39.5383 25.6133C37.7095 25.6133 36.2456 27.2086 36.2456 29.1556C36.2456 31.1025 37.7095 32.6978 39.5383 32.6978ZM39.5383 31.6734C38.2961 31.6734 37.27 30.5555 37.27 29.1556C37.27 27.7556 38.2959 26.6377 39.5383 26.6377C40.7807 26.6377 41.8065 27.7556 41.8065 29.1556C41.8065 30.5555 40.7804 31.6734 39.5383 31.6734Z" fill="#524F75"/>
<path d="M40.9942 29.9406C40.8337 30.1434 40.5971 30.272 40.3326 30.272C39.85 30.272 39.4585 29.8436 39.4585 29.3152C39.4585 28.7868 39.85 28.3584 40.3326 28.3584C40.8095 28.3584 41.1969 28.7763 41.2063 29.2959L40.5584 29.399L40.9942 29.9406Z" fill="#232323"/>
<path d="M21.1108 41.6462C21.9951 41.8306 22.7157 41.8924 23.2826 41.8263C23.8315 41.7619 24.2559 41.5817 24.6348 41.2991C24.7575 41.2074 25.0346 40.966 25.0616 40.9465C25.1161 40.9071 25.1623 40.8574 25.1975 40.8001C25.2328 40.7428 25.2564 40.6792 25.267 40.6128C25.2777 40.5464 25.2751 40.4785 25.2595 40.4131C25.2439 40.3477 25.2156 40.286 25.1761 40.2315C25.1367 40.177 25.087 40.1308 25.0297 40.0955C24.9724 40.0602 24.9087 40.0366 24.8423 40.026C24.7759 40.0153 24.708 40.0179 24.6426 40.0335C24.5771 40.0491 24.5154 40.0775 24.4609 40.1169C24.3858 40.1712 24.1012 40.4193 24.0222 40.478C23.7816 40.6575 23.5247 40.7666 23.1632 40.8089C22.7229 40.8605 22.1052 40.8072 21.3197 40.6435C21.2533 40.6284 21.1846 40.6267 21.1176 40.6384C21.0505 40.6502 20.9865 40.6752 20.9293 40.7119C20.872 40.7487 20.8226 40.7965 20.7841 40.8526C20.7455 40.9087 20.7185 40.9719 20.7046 41.0385C20.6907 41.1051 20.6903 41.1738 20.7033 41.2406C20.7162 41.3074 20.7424 41.371 20.7802 41.4276C20.8181 41.4841 20.8668 41.5326 20.9235 41.5702C20.9803 41.6077 21.044 41.6335 21.1108 41.6462Z" fill="#524F75"/>
<path d="M38.5926 23.6168C41.8926 22.5447 44.0201 19.1715 43.461 17.449C42.9013 15.7266 39.5226 18.7179 36.2231 19.7903C32.9235 20.8623 28.4149 21.5944 28.9747 23.3167C29.5345 25.0391 35.2928 24.6889 38.5926 23.6168Z" fill="#FFD04F"/>
<path d="M38.6145 24.2135C36.8707 24.6808 34.5361 24.9176 32.5811 24.8216C30.2512 24.7071 28.6986 24.1714 28.3979 23.0483C28.1384 22.0799 28.7933 21.3894 30.078 20.8651C30.9312 20.5168 31.7781 20.2974 33.9121 19.8193L34.2294 19.7481C35.0976 19.5528 35.6476 19.422 36.1827 19.2786C36.6028 19.1661 37.0468 19.0163 37.5277 18.8284C38.073 18.6153 38.6067 18.3794 39.3839 18.0161C41.2829 17.1285 41.5367 17.0171 42.1625 16.8505C43.1798 16.5795 43.923 16.7963 44.1603 17.6814C44.7579 19.9117 41.9799 23.3118 38.6145 24.2135ZM38.3492 23.2241C39.8133 22.8318 41.1628 21.9206 42.1094 20.7618C42.9606 19.72 43.3524 18.6247 43.1707 17.9469C43.1151 17.7394 42.9675 17.6964 42.4261 17.8406C41.8892 17.9836 41.6278 18.0984 39.8174 18.9444C39.0218 19.3163 38.4712 19.5598 37.9005 19.7829C37.3862 19.9838 36.9072 20.1452 36.4476 20.2685C35.8958 20.4164 35.3347 20.5498 34.4539 20.7478L34.1358 20.8192C32.0667 21.2829 31.2429 21.4961 30.4649 21.8136C29.6016 22.166 29.3054 22.4785 29.3871 22.7834C29.6968 23.9395 34.7521 24.1879 38.3492 23.2241Z" fill="#524F75"/>
<path d="M33.9026 23.4413C36.1521 22.3123 37.976 20.2252 37.6185 19.0547C37.2612 17.884 34.8045 16.0145 29.9408 17.5339C25.0765 19.0537 24.8791 23.6267 25.4386 25.3492C25.9983 27.0715 31.6527 24.5701 33.9026 23.4413Z" fill="#FD6B4D"/>
<path d="M29.1309 16.9898C30.537 17.9086 31.9461 18.7955 32.6826 19.5532C33.3054 20.1941 34.1153 21.3559 35.1123 23.0391C35.2942 23.3464 30.9082 25.5726 30.8132 25.356C30.1191 23.7734 29.6681 22.4963 29.4609 21.5244C29.2252 20.4195 29.0962 18.4658 29.1309 16.9898ZM29.3501 16.9897C31.4508 16.4569 33.1428 16.258 34.5203 16.3464C35.8976 16.4346 37.0009 17.6151 38.4404 18.8832L38.0337 21.0572C36.8102 19.5889 35.7654 18.4919 34.8995 17.7664C34.2946 17.2597 33.2079 16.8948 31.6395 16.6715C30.9629 16.5752 30.2059 17.0331 29.3501 16.9897ZM28.3918 17.2949C27.0775 19.8604 26.6107 20.9826 26.8058 22.0953C27.0009 23.2078 27.3677 24.6593 27.9061 26.4496L24.7512 25.9964C24.7363 25.6587 24.5084 25.3615 24.5093 25.0468C24.5142 23.2443 24.7774 21.8163 25.2986 20.7632C25.911 19.5262 26.88 18.8478 28.3918 17.2949Z" fill="#FF8B74"/>
<path d="M33.7695 23.5834C36.0752 22.5739 38.006 20.5852 37.7101 19.3973C37.4146 18.2095 35.0591 16.2138 30.122 17.4768C25.1851 18.7397 24.7487 23.2965 25.2172 25.0456C25.6861 26.795 31.4636 24.5929 33.7695 23.5834ZM29.0582 26.3418C28.0037 26.6115 27.111 26.7476 26.3892 26.7211C25.3081 26.681 24.4826 26.2621 24.2278 25.3111C23.8837 24.0269 24.0197 22.2224 24.7053 20.666C25.6006 18.6331 27.3257 17.1349 29.8685 16.4845C32.3129 15.859 34.4018 15.9229 36.0322 16.5648C37.4405 17.1194 38.4454 18.109 38.7045 19.1498C39.1578 20.9734 36.9278 23.3191 34.1803 24.522C32.5543 25.2336 30.6444 25.9362 29.0582 26.3418Z" fill="#524F75"/>
<path d="M30.1315 16.5142C30.0962 16.3823 30.0352 16.2587 29.952 16.1504C29.8687 16.0422 29.7649 15.9513 29.6464 15.8831C29.528 15.8149 29.3971 15.7707 29.2614 15.7529C29.1258 15.7352 28.9879 15.7443 28.8556 15.7798C28.7234 15.8152 28.5994 15.8762 28.4908 15.9594C28.3821 16.0427 28.2909 16.1464 28.2224 16.2647C28.1539 16.383 28.1094 16.5136 28.0915 16.6489C28.0736 16.7843 28.0825 16.9219 28.1179 17.0537C28.1532 17.1856 28.2142 17.3092 28.2974 17.4175C28.3807 17.5258 28.4845 17.6166 28.603 17.6848C28.7215 17.753 28.8523 17.7973 28.988 17.815C29.1236 17.8327 29.2615 17.8236 29.3938 17.7882C29.526 17.7528 29.65 17.6917 29.7586 17.6085C29.8673 17.5253 29.9585 17.4216 30.027 17.3033C30.0955 17.185 30.14 17.0544 30.1579 16.919C30.1758 16.7836 30.1669 16.6461 30.1315 16.5142Z" fill="#FFD04F"/>
<path d="M29.4824 18.1176C28.7444 18.3153 27.9859 17.8787 27.7885 17.1418C27.5911 16.405 28.0298 15.6476 28.7676 15.4499C29.5054 15.2522 30.264 15.6888 30.4614 16.4256C30.659 17.1624 30.2202 17.9199 29.4824 18.1176ZM29.3058 17.4579C29.3945 17.4343 29.4778 17.3934 29.5507 17.3377C29.6237 17.2819 29.685 17.2123 29.7311 17.1329C29.7771 17.0534 29.8071 16.9657 29.8193 16.8747C29.8314 16.7836 29.8255 16.6911 29.802 16.6023C29.778 16.5137 29.7368 16.4306 29.6808 16.3579C29.6247 16.2851 29.5549 16.2241 29.4753 16.1783C29.3957 16.1326 29.3078 16.103 29.2167 16.0911C29.1257 16.0793 29.0332 16.0856 28.9445 16.1095C28.8557 16.1331 28.7724 16.1739 28.6994 16.2297C28.6265 16.2855 28.5652 16.3551 28.5191 16.4346C28.473 16.514 28.443 16.6018 28.4308 16.6929C28.4187 16.7839 28.4246 16.8765 28.4482 16.9652C28.4722 17.0539 28.5134 17.137 28.5694 17.2097C28.6255 17.2824 28.6953 17.3434 28.775 17.3892C28.8546 17.4349 28.9425 17.4645 29.0336 17.4763C29.1246 17.4881 29.2171 17.4818 29.3058 17.4579Z" fill="#524F75"/>
<path d="M27.4466 39.5181C22.1352 39.0796 20.2822 38.0218 19.9264 36.5948C19.5706 35.1678 22.3515 33.6176 27.4354 32.1309" fill="#3D96C8"/>
<path d="M27.5299 38.9513C22.8117 38.6443 20.7638 37.8166 20.4213 36.5378C20.1659 35.5849 22.6357 34.083 27.5089 32.5649C27.574 32.5456 27.6346 32.5136 27.6872 32.4707C27.7398 32.4278 27.7834 32.3749 27.8153 32.315C27.8473 32.2552 27.8671 32.1895 27.8735 32.122C27.8799 32.0544 27.8728 31.9862 27.8526 31.9214C27.8324 31.8566 27.7995 31.7965 27.7559 31.7445C27.7123 31.6925 27.6587 31.6497 27.5984 31.6185C27.5381 31.5874 27.4722 31.5686 27.4045 31.5632C27.3369 31.5577 27.2688 31.5658 27.2043 31.5869C21.7062 33.2999 18.9433 34.9799 19.4317 36.8031C19.9313 38.6675 22.3371 39.64 27.4633 39.9731C27.5988 39.9819 27.7322 39.9366 27.8343 39.847C27.9364 39.7574 27.9987 39.631 28.0075 39.4955C28.0163 39.36 27.971 39.2265 27.8814 39.1244C27.7918 39.0224 27.6654 38.9601 27.5299 38.9513Z" fill="#524F75"/>
<path d="M28.5122 39.6097C28.5122 39.7908 28.5842 39.9645 28.7122 40.0926C28.8403 40.2207 29.014 40.2926 29.1951 40.2926C29.3763 40.2926 29.55 40.2207 29.678 40.0926C29.8061 39.9645 29.8781 39.7908 29.8781 39.6097C29.8781 39.4286 29.8061 39.2549 29.678 39.1268C29.55 38.9987 29.3763 38.9268 29.1951 38.9268C29.014 38.9268 28.8403 38.9987 28.7122 39.1268C28.5842 39.2549 28.5122 39.4286 28.5122 39.6097Z" fill="#524F75"/>
</svg>
