<svg width="56" height="58" viewBox="0 0 56 58" fill="none" xmlns="http://www.w3.org/2000/svg">
<g clip-path="url(#clip0_2087_3)">
<path d="M27.9476 13.6766L32.2569 12.8802C34.348 12.4937 36.3561 13.8756 36.7424 15.9665C36.7769 16.1541 36.7978 16.3439 36.8041 16.5345C36.8917 19.0858 35.0643 21.3026 32.5434 21.7041L31.91 21.8051C30.6322 22.0086 29.3227 21.7974 28.1737 21.2023C27.0246 20.6072 26.0965 19.6595 25.5255 18.4984C24.7005 16.8212 25.3914 14.7929 27.0688 13.9679C27.347 13.8309 27.6427 13.7329 27.9476 13.6766Z" fill="white"/>
<path d="M25.824 5.68044L24.7311 2.94806C24.2877 1.91712 23.1039 1.45189 22.0868 1.90941C22.0391 1.93095 21.9915 1.95477 21.9455 1.97972C20.9796 2.50914 20.614 3.73152 21.1289 4.71007C21.1577 4.76451 21.1881 4.81713 21.2219 4.86839L22.6452 7.41614" fill="#F4FDFF"/>
<path d="M20.5264 5.02677C19.8391 3.72023 20.3266 2.09091 21.6186 1.38298C21.6803 1.34896 21.7433 1.31765 21.808 1.28885C23.1721 0.675045 24.7629 1.29973 25.3563 2.67885L26.4555 5.42735C26.5165 5.59362 26.5102 5.7771 26.4381 5.93886C26.366 6.10061 26.2337 6.2279 26.0693 6.2937C25.9049 6.3595 25.7213 6.35862 25.5575 6.29127C25.3937 6.22391 25.2626 6.09538 25.192 5.93295L24.0996 3.20056C24.0277 3.03348 23.9216 2.88332 23.7881 2.75976C23.6546 2.6362 23.4967 2.54198 23.3245 2.48317C23.1524 2.42436 22.9699 2.40227 22.7887 2.41831C22.6075 2.43436 22.4316 2.48819 22.2725 2.57633C21.6329 2.92655 21.3888 3.74246 21.7311 4.39323C21.7499 4.42907 21.7706 4.46423 21.7923 4.49803L21.8155 4.53659L23.2393 7.08388C23.3223 7.24106 23.3406 7.42447 23.2901 7.59493C23.2397 7.76539 23.1246 7.90935 22.9694 7.99607C22.8143 8.08278 22.6313 8.10535 22.4597 8.05896C22.2881 8.01257 22.1415 7.9009 22.0511 7.74781L20.6378 5.21866C20.5982 5.15621 20.5611 5.0922 20.5266 5.02677H20.5264Z" fill="#524F75"/>
<path d="M22.5197 4.83641L23.04 5.95309C23.0901 6.06056 23.1609 6.15711 23.2484 6.23723C23.3358 6.31734 23.4381 6.37945 23.5496 6.42001C23.661 6.46056 23.7793 6.47877 23.8978 6.4736C24.0163 6.46842 24.1326 6.43997 24.2401 6.38985C24.3475 6.33973 24.4441 6.26894 24.5242 6.18151C24.6043 6.09407 24.6664 5.99172 24.707 5.88028C24.7475 5.76885 24.7657 5.65052 24.7606 5.53205C24.7554 5.41358 24.7269 5.29728 24.6768 5.18981L24.1565 4.07313C24.1064 3.96565 24.0356 3.8691 23.9481 3.78899C23.8607 3.70888 23.7583 3.64677 23.6469 3.60621C23.5355 3.56566 23.4171 3.54744 23.2987 3.55262C23.1802 3.55779 23.0639 3.58625 22.9564 3.63637C22.849 3.68649 22.7524 3.75728 22.6723 3.84471C22.5922 3.93214 22.5301 4.0345 22.4895 4.14593C22.449 4.25737 22.4307 4.3757 22.4359 4.49417C22.4411 4.61264 22.4696 4.72894 22.5197 4.83641Z" fill="#A8EFFF"/>
<path d="M12.1599 43.2143L19.6124 45.7333V47.917L12.3207 48.3255C10.6796 48.4171 9.27462 47.1612 9.18298 45.5203C9.17981 45.465 9.17823 45.4096 9.17822 45.3542C9.17822 44.1067 10.1894 43.0957 11.4368 43.0957C11.6827 43.0952 11.927 43.1353 12.1599 43.2143Z" fill="#E5FBFF"/>
<path d="M11.9417 43.8584C11.7043 43.7781 11.4512 43.7555 11.2033 43.7925C10.9554 43.8296 10.72 43.9251 10.5163 44.0712C10.3127 44.2173 10.1468 44.4098 10.0324 44.6328C9.91797 44.8557 9.85829 45.1028 9.85831 45.3534C9.85831 45.396 9.85944 45.4389 9.86194 45.4815C9.93271 46.7475 11.0165 47.7165 12.2824 47.6453L18.9317 47.2735V46.2212L11.9417 43.8584ZM20.2927 45.245V48.5605L12.3586 49.0047C10.3421 49.1174 8.61619 47.5743 8.50323 45.558C8.49942 45.4901 8.49753 45.4221 8.49756 45.3541C8.49756 43.7309 9.8134 42.415 11.4366 42.415C11.7566 42.415 12.0744 42.467 12.3777 42.57L20.2927 45.245Z" fill="#524F75"/>
<path d="M46.0764 46.0788C45.7506 44.8063 45.2525 43.592 44.587 42.484C43.0271 39.8891 40.8811 37.5759 39.2263 37.335L28.7852 43.4011C28.0237 44.5411 27.7202 45.9747 28.0974 47.6414C28.8305 50.8805 31.5262 53.3092 34.8293 53.7068C37.1068 53.9811 39.002 54.1181 40.5147 54.1181C42.6714 54.1181 43.6384 53.7458 45.8164 53.0021L47.2917 53.9706L47.3182 53.9876C47.6748 54.2117 48.1058 54.2849 48.5163 54.1911C48.9268 54.0974 49.2833 53.8445 49.5074 53.4879L53.8997 46.4959C54.0415 46.2702 54.1242 46.0123 54.1401 45.7462C54.1561 45.48 54.1047 45.2142 53.9909 44.9731C53.877 44.732 53.7042 44.5235 53.4885 44.3668C53.2728 44.2101 53.0212 44.1102 52.7567 44.0763L50.4998 43.7876C49.9191 43.7132 49.3292 43.772 48.7747 43.9595C48.2201 44.147 47.7156 44.4583 47.2992 44.8698L46.0764 46.0788Z" fill="#E5FBFF"/>
<path d="M46.8212 44.3862C47.311 43.902 47.9047 43.5357 48.5572 43.315C49.2097 43.0944 49.9038 43.0252 50.587 43.1127L52.844 43.4017C54.0865 43.5607 54.965 44.6972 54.8054 45.9397C54.7635 46.2661 54.6513 46.5794 54.4765 46.8582L50.0839 53.8499C49.4175 54.911 48.0175 55.2307 46.9566 54.564C46.9437 54.5558 46.5324 54.2855 45.7218 53.7538C44.1897 54.2764 43.9321 54.356 43.2926 54.5064C42.4323 54.7089 41.5978 54.7985 40.5149 54.7985C38.9718 54.7985 37.051 54.6597 34.748 54.3823C31.1593 53.9509 28.2305 51.3119 27.4334 47.7916C27.0306 46.0112 27.3166 44.3739 28.2194 43.0229C28.2771 42.9367 28.3537 42.8647 28.4433 42.8124L38.884 36.7466C39.0168 36.6692 39.1719 36.6392 39.324 36.6615C41.1378 36.9258 43.3777 39.1523 45.1696 42.1338C45.6741 42.9757 46.0878 43.8688 46.4036 44.7981L46.8212 44.3862ZM29.2685 43.9071C28.6413 44.9181 28.4521 46.1284 28.7608 47.4912C29.4304 50.4498 31.8929 52.6679 34.9106 53.0315C37.1635 53.3026 39.0326 53.438 40.5144 53.438C41.4961 53.438 42.2263 53.3593 42.9807 53.1822C43.5982 53.0365 43.837 52.9594 45.5963 52.3583C45.6944 52.3249 45.7989 52.3143 45.9017 52.3273C46.0045 52.3404 46.103 52.3767 46.1897 52.4336L47.665 53.4022C48.1046 53.6785 48.6644 53.5505 48.9312 53.1264L53.3232 46.1343C53.3935 46.023 53.4385 45.8977 53.455 45.7671C53.4854 45.5284 53.4198 45.2874 53.2726 45.097C53.1255 44.9066 52.9088 44.7824 52.6702 44.7516L50.413 44.4628C49.9349 44.4016 49.4491 44.45 48.9924 44.6044C48.5358 44.7589 48.1203 45.0153 47.7775 45.3543L46.5544 46.5628C46.1809 46.9323 45.5471 46.7568 45.4167 46.2478C45.1039 45.0263 44.628 43.8753 44.0033 42.8351C42.4931 40.3227 40.6258 38.4119 39.342 38.0542L29.2685 43.9071Z" fill="#524F75"/>
<path d="M51.2265 44.1633L50.2893 45.4406C50.2348 45.5126 50.1952 45.5946 50.1728 45.682C50.1503 45.7694 50.1455 45.8603 50.1585 45.9496C50.1715 46.0389 50.2022 46.1247 50.2487 46.202C50.2952 46.2793 50.3566 46.3466 50.4293 46.4C50.502 46.4533 50.5847 46.4917 50.6724 46.5129C50.7601 46.534 50.8511 46.5375 50.9402 46.5231C51.0292 46.5088 51.1146 46.4768 51.1912 46.4292C51.2678 46.3816 51.3342 46.3192 51.3865 46.2456L52.3237 44.9684C52.4273 44.8227 52.4694 44.6422 52.4409 44.4657C52.4125 44.2893 52.3158 44.1311 52.1717 44.0254C52.0276 43.9197 51.8477 43.8749 51.6708 43.9007C51.494 43.9265 51.3344 44.0208 51.2265 44.1633Z" fill="#524F75"/>
<path d="M32.3638 24.3743L37.2538 25.1854C37.7396 25.2542 38.2346 25.165 38.6651 24.9311L42.1245 22.703C42.1208 22.6461 42.0909 22.2507 42.0909 22.1935C42.0909 21.2567 42.6199 21.0628 43.2879 20.5003C43.3381 20.1291 43.4763 19.7754 43.691 19.4685C43.9057 19.1617 44.1906 18.9106 44.522 18.7362L45.7031 18.1113C46.1976 17.8498 46.8121 18.0181 47.1004 18.4944C47.2241 18.6983 47.2696 18.9401 47.2287 19.1749C47.1877 19.4098 47.063 19.6219 46.8777 19.7719H48.8109C49.7223 19.7717 50.4609 20.5041 50.4609 21.4074C50.4609 22.39 49.8428 23.2685 48.913 23.6083L46.0838 24.6422L40.7705 31.964C40.1974 32.5458 39.4648 32.9448 38.6651 33.1106L32.3642 34.3468" fill="#E5FBFF"/>
<path d="M41.4171 22.349C41.4121 22.2715 41.4103 22.2266 41.4103 22.1934C41.4103 21.4147 41.6788 20.9257 42.2495 20.4539C42.2999 20.4124 42.5024 20.2554 42.6646 20.1277C42.7633 19.7046 42.9518 19.3077 43.2174 18.9638C43.4829 18.62 43.8193 18.3372 44.2037 18.1348L45.3848 17.5099C46.197 17.0798 47.2062 17.3565 47.6823 18.1416C47.8557 18.427 47.9391 18.758 47.9219 19.0915H48.811C50.0967 19.0913 51.1415 20.1268 51.1415 21.4075C51.1415 22.6766 50.3444 23.8098 49.1465 24.2476L46.5126 25.2103L41.3216 32.364C41.3016 32.3914 41.2796 32.4174 41.2558 32.4416C40.5882 33.1192 39.7349 33.5839 38.8035 33.7771L32.495 35.015C32.4073 35.0321 32.317 35.0319 32.2295 35.0142C32.1419 34.9965 32.0586 34.9618 31.9844 34.9119C31.9103 34.8621 31.8467 34.7981 31.7972 34.7236C31.7478 34.6492 31.7135 34.5657 31.6963 34.4781C31.6791 34.3904 31.6794 34.3001 31.697 34.2125C31.7147 34.1249 31.7495 34.0417 31.7993 33.9675C31.8492 33.8934 31.9132 33.8297 31.9876 33.7803C32.0621 33.7309 32.1455 33.6966 32.2332 33.6794L38.5341 32.4436C39.1829 32.3077 39.779 31.9878 40.2509 31.5222L45.5327 24.2424C45.6123 24.1329 45.7227 24.0495 45.8498 24.0028L48.6795 22.9692C49.3418 22.7272 49.7805 22.1036 49.7805 21.4075C49.7805 20.8815 49.3479 20.4525 48.8112 20.4525H46.8782C46.2372 20.4525 45.9516 19.647 46.449 19.2433C46.5067 19.1969 46.5455 19.1312 46.5585 19.0583C46.5714 18.9855 46.5575 18.9104 46.5194 18.847C46.469 18.7658 46.3896 18.7067 46.2973 18.6817C46.2049 18.6568 46.1066 18.6679 46.0222 18.7127L44.8411 19.3377C44.6052 19.4613 44.4024 19.6396 44.2496 19.8577C44.0968 20.0759 43.9986 20.3274 43.963 20.5913C43.9401 20.7587 43.856 20.9117 43.7269 21.0207C43.5803 21.1437 43.1659 21.4633 43.1174 21.5032C42.8388 21.7332 42.7721 21.8557 42.7721 22.1934C42.7721 22.1932 42.7778 22.2892 42.786 22.4001L42.798 22.5659C42.8021 22.6203 42.8037 22.6471 42.8048 22.6648C42.8116 22.7849 42.7864 22.9047 42.7317 23.012C42.6771 23.1192 42.595 23.21 42.4938 23.2752L39.0345 25.5031C38.4324 25.8327 37.7901 25.9484 37.159 25.8592L32.2534 25.0456C32.1652 25.031 32.0808 24.9991 32.0049 24.9519C31.9291 24.9047 31.8632 24.8429 31.8112 24.7703C31.7062 24.6235 31.6637 24.441 31.6932 24.2629C31.7078 24.1747 31.7397 24.0903 31.7869 24.0144C31.8342 23.9386 31.8959 23.8727 31.9686 23.8207C32.1153 23.7157 32.2978 23.6732 32.4759 23.7028L37.3659 24.5139C37.6837 24.5588 38.0232 24.4998 38.3206 24.3438L41.4171 22.349Z" fill="#524F75"/>
<path d="M47.0616 20.8582L45.9245 20.96C45.7618 20.9746 45.6047 21.0268 45.4655 21.1125C45.3264 21.1981 45.2091 21.315 45.1228 21.4537C45.0366 21.5925 44.9837 21.7494 44.9685 21.912C44.9532 22.0747 44.976 22.2387 45.0349 22.3911C45.0976 22.5531 45.1945 22.6997 45.319 22.8208C45.4434 22.942 45.5926 23.0349 45.7562 23.0933C45.9198 23.1516 46.0941 23.174 46.2671 23.159C46.4402 23.1439 46.6079 23.0918 46.759 23.006L47.6287 22.5124C47.8048 22.4126 47.9403 22.254 48.0115 22.0644C48.0827 21.8748 48.0851 21.6663 48.0182 21.4752C47.9502 21.2805 47.8192 21.114 47.6459 21.0023C47.4726 20.8905 47.267 20.8398 47.0616 20.8582Z" fill="#94DBEB"/>
<path d="M14.8018 25.3898C13.3911 29.0195 12.7571 31.7051 12.2958 33.7471C11.9217 35.4031 11.7146 37.7238 11.6747 40.7096C11.5697 48.5667 17.741 55.0722 25.5787 55.3668L31.1491 55.5762C33.0233 55.6468 34.8887 55.286 36.6014 54.5217C42.7923 51.7593 45.5757 44.4922 42.8184 38.29C41.9081 36.2422 41.163 34.7276 40.5832 33.7471C39.6684 32.1999 37.8472 29.7519 35.1193 26.4032C34.5212 25.6692 33.8123 24.9003 32.9919 24.0959L32.7995 24.0683C36.2355 22.8994 38.6488 19.6122 38.6488 15.7386C38.6488 10.8026 34.6545 7.17628 30.6939 6.39258C27.8617 5.67263 24.5284 5.50024 20.695 5.87541C15.7617 6.3581 11.6733 9.92454 11.6733 14.9193C11.6733 17.6032 12.812 19.935 14.5418 21.7725C15.8372 23.1489 15.1123 24.5911 14.8018 25.3898Z" fill="#F1FDFF"/>
<path d="M35.647 25.9742C38.3946 29.3474 40.2319 31.8171 41.1689 33.4017C41.7648 34.4095 42.5201 35.9447 43.4404 38.0145C46.3497 44.5597 43.4125 52.2285 36.8785 55.144C35.0706 55.9509 33.1016 56.3317 31.1233 56.2573L25.5529 56.0479C17.346 55.7394 10.8843 48.9275 10.9941 40.7015C11.0347 37.6725 11.2456 35.3082 11.6319 33.5982C12.3512 30.4148 12.9843 28.1885 14.1674 25.1442C14.1849 25.0991 14.3114 24.7847 14.3486 24.6874C14.6921 23.7885 14.7165 23.1685 14.2906 22.5423C14.2172 22.4353 14.1355 22.3342 14.0463 22.2401C12.0892 20.1615 10.9927 17.6473 10.9927 14.9199C10.9927 9.73617 15.1536 5.73422 20.6293 5.1989C24.5285 4.81737 27.9334 4.99226 30.8443 5.72945C35.5009 6.65968 39.3298 10.8227 39.3298 15.7394C39.3298 19.4379 37.2675 22.7088 34.1143 24.2598C34.6852 24.8491 35.1961 25.4203 35.647 25.9742ZM32.5805 23.4246C35.7892 22.3331 37.9684 19.2696 37.9684 15.7392C37.9684 11.5002 34.6181 7.86324 30.5617 7.06071C27.776 6.35369 24.521 6.18538 20.7613 6.55307C15.9462 7.02442 12.3537 10.4802 12.3537 14.9199C12.3537 17.2825 13.3079 19.4703 15.0373 21.3067C15.1802 21.4585 15.3065 21.6152 15.4161 21.7765C16.1476 22.8521 16.1061 23.9005 15.62 25.1726C15.5774 25.284 15.449 25.6033 15.4358 25.6367C14.281 28.6084 13.6652 30.7739 12.9593 33.8976C12.5973 35.4994 12.3943 37.7773 12.3548 40.7192C12.2548 48.2071 18.1358 54.4068 25.6039 54.6874L31.1744 54.8967C32.9445 54.9632 34.7062 54.6224 36.3239 53.9005C42.1713 51.2913 44.8011 44.4258 42.1969 38.5666C41.2962 36.5406 40.5613 35.0469 39.9978 34.0933C39.1046 32.5831 37.2994 30.1567 34.592 26.8327C34.0492 26.1663 33.4096 25.4677 32.6733 24.7368C31.9925 24.6125 31.9132 23.6517 32.5805 23.4246Z" fill="#524F75"/>
<path d="M18.428 24.6008L13.5382 25.412C13.0527 25.4808 12.5579 25.3917 12.1269 25.1577L8.66775 22.9296C8.67092 22.8726 8.70132 22.4773 8.70132 22.4201C8.70132 21.4833 8.17213 21.2894 7.50434 20.7268C7.45405 20.3557 7.31577 20.002 7.10105 19.6951C6.88633 19.3883 6.60137 19.1372 6.26993 18.9628L5.08906 18.3379C4.59457 18.0763 3.98009 18.2446 3.69157 18.721C3.56799 18.9249 3.52249 19.1667 3.56349 19.4015C3.60449 19.6364 3.7292 19.8485 3.91454 19.9985H1.98082C1.06987 19.9983 0.331543 20.7307 0.331543 21.6339C0.331543 22.6165 0.949427 23.4951 1.87943 23.8348L4.7089 24.8687L10.0217 32.1906C10.5949 32.7724 11.3276 33.1714 12.1273 33.3372L18.4284 34.5734" fill="#F1FDFF"/>
<path d="M9.37531 22.5756C9.3803 22.498 9.38257 22.4531 9.38257 22.42C9.38257 21.6413 9.11378 21.1522 8.54285 20.6804C8.49272 20.6389 8.29016 20.482 8.12775 20.3543C8.02909 19.9312 7.8406 19.5342 7.57506 19.1904C7.30951 18.8465 6.97313 18.5638 6.58871 18.3613L5.40761 17.7364C4.59511 17.3064 3.58572 17.5831 3.11006 18.3681C2.93665 18.6535 2.85333 18.9846 2.87098 19.3181H1.98113C0.695689 19.3179 -0.348633 20.3534 -0.348633 21.634C-0.348633 22.9031 0.448445 24.0364 1.6461 24.4742L4.28027 25.4368L9.47126 32.5906C9.49122 32.618 9.51322 32.6439 9.53704 32.6681C10.2046 33.3457 11.0579 33.8104 11.9893 34.0037L18.2979 35.2415C18.475 35.2763 18.6586 35.2392 18.8084 35.1386C18.9582 35.0379 19.0619 34.8818 19.0966 34.7047C19.1314 34.5276 19.0944 34.344 18.9937 34.1942C18.893 34.0444 18.737 33.9407 18.5599 33.9059L12.2585 32.6697C11.6096 32.5337 11.0134 32.2139 10.5412 31.7484L5.25972 24.4694C5.18014 24.3598 5.06975 24.2765 4.94261 24.2299L2.11315 23.1958C1.4508 22.9537 1.01234 22.3302 1.01234 21.634C1.01234 21.108 1.44491 20.6791 1.98158 20.6791H3.91508C4.5561 20.6791 4.84145 19.8736 4.34378 19.4699C4.28612 19.4235 4.24726 19.3577 4.23441 19.2848C4.22156 19.212 4.2356 19.1369 4.27392 19.0736C4.32431 18.9923 4.4037 18.9332 4.49602 18.9083C4.58834 18.8834 4.68668 18.8945 4.77113 18.9393L5.95223 19.5642C6.18806 19.6879 6.39087 19.8663 6.5437 20.0844C6.69653 20.3025 6.79495 20.554 6.83074 20.8179C6.85342 20.9853 6.93758 21.1384 7.06687 21.2473C7.21295 21.3702 7.62759 21.6898 7.67613 21.7298C7.95445 21.9598 8.02159 22.0822 8.02159 22.42C8.02159 22.4198 8.01547 22.5157 8.00753 22.6266L7.99551 22.7924L7.9887 22.8913C7.98196 23.0115 8.00719 23.1313 8.06182 23.2385C8.11644 23.3457 8.19852 23.4366 8.29969 23.5017L11.7588 25.7297C12.3611 26.0592 13.0037 26.1749 13.634 26.0858L18.5397 25.2721C18.7177 25.2426 18.8768 25.1435 18.9818 24.9967C19.0868 24.8499 19.1292 24.6674 19.0997 24.4894C19.0702 24.3113 18.9711 24.1522 18.8243 24.0472C18.6775 23.9422 18.495 23.8998 18.3169 23.9293L13.4272 24.7405C13.099 24.7843 12.7654 24.7249 12.4727 24.5703L9.37531 22.5756Z" fill="#524F75"/>
<path d="M3.7306 21.0847L4.86746 21.1866C5.0302 21.2011 5.18732 21.2533 5.32644 21.339C5.46556 21.4247 5.58287 21.5415 5.66911 21.6802C5.75535 21.819 5.80817 21.9759 5.8234 22.1386C5.83863 22.3013 5.81585 22.4653 5.75686 22.6176C5.69414 22.7796 5.59724 22.9262 5.47276 23.0474C5.34827 23.1686 5.19913 23.2616 5.03549 23.3199C4.87185 23.3783 4.69755 23.4007 4.52447 23.3856C4.35139 23.3705 4.18359 23.3183 4.03251 23.2326L3.16284 22.739C2.98676 22.639 2.85134 22.4804 2.7802 22.2909C2.70907 22.1013 2.70673 21.8928 2.7736 21.7017C2.84174 21.507 2.97285 21.3407 3.14618 21.2289C3.31952 21.1172 3.52517 21.0664 3.7306 21.0847Z" fill="#94DBEB"/>
<path d="M29.3985 24.9639C30.3128 24.9639 31.2125 25.1938 32.0148 25.6324C32.8171 26.0709 33.4963 26.7041 33.99 27.4738L41.1564 38.6499C43.7409 42.6797 42.5689 48.0415 38.5386 50.6258C37.9754 50.9871 37.3722 51.2819 36.7412 51.5043L32.1595 53.1193C29.9147 53.9105 27.4532 52.7321 26.662 50.4872C26.4998 50.027 26.4168 49.5427 26.4168 49.0548V27.9458C26.4168 26.2986 27.7515 24.9639 29.3985 24.9639ZM27.9475 13.6766L32.2568 12.8802C34.3479 12.4937 36.356 13.8756 36.7423 15.9665C36.7768 16.1541 36.7977 16.3439 36.804 16.5345C36.8916 19.0858 35.0642 21.3026 32.5432 21.7041L31.9099 21.8051C30.6321 22.0086 29.3226 21.7974 28.1736 21.2023C27.0245 20.6072 26.0964 19.6595 25.5254 18.4984C24.7006 16.8212 25.3913 14.7926 27.0689 13.9679C27.3471 13.8311 27.6427 13.7331 27.9475 13.6766Z" fill="white"/>
<path d="M30.9455 14.5578L33.0541 14.1095C33.2397 14.0702 33.4322 14.0764 33.6149 14.1277C33.7976 14.1789 33.9651 14.2738 34.1032 14.404C34.2412 14.5343 34.3456 14.696 34.4074 14.8755C34.4692 15.0549 34.4865 15.2466 34.458 15.4342L34.4482 15.4982C34.3756 15.9725 34.1604 16.4135 33.831 16.7624C33.5017 17.1113 33.0739 17.3516 32.6045 17.4514C31.6509 17.6542 30.6742 17.2246 30.1793 16.3842L30.1579 16.3481C30.061 16.1835 30.0046 15.9982 29.9933 15.8075C29.9821 15.6168 30.0163 15.4261 30.0932 15.2513C30.1701 15.0764 30.2875 14.9223 30.4357 14.8017C30.5839 14.6811 30.7586 14.5975 30.9455 14.5578Z" fill="#DE915C"/>
<path d="M31.0761 15.2452C30.995 15.2638 30.9194 15.3015 30.8557 15.3551C30.7921 15.4088 30.7421 15.4768 30.7099 15.5535C30.6777 15.6303 30.6642 15.7136 30.6706 15.7966C30.6769 15.8796 30.703 15.9599 30.7465 16.0309L30.7685 16.0665C30.9424 16.3503 31.2012 16.5722 31.5081 16.701C31.8151 16.8297 32.1547 16.8586 32.479 16.7837C32.8118 16.707 33.1134 16.5307 33.3435 16.2782C33.5735 16.0258 33.7213 15.7093 33.767 15.3708L33.7754 15.3066C33.786 15.2277 33.7773 15.1473 33.75 15.0725C33.7228 14.9976 33.6778 14.9305 33.6189 14.8768C33.5601 14.8231 33.4891 14.7845 33.412 14.7643C33.335 14.7441 33.2542 14.7428 33.1765 14.7607L31.0761 15.2452ZM30.7699 13.9191L32.8703 13.4342C33.1625 13.3668 33.4667 13.3712 33.7568 13.4472C34.0469 13.5232 34.3142 13.6684 34.5359 13.8704C34.7575 14.0723 34.9269 14.3251 35.0294 14.6069C35.1319 14.8887 35.1646 15.1911 35.1245 15.4883L35.1161 15.5525C35.0335 16.1651 34.7663 16.7379 34.3499 17.1948C33.9336 17.6516 33.388 17.9708 32.7857 18.1098C32.1833 18.2488 31.5525 18.195 30.9824 17.956C30.4123 17.7169 29.9318 17.3047 29.6087 16.7776L29.587 16.742C29.4308 16.4871 29.3374 16.1987 29.3146 15.9007C29.2918 15.6026 29.3401 15.3034 29.4556 15.0277C29.5712 14.752 29.7506 14.5077 29.9791 14.3149C30.2076 14.1222 30.4786 13.9865 30.7699 13.9191Z" fill="#524F75"/>
<path d="M16.6829 9.73562L14.041 8.40595C13.5882 8.1033 13.2742 7.63319 13.1679 7.09901C13.0616 6.56483 13.1719 6.01032 13.4744 5.55742C13.5041 5.51296 14.1536 4.61472 14.1867 4.57276C14.5193 4.15079 15.0058 3.87819 15.5393 3.8149C16.0729 3.7516 16.6097 3.9028 17.0318 4.23524C17.0806 4.27357 17.1985 4.41761 17.2436 4.46025L18.956 6.84173" fill="#F4FDFF"/>
<path d="M14.0404 5.93673C14.0615 5.90543 14.7005 5.0217 14.7213 4.99517C14.9394 4.71843 15.2573 4.53826 15.6067 4.49334C15.9561 4.44843 16.3092 4.54236 16.5902 4.75495C16.5997 4.76493 16.6122 4.77854 16.6287 4.79737L16.6948 4.87132L16.7202 4.89899L18.4037 7.24032C18.5097 7.38522 18.6686 7.48236 18.8459 7.51059C19.0232 7.53881 19.2045 7.49584 19.3502 7.39103C19.496 7.28621 19.5944 7.12805 19.624 6.95099C19.6537 6.77393 19.6122 6.59233 19.5086 6.44574L17.7586 4.01163L17.7119 3.9674C17.6918 3.94308 17.6709 3.91947 17.6492 3.89663C17.559 3.79592 17.5179 3.75259 17.4528 3.70156C16.279 2.77678 14.5773 2.97865 13.6523 4.15272C13.6087 4.20807 12.9489 5.12038 12.9087 5.18049C12.0699 6.43599 12.4077 8.13403 13.6632 8.97284L13.6979 8.99621L16.3772 10.3443C16.5382 10.4238 16.7242 10.4364 16.8945 10.3794C17.0648 10.3223 17.2057 10.2003 17.2864 10.0399C17.3671 9.87941 17.3811 9.69356 17.3253 9.52283C17.2696 9.35211 17.1486 9.21034 16.9887 9.12845L14.3881 7.81987C14.0963 7.61313 13.8966 7.30066 13.8317 6.94895C13.7667 6.59724 13.8416 6.23407 14.0404 5.93673Z" fill="#524F75"/>
<path d="M16.887 5.95502L17.5353 6.68541C17.6816 6.85034 17.7679 7.05996 17.7799 7.28014C17.792 7.50032 17.7292 7.7181 17.6017 7.89804C17.4746 8.07746 17.29 8.20814 17.0785 8.26848C16.867 8.32881 16.6413 8.3152 16.4386 8.22989L15.5256 7.84564C15.3604 7.77613 15.2131 7.67029 15.0945 7.53599C14.9759 7.4017 14.8891 7.24239 14.8405 7.06993C14.792 6.89746 14.7829 6.71627 14.814 6.53982C14.8451 6.36337 14.9156 6.1962 15.0202 6.05074C15.125 5.90503 15.2613 5.78475 15.4188 5.69882C15.5764 5.61289 15.7513 5.5635 15.9306 5.5543C16.1099 5.54511 16.2889 5.57636 16.4544 5.64572C16.62 5.71508 16.7678 5.82079 16.887 5.95502Z" fill="#A6EFFF"/>
<path d="M23.1611 8.66055C23.1611 9.63061 23.497 10.5609 24.095 11.2469C24.6929 11.9328 25.5039 12.3182 26.3494 12.3182C27.195 12.3182 28.006 11.9328 28.6039 11.2469C29.2018 10.5609 29.5378 9.63061 29.5378 8.66055C29.5378 7.69049 29.2018 6.76016 28.6039 6.07422C28.006 5.38829 27.195 5.00293 26.3494 5.00293C25.5039 5.00293 24.6929 5.38829 24.095 6.07422C23.497 6.76016 23.1611 7.69049 23.1611 8.66055Z" fill="white"/>
<path d="M31.1387 7.83146C31.1387 8.64198 31.4272 9.41931 31.9408 9.99243C32.4544 10.5656 33.151 10.8875 33.8774 10.8875C34.6038 10.8875 35.3004 10.5656 35.814 9.99243C36.3276 9.41931 36.6161 8.64198 36.6161 7.83146C36.6161 7.02094 36.3276 6.24362 35.814 5.67049C35.3004 5.09737 34.6038 4.77539 33.8774 4.77539C33.151 4.77539 32.4544 5.09737 31.9408 5.67049C31.4272 6.24362 31.1387 7.02094 31.1387 7.83146Z" fill="white"/>
<path d="M33.7433 11.779C35.6138 11.779 37.078 10.0349 37.078 7.93676C37.078 5.83859 35.6138 4.09473 33.7433 4.09473C31.8731 4.09473 30.4092 5.83859 30.4092 7.93676C30.4092 10.0349 31.8731 11.779 33.7433 11.779ZM33.7433 10.418C32.6827 10.418 31.7704 9.33108 31.7704 7.93699C31.7704 6.54289 32.6831 5.4557 33.7433 5.4557C34.8042 5.4557 35.717 6.54267 35.717 7.93676C35.717 9.33085 34.8042 10.418 33.7433 10.418Z" fill="#524F75"/>
<path d="M33.4234 9.19154C33.2737 9.38639 33.0523 9.50956 32.8051 9.50956C32.3542 9.50956 31.9883 9.09854 31.9883 8.59181C31.9883 8.08507 32.3537 7.67383 32.8051 7.67383C33.2508 7.67383 33.6131 8.07486 33.6219 8.57321L33.0167 8.6721L33.4234 9.19154Z" fill="#232323"/>
<path d="M26.4326 13.1013C28.8174 13.1013 30.7267 11.0219 30.7267 8.48459C30.7267 5.94751 28.8174 3.86816 26.4326 3.86816C24.0477 3.86816 22.1387 5.94751 22.1387 8.48482C22.1389 11.0219 24.0477 13.1013 26.4326 13.1013ZM26.4326 11.7403C24.8264 11.7403 23.4996 10.2949 23.4996 8.48459C23.4996 6.67427 24.8264 5.22914 26.4326 5.22914C28.0387 5.22914 29.3657 6.67427 29.3657 8.48459C29.3657 10.2949 28.0387 11.7403 26.4326 11.7403Z" fill="#524F75"/>
<path d="M26.22 9.9303C26.0118 10.1941 25.704 10.3608 25.3603 10.3608C24.7332 10.3608 24.2246 9.80441 24.2246 9.11803C24.2246 8.43164 24.7332 7.875 25.3603 7.875C25.9798 7.875 26.4836 8.41803 26.4959 9.09285L25.6539 9.2269L26.22 9.9303Z" fill="#232323"/>
<path d="M24.2376 43.0674C25.5645 43.5614 27.119 44.3961 28.901 45.5727C31.6991 47.4202 33.1794 50.7415 32.6931 54.0824L32.5629 54.9775C30.0966 55.8211 27.726 56.2428 25.4516 56.2428C23.95 56.2428 22.0684 56.1053 19.8074 55.8297C16.5277 55.4298 13.8518 52.9896 13.1241 49.7355C12.7496 48.0608 13.0508 46.6202 13.8071 45.4747C14.4905 44.8391 14.9923 44.4129 15.3123 44.1961" fill="#E5FBFF"/>
<path d="M25.4514 55.5624C23.9806 55.5624 22.1254 55.4265 19.8895 55.1541C16.897 54.7898 14.4534 52.5614 13.7885 49.5868C13.475 48.1866 13.6774 46.9461 14.3325 45.916C14.9603 45.3347 15.4199 44.9456 15.6943 44.7594C15.8438 44.6581 15.9469 44.5017 15.9809 44.3244C16.015 44.1471 15.9772 43.9635 15.8759 43.8141C15.7746 43.6647 15.6181 43.5616 15.4409 43.5275C15.2636 43.4935 15.08 43.5313 14.9306 43.6325C14.574 43.8741 14.0512 44.3182 13.3437 44.9765L13.284 45.0318L13.2391 45.0997C12.3438 46.4556 12.0603 48.0979 12.4598 49.8839C13.2503 53.4189 16.1584 56.0705 19.7244 56.5051C22.0109 56.7839 23.9185 56.9234 25.4509 56.9234C27.8032 56.9234 30.2475 56.4883 32.7825 55.6214L33.1756 55.4866L33.3657 54.1803C33.8901 50.579 32.2942 46.998 29.2753 45.0048C27.4538 43.8022 25.8558 42.9439 24.4749 42.4299C24.391 42.3981 24.3017 42.3832 24.212 42.3861C24.1224 42.389 24.0342 42.4095 23.9525 42.4466C23.8708 42.4837 23.7973 42.5365 23.7361 42.6021C23.675 42.6677 23.6274 42.7448 23.5961 42.8289C23.5648 42.9129 23.5504 43.0023 23.5538 43.092C23.5572 43.1816 23.5783 43.2697 23.6158 43.3511C23.6534 43.4326 23.7067 43.5058 23.7726 43.5666C23.8386 43.6274 23.9159 43.6745 24.0001 43.7053C25.2729 44.1792 26.7838 44.9908 28.5261 46.1408C31.1033 47.8425 32.4679 50.9042 32.0195 53.9846L31.9496 54.4643C29.6936 55.1974 27.5278 55.5624 25.4514 55.5624Z" fill="#524F75"/>
<path d="M21.7896 42.7987C21.7895 42.9069 21.8106 43.0141 21.8516 43.1141C21.8927 43.2141 21.9528 43.3049 22.0286 43.3814C22.1045 43.458 22.1945 43.5187 22.2936 43.5601C22.3927 43.6015 22.4989 43.6228 22.6061 43.6228C22.7134 43.6228 22.8196 43.6015 22.9187 43.5601C23.0178 43.5187 23.1078 43.458 23.1836 43.3814C23.2595 43.3049 23.3196 43.2141 23.3606 43.1141C23.4017 43.0141 23.4228 42.9069 23.4227 42.7987C23.4228 42.6905 23.4017 42.5834 23.3606 42.4834C23.3196 42.3834 23.2595 42.2925 23.1836 42.216C23.1078 42.1395 23.0178 42.0788 22.9187 42.0373C22.8196 41.9959 22.7134 41.9746 22.6061 41.9746C22.4989 41.9746 22.3927 41.9959 22.2936 42.0373C22.1945 42.0788 22.1045 42.1395 22.0286 42.216C21.9528 42.2925 21.8927 42.3834 21.8516 42.4834C21.8106 42.5834 21.7895 42.6905 21.7896 42.7987Z" fill="#524F75"/>
<path d="M25.3555 47.751C27.5122 46.6093 29.1313 46.0579 30.2129 46.0956C31.2948 46.133 32.8715 46.7969 34.9427 48.0858L34.7862 52.5649C34.6941 55.2127 32.4725 57.2839 29.8252 57.1914C27.1777 57.0988 25.106 54.8777 25.1988 52.2302L25.3555 47.7512V47.751Z" fill="#F4FDFF"/>
<path d="M25.8789 52.1431C25.7995 54.4153 27.5771 56.3208 29.8486 56.4002C32.1205 56.4801 34.0268 54.7022 34.1062 52.4303L34.2491 48.3473C32.4367 47.2522 31.0676 46.6953 30.1889 46.6645C29.3101 46.6339 27.9049 47.0939 26.0209 48.0602L25.8789 52.1431ZM25.0369 47.0385C27.2904 45.8454 29.005 45.2609 30.2367 45.304C31.4677 45.3471 33.1376 46.0496 35.303 47.3969L35.6371 47.6049L35.4669 52.4777C35.3617 55.5009 32.8253 57.8665 29.8019 57.7605C26.7785 57.6551 24.4133 55.1187 24.519 52.0955L24.6892 47.2227L25.0369 47.0385Z" fill="#524F75"/>
<path d="M25.2549 50.6354L25.3781 47.1108C25.4094 46.2123 26.1198 45.5078 26.9649 45.537C27.8101 45.5665 28.4695 46.3189 28.4384 47.2176L28.4051 48.1664" fill="#F4FDFF"/>
<path d="M28.4048 48.1515L28.4903 45.6995C28.5243 44.7291 29.328 43.9697 30.2857 44.003C31.2433 44.0364 31.9921 44.85 31.9578 45.8204L31.8721 48.2724M31.8698 48.3531L31.9102 47.2088C31.9392 46.382 32.6474 45.7358 33.4921 45.7652C34.3375 45.795 34.9987 46.4888 34.9699 47.3154L34.8565 50.5584" fill="#F4FDFF"/>
<path d="M25.9502 50.5497L26.0734 47.025C26.092 46.4931 26.4969 46.0916 26.9565 46.1079C27.4162 46.1238 27.7921 46.5525 27.7735 47.0844L27.7404 48.033C27.7357 48.2124 27.802 48.3863 27.9249 48.517C28.0478 48.6477 28.2173 48.7246 28.3966 48.7309C28.5759 48.7372 28.7504 48.6725 28.8822 48.5508C29.014 48.4292 29.0925 48.2604 29.1004 48.0811L29.1338 47.1319C29.1778 45.8666 28.2344 44.7905 27.0039 44.7474C25.774 44.7043 24.7573 45.7124 24.7133 46.9772L24.5904 50.5021C24.5879 50.6801 24.6552 50.8519 24.778 50.9809C24.9007 51.1098 25.0691 51.1855 25.247 51.1917C25.4249 51.1979 25.5981 51.1342 25.7296 51.0142C25.8611 50.8942 25.9403 50.7274 25.9502 50.5497Z" fill="#524F75"/>
<path d="M29.1523 48.1749L29.238 45.7228C29.2587 45.1263 29.7491 44.6624 30.3295 44.6828C30.9093 44.703 31.3666 45.1998 31.3457 45.7966L31.26 48.2481C31.2536 48.4285 31.3193 48.604 31.4423 48.7361C31.5654 48.8681 31.7359 48.9458 31.9163 48.9521C32.0967 48.9584 32.2722 48.8928 32.4042 48.7697C32.5362 48.6467 32.6139 48.4762 32.6203 48.2958L32.706 45.844C32.753 44.5 31.7125 43.369 30.3769 43.3228C29.0418 43.2763 27.9249 44.3317 27.8777 45.6754L27.7922 48.1272C27.7878 48.3064 27.8543 48.4801 27.9772 48.6106C28.1001 48.7411 28.2695 48.8178 28.4487 48.8241C28.6278 48.8303 28.8022 48.7657 28.9339 48.6441C29.0657 48.5226 29.1441 48.3539 29.1523 48.1749Z" fill="#524F75"/>
<path d="M32.5541 48.4953L32.594 47.3507C32.6099 46.9032 33.0001 46.5475 33.4728 46.5638C33.9457 46.5802 34.3098 46.9624 34.2943 47.4101L34.1809 50.6531C34.1765 50.8323 34.243 51.006 34.3659 51.1365C34.4888 51.267 34.6582 51.3437 34.8374 51.3499C35.0165 51.3562 35.1909 51.2915 35.3227 51.17C35.4544 51.0484 35.5329 50.8798 35.541 50.7007L35.6542 47.4575C35.6964 46.2519 34.7373 45.246 33.5202 45.2035C32.3023 45.1611 31.2761 46.0975 31.2342 47.3035L31.1943 48.4479C31.188 48.6283 31.2535 48.8038 31.3766 48.9358C31.4997 49.0678 31.6701 49.1456 31.8505 49.152C32.0308 49.1578 32.2061 49.092 32.3379 48.969C32.4698 48.8459 32.5475 48.6756 32.5541 48.4953Z" fill="#524F75"/>
<path d="M30.2959 49.5736C31.479 49.6151 32.4045 50.6073 32.3632 51.7902L32.3258 52.864C32.2845 54.0471 31.2916 54.9724 30.109 54.9311C28.9258 54.8898 28.0006 53.897 28.0419 52.7143L28.0793 51.6402C28.1203 50.4578 29.1127 49.5321 30.2959 49.5736Z" fill="#94DBEB"/>
<path d="M33.0239 23.29C32.6079 23.4397 32.2232 23.5522 31.9669 23.6076C31.4048 23.7289 30.916 23.853 30.0965 23.7918C29.9178 23.7807 29.742 23.8405 29.6071 23.9582C29.4722 24.0759 29.3892 24.242 29.3759 24.4205C29.3626 24.599 29.4202 24.7755 29.5362 24.9119C29.6522 25.0482 29.8172 25.1334 29.9955 25.1489C30.9348 25.219 31.5497 25.2081 32.2686 25.0527C32.5913 24.9831 32.9838 24.864 33.4522 24.6957C33.6219 24.6346 33.7605 24.5085 33.8374 24.3453C33.9142 24.182 33.9231 23.9949 33.862 23.8251C33.735 23.4715 33.3778 23.1626 33.0239 23.29Z" fill="#524F75"/>
<path d="M27.0972 24.3964C27.0972 24.607 27.1808 24.8089 27.3297 24.9578C27.4786 25.1067 27.6805 25.1903 27.8911 25.1903C28.1016 25.1903 28.3036 25.1067 28.4524 24.9578C28.6013 24.8089 28.685 24.607 28.685 24.3964C28.685 24.1859 28.6013 23.984 28.4524 23.8351C28.3036 23.6862 28.1016 23.6025 27.8911 23.6025C27.6805 23.6025 27.4786 23.6862 27.3297 23.8351C27.1808 23.984 27.0972 24.1859 27.0972 24.3964Z" fill="#524F75"/>
</g>
<defs>
<clipPath id="clip0_2087_3">
<rect width="56" height="58" fill="white"/>
</clipPath>
</defs>
</svg>
