<svg width="36" height="36" viewBox="0 0 36 36" fill="none" xmlns="http://www.w3.org/2000/svg">
<g opacity="0.34">
<path d="M18 22.5C20.4854 22.5 22.5 20.4854 22.5 18C22.5 15.5146 20.4854 13.5 18 13.5C15.5146 13.5 13.5 15.5146 13.5 18C13.5 20.4854 15.5146 22.5 18 22.5Z" fill="#1F1F1F"/>
<path fill-rule="evenodd" clip-rule="evenodd" d="M18 4.5C18.8285 4.5 19.5 5.17158 19.5 6V7.60633C24.0986 8.2641 27.7359 11.9015 28.3937 16.5H30C30.8284 16.5 31.5 17.1715 31.5 18C31.5 18.8285 30.8284 19.5 30 19.5H28.3937C27.7359 24.0986 24.0986 27.7359 19.5 28.3937V30C19.5 30.8284 18.8285 31.5 18 31.5C17.1715 31.5 16.5 30.8284 16.5 30V28.3937C11.9015 27.7359 8.2641 24.0986 7.60633 19.5H6C5.17158 19.5 4.5 18.8285 4.5 18C4.5 17.1715 5.17158 16.5 6 16.5H7.60633C8.2641 11.9015 11.9015 8.2641 16.5 7.60633V6C16.5 5.17158 17.1715 4.5 18 4.5ZM10.5 18C10.5 13.8579 13.8579 10.5 18 10.5C22.1421 10.5 25.5 13.8579 25.5 18C25.5 22.1421 22.1421 25.5 18 25.5C13.8579 25.5 10.5 22.1421 10.5 18Z" fill="#1F1F1F"/>
</g>
</svg>
