<svg width="30" height="30" viewBox="0 0 30 30" fill="none" xmlns="http://www.w3.org/2000/svg">
<g opacity="0.38">
<path d="M14.9932 12.502V17.4992" stroke="#1C1C1C" stroke-width="2.1238" stroke-linecap="round"/>
<path d="M17.4914 15H12.4941" stroke="#1C1C1C" stroke-width="2.1238" stroke-linecap="round"/>
<path d="M26.0559 15.0006V8.13774C26.0559 5.6109 24.0074 3.5625 21.4807 3.5625H8.12994C5.6031 3.5625 3.55469 5.6109 3.55469 8.13774V21.8635C3.55469 24.3903 5.6031 26.4386 8.12994 26.4386H14.8053" stroke="#1C1C1C" stroke-width="2.1238" stroke-linecap="round"/>
<path d="M25.981 19.8534L23.5396 17.3714C23.292 17.1197 22.8905 17.1197 22.6429 17.3714L17.9475 22.1451C17.8115 22.2833 17.7446 22.4767 17.7655 22.6711L18.0341 25.1654C18.0502 25.3157 18.1668 25.4343 18.3147 25.4507L20.7682 25.7237C20.9592 25.7449 21.1496 25.6769 21.2855 25.5388L25.981 20.7651C26.2286 20.5133 26.2286 20.1052 25.981 19.8534Z" stroke="#DF1463" stroke-width="2.1238" stroke-linecap="round"/>
</g>
</svg>
