<svg width="64" height="62" viewBox="0 0 64 62" fill="none" xmlns="http://www.w3.org/2000/svg">
<g clip-path="url(#clip0_2087_295)">
<path d="M10.6831 50.0176C12.9333 53.8061 12.7883 55.9213 11.8873 57.4276C10.9864 58.934 10.6198 60.7629 12.287 61.071C13.9542 61.379 18.3046 60.5447 19.8729 58.156C21.4412 55.7675 20.5395 53.0063 23.6126 50.948" fill="#54C6D5"/>
<path d="M11.2679 49.6702C13.4003 53.2605 13.6782 55.7594 12.471 57.7773C12.0468 58.4864 11.8011 59.1921 11.8043 59.6947C11.807 60.1207 11.9617 60.3189 12.4104 60.4017C13.176 60.5433 14.595 60.3895 15.9129 59.9755C17.461 59.4892 18.6865 58.723 19.304 57.7825C19.7152 57.156 19.9418 56.5341 20.221 55.419C20.2399 55.3437 20.2533 55.2901 20.2895 55.1429C20.5874 53.9373 20.7595 53.3864 21.1095 52.709C21.5804 51.7976 22.2571 51.0366 23.2336 50.3827C23.3835 50.2833 23.5667 50.2473 23.7431 50.2827C23.9195 50.318 24.0748 50.4217 24.1749 50.5712C24.275 50.7207 24.3119 50.9037 24.2774 51.0803C24.2429 51.2568 24.1399 51.4126 23.9909 51.5134C22.5846 52.4552 22.1452 53.3056 21.6108 55.4693C21.5741 55.6177 21.5607 55.6723 21.5412 55.7495C21.2277 57.0013 20.9569 57.7442 20.4413 58.5293C19.6238 59.7745 18.141 60.7018 16.3205 61.2739C14.8069 61.7493 13.1716 61.9263 12.1629 61.74C11.0519 61.5347 10.4497 60.7633 10.4431 59.7029C10.4384 58.913 10.762 57.9824 11.303 57.0785C12.2185 55.5483 11.9978 53.5646 10.0979 50.3652C10.0508 50.2884 10.0194 50.2029 10.0056 50.1138C9.99178 50.0247 9.99581 49.9337 10.0175 49.8462C10.0391 49.7587 10.0779 49.6764 10.1317 49.604C10.1854 49.5316 10.253 49.4706 10.3305 49.4245C10.408 49.3785 10.4939 49.3483 10.5832 49.3357C10.6725 49.3232 10.7634 49.3285 10.8506 49.3513C10.9378 49.3742 11.0196 49.4142 11.0912 49.4689C11.1629 49.5236 11.2229 49.5921 11.2679 49.6702Z" fill="#524F75"/>
<path d="M56.6083 42.8858C54.8828 49.3089 48.5475 57.5353 34.1434 57.9566H22.9509C16.8005 57.9566 11.879 56.1059 8.81336 52.7969C8.18708 52.1212 7.0958 50.4655 6.73356 49.377C6.37131 48.2884 6.17125 47.6372 6.46839 46.841C5.73256 46.325 4.50609 45.3174 4.02522 43.9315C3.48582 42.3766 3.67363 40.9523 3.72444 40.1979C3.77525 39.4434 3.83967 38.4726 4.02522 37.4535C5.49734 29.365 13.0362 23.4785 21.5156 23.4785H23.7233C30.8562 23.4785 38.9231 29.9159 40.4027 38.6901C40.5738 39.7061 41.3246 43.6758 41.9853 44.4083C44.0558 46.7049 48.812 46.8807 51.0989 44.8014C51.4164 44.5124 51.8438 44.0993 52.3807 43.5624C52.6073 43.3357 52.7698 43.053 52.8518 42.7431C52.9337 42.4331 52.9322 42.107 52.8473 41.7979C52.7323 41.3797 52.634 41.0805 52.5528 40.8999C52.4056 40.5951 52.1842 39.6589 51.2631 38.7677C50.3422 37.8763 47.3303 36.4815 47.9187 36.0428C48.0135 35.972 48.4724 35.6926 49.2357 35.5408C52.4181 34.9071 54.2339 37.206 54.8828 38.0913C54.9536 38.1879 55.0219 38.2841 55.0879 38.3794C55.1523 38.2839 55.2194 38.1857 55.2891 38.0845C55.8788 37.2275 57.8357 35.003 60.9634 35.5567C61.6108 35.671 62.1985 35.9689 62.3249 36.043C62.9838 36.4305 59.1214 38.7679 58.4763 39.5022C57.8312 40.2364 57.0429 41.2916 56.6083 42.8858Z" fill="#6ED8E6"/>
<path d="M56.6085 42.8855C57.0431 41.2915 57.8314 40.2361 58.4762 39.5018C59.1211 38.7676 62.9838 36.4301 62.3248 36.0427C62.1985 35.9685 61.6108 35.6707 60.9634 35.5564C57.8357 35.0027 55.8788 37.2272 55.2891 38.0842C55.2194 38.1851 54.9536 38.1876 54.8828 38.091C54.2341 37.2059 52.4183 34.9067 49.2357 35.5405C48.4726 35.6922 48.0135 35.9719 47.9187 36.0425C47.3303 36.4812 50.3424 37.8759 51.2631 38.7674C52.1842 39.6588 52.4054 40.5949 52.5528 40.8996C52.6338 41.0801 52.7322 41.3793 52.8472 41.7976C52.9323 42.1067 52.9339 42.4328 52.8519 42.7428C52.77 43.0527 52.6074 43.3354 52.3806 43.5621C51.8437 44.099 51.4164 44.512 51.0988 44.801C48.8119 46.8804 44.0558 46.7046 41.9853 44.4079C41.3248 43.6755 40.5737 39.7058 40.4027 38.6898C38.9233 29.9156 30.8564 23.4782 23.7235 23.4782H21.5158C13.0364 23.4782 5.49753 29.3646 4.02541 37.4531C3.84009 38.472 3.77567 39.4429 3.72463 40.1975C3.67359 40.9522 3.48578 42.376 4.02541 43.9311C4.50628 45.3171 5.73298 46.3246 6.46858 46.8407C6.17144 47.6368 6.37173 48.2881 6.73375 49.3766C7.09577 50.4652 8.18727 52.1208 8.81355 52.7965C11.8794 56.1055 16.8007 57.9562 22.9511 57.9562H34.1433C48.5477 57.535 54.8828 49.3086 56.6085 42.8855ZM55.0423 36.5921L55.0881 38.3788C55.2995 37.153 55.3008 36.4312 55.0922 36.2142C54.7322 36.5692 55.1092 36.4927 55.0423 36.5921ZM2.73951 44.3773C2.29175 43.0866 2.22484 41.9652 2.33644 40.501C2.33439 40.5278 2.36161 40.1791 2.3666 40.1059C2.45484 38.7973 2.52266 38.1084 2.68621 37.2095C4.26857 28.5156 12.3319 22.1172 21.5158 22.1172H23.7235C31.8848 22.1172 40.2178 29.4073 41.7448 38.4634C42.0806 40.4552 42.7465 43.2198 42.996 43.4965C44.5494 45.2195 48.4404 45.379 50.1833 43.7941C50.4823 43.5222 50.8958 43.1229 51.4184 42.5999C51.4752 42.5432 51.5158 42.4725 51.5364 42.395C51.5569 42.3175 51.5565 42.236 51.5353 42.1587C51.4373 41.803 51.3574 41.5592 51.3118 41.4578C51.2472 41.3072 51.0723 40.8544 51.0042 40.7099C50.8366 40.3487 50.6037 40.0216 50.3172 39.745C50.1403 39.5735 49.7712 39.3174 49.0717 38.8758C48.0416 38.2268 47.7604 38.0417 47.4106 37.7614C47.1026 37.5144 46.8766 37.2853 46.7104 36.9988C46.3243 36.3324 46.4046 35.474 47.106 34.9514C47.4913 34.664 48.1714 34.3648 48.9705 34.2058C50.7627 33.8488 52.3713 34.2081 53.7514 35.105C54.2401 35.4213 54.6901 35.7936 55.0924 36.2144C55.5055 35.8057 55.9626 35.444 56.4554 35.1361C57.8445 34.2712 59.4475 33.906 61.2011 34.2163C61.8873 34.3378 62.5939 34.6218 63.0151 34.8695C63.824 35.3452 63.9276 36.2266 63.5738 36.921C63.4311 37.2009 63.2278 37.4429 62.9486 37.7103C62.5939 38.051 62.1211 38.4262 61.4128 38.9497L61.1982 39.1076C59.758 40.163 59.607 40.2774 59.4995 40.3999C58.7348 41.2704 58.2301 42.1135 57.9221 43.2432C56.8778 47.1317 54.5112 50.8787 50.987 53.7295C46.7789 57.1333 41.1519 59.1126 34.1839 59.3163L22.9511 59.3172C16.5012 59.3172 11.1891 57.3633 7.81504 53.7215C6.976 52.8158 5.83709 50.9932 5.44218 49.8062C5.08016 48.7179 4.91185 48.0413 4.95405 47.3973C3.94307 46.5589 3.15574 45.5772 2.73951 44.3773Z" fill="#524F75"/>
<path d="M4.78564 41.1707C4.78564 41.3512 4.85734 41.5243 4.98495 41.6519C5.11257 41.7795 5.28566 41.8512 5.46613 41.8512C5.64661 41.8512 5.81969 41.7795 5.94731 41.6519C6.07493 41.5243 6.14662 41.3512 6.14662 41.1707C6.14662 40.9902 6.07493 40.8172 5.94731 40.6895C5.81969 40.5619 5.64661 40.4902 5.46613 40.4902C5.28566 40.4902 5.11257 40.5619 4.98495 40.6895C4.85734 40.8172 4.78564 40.9902 4.78564 41.1707Z" fill="#646092"/>
<path d="M23.8394 25.7469C23.8394 25.9274 23.9111 26.1005 24.0387 26.2281C24.1663 26.3557 24.3394 26.4274 24.5198 26.4274C24.7003 26.4274 24.8734 26.3557 25.001 26.2281C25.1286 26.1005 25.2003 25.9274 25.2003 25.7469C25.2003 25.5664 25.1286 25.3933 25.001 25.2657C24.8734 25.1381 24.7003 25.0664 24.5198 25.0664C24.3394 25.0664 24.1663 25.1381 24.0387 25.2657C23.9111 25.3933 23.8394 25.5664 23.8394 25.7469Z" fill="#646092"/>
<path d="M28.8296 30.5098C28.8296 30.5992 28.8471 30.6877 28.8813 30.7703C28.9155 30.8529 28.9656 30.928 29.0288 30.9912C29.092 31.0544 29.167 31.1045 29.2496 31.1388C29.3322 31.173 29.4207 31.1906 29.5101 31.1906C29.5995 31.1906 29.688 31.173 29.7705 31.1388C29.8531 31.1045 29.9282 31.0544 29.9913 30.9912C30.0545 30.928 30.1047 30.8529 30.1388 30.7703C30.173 30.6877 30.1906 30.5992 30.1906 30.5098C30.1906 30.4205 30.173 30.3319 30.1388 30.2494C30.1047 30.1668 30.0545 30.0917 29.9913 30.0285C29.9282 29.9653 29.8531 29.9151 29.7705 29.8809C29.688 29.8467 29.5995 29.8291 29.5101 29.8291C29.4207 29.8291 29.3322 29.8467 29.2496 29.8809C29.167 29.9151 29.092 29.9653 29.0288 30.0285C28.9656 30.0917 28.9155 30.1668 28.8813 30.2494C28.8471 30.3319 28.8296 30.4205 28.8296 30.5098Z" fill="#646092"/>
<path d="M28.6025 27.3345C28.6025 27.4548 28.6503 27.5702 28.7354 27.6553C28.8205 27.7404 28.9359 27.7882 29.0562 27.7882C29.1765 27.7882 29.2919 27.7404 29.377 27.6553C29.4621 27.5702 29.5099 27.4548 29.5099 27.3345C29.5099 27.2142 29.4621 27.0988 29.377 27.0137C29.2919 26.9287 29.1765 26.8809 29.0562 26.8809C28.9359 26.8809 28.8205 26.9287 28.7354 27.0137C28.6503 27.0988 28.6025 27.2142 28.6025 27.3345Z" fill="#646092"/>
<path d="M33.3662 32.3248C33.3662 32.4451 33.414 32.5605 33.4991 32.6455C33.5842 32.7306 33.6996 32.7784 33.8199 32.7784C33.9402 32.7784 34.0556 32.7306 34.1407 32.6455C34.2257 32.5605 34.2735 32.4451 34.2735 32.3248C34.2735 32.2044 34.2257 32.089 34.1407 32.004C34.0556 31.9189 33.9402 31.8711 33.8199 31.8711C33.6996 31.8711 33.5842 31.9189 33.4991 32.004C33.414 32.089 33.3662 32.2044 33.3662 32.3248Z" fill="#646092"/>
<path d="M21.3442 24.6128C21.3442 24.7332 21.392 24.8485 21.4771 24.9336C21.5622 25.0187 21.6776 25.0665 21.7979 25.0665C21.9182 25.0665 22.0336 25.0187 22.1187 24.9336C22.2038 24.8485 22.2516 24.7332 22.2516 24.6128C22.2516 24.4925 22.2038 24.3771 22.1187 24.2921C22.0336 24.207 21.9182 24.1592 21.7979 24.1592C21.6776 24.1592 21.5622 24.207 21.4771 24.2921C21.392 24.3771 21.3442 24.4925 21.3442 24.6128Z" fill="#646092"/>
<path d="M35.4072 31.9841C35.4072 32.1345 35.467 32.2787 35.5733 32.385C35.6797 32.4914 35.8239 32.5511 35.9743 32.5511C36.1247 32.5511 36.2689 32.4914 36.3753 32.385C36.4816 32.2787 36.5414 32.1345 36.5414 31.9841C36.5414 31.8337 36.4816 31.6894 36.3753 31.5831C36.2689 31.4767 36.1247 31.417 35.9743 31.417C35.8239 31.417 35.6797 31.4767 35.5733 31.5831C35.467 31.6894 35.4072 31.8337 35.4072 31.9841Z" fill="#646092"/>
<path d="M36.9951 35.8405C36.9951 35.9909 37.0549 36.1351 37.1612 36.2415C37.2676 36.3478 37.4118 36.4076 37.5622 36.4076C37.7126 36.4076 37.8568 36.3478 37.9632 36.2415C38.0695 36.1351 38.1293 35.9909 38.1293 35.8405C38.1293 35.6901 38.0695 35.5459 37.9632 35.4395C37.8568 35.3332 37.7126 35.2734 37.5622 35.2734C37.4118 35.2734 37.2676 35.3332 37.1612 35.4395C37.0549 35.5459 36.9951 35.6901 36.9951 35.8405Z" fill="#646092"/>
<path d="M51.9658 44.9135C51.9658 45.0037 52.0017 45.0903 52.0655 45.1541C52.1293 45.2179 52.2158 45.2537 52.3061 45.2537C52.3963 45.2537 52.4828 45.2179 52.5467 45.1541C52.6105 45.0903 52.6463 45.0037 52.6463 44.9135C52.6463 44.8232 52.6105 44.7367 52.5467 44.6729C52.4828 44.6091 52.3963 44.5732 52.3061 44.5732C52.2158 44.5732 52.1293 44.6091 52.0655 44.6729C52.0017 44.7367 51.9658 44.8232 51.9658 44.9135Z" fill="#646092"/>
<path d="M38.583 41.0573C38.583 41.1318 38.5977 41.2055 38.6262 41.2743C38.6547 41.3431 38.6964 41.4056 38.7491 41.4583C38.8018 41.5109 38.8643 41.5527 38.9331 41.5812C39.0019 41.6097 39.0756 41.6244 39.1501 41.6244C39.2245 41.6244 39.2983 41.6097 39.3671 41.5812C39.4359 41.5527 39.4984 41.5109 39.5511 41.4583C39.6037 41.4056 39.6455 41.3431 39.674 41.2743C39.7025 41.2055 39.7172 41.1318 39.7172 41.0573C39.7172 40.9828 39.7025 40.9091 39.674 40.8403C39.6455 40.7715 39.6037 40.709 39.5511 40.6563C39.4984 40.6037 39.4359 40.5619 39.3671 40.5334C39.2983 40.5049 39.2245 40.4902 39.1501 40.4902C39.0756 40.4902 39.0019 40.5049 38.9331 40.5334C38.8643 40.5619 38.8018 40.6037 38.7491 40.6563C38.6964 40.709 38.6547 40.7715 38.6262 40.8403C38.5977 40.9091 38.583 40.9828 38.583 41.0573Z" fill="#646092"/>
<path d="M14.7661 26.2007C14.7661 26.321 14.8139 26.4364 14.899 26.5215C14.9841 26.6066 15.0995 26.6544 15.2198 26.6544C15.3401 26.6544 15.4555 26.6066 15.5406 26.5215C15.6256 26.4364 15.6734 26.321 15.6734 26.2007C15.6734 26.0804 15.6256 25.965 15.5406 25.8799C15.4555 25.7949 15.3401 25.7471 15.2198 25.7471C15.0995 25.7471 14.9841 25.7949 14.899 25.8799C14.8139 25.965 14.7661 26.0804 14.7661 26.2007Z" fill="#646092"/>
<path d="M7.50732 43.6665C7.50732 43.7261 7.51906 43.7851 7.54186 43.8402C7.56466 43.8952 7.59807 43.9452 7.6402 43.9873C7.68232 44.0295 7.73233 44.0629 7.78738 44.0857C7.84242 44.1085 7.90141 44.1202 7.96098 44.1202C8.02056 44.1202 8.07955 44.1085 8.13459 44.0857C8.18963 44.0629 8.23964 44.0295 8.28177 43.9873C8.32389 43.9452 8.35731 43.8952 8.38011 43.8402C8.40291 43.7851 8.41464 43.7261 8.41464 43.6665C8.41464 43.607 8.40291 43.548 8.38011 43.4929C8.35731 43.4379 8.32389 43.3879 8.28177 43.3458C8.23964 43.3036 8.18963 43.2702 8.13459 43.2474C8.07955 43.2246 8.02056 43.2129 7.96098 43.2129C7.90141 43.2129 7.84242 43.2246 7.78738 43.2474C7.73233 43.2702 7.68232 43.3036 7.6402 43.3458C7.59807 43.3879 7.56466 43.4379 7.54186 43.4929C7.51906 43.548 7.50732 43.607 7.50732 43.6665Z" fill="#646092"/>
<path d="M40.1709 44.5738C40.1709 44.6334 40.1826 44.6923 40.2054 44.7474C40.2282 44.8024 40.2616 44.8524 40.3038 44.8946C40.3459 44.9367 40.3959 44.9701 40.4509 44.9929C40.506 45.0157 40.565 45.0274 40.6246 45.0274C40.6841 45.0274 40.7431 45.0157 40.7982 44.9929C40.8532 44.9701 40.9032 44.9367 40.9453 44.8946C40.9875 44.8524 41.0209 44.8024 41.0437 44.7474C41.0665 44.6923 41.0782 44.6334 41.0782 44.5738C41.0782 44.5142 41.0665 44.4552 41.0437 44.4002C41.0209 44.3451 40.9875 44.2951 40.9453 44.253C40.9032 44.2109 40.8532 44.1775 40.7982 44.1547C40.7431 44.1319 40.6841 44.1201 40.6246 44.1201C40.565 44.1201 40.506 44.1319 40.4509 44.1547C40.3959 44.1775 40.3459 44.2109 40.3038 44.253C40.2616 44.2951 40.2282 44.3451 40.2054 44.4002C40.1826 44.4552 40.1709 44.5142 40.1709 44.5738Z" fill="#646092"/>
<path d="M47.2026 47.522C47.2026 47.5816 47.2144 47.6406 47.2372 47.6956C47.26 47.7507 47.2934 47.8007 47.3355 47.8428C47.3776 47.8849 47.4276 47.9183 47.4827 47.9411C47.5377 47.9639 47.5967 47.9757 47.6563 47.9757C47.7159 47.9757 47.7749 47.9639 47.8299 47.9411C47.8849 47.9183 47.935 47.8849 47.9771 47.8428C48.0192 47.8007 48.0526 47.7507 48.0754 47.6956C48.0982 47.6406 48.11 47.5816 48.11 47.522C48.11 47.4624 48.0982 47.4034 48.0754 47.3484C48.0526 47.2934 48.0192 47.2434 47.9771 47.2012C47.935 47.1591 47.8849 47.1257 47.8299 47.1029C47.7749 47.0801 47.7159 47.0684 47.6563 47.0684C47.5967 47.0684 47.5377 47.0801 47.4827 47.1029C47.4276 47.1257 47.3776 47.1591 47.3355 47.2012C47.2934 47.2434 47.26 47.2934 47.2372 47.3484C47.2144 47.4034 47.2026 47.4624 47.2026 47.522Z" fill="#646092"/>
<path d="M5.23926 37.7681C5.23926 37.8884 5.28705 38.0038 5.37213 38.0889C5.45721 38.174 5.5726 38.2218 5.69292 38.2218C5.81323 38.2218 5.92862 38.174 6.0137 38.0889C6.09878 38.0038 6.14657 37.8884 6.14657 37.7681C6.14657 37.6478 6.09878 37.5324 6.0137 37.4473C5.92862 37.3623 5.81323 37.3145 5.69292 37.3145C5.5726 37.3145 5.45721 37.3623 5.37213 37.4473C5.28705 37.5324 5.23926 37.6478 5.23926 37.7681Z" fill="#646092"/>
<path d="M4.78564 43.7797C4.78564 43.8699 4.82149 43.9565 4.8853 44.0203C4.94911 44.0841 5.03565 44.1199 5.12589 44.1199C5.21613 44.1199 5.30267 44.0841 5.36648 44.0203C5.43028 43.9565 5.46613 43.8699 5.46613 43.7797C5.46613 43.6895 5.43028 43.6029 5.36648 43.5391C5.30267 43.4753 5.21613 43.4395 5.12589 43.4395C5.03565 43.4395 4.94911 43.4753 4.8853 43.5391C4.82149 43.6029 4.78564 43.6895 4.78564 43.7797Z" fill="#646092"/>
<path d="M6.82715 33.1186C6.82715 33.2088 6.863 33.2953 6.9268 33.3592C6.99061 33.423 7.07715 33.4588 7.16739 33.4588C7.25763 33.4588 7.34417 33.423 7.40798 33.3592C7.47179 33.2953 7.50764 33.2088 7.50764 33.1186C7.50764 33.0283 7.47179 32.9418 7.40798 32.878C7.34417 32.8142 7.25763 32.7783 7.16739 32.7783C7.07715 32.7783 6.99061 32.8142 6.9268 32.878C6.863 32.9418 6.82715 33.0283 6.82715 33.1186Z" fill="#646092"/>
<path d="M10.2295 30.9641C10.2295 31.0243 10.2534 31.082 10.2959 31.1245C10.3385 31.1671 10.3962 31.191 10.4563 31.191C10.5165 31.191 10.5742 31.1671 10.6167 31.1245C10.6593 31.082 10.6832 31.0243 10.6832 30.9641C10.6832 30.904 10.6593 30.8463 10.6167 30.8037C10.5742 30.7612 10.5165 30.7373 10.4563 30.7373C10.3962 30.7373 10.3385 30.7612 10.2959 30.8037C10.2534 30.8463 10.2295 30.904 10.2295 30.9641Z" fill="#646092"/>
<path d="M8.86865 30.7366C8.86865 30.7968 8.89255 30.8544 8.93509 30.897C8.97763 30.9395 9.03532 30.9634 9.09548 30.9634C9.15564 30.9634 9.21334 30.9395 9.25587 30.897C9.29841 30.8544 9.32231 30.7968 9.32231 30.7366C9.32231 30.6764 9.29841 30.6187 9.25587 30.5762C9.21334 30.5337 9.15564 30.5098 9.09548 30.5098C9.03532 30.5098 8.97763 30.5337 8.93509 30.5762C8.89255 30.6187 8.86865 30.6764 8.86865 30.7366Z" fill="#646092"/>
<path d="M27.2417 26.427C27.2417 26.4872 27.2656 26.5449 27.3081 26.5874C27.3507 26.63 27.4084 26.6539 27.4685 26.6539C27.5287 26.6539 27.5864 26.63 27.6289 26.5874C27.6715 26.5449 27.6954 26.4872 27.6954 26.427C27.6954 26.3669 27.6715 26.3092 27.6289 26.2666C27.5864 26.2241 27.5287 26.2002 27.4685 26.2002C27.4084 26.2002 27.3507 26.2241 27.3081 26.2666C27.2656 26.3092 27.2417 26.3669 27.2417 26.427Z" fill="#646092"/>
<path d="M32.9121 30.2835C32.9121 30.3133 32.918 30.3428 32.9294 30.3703C32.9408 30.3978 32.9575 30.4228 32.9785 30.4439C32.9996 30.4649 33.0246 30.4816 33.0521 30.493C33.0797 30.5044 33.1092 30.5103 33.1389 30.5103C33.1687 30.5103 33.1982 30.5044 33.2257 30.493C33.2533 30.4816 33.2783 30.4649 33.2993 30.4439C33.3204 30.4228 33.3371 30.3978 33.3485 30.3703C33.3599 30.3428 33.3658 30.3133 33.3658 30.2835C33.3658 30.2537 33.3599 30.2242 33.3485 30.1967C33.3371 30.1691 33.3204 30.1441 33.2993 30.1231C33.2783 30.102 33.2533 30.0853 33.2257 30.0739C33.1982 30.0625 33.1687 30.0566 33.1389 30.0566C33.1092 30.0566 33.0797 30.0625 33.0521 30.0739C33.0246 30.0853 32.9996 30.102 32.9785 30.1231C32.9575 30.1441 32.9408 30.1691 32.9294 30.1967C32.918 30.2242 32.9121 30.2537 32.9121 30.2835Z" fill="#646092"/>
<path d="M36.7686 33.9124C36.7686 33.9725 36.7925 34.0302 36.835 34.0728C36.8775 34.1153 36.9352 34.1392 36.9954 34.1392C37.0555 34.1392 37.1132 34.1153 37.1558 34.0728C37.1983 34.0302 37.2222 33.9725 37.2222 33.9124C37.2222 33.8522 37.1983 33.7945 37.1558 33.752C37.1132 33.7094 37.0555 33.6855 36.9954 33.6855C36.9352 33.6855 36.8775 33.7094 36.835 33.752C36.7925 33.7945 36.7686 33.8522 36.7686 33.9124Z" fill="#646092"/>
<path d="M49.6978 46.6145C49.6978 46.6747 49.7217 46.7324 49.7642 46.7749C49.8067 46.8175 49.8644 46.8414 49.9246 46.8414C49.9847 46.8414 50.0424 46.8175 50.085 46.7749C50.1275 46.7324 50.1514 46.6747 50.1514 46.6145C50.1514 46.5544 50.1275 46.4967 50.085 46.4541C50.0424 46.4116 49.9847 46.3877 49.9246 46.3877C49.8644 46.3877 49.8067 46.4116 49.7642 46.4541C49.7217 46.4967 49.6978 46.5544 49.6978 46.6145Z" fill="#646092"/>
<path d="M39.0366 37.5414C39.0366 37.5712 39.0425 37.6007 39.0538 37.6283C39.0652 37.6558 39.0819 37.6808 39.103 37.7019C39.1241 37.723 39.1491 37.7397 39.1766 37.7511C39.2041 37.7625 39.2337 37.7684 39.2635 37.7684C39.2932 37.7684 39.3228 37.7625 39.3503 37.7511C39.3778 37.7397 39.4028 37.723 39.4239 37.7019C39.445 37.6808 39.4617 37.6558 39.4731 37.6283C39.4844 37.6007 39.4903 37.5712 39.4903 37.5414C39.4903 37.5116 39.4844 37.4821 39.4731 37.4546C39.4617 37.427 39.445 37.402 39.4239 37.3809C39.4028 37.3599 39.3778 37.3431 39.3503 37.3317C39.3228 37.3203 39.2932 37.3145 39.2635 37.3145C39.2337 37.3145 39.2041 37.3203 39.1766 37.3317C39.1491 37.3431 39.1241 37.3599 39.103 37.3809C39.0819 37.402 39.0652 37.427 39.0538 37.4546C39.0425 37.4821 39.0366 37.5116 39.0366 37.5414Z" fill="#646092"/>
<path d="M11.3638 29.3762C11.3638 29.4364 11.3877 29.4941 11.4302 29.5366C11.4727 29.5792 11.5304 29.6031 11.5906 29.6031C11.6508 29.6031 11.7085 29.5792 11.751 29.5366C11.7935 29.4941 11.8174 29.4364 11.8174 29.3762C11.8174 29.3161 11.7935 29.2584 11.751 29.2158C11.7085 29.1733 11.6508 29.1494 11.5906 29.1494C11.5304 29.1494 11.4727 29.1733 11.4302 29.2158C11.3877 29.2584 11.3638 29.3161 11.3638 29.3762Z" fill="#646092"/>
<path d="M12.9512 27.7884C12.9512 27.8181 12.957 27.8476 12.9684 27.8752C12.9798 27.9027 12.9965 27.9277 13.0176 27.9487C13.0387 27.9698 13.0637 27.9865 13.0912 27.9979C13.1187 28.0093 13.1482 28.0152 13.178 28.0152C13.2078 28.0152 13.2373 28.0093 13.2648 27.9979C13.2923 27.9865 13.3173 27.9698 13.3384 27.9487C13.3595 27.9277 13.3762 27.9027 13.3876 27.8752C13.399 27.8476 13.4048 27.8181 13.4048 27.7884C13.4048 27.7586 13.399 27.7291 13.3876 27.7016C13.3762 27.674 13.3595 27.649 13.3384 27.628C13.3173 27.6069 13.2923 27.5902 13.2648 27.5788C13.2373 27.5674 13.2078 27.5615 13.178 27.5615C13.1482 27.5615 13.1187 27.5674 13.0912 27.5788C13.0637 27.5902 13.0387 27.6069 13.0176 27.628C12.9965 27.649 12.9798 27.674 12.9684 27.7016C12.957 27.7291 12.9512 27.7586 12.9512 27.7884Z" fill="#646092"/>
<path d="M16.8076 27.1077C16.8076 27.1375 16.8135 27.167 16.8249 27.1945C16.8363 27.222 16.853 27.247 16.8741 27.2681C16.8951 27.2891 16.9201 27.3059 16.9476 27.3173C16.9752 27.3286 17.0047 27.3345 17.0344 27.3345C17.0642 27.3345 17.0937 27.3286 17.1213 27.3173C17.1488 27.3059 17.1738 27.2891 17.1948 27.2681C17.2159 27.247 17.2326 27.222 17.244 27.1945C17.2554 27.167 17.2613 27.1375 17.2613 27.1077C17.2613 27.0779 17.2554 27.0484 17.244 27.0209C17.2326 26.9934 17.2159 26.9684 17.1948 26.9473C17.1738 26.9262 17.1488 26.9095 17.1213 26.8981C17.0937 26.8867 17.0642 26.8809 17.0344 26.8809C17.0047 26.8809 16.9752 26.8867 16.9476 26.8981C16.9201 26.9095 16.8951 26.9262 16.8741 26.9473C16.853 26.9684 16.8363 26.9934 16.8249 27.0209C16.8135 27.0484 16.8076 27.0779 16.8076 27.1077Z" fill="#646092"/>
<path d="M23.1587 26.6536C23.1587 26.7137 23.1826 26.7714 23.2251 26.814C23.2677 26.8565 23.3254 26.8804 23.3855 26.8804C23.4457 26.8804 23.5034 26.8565 23.5459 26.814C23.5885 26.7714 23.6123 26.7137 23.6123 26.6536C23.6123 26.5934 23.5885 26.5357 23.5459 26.4932C23.5034 26.4507 23.4457 26.4268 23.3855 26.4268C23.3254 26.4268 23.2677 26.4507 23.2251 26.4932C23.1826 26.5357 23.1587 26.5934 23.1587 26.6536Z" fill="#646092"/>
<path d="M27.4683 25.2932C27.4683 25.3534 27.4922 25.4111 27.5347 25.4536C27.5772 25.4962 27.6349 25.5201 27.6951 25.5201C27.7552 25.5201 27.8129 25.4962 27.8555 25.4536C27.898 25.4111 27.9219 25.3534 27.9219 25.2932C27.9219 25.2331 27.898 25.1754 27.8555 25.1328C27.8129 25.0903 27.7552 25.0664 27.6951 25.0664C27.6349 25.0664 27.5772 25.0903 27.5347 25.1328C27.4922 25.1754 27.4683 25.2331 27.4683 25.2932Z" fill="#646092"/>
<path d="M32.2319 27.5608C32.2319 27.5906 32.2378 27.6201 32.2492 27.6476C32.2606 27.6751 32.2773 27.7001 32.2984 27.7212C32.3194 27.7423 32.3444 27.759 32.372 27.7704C32.3995 27.7818 32.429 27.7876 32.4588 27.7876C32.4886 27.7876 32.518 27.7818 32.5456 27.7704C32.5731 27.759 32.5981 27.7423 32.6192 27.7212C32.6402 27.7001 32.6569 27.6751 32.6683 27.6476C32.6797 27.6201 32.6856 27.5906 32.6856 27.5608C32.6856 27.531 32.6797 27.5015 32.6683 27.474C32.6569 27.4465 32.6402 27.4215 32.6192 27.4004C32.5981 27.3794 32.5731 27.3627 32.5456 27.3513C32.518 27.3399 32.4886 27.334 32.4588 27.334C32.429 27.334 32.3995 27.3399 32.372 27.3513C32.3444 27.3627 32.3194 27.3794 32.2984 27.4004C32.2773 27.4215 32.2606 27.4465 32.2492 27.474C32.2378 27.5015 32.2319 27.531 32.2319 27.5608Z" fill="#646092"/>
<path d="M35.1807 30.7366C35.1807 30.7968 35.2046 30.8544 35.2471 30.897C35.2896 30.9395 35.3473 30.9634 35.4075 30.9634C35.4677 30.9634 35.5253 30.9395 35.5679 30.897C35.6104 30.8544 35.6343 30.7968 35.6343 30.7366C35.6343 30.6764 35.6104 30.6187 35.5679 30.5762C35.5253 30.5337 35.4677 30.5098 35.4075 30.5098C35.3473 30.5098 35.2896 30.5337 35.2471 30.5762C35.2046 30.6187 35.1807 30.6764 35.1807 30.7366Z" fill="#646092"/>
<path d="M17.9414 24.8391C17.9414 24.8993 17.9653 24.957 18.0078 24.9995C18.0504 25.0421 18.1081 25.066 18.1682 25.066C18.2284 25.066 18.2861 25.0421 18.3286 24.9995C18.3712 24.957 18.3951 24.8993 18.3951 24.8391C18.3951 24.779 18.3712 24.7213 18.3286 24.6787C18.2861 24.6362 18.2284 24.6123 18.1682 24.6123C18.1081 24.6123 18.0504 24.6362 18.0078 24.6787C17.9653 24.7213 17.9414 24.779 17.9414 24.8391Z" fill="#646092"/>
<path d="M11.3638 28.0149C11.3638 28.0751 11.3877 28.1328 11.4302 28.1753C11.4727 28.2178 11.5304 28.2417 11.5906 28.2417C11.6508 28.2417 11.7085 28.2178 11.751 28.1753C11.7935 28.1328 11.8174 28.0751 11.8174 28.0149C11.8174 27.9548 11.7935 27.8971 11.751 27.8545C11.7085 27.812 11.6508 27.7881 11.5906 27.7881C11.5304 27.7881 11.4727 27.812 11.4302 27.8545C11.3877 27.8971 11.3638 27.9548 11.3638 28.0149Z" fill="#646092"/>
<path d="M12.7246 29.8294C12.7246 29.8895 12.7485 29.9472 12.791 29.9898C12.8336 30.0323 12.8913 30.0562 12.9514 30.0562C13.0116 30.0562 13.0693 30.0323 13.1118 29.9898C13.1544 29.9472 13.1783 29.8895 13.1783 29.8294C13.1783 29.7692 13.1544 29.7115 13.1118 29.669C13.0693 29.6264 13.0116 29.6025 12.9514 29.6025C12.8913 29.6025 12.8336 29.6264 12.791 29.669C12.7485 29.7115 12.7246 29.7692 12.7246 29.8294Z" fill="#646092"/>
<path d="M55.1182 46.7739C52.1545 52.1819 45.6955 57.6701 34.0703 58.0026H23.1487C17.0019 58.0026 11.8789 56.0208 8.81513 52.7853C8.18931 52.1243 7.10665 50.5206 6.74463 49.4559C6.5708 48.9503 6.42347 48.436 6.30322 47.9151C11.3645 48.7958 14.8939 49.1472 16.8914 48.9689C20.4862 48.6486 23.6625 47.9151 25.4113 46.1719C31.1483 59.7977 48.3658 54.7138 55.1182 46.7739Z" fill="white"/>
<path d="M43.3463 50.9248C41.0961 54.4252 42.1584 56.5942 42.2074 57.9953C42.2561 59.3966 41.5938 61.3723 39.8399 61.5665C38.0865 61.7607 35.6438 60.4707 34.1567 58.4442C32.6694 56.4179 33.4901 53.686 30.417 51.7845" fill="#6ED8E6"/>
<path d="M42.7744 50.5564C41.2521 52.9241 41.0178 54.6525 41.39 56.9839C41.5166 57.7764 41.5195 57.7986 41.5275 58.0187C41.5778 59.4661 40.8669 60.7678 39.7652 60.8899C38.2502 61.0575 36.0373 59.856 34.7054 58.0413C34.3073 57.499 34.1136 56.9854 33.7928 55.7912C33.7375 55.5819 33.6802 55.3731 33.6209 55.1649C33.0958 53.3383 32.3667 52.1903 30.7753 51.2054C30.622 51.115 30.4393 51.0883 30.2665 51.131C30.0937 51.1737 29.9445 51.2824 29.8509 51.4337C29.7572 51.5851 29.7266 51.7671 29.7655 51.9408C29.8045 52.1145 29.9099 52.266 30.0592 52.3629C31.3231 53.1448 31.8734 54.0115 32.313 55.5412C32.3597 55.7039 32.3881 55.8078 32.4786 56.1444C32.842 57.4965 33.079 58.1255 33.6084 58.8466C35.2069 61.0246 37.8676 62.4693 39.9152 62.2424C41.8772 62.0251 42.9599 60.0433 42.8875 57.9712C42.8769 57.6659 42.8746 57.6523 42.7338 56.7693C42.4098 54.7419 42.5995 53.3446 43.9189 51.2923C43.9694 51.2171 44.0043 51.1327 44.0218 51.0439C44.0392 50.955 44.0387 50.8636 44.0204 50.775C44.002 50.6864 43.9662 50.6023 43.9149 50.5277C43.8637 50.4531 43.7981 50.3895 43.722 50.3405C43.6459 50.2916 43.5607 50.2583 43.4716 50.2427C43.3824 50.227 43.2911 50.2293 43.2028 50.2494C43.1146 50.2695 43.0312 50.307 42.9577 50.3598C42.8841 50.4125 42.8218 50.4793 42.7744 50.5564Z" fill="#524F75"/>
<path d="M27.9219 50.2442C27.9219 50.4849 28.0175 50.7156 28.1876 50.8858C28.3578 51.056 28.5886 51.1516 28.8292 51.1516C29.0698 51.1516 29.3006 51.056 29.4708 50.8858C29.6409 50.7156 29.7365 50.4849 29.7365 50.2442C29.7365 50.0036 29.6409 49.7728 29.4708 49.6027C29.3006 49.4325 29.0698 49.3369 28.8292 49.3369C28.5886 49.3369 28.3578 49.4325 28.1876 49.6027C28.0175 49.7728 27.9219 50.0036 27.9219 50.2442Z" fill="#524F75"/>
<path d="M6.71356 37.9953C8.4048 37.9953 9.77576 36.5114 9.77576 34.6811C9.77576 32.8506 8.4048 31.2129 6.71356 31.2129C5.02232 31.2129 3.65137 32.8506 3.65137 34.6811C3.65137 36.5114 5.02232 37.9953 6.71356 37.9953Z" fill="white"/>
<path d="M6.71339 38.6756C4.63382 38.6756 2.9707 36.8755 2.9707 34.6809C2.9707 32.4648 4.64879 30.5322 6.71339 30.5322C8.77799 30.5322 10.4561 32.4648 10.4561 34.6809C10.4561 36.8755 8.79296 38.6756 6.71339 38.6756ZM6.71339 37.3146C8.01629 37.3146 9.09509 36.1469 9.09509 34.6809C9.09509 33.1773 7.98023 31.8932 6.71339 31.8932C5.44655 31.8932 4.33168 33.1773 4.33168 34.6809C4.33168 36.1469 5.41048 37.3146 6.71339 37.3146Z" fill="#524F75"/>
<path d="M5.00612 35.5999C5.17239 35.8166 5.4185 35.9536 5.69296 35.9536C6.19403 35.9536 6.60028 35.4965 6.60028 34.9328C6.60028 34.3692 6.19403 33.9121 5.69296 33.9121C5.19802 33.9121 4.7954 34.3581 4.78564 34.9122L5.45842 35.0222L5.00612 35.5999Z" fill="#232323"/>
<path d="M14.8794 38.2218C17.197 38.2218 19.0758 36.3609 19.0758 34.0654C19.0758 31.7699 16.9781 29.8291 14.6606 29.8291C12.343 29.8291 10.6831 31.7699 10.6831 34.0654C10.6831 36.3609 12.5619 38.2218 14.8794 38.2218Z" fill="white"/>
<path d="M14.8793 38.9031C12.1873 38.9031 10.0024 36.7389 10.0024 34.0662C10.0024 31.3469 12.0081 29.1494 14.6604 29.1494C17.3717 29.1494 19.7561 31.4109 19.7561 34.0662C19.7561 36.7389 17.5713 38.9031 14.8793 38.9031ZM14.8793 37.5421C16.8225 37.5421 18.3951 35.9845 18.3951 34.0662C18.3951 32.1792 16.6356 30.5104 14.6604 30.5104C12.7888 30.5104 11.3634 32.0723 11.3634 34.0662C11.3634 35.9845 12.936 37.5421 14.8793 37.5421Z" fill="#524F75"/>
<path d="M12.7985 35.2194C12.9427 35.3986 13.13 35.5382 13.3429 35.6254C13.5557 35.7125 13.7872 35.7443 14.0156 35.7177C14.2441 35.6912 14.4621 35.6072 14.6493 35.4735C14.8365 35.3399 14.9867 35.161 15.0861 34.9535C15.1854 34.7461 15.2305 34.5169 15.2172 34.2872C15.2039 34.0576 15.1327 33.8351 15.0101 33.6405C14.8875 33.4459 14.7176 33.2855 14.5163 33.1744C14.3149 33.0632 14.0887 33.0049 13.8587 33.0049C13.6746 33.0049 13.4924 33.0422 13.3231 33.1146C13.1539 33.1871 13.0011 33.2931 12.8739 33.4263C12.7468 33.5594 12.6481 33.717 12.5836 33.8895C12.5192 34.062 12.4904 34.2457 12.4991 34.4296L13.405 34.5564L12.7985 35.2194Z" fill="#232323"/>
<path d="M21.4433 19.8586C21.4761 20.0342 21.5768 20.1899 21.7234 20.292C21.8701 20.394 22.051 20.4343 22.2272 20.4041C22.4033 20.3739 22.5605 20.2757 22.6647 20.1305C22.769 19.9854 22.812 19.8051 22.7845 19.6286L21.7524 13.6144C21.3056 11.5072 19.2748 10.1727 17.209 10.6119C15.1433 11.051 13.8304 13.0961 14.2727 15.1768C14.2913 15.2642 14.3269 15.3471 14.3775 15.4208C14.4281 15.4944 14.4928 15.5574 14.5677 15.6061C14.6426 15.6547 14.7264 15.6882 14.8143 15.7045C14.9022 15.7208 14.9924 15.7196 15.0798 15.701C15.1672 15.6824 15.2501 15.6468 15.3238 15.5962C15.3974 15.5456 15.4604 15.481 15.509 15.4061C15.5577 15.3311 15.5912 15.2473 15.6074 15.1595C15.6237 15.0716 15.6226 14.9814 15.604 14.894C15.3173 13.545 16.1643 12.2253 17.4917 11.9431C18.815 11.6619 20.1215 12.517 20.4137 13.8587L21.4435 19.8586H21.4433Z" fill="#524F75"/>
<path d="M18.8809 14.1969C18.8997 14.2861 18.9117 14.3757 18.9163 14.4648C18.9617 15.2939 18.4027 16.0367 17.5959 16.2082C16.6927 16.4003 15.7997 15.8135 15.6041 14.8935L15.5712 14.7384L14.2397 15.0212L14.2729 15.1766C14.624 16.8286 16.2372 17.8886 17.8788 17.5395C19.3464 17.2276 20.3564 15.8845 20.2754 14.3911C20.2666 14.2307 20.2453 14.0712 20.2119 13.9141L18.8807 14.1969H18.8809Z" fill="#524F75"/>
<path d="M18.8913 14.2368L18.8772 14.171C18.8375 13.9843 18.6828 13.8766 18.5492 13.9052C18.4154 13.9335 18.3178 14.095 18.3575 14.2812L18.3716 14.3473C18.3902 14.4347 18.3913 14.5249 18.3751 14.6127C18.3588 14.7006 18.3253 14.7844 18.2766 14.8594C18.228 14.9343 18.165 14.9989 18.0914 15.0495C18.0177 15.1001 17.9348 15.1357 17.8474 15.1543C17.76 15.1729 17.6698 15.1741 17.5819 15.1578C17.494 15.1415 17.4102 15.108 17.3353 15.0594C17.2604 15.0107 17.1957 14.9477 17.1451 14.8741C17.0945 14.8004 17.0589 14.7175 17.0403 14.6301L17.0263 14.5643C16.8344 13.6611 17.3776 12.7626 18.2663 12.5739C19.1551 12.385 20.0166 12.9845 20.2087 13.8879L20.2228 13.9537C20.2413 14.0411 20.2425 14.1314 20.2262 14.2193C20.21 14.3071 20.1765 14.391 20.1278 14.4659C20.0792 14.5409 20.0162 14.6055 19.9425 14.6562C19.8689 14.7068 19.786 14.7424 19.6986 14.761C19.6111 14.7796 19.5209 14.7808 19.433 14.7645C19.3451 14.7482 19.2613 14.7148 19.1863 14.6661C19.1114 14.6174 19.0467 14.5544 18.9961 14.4808C18.9455 14.4071 18.9099 14.3242 18.8913 14.2368Z" fill="#524F75"/>
<path d="M32.0819 10.113C34.9019 10.7126 36.6945 13.5055 36.0902 16.3486C36.0515 16.5239 35.9451 16.6768 35.7942 16.774C35.6432 16.8712 35.46 16.9048 35.2844 16.8676C35.1088 16.8303 34.955 16.7251 34.8566 16.575C34.7582 16.4248 34.7231 16.2419 34.759 16.0659C35.2079 13.9544 33.8804 11.8868 31.7991 11.4443C29.7177 11.0018 27.664 12.3512 27.2153 14.4623L24.5217 22.6281C24.464 22.7981 24.3415 22.9385 24.1808 23.0186C24.0201 23.0987 23.8343 23.112 23.6638 23.0557C23.4933 22.9994 23.352 22.878 23.2707 22.7179C23.1893 22.5579 23.1745 22.3721 23.2294 22.2012L25.8922 14.1415C26.513 11.32 29.2745 9.51648 32.0821 10.113H32.0819Z" fill="#524F75"/>
<path d="M30.5275 15.1373C30.5042 15.2471 30.4901 15.3574 30.4844 15.4676C30.4323 16.4974 31.1531 17.4313 32.1959 17.6529C33.362 17.9008 34.5009 17.1731 34.7432 16.0333L34.7817 15.8512L36.1132 16.134L36.0747 16.3164C35.6752 18.1955 33.8102 19.3874 31.9132 18.9841C30.2177 18.6237 29.0395 17.0974 29.1255 15.3989C29.1346 15.2165 29.1582 15.0348 29.1965 14.8545L30.5275 15.1373Z" fill="#524F75"/>
<path d="M30.5239 15.1305L30.5447 15.0325C30.6423 14.5732 31.0301 14.2931 31.3817 14.3679C31.7335 14.4428 31.9737 14.8563 31.876 15.3154L31.8551 15.4136C31.8365 15.501 31.8354 15.5912 31.8517 15.6791C31.868 15.767 31.9014 15.8508 31.9501 15.9257C31.9987 16.0007 32.0617 16.0653 32.1354 16.1159C32.209 16.1665 32.2919 16.2021 32.3793 16.2207C32.4667 16.2392 32.5569 16.2404 32.6448 16.2241C32.7327 16.2078 32.8165 16.1744 32.8914 16.1257C32.9664 16.077 33.031 16.0141 33.0816 15.9404C33.1322 15.8668 33.1678 15.7839 33.1864 15.6965L33.2072 15.5985C33.4552 14.4321 32.7833 13.2746 31.6648 13.0367C30.5461 12.799 29.4614 13.5833 29.2135 14.7497L29.1926 14.8477C29.174 14.9351 29.1728 15.0253 29.1891 15.1132C29.2054 15.201 29.2389 15.2848 29.2875 15.3598C29.3362 15.4347 29.3992 15.4993 29.4728 15.5499C29.5465 15.6006 29.6294 15.6362 29.7168 15.6547C29.8042 15.6733 29.8944 15.6745 29.9823 15.6582C30.0702 15.6419 30.1539 15.6085 30.2289 15.5598C30.3038 15.5111 30.3685 15.4481 30.4191 15.3745C30.4697 15.3008 30.5053 15.2179 30.5239 15.1305Z" fill="#524F75"/>
<path d="M26.7783 4.15586C26.7783 4.33277 26.813 4.50795 26.8804 4.67141C26.9478 4.83486 27.0467 4.98339 27.1714 5.10849C27.296 5.2336 27.444 5.33285 27.6069 5.40056C27.7698 5.46827 27.9444 5.50312 28.1207 5.50312C28.297 5.50312 28.4716 5.46827 28.6345 5.40056C28.7974 5.33285 28.9454 5.2336 29.07 5.10849C29.1947 4.98339 29.2935 4.83486 29.361 4.67141C29.4284 4.50795 29.4631 4.33277 29.4631 4.15586C29.4631 3.97895 29.4284 3.80376 29.361 3.64031C29.2935 3.47685 29.1947 3.32833 29.07 3.20322C28.9454 3.07811 28.7974 2.97887 28.6345 2.91116C28.4716 2.84345 28.297 2.80859 28.1207 2.80859C27.9444 2.80859 27.7698 2.84345 27.6069 2.91116C27.444 2.97887 27.296 3.07811 27.1714 3.20322C27.0467 3.32833 26.9478 3.47685 26.8804 3.64031C26.813 3.80376 26.7783 3.97895 26.7783 4.15586Z" fill="#7BFFFB"/>
<path d="M28.1207 5.95662C27.1284 5.95662 26.3247 5.15002 26.3247 4.15605C26.3247 3.16186 27.1286 2.49316 28.1207 2.49316C29.1131 2.49316 29.9168 3.16186 29.9168 4.15605C29.9168 5.15002 29.1131 5.95662 28.1207 5.95662ZM28.1207 5.0493C28.6114 5.0493 29.0095 4.64963 29.0095 4.15605C29.0095 3.66224 28.6111 3.30657 28.1207 3.30657C27.6303 3.30657 27.232 3.66224 27.232 4.15605C27.2317 4.27306 27.2544 4.389 27.2989 4.49722C27.3434 4.60545 27.4088 4.70385 27.4913 4.7868C27.5738 4.86976 27.6719 4.93563 27.7799 4.98067C27.8879 5.02571 28.0037 5.04904 28.1207 5.0493Z" fill="#524F75"/>
<path d="M21.6348 8.66797C21.6348 9.25253 21.8662 9.81315 22.2782 10.2265C22.6902 10.6398 23.249 10.8721 23.8316 10.8721C24.4142 10.8721 24.973 10.6398 25.385 10.2265C25.797 9.81315 26.0285 9.25253 26.0285 8.66797C26.0285 8.0834 25.797 7.52278 25.385 7.10943C24.973 6.69608 24.4142 6.46387 23.8316 6.46387C23.249 6.46387 22.6902 6.69608 22.2782 7.10943C21.8662 7.52278 21.6348 8.0834 21.6348 8.66797Z" fill="#7BFFFB"/>
<path d="M23.8318 11.4398C22.305 11.4398 21.0679 10.1986 21.0679 8.66863C21.0679 7.13867 22.3048 5.89746 23.8318 5.89746C25.3588 5.89746 26.5957 7.13867 26.5957 8.66863C26.5957 10.1986 25.3586 11.4398 23.8318 11.4398ZM23.8318 10.1879C24.7314 10.1879 25.4616 9.573 25.4616 8.66841C25.4616 7.76381 24.7314 7.15228 23.8318 7.15228C22.9322 7.15228 22.202 7.76381 22.202 8.66841C22.202 9.573 22.932 10.1879 23.8318 10.1879Z" fill="#524F75"/>
<path d="M20.6758 1.21642C20.6758 1.36116 20.7042 1.50448 20.7594 1.6382C20.8146 1.77192 20.8955 1.89342 20.9975 1.99577C21.0995 2.09811 21.2205 2.1793 21.3538 2.23469C21.487 2.29008 21.6299 2.31858 21.7741 2.31858C21.9183 2.31858 22.0611 2.29008 22.1944 2.23469C22.3276 2.1793 22.4487 2.09811 22.5507 1.99577C22.6527 1.89342 22.7336 1.77192 22.7888 1.6382C22.844 1.50448 22.8724 1.36116 22.8724 1.21642C22.8724 1.07168 22.844 0.928362 22.7888 0.794641C22.7336 0.66092 22.6527 0.53942 22.5507 0.437074C22.4487 0.334729 22.3276 0.253544 22.1944 0.198155C22.0611 0.142766 21.9183 0.114258 21.7741 0.114258C21.6299 0.114258 21.487 0.142766 21.3538 0.198155C21.2205 0.253544 21.0995 0.334729 20.9975 0.437074C20.8955 0.53942 20.8146 0.66092 20.7594 0.794641C20.7042 0.928362 20.6758 1.07168 20.6758 1.21642Z" fill="#7BFFFB"/>
<path d="M21.7739 2.77268C20.9162 2.77268 20.2217 2.07586 20.2217 1.21686C20.2217 0.358082 20.9162 -0.196289 21.7739 -0.196289C22.6313 -0.196289 23.3258 0.358082 23.3258 1.21686C23.3261 2.07586 22.6315 2.77268 21.7739 2.77268ZM21.7739 1.86536C21.8588 1.86512 21.9428 1.84816 22.0212 1.81544C22.0995 1.78272 22.1707 1.73488 22.2305 1.67465C22.2904 1.61443 22.3378 1.54301 22.3701 1.46446C22.4023 1.38591 22.4188 1.30177 22.4185 1.21686C22.4188 1.13196 22.4023 1.04785 22.37 0.969327C22.3377 0.890803 22.2903 0.819405 22.2305 0.759207C22.1706 0.699009 22.0995 0.65119 22.0211 0.618482C21.9428 0.585774 21.8588 0.568817 21.7739 0.568579C21.689 0.568787 21.6049 0.585723 21.5265 0.618417C21.4482 0.651112 21.377 0.698925 21.3171 0.759126C21.2573 0.819328 21.2098 0.890737 21.1775 0.969276C21.1453 1.04781 21.1288 1.13194 21.129 1.21686C21.1286 1.38835 21.1963 1.553 21.3172 1.6746C21.4381 1.79621 21.6024 1.86482 21.7739 1.86536Z" fill="#524F75"/>
<path d="M5.87219 47.7951C8.26388 48.8465 11.5676 49.262 15.7926 49.0611C20.0477 48.8587 23.1695 48.0086 25.1615 46.4734C25.2323 46.4188 25.2916 46.3509 25.3361 46.2734C25.3806 46.1959 25.4094 46.1103 25.4209 46.0217C25.4324 45.9331 25.4263 45.843 25.4029 45.7568C25.3796 45.6705 25.3395 45.5897 25.2849 45.5189C25.2303 45.4481 25.1624 45.3888 25.0849 45.3443C25.0074 45.2998 24.9219 45.271 24.8332 45.2595C24.7446 45.2481 24.6546 45.2542 24.5683 45.2775C24.482 45.3008 24.4012 45.3409 24.3304 45.3955C22.5988 46.7302 19.7301 47.5111 15.7277 47.7017C11.6949 47.8936 8.58915 47.5028 6.41953 46.5492C6.33754 46.5121 6.249 46.4916 6.15904 46.4889C6.06909 46.4863 5.9795 46.5015 5.89547 46.5337C5.81143 46.5659 5.73462 46.6145 5.66948 46.6766C5.60433 46.7387 5.55215 46.813 5.51596 46.8954C5.47976 46.9778 5.46027 47.0666 5.45861 47.1566C5.45695 47.2466 5.47316 47.336 5.50629 47.4196C5.53942 47.5033 5.58881 47.5796 5.65162 47.644C5.71443 47.7085 5.7894 47.7599 5.87219 47.7951Z" fill="#524F75"/>
<path d="M24.0275 45.2529C25.053 45.3112 25.4095 45.6172 25.427 46.627C25.4282 46.7166 25.447 46.8051 25.4825 46.8874C25.518 46.9697 25.5694 47.0442 25.6337 47.1066C25.6981 47.169 25.7741 47.2181 25.8574 47.251C25.9408 47.284 26.0298 47.3001 26.1195 47.2985C26.2091 47.2969 26.2975 47.2776 26.3796 47.2418C26.4618 47.2059 26.536 47.1542 26.5981 47.0896C26.6602 47.025 26.7089 46.9487 26.7415 46.8652C26.774 46.7817 26.7898 46.6926 26.7878 46.603C26.7567 44.8185 25.7918 43.9897 24.1044 43.8942C24.0145 43.888 23.9244 43.8998 23.8391 43.9287C23.7539 43.9577 23.6752 44.0032 23.6077 44.0628C23.5402 44.1224 23.4852 44.1948 23.4458 44.2757C23.4065 44.3567 23.3836 44.4447 23.3785 44.5346C23.3734 44.6245 23.3862 44.7145 23.4162 44.7994C23.4461 44.8843 23.4926 44.9625 23.553 45.0293C23.6134 45.0961 23.6864 45.1502 23.7678 45.1886C23.8493 45.227 23.9375 45.2488 24.0275 45.2529Z" fill="#524F75"/>
<path d="M40.5115 51.3048C39.5275 52.4172 39.1458 54.3554 39.4665 56.0766C39.7659 57.6839 39.716 58.2748 39.3129 58.4461C39.2581 58.4694 39.2084 58.5032 39.1666 58.5457C39.1249 58.5882 39.0919 58.6386 39.0696 58.6938C39.0246 58.8054 39.0257 58.9303 39.0727 59.041C39.1198 59.1518 39.2089 59.2393 39.3205 59.2844C39.432 59.3294 39.557 59.3283 39.6677 59.2813C40.2187 59.0469 40.4984 58.5704 40.5548 57.9019C40.5966 57.4133 40.5315 56.8399 40.3584 55.9103C40.0851 54.4437 40.4112 52.7876 41.1911 51.9057C41.2306 51.8611 41.2609 51.8091 41.2802 51.7528C41.2996 51.6965 41.3077 51.6369 41.304 51.5774C41.3004 51.518 41.285 51.4598 41.2589 51.4063C41.2327 51.3528 41.1963 51.305 41.1516 51.2656C41.1071 51.226 41.0551 51.1956 40.9988 51.1762C40.9425 51.1567 40.8829 51.1486 40.8234 51.1522C40.7639 51.1559 40.7058 51.1712 40.6522 51.1974C40.5987 51.2236 40.5509 51.2601 40.5115 51.3048Z" fill="#52C7D7"/>
<path d="M54.4963 36.7835C54.6274 37.2658 54.5938 37.7424 54.3906 38.2323C54.3369 38.3705 54.3394 38.5243 54.3977 38.6606C54.4559 38.797 54.5652 38.9052 54.7022 38.9619C54.8392 39.0187 54.993 39.0195 55.1306 38.9643C55.2682 38.9091 55.3788 38.8022 55.4385 38.6665C55.7364 37.9467 55.7888 37.2134 55.5907 36.4859C55.5682 36.4027 55.5269 36.3257 55.4701 36.2609C55.4132 36.196 55.3423 36.145 55.2627 36.1117C55.2099 36.0894 55.1509 36.2176 55.0929 36.2122C55.0273 36.2063 54.9622 36.0693 54.8948 36.0876C54.8229 36.1071 54.7556 36.1406 54.6967 36.1861C54.6377 36.2317 54.5884 36.2884 54.5514 36.353C54.5143 36.4176 54.4904 36.4889 54.481 36.5628C54.4715 36.6367 54.4767 36.7117 54.4963 36.7835ZM41.1714 42.3347C41.198 42.4375 41.2338 42.6169 41.2867 42.9036C41.2996 42.9753 41.4078 43.578 41.4427 43.7651C41.5455 44.3199 41.6287 44.7135 41.7133 45.0143C41.7306 45.0757 41.748 45.1334 41.7655 45.1871C41.8838 45.5441 42.0329 45.8901 42.2112 46.2212C42.3167 46.4188 42.6794 47.031 42.7379 47.1476C42.8189 47.3088 42.9607 47.4313 43.1319 47.4881C43.3032 47.545 43.49 47.5315 43.6514 47.4506C43.8126 47.3696 43.9351 47.2279 43.9919 47.0566C44.0487 46.8854 44.0352 46.6985 43.9544 46.5372C43.8693 46.368 43.4948 45.7363 43.4121 45.5811C43.2703 45.3189 43.1518 45.0448 43.058 44.7618C43.0469 44.7285 43.0353 44.6895 43.023 44.6459C42.9529 44.3964 42.8761 44.0335 42.7806 43.5174C42.7468 43.3346 42.6388 42.7342 42.625 42.6587C42.5667 42.3404 42.5263 42.1406 42.4893 41.9961C42.4415 41.8245 42.3283 41.6786 42.1741 41.5895C42.0199 41.5005 41.8369 41.4754 41.6644 41.5197C41.492 41.564 41.3437 41.6742 41.2516 41.8266C41.1594 41.979 41.1306 42.1614 41.1714 42.3347Z" fill="#524F75"/>
</g>
<defs>
<clipPath id="clip0_2087_295">
<rect width="64" height="62" fill="white"/>
</clipPath>
</defs>
</svg>
